<svg version="1.1" xmlns="http://www.w3.org/2000/svg" style="display: block;" viewBox="0 0 1024 1100" width="256" height="275" preserveAspectRatio="none">
<path transform="translate(0,0)" fill="rgb(49,70,88)" d="M 818.574 274.318 C 820.671 273.821 823.371 274.044 825.463 274.563 C 834.266 276.75 839.44 283.356 843.872 290.734 C 844.925 313.094 841.262 335.726 838.851 357.931 C 836.261 381.778 834.231 405.382 832.634 429.317 C 831.834 441.323 831.504 449.335 824.247 459.326 C 806.743 483.424 781.156 506.272 759.588 526.976 L 656.809 623.906 L 503.852 766.999 C 481.423 788.008 460.04 810.424 436.925 830.651 C 450.312 842.553 462.898 855.24 475.529 867.919 C 482.568 874.985 490.272 881.892 496.472 889.694 C 500.057 894.205 505.115 900.599 504.091 906.687 C 503.092 912.627 498.028 917.25 493.221 920.346 C 479.058 929.464 393.392 957.611 378.306 953.439 C 369.786 951.083 331.075 908.096 326.499 899.586 C 319.687 909.784 309.945 920.922 300.736 929.003 C 292.793 935.971 287.492 938.335 277.196 937.681 C 276.698 965.209 272.289 987.927 253.656 1009.22 C 236.898 1028.36 213.066 1041.62 187.455 1043.19 C 153.903 1045.26 129.863 1039.18 104.542 1016.84 C 103.989 1016.36 103.447 1015.86 102.917 1015.35 C 83.6047 996.874 72.1252 972.106 71.7298 945.327 C 71.2939 915.805 82.187 888.923 102.8 867.895 C 126.552 843.664 153.945 839.304 186.725 838.9 C 195.229 830.814 201.201 820.038 208.173 810.661 C 212.67 804.614 217.865 799.377 223.249 794.124 C 211.209 784.879 200.593 772.849 189.501 762.438 C 177.99 751.634 165.544 741.639 153.745 731.117 L 151.846 722.967 C 155.995 710.025 203.904 620.928 211.455 614.743 C 214.58 612.184 218.556 611.641 222.46 612.155 C 228.274 612.919 233.801 616.15 238.268 619.808 C 250.978 630.215 261.39 645.574 272.303 657.947 C 279.084 665.635 286.819 672.59 293.118 680.655 C 307.617 662.289 325.284 646.685 341.38 629.766 L 449.661 516.745 C 462.718 503.083 474.669 488.31 487.356 474.299 C 503.879 456.053 521.292 438.288 538.239 420.394 C 545.931 412.273 555.333 405.971 562.959 397.775 C 581.248 378.117 635.977 311.325 657.072 300.978 C 667.33 295.947 695.616 294.026 708.23 292.086 C 745.028 286.427 782.011 281.344 818.574 274.318 z M 191.014 997.451 C 221.708 988.722 239.632 956.887 231.176 926.117 C 222.72 895.347 191.045 877.141 160.201 885.324 C 129.357 893.506 110.871 925.018 118.779 955.933 C 122.667 971.133 132.533 984.117 146.135 991.935 C 159.738 999.754 175.923 1001.74 191.014 997.451 z M 251.178 822.53 C 244.766 833.444 238.047 843.859 228.119 851.936 C 243.227 862.792 256.572 875.948 265.994 892.127 C 267.501 894.715 269.408 900.382 272.488 900.298 L 273.323 899.504 C 281.15 889.404 290.251 880.537 299.653 871.916 C 283.375 855.572 267.216 839.109 251.178 822.53 z M 368.005 755.199 C 381.592 767.299 397.75 782.282 407.653 797.588 C 418.428 788.999 427.499 778.357 437.185 768.579 C 447.944 757.716 459.315 747.352 470.614 737.051 C 486.307 722.745 502.387 708.822 517.798 694.213 C 533.006 679.797 547.555 664.697 562.897 650.421 C 577.132 637.174 592.225 624.839 606.295 611.42 C 625.201 593.389 643.037 574.251 662.045 556.319 C 678.47 540.825 695.592 526.079 712.11 510.675 C 726.422 497.161 740.471 483.372 754.251 469.316 C 764.924 458.623 775.607 446.74 788.144 438.235 C 787.985 418.094 791.84 399.33 793.441 379.435 C 794.675 364.097 794.047 348.59 795.634 333.294 C 795.89 330.824 796.044 328.845 797.483 326.722 C 798.34 325.458 799.182 324.193 800.069 322.948 L 799.001 321.967 L 796.679 322.215 C 773.943 326.756 688.848 335.642 676.017 343.06 C 658.239 353.337 619.963 400.583 604.772 417.409 C 594.907 428.335 584.285 438.604 573.931 449.066 C 527.24 496.244 482.832 545.668 436.207 592.933 C 407.253 622.285 378.703 651.679 350.341 681.601 C 342.553 689.816 329.465 700.73 323.473 709.672 C 323.243 710.016 323.024 710.366 322.811 710.721 C 326.882 715.542 332.559 719.633 337.13 724.109 C 347.572 734.335 357.635 744.918 368.005 755.199 z M 227.402 671.641 C 224.097 678.798 204.3 710.555 206.757 715.805 C 209.571 721.818 233.741 742.826 240.319 749.378 L 349.747 859.199 C 366.363 876.008 386.762 894.042 401.395 912.314 C 407.616 908.695 414.217 906.696 421.218 905.156 C 430.944 902.626 440.714 899.858 450.816 899.488 C 441.081 889.744 430.666 880.703 420.844 871.034 C 365.763 816.806 310.264 762.409 258.563 704.942 C 252.284 697.962 234.456 675.674 227.402 671.641 z"/>
<path transform="translate(0,0)" fill="rgb(49,70,88)" d="M 520.471 126.476 C 521.487 126.53 522.5 126.641 523.504 126.806 C 528.145 127.527 533.052 129.194 535.759 133.287 C 538.528 137.472 538.183 146.922 538.347 151.89 C 538.924 169.308 538.231 186.863 538.088 204.291 L 537.865 286.144 L 538.035 354.013 C 538.079 370.832 539.509 389.016 535.755 405.465 C 529.337 411.07 522.415 415.978 513.645 416.679 C 509.207 413.431 503.813 411.415 499.596 407.818 C 492.461 401.733 492.609 392.262 492.096 383.594 C 491.198 368.428 491.817 353.014 491.892 337.821 L 491.912 269.655 L 491.832 194.011 C 491.812 179.123 491.262 164.044 492.225 149.191 C 492.552 144.14 492.49 136.841 496.039 132.995 C 501.86 126.687 512.498 126.758 520.471 126.476 z"/>
<path transform="translate(0,0)" fill="rgb(49,70,88)" d="M 179.936 17.1286 C 206.409 15.9513 233.058 16.4648 259.555 16.5322 L 360.468 16.505 L 633.636 16.437 L 779.216 16.5057 C 796.679 16.4711 814.142 16.5854 831.602 16.8485 C 840.038 16.9537 848.916 16.512 857.296 17.3631 C 854.861 45.3197 861.304 94.9054 880.093 116.793 C 880.165 116.877 880.252 116.948 880.331 117.025 C 901.037 149.164 932.411 169.13 969.423 177.074 C 982.547 179.891 1000.59 182.824 1013.72 179.515 C 1014.84 234.175 1013.55 288.995 1013.6 343.676 C 1013.64 388.788 1016.09 435.107 1012.6 480.034 C 999.983 642.575 932.869 779.633 820.642 896.684 C 787.149 931.618 743.005 969.748 703.195 996.821 C 674.732 1016.18 644.783 1033.06 614.814 1049.92 C 586.208 1066.02 550.312 1085.3 519.06 1094.83 C 506.455 1091.15 494.305 1087.2 482.277 1081.84 C 464.727 1074.01 377.181 1028.39 369.249 1014.53 C 366.789 1010.23 366.719 1003.76 368.061 999.1 C 369.784 993.117 375.251 986.186 380.751 983.208 C 385.722 980.515 391.827 980.628 397.118 982.279 C 414.225 987.614 432.906 1002.48 448.698 1011.65 C 470.65 1024.2 493.223 1035.63 516.33 1045.9 C 526.27 1040.79 536.86 1036.91 547.058 1032.33 C 572.167 1021.06 597.105 1009.58 620.998 995.867 C 714.815 942.031 804.219 861.162 864.995 771.629 C 874.608 757.468 885.48 742.693 892.611 727.122 C 896.056 724.056 899.094 716.251 901.368 711.986 C 924.033 669.472 946.477 610.712 954.405 563.125 C 956.779 550.377 959.719 537.532 961.326 524.668 C 963.936 503.774 964.324 482.619 965.195 461.6 C 967.353 409.563 967.084 357.786 967.025 305.707 C 966.995 278.87 965.501 251.059 967.566 224.358 C 959.153 224.364 951.081 221.541 943.143 219.021 C 912.101 209.166 884.489 193.761 861.341 170.525 C 832.001 141.603 815.62 102.036 815.929 60.839 C 782.407 68.581 745.078 60.9445 710.909 60.2091 C 656.944 59.3482 602.972 58.9681 549 59.0691 C 518.172 59.1519 487.129 58.648 456.33 59.6842 C 437.034 60.3334 417.861 62.6587 398.578 63.4696 C 367.728 64.767 336.614 64.0417 305.728 64.1515 C 277.33 64.2525 248.482 65.3071 220.152 63.9337 C 217.551 109.505 193.1 148.817 159.727 178.646 C 131.878 203.537 99.6793 216.018 63.9065 224.761 C 67.1134 286.947 64.9879 350.057 64.973 412.358 C 64.9661 441.384 64.196 471.312 67.0976 500.213 C 69.5039 524.181 74.2209 547.552 79.9614 570.917 C 82.689 582.019 85.0071 594.281 89.4904 604.828 C 96.8264 630.156 121.269 688.295 137.378 708.588 C 141.498 716.367 152.361 730.585 153.578 738.388 C 154.874 746.692 149.182 753.912 144.547 760.187 C 144.386 760.253 144.225 760.32 144.063 760.384 C 136.432 763.375 125.304 766.12 117.567 762.574 C 103.137 755.959 68.9592 681.363 61.5095 663.996 C 55.0544 648.947 49.5072 633.47 43.5514 618.216 C 41.4976 607.918 37.6279 597.767 35.0646 587.552 C 28.6457 561.972 23.0118 534.99 19.9174 508.801 C 14.6899 464.557 17.8839 413.26 17.9769 368.102 L 17.8599 232.4 C 17.7914 215.075 17.0569 197.747 17.2532 180.427 C 27.1299 180.201 37.0118 180.364 46.8334 179.132 C 89.645 173.764 123.375 152.42 149.637 118.697 C 162.941 102.103 170.269 80.0399 175.916 59.8274 C 176.046 45.9385 178.689 31.0391 179.936 17.1286 z"/>
</svg>