<?xml version="1.0" encoding="UTF-8" standalone="no"?>
<svg
   version="1.1"
   style="display: block;"
   viewBox="0 0 1024 1324"
   width="256"
   height="331"
   preserveAspectRatio="none"
   id="svg4"
   sodipodi:docname="buntownik.svg"
   inkscape:version="1.4 (86a8ad7, 2024-10-11)"
   xmlns:inkscape="http://www.inkscape.org/namespaces/inkscape"
   xmlns:sodipodi="http://sodipodi.sourceforge.net/DTD/sodipodi-0.dtd"
   xmlns="http://www.w3.org/2000/svg"
   xmlns:svg="http://www.w3.org/2000/svg">
  <sodipodi:namedview
     id="namedview4"
     pagecolor="#ffffff"
     bordercolor="#000000"
     borderopacity="0.25"
     inkscape:showpageshadow="2"
     inkscape:pageopacity="0.0"
     inkscape:pagecheckerboard="0"
     inkscape:deskcolor="#d1d1d1"
     inkscape:zoom="1.8906027"
     inkscape:cx="112.92695"
     inkscape:cy="175.34091"
     inkscape:window-width="1920"
     inkscape:window-height="1129"
     inkscape:window-x="2552"
     inkscape:window-y="227"
     inkscape:window-maximized="1"
     inkscape:current-layer="svg4" />
  <defs
     id="defs2">
    <linearGradient
       id="Gradient1"
       gradientUnits="userSpaceOnUse"
       x1="577.498"
       y1="1310.79"
       x2="577.503"
       y2="1315.19">
      <stop
         class="stop0"
         offset="0"
         stop-opacity="0.968627"
         stop-color="rgb(134,146,152)"
         id="stop1" />
      <stop
         class="stop1"
         offset="1"
         stop-opacity="1"
         stop-color="rgb(138,146,149)"
         id="stop2" />
    </linearGradient>
  </defs>
  <g
     id="g5"
     style="fill:#324758">
    <path
       id="path2"
       transform="translate(0,0)"
       d="m 214.723,190.38 c 1.915,-14.866 4.779,-29.645 7.054,-44.464 5.874,-38.259 10.812,-79.8737 42.516,-106.3192 24.288,-20.259 57.566,-30.86121 89.01,-28.0101 47.843,4.3381 73.474,28.5688 102.85,63.9586 9.416,-11.0517 21.734,-20.1425 34.786,-26.4411 33.34,-16.0889 61.32,-13.9155 95.564,-1.8158 32.438,11.4615 55.21,40.2867 69.713,70.4056 5.005,-4.771 10.6,-8.114 16.945,-10.796 31.275,-13.2229 73.082,-9.7428 103.901,3.018 33.024,13.674 46.061,42.973 59.073,74.09 11.139,-5.822 21.26,-11.801 33.814,-13.975 32.956,-5.705 67.896,1.055 95.361,20.481 25.232,17.846 41.27,41.262 46.55,71.871 9.81,30.064 5.92,82.665 5.55,115.131 -0.37,31.217 0.85,62.48 -4.09,93.407 -0.84,8.661 -1.47,17.171 -1.45,25.877 -2.39,16.449 -1.41,33.005 -2.7,49.506 -1.38,17.749 -3.89,35.569 -5.97,53.255 -3.17,27.026 -6.069,54.292 -12.446,80.786 -13.213,59.962 -25.29,119.11 -55.601,173.397 -6.465,11.52 -13.406,22.766 -20.804,33.71 -8.042,11.737 -23.418,26.529 -27.312,39.781 -3.452,11.744 -0.171,55.013 -0.126,70.207 l 0.046,190.22 c 0.002,27.66 3.683,78.32 -9.492,102.53 -3.065,5.63 -7.953,10.14 -13.294,13.59 -13.568,8.77 -37.864,13.79 -53.81,12.12 -8.494,-1.1 -16.305,-4.53 -24.879,-5.34 -27.448,-2.57 -56.606,-1.34 -84.228,-1.37 l -143.851,-0.04 -117.384,0.05 c -22.904,0 -46.839,-1.3 -69.572,1.35 -5.799,0.68 -10.724,3.6 -16.617,4.54 -17.736,-0.34 -39.936,-3.41 -53.617,-15.54 -14.327,-12.7 -16.335,-29.54 -17.289,-47.45 2.799,-56.36 1.167,-113.41 1.237,-169.85 l 0.096,-92.076 c 0.016,-18.115 0.51,-36.375 -0.346,-54.468 -0.297,-6.257 -0.516,-13.738 -3.024,-19.543 -1.089,-4.103 -3.51,-7.777 -6.049,-11.128 -8.64,-11.398 -19.751,-21.239 -29.029,-32.197 l -78.162,-93.89 C 141.945,747.855 118.53,715.057 93.307,683.612 71.5348,656.469 39.8545,621.953 22.578,592.846 2.85033,559.609 4.34162,517.669 13.6887,481.529 30.1575,417.854 59.1097,356.183 85.011,295.906 c 9.6355,-22.424 19.052,-50.077 31.929,-70.599 6.526,-10.402 15.171,-19.473 25.816,-25.699 20.611,-12.056 49.008,-15.165 71.967,-9.228 z m 122.682,1069.5 c 18.308,2.51 37.823,1.21 56.312,1.18 l 95.753,-0.12 341.916,0.13 c -2.968,-19.75 -1.348,-41.37 -1.382,-61.39 l -0.015,-112.22 0.025,-103.632 c -0.015,-21.065 -1.398,-43.409 1.493,-64.309 1.443,-10.428 7.935,-21.234 14.092,-29.558 10.921,-14.763 24.633,-27.545 34.462,-43.094 47.916,-75.8 60.846,-174.194 71.374,-261.706 1.675,-13.926 2.303,-28.04 4.238,-41.922 0.886,-6.005 3.834,-15.828 0.255,-21.134 -2.187,0.406 -3.331,1.702 -4.721,3.329 -4.26,4.986 -7.725,11.019 -11.539,16.379 -8.577,12.054 -18.98,24.626 -30.271,34.206 -38.661,32.807 -91.36,29.635 -131.693,1.857 -17.684,-12.179 -29.006,-28.084 -39.739,-46.287 -24.409,16.599 -55.152,26.384 -84.642,20.821 -33.431,-6.307 -61.569,-26.378 -80.528,-54.291 -3.242,-4.773 -6.082,-9.495 -8.323,-14.823 -15.738,14.762 -39.65,23.039 -60.023,28.802 -5.296,1.498 -10.565,2.55 -16.068,2.816 -0.456,0.022 -3.631,-0.048 -3.819,0.113 -0.17,0.145 -0.13,0.427 -0.194,0.641 l -0.195,0.64 c 8.11,10.678 18.883,19.527 27.255,30.309 56.066,72.2 85.583,137.881 73.075,231.138 -1.541,11.49 -1.848,34.606 -11.522,41.844 -6.697,5.01 -15.632,6.468 -23.771,5.23 -5.687,-0.865 -12.669,-3.021 -16.245,-7.898 -2.661,-3.63 -3.351,-8.874 -3.504,-13.25 -0.421,-12.014 1.539,-24.644 2.468,-36.64 2.238,-28.885 3.199,-61.592 -5.119,-89.583 -12.603,-42.408 -40.412,-79.011 -68.912,-112.061 -25.755,-29.868 -56.902,-58.295 -91.946,-76.64 -25.488,-13.342 -54.625,-24.046 -82.758,-30.087 -17.133,-3.679 -38.957,-5.837 -54.799,-12.518 -6.035,-2.546 -10.625,-6.85 -14.082,-12.338 -0.972,-8.89 -1.83,-18.871 4.282,-26.267 4.287,-5.188 11.662,-8.639 18.336,-9.115 7.399,-0.528 15.452,1.948 22.721,3.19 l 47.885,8.174 c 46.802,8.081 91.735,5.305 135.263,-14.735 14.466,-6.66 28.931,-15.154 39.692,-27.121 8.57,-9.529 11.595,-19.978 10.771,-32.582 -0.846,-12.948 -7.594,-24.271 -17.228,-32.719 -9.199,-8.067 -20.856,-11.639 -32.434,-14.93 -11.478,-3.263 -23.478,-4.952 -35.164,-7.33 l -75.492,-14.901 -78.663,-15.687 c -19.504,-3.822 -46.049,-10.932 -65.444,-9.51 l -0.504,0.04 c -10.844,1.306 -19.926,2.314 -27.053,11.566 -14.463,18.772 -20.866,46.27 -29.993,68.113 -20.287,48.553 -79.5962,175.117 -72.8146,220.876 1.5593,10.522 7.5966,20.299 13.3259,29.051 20.698,31.619 46.3657,60.121 69.8057,89.706 37.059,46.772 73.198,94.073 111.567,139.818 9.089,10.837 19.132,20.854 28.397,31.537 6.915,7.974 13.137,16.536 19.763,24.748 12.383,15.344 24.09,28.062 29.977,47.463 7.818,25.762 5.194,55.592 5.613,82.353 0.981,62.678 0.213,125.258 0.07,187.938 -0.065,28.57 -2.364,57.96 0.413,86.39 z M 335.323,64.2421 c -17.543,2.5514 -31.679,10.1628 -42.395,24.5159 -16.557,22.174 -16.757,56.543 -21.217,82.989 -1.486,8.811 -4.66,17.937 -4.973,26.845 8.65,3.39 19.064,4.373 28.205,6.228 20.845,4.232 42.338,9.377 63.461,11.765 14.146,2.334 28.514,4.306 42.403,7.916 4.445,-16.259 7.993,-32.313 11.484,-48.788 5.406,-25.509 12.394,-48.994 -1.531,-73.332 -10.111,-17.6733 -31.233,-31.1276 -50.595,-36.3082 -8.241,-2.2049 -16.357,-2.4891 -24.842,-1.8307 z m 191.859,29.1391 c -14.987,1.5818 -26.844,9.5148 -36.185,21.0908 -17.944,22.236 -32.909,91.705 -38.275,121.113 25.606,3.373 52.93,17.587 68.78,38.234 17.685,22.744 25.517,51.626 21.745,80.188 -3.635,26.769 -22.036,51.551 -43.13,67.576 -8.562,6.387 -17.737,11.908 -27.392,16.479 -6.271,3.006 -14.053,5.693 -19.599,9.82 -1.664,1.238 -2.663,2.685 -3.15,4.701 21.813,7.836 41.755,12.412 63.77,1.92 21.647,-10.316 33.972,-33.228 41.547,-54.907 12.96,-37.083 19.01,-80.322 27.691,-118.999 4.039,-18.714 8.304,-37.379 12.791,-55.991 5.106,-21.168 11.355,-43.144 12.638,-64.964 0.673,-11.027 -1.503,-22.043 -6.319,-31.986 -7.069,-14.55 -19.252,-26.484 -34.723,-31.729 -12.928,-4.3828 -26.789,-3.519 -40.189,-2.5458 z M 894.869,218.299 c -22.171,3.701 -42.573,10.411 -56.283,29.475 -13.581,18.885 -30.493,119.096 -36.683,147.871 -4.453,20.7 -10.484,41.099 -13.725,62.043 -2.138,13.82 -4.782,30.104 -2.439,43.964 2.252,13.315 13.212,27.384 24.192,34.861 11.771,8.016 25.089,8.822 38.782,7.305 22.714,-4.512 38.758,-18.06 51.417,-37.078 6.7,-10.067 12.744,-20.925 16.763,-32.36 6.4,-18.213 10.113,-37.36 14.367,-56.148 l 12.664,-53.634 c 4.892,-21.104 11.972,-42.162 15.158,-63.583 1.39,-9.344 1.832,-18.747 -0.081,-28.051 -3.556,-17.3 -14.207,-33.541 -29.001,-43.273 -8.527,-5.608 -24.746,-13.047 -35.131,-11.392 z M 719.056,148.386 c -18.78,2.101 -36.66,6.738 -48.991,22.296 -5.004,6.313 -8.399,15.537 -10.89,23.147 -9.465,28.911 -15.075,59.292 -22.234,88.842 -9.592,39.592 -21.236,80.268 -26.607,120.672 -1.941,14.604 -1.849,31.842 0.001,46.501 1.974,15.634 8.528,28.933 21.207,38.637 12.038,9.214 29.252,14.244 44.369,12.961 19.504,-3.124 36.69,-12.167 48.375,-28.462 5.122,-7.142 8.154,-17.019 10.563,-25.378 10.651,-36.968 16.872,-76.009 25.132,-113.621 7.85,-35.745 18.137,-71.354 23.586,-107.551 1.227,-8.155 2.346,-18.691 0.775,-26.802 -3.256,-16.811 -13.082,-30.941 -27.341,-40.244 -10.137,-6.613 -25.678,-12.714 -37.945,-10.998 z m 294.264,322.535 c -0.48,-0.968 -0.92,-1.949 -1.37,-2.935 -0.51,-1.105 -0.95,-2.152 -1.23,-3.337 -2.34,-10.077 -1.42,-22.981 -1.7,-33.339 -1.03,-37.151 -1.08,-75.254 0.18,-112.42 0.35,-10.514 2.25,-21.022 2.45,-31.499 0.16,-8.611 -4.76,-16.679 0.21,-25.008 9.81,30.064 5.92,82.665 5.55,115.131 -0.37,31.217 0.85,62.48 -4.09,93.407 z M 353.83,1315.09 c 5.893,-0.94 10.818,-3.86 16.617,-4.54 22.733,-2.65 46.668,-1.35 69.572,-1.35 l 117.384,-0.05 143.851,0.04 c 27.622,0.03 56.78,-1.2 84.228,1.37 8.574,0.81 16.385,4.24 24.879,5.34 -95.453,3.21 -191.478,1.49 -287.001,1.52 l -101.335,-0.18 c -22.574,-0.09 -45.781,0.74 -68.195,-2.15 z"
       style="fill:#324758" />
  </g>
</svg>
