<svg version="1.1" xmlns="http://www.w3.org/2000/svg" style="display: block;" viewBox="0 0 1228 1024" width="307" height="256" preserveAspectRatio="none">
<path transform="translate(0,0)" fill="rgb(49,70,88)" d="M 749.276 9.98978 C 763.233 10.0308 777.553 9.48266 791.408 11.1419 C 810.641 13.3116 830.558 15.4397 849.051 21.3354 C 861.863 25.4201 874.05 31.3353 886.783 35.5436 C 888.201 37.4537 925.708 54.9692 931.236 58.1676 C 945.904 66.6548 959.928 76.2939 974.149 85.504 C 985.532 92.8765 997.318 99.6368 1008.62 107.135 C 1023.22 116.828 1037.38 127.318 1051.74 137.382 C 1063.61 123.374 1084.18 114.062 1101.94 110.512 C 1128.94 105.113 1155.86 112.411 1178.47 127.699 C 1197.51 140.574 1212.33 162.115 1216.61 184.805 C 1221.38 210.039 1219.62 239.162 1204.81 260.793 C 1190.07 282.314 1168.86 299.23 1142.81 304.077 C 1093.62 313.229 1047.58 290.711 1028.69 243.774 C 1026.86 239.234 1022.69 217.253 1020.67 215.859 C 1007.69 218.06 994.383 219.786 981.752 223.58 C 941.141 235.777 913.233 271.979 896.897 309.56 C 891.338 322.348 887.923 336.138 881.324 348.446 C 910.15 331.395 940.197 325.21 973.359 324.328 C 1022.53 323.02 1061.38 335.463 1097.54 369.884 C 1140.46 410.741 1160.99 469.586 1165.48 527.745 C 1166.78 544.611 1166.24 561.754 1166.28 578.667 C 1166.38 598.201 1166.72 617.732 1167.3 637.257 C 1187.08 646.362 1206.97 665.313 1216 685.262 C 1226.44 708.314 1227.38 739.228 1218.47 762.894 C 1209.84 785.827 1191.73 806.271 1169.19 816.317 C 1145.41 826.921 1114.37 827.043 1090.19 817.642 C 1067.75 808.921 1048.25 789.742 1038.69 767.682 C 1029.11 745.583 1029.17 709.303 1038.04 687.044 C 1045.59 668.097 1061.55 650.28 1080.36 642.188 C 1068.87 630.491 1057.73 609.059 1046.1 594.989 C 1035.34 581.966 1021.28 570.604 1003.78 569.098 C 992.425 568.12 981.924 572.228 973.41 579.621 C 930.489 616.891 922.341 710.583 918.949 764.791 C 928.394 769.131 937.938 777.934 943.882 786.406 C 956.974 805.066 955.175 827.993 954.932 849.655 C 954.797 861.677 954.95 874.006 952.851 885.881 C 947.06 918.634 926.408 941.468 899.766 959.939 C 811.133 1021.39 648.184 1023.87 543.736 1015.01 C 523.316 1013.28 502.809 1012.15 482.614 1008.48 C 422.978 997.636 349.204 977.376 312.945 924.61 C 307.582 916.89 303.646 908.27 301.326 899.16 C 295.54 877.124 294.843 836.094 299.029 813.627 C 302.849 793.118 314.313 777.276 331.472 765.513 C 327.884 743.743 327.469 721.111 325.524 699.127 C 320.905 646.898 310.198 560.469 282.825 516.161 C 272.474 499.406 257.894 487.526 238.472 482.992 C 216.854 477.946 200.906 486.099 183.11 497.194 C 192.845 514.154 199.361 532.334 200.077 551.986 C 201.134 580.967 195.392 603.646 175.135 625.196 C 156.671 644.838 131.014 653.303 104.443 653.853 C 79.4524 654.484 55.2348 645.16 37.1187 627.934 C 17.9956 609.646 6.46786 586.625 5.88347 559.993 C 5.21022 529.311 16.2403 503.506 38.261 482.525 C 43.3022 477.722 48.4882 472.608 54.6507 469.266 C 63.1017 464.684 80.6774 462.986 85.8216 454.849 C 90.3276 447.721 92.8666 430.725 96.0657 421.697 C 110.295 381.541 130.299 343.308 160.021 312.477 C 207.364 263.367 280.063 249.14 345.595 260.886 C 377.718 266.644 411.113 279.19 439.989 294.251 C 449.04 298.971 458.241 304.044 466.581 309.949 C 469.898 312.298 477.408 319.409 480.901 320.362 C 481.463 320.515 482.066 320.339 482.648 320.327 C 485.196 281.411 495.953 244.762 509.753 208.453 C 519.254 183.457 530.819 160.555 544.934 137.834 C 577.235 85.8375 615.012 51.6786 671.035 26.5417 C 679.274 24.0241 687.242 20.7753 695.589 18.536 C 713.043 13.8534 731.32 11.7758 749.276 9.98978 z M 514.326 365.41 C 510.734 370.598 506.202 375.621 499.704 376.9 C 493.217 378.177 485.811 373.631 480.762 370.064 C 469.578 362.16 459.937 352.465 448.432 344.843 C 395.204 309.58 331.515 290.34 267.552 300.937 C 221.663 308.539 192.04 331.714 165.661 368.788 C 159.66 377.296 154.236 386.195 149.424 395.427 C 143.966 406.061 126.684 446.276 128.292 456.775 C 128.472 457.947 128.535 458.401 129.526 459.046 C 136.743 463.747 145.282 466.708 152.921 470.714 C 163.225 460.906 175.203 451.951 188.687 447.008 C 205.346 441.505 221.724 439.068 239.197 442.196 C 265.446 445.421 290.596 461.293 306.631 481.923 C 347.3 534.245 354.848 617.238 362.759 681.191 C 365.491 703.278 370.235 726.983 368.288 749.242 C 394.291 742.51 419.735 734.416 446.118 728.993 C 530.931 711.56 613.779 711.791 699.837 715.072 C 724.38 718.982 749.463 719.774 774.009 723.876 C 787.071 727.264 801.305 728.909 814.629 731.645 C 836.727 736.305 858.576 742.072 880.094 748.925 C 887.427 683.167 893.451 598.63 945.171 550.719 C 962.303 534.848 982.151 529.103 1005.29 530.112 C 1042.24 531.724 1070.02 557.164 1090.44 586.161 C 1102.19 602.85 1111.55 619.944 1125.51 635.113 C 1134.18 607.632 1128.46 539.635 1123.17 510.37 C 1114.1 460.255 1095.01 414.785 1051.57 384.87 C 1000.92 349.985 934.929 358.653 885.032 390.211 C 875.265 396.388 865.442 410.497 853.848 412.417 C 848.399 413.32 841.938 411.51 837.513 408.277 C 834.595 406.145 833.587 403.585 833.164 400.093 C 831.662 387.687 836.358 373.193 839.408 361.204 C 848.678 324.752 862.81 276.947 886.06 247.145 C 928.083 193.28 962.615 182.387 1028.63 174.841 C 1025.79 170.766 1022.99 166.656 1019.22 163.374 C 1001.98 148.378 980.664 136.945 961.276 124.891 C 929.061 104.861 897.399 82.7976 861.963 68.6959 C 838.105 59.2018 813.149 53.768 787.969 49.2211 C 772.616 47.9394 758.096 47.7271 742.739 49.432 C 727.252 53.2372 711.772 55.2173 696.548 60.3005 C 647.31 76.7408 606.008 114.515 579.432 158.474 C 541.156 221.786 520.286 291.854 514.326 365.41 z M 338.908 816.143 C 338.869 841.865 337.463 868.424 341.539 893.865 C 430.39 870.903 521.674 858.68 613.436 857.459 C 636.085 856.977 661.298 855.852 683.758 858.841 C 745.078 863.97 805.509 868.184 865.788 881.56 C 879.786 884.666 894.617 887.409 907.846 893.061 C 915.696 870.549 915.408 836.935 912.816 813.359 C 874.668 774.336 716.335 756.637 659.997 756.03 C 632.821 755.738 597.02 753.994 570.473 756.421 C 523.076 759.92 373.079 776.009 341.97 812.249 C 340.899 813.507 339.878 814.806 338.908 816.143 z M 1114.85 671.81 C 1084.77 678.486 1065.6 708.062 1071.8 738.247 C 1078 768.433 1107.27 788.065 1137.55 782.346 C 1157.57 778.566 1173.99 764.288 1180.53 744.99 C 1187.06 725.692 1182.68 704.372 1169.07 689.209 C 1155.46 674.047 1134.74 667.396 1114.85 671.81 z M 92.3367 500.232 C 61.2037 506.821 41.3454 537.447 48.0319 568.559 C 54.7184 599.672 85.406 619.434 116.497 612.651 C 147.452 605.897 167.108 575.374 160.451 544.399 C 153.794 513.424 123.333 493.672 92.3367 500.232 z M 1117.63 150.052 C 1085.52 151.814 1060.97 179.342 1062.86 211.442 C 1064.76 243.543 1092.39 267.985 1124.48 265.953 C 1156.39 263.932 1180.65 236.501 1178.77 204.591 C 1176.88 172.681 1149.55 148.3 1117.63 150.052 z M 877.874 927.335 C 796.222 908.805 712.783 899.292 629.056 898.967 C 614.426 898.959 599.361 898.386 584.787 899.443 C 530.336 901.023 474.533 909.111 421.016 919.337 C 406.505 922.11 392.19 925.953 377.73 928.711 L 377.011 930 C 382.028 934.629 391.426 937.387 397.743 940.339 C 466.002 972.242 579.432 979.78 653.845 976.846 C 658.655 976.684 663.458 976.34 668.242 975.813 C 722.816 971.67 773.992 967.241 826.186 949.071 C 843.896 942.905 860.275 933.432 877.874 927.335 z"/>
<path transform="translate(0,0)" fill="rgb(63,80,101)" d="M 742.739 49.432 L 741.743 48.3922 C 748.88 41.8918 762.903 43.0009 771.853 43.4374 C 778.194 43.7468 782.796 45.668 787.969 49.2211 C 772.616 47.9394 758.096 47.7271 742.739 49.432 z"/>
</svg>