<svg version="1.1" xmlns="http://www.w3.org/2000/svg" style="display: block;" viewBox="0 0 1024 1024" width="256" height="256" preserveAspectRatio="none">
<path transform="translate(0,0)" fill="rgb(49,70,89)" d="M 553.483 357.372 C 567.79 335.275 602.172 310.515 622.833 292.502 L 754.73 177.578 L 898.567 52.0611 C 909.115 42.9164 918.41 32.3469 929.146 23.4406 C 933.854 19.534 939.109 15.3096 945.02 13.5192 C 953.61 10.9176 961.6 10.8474 969.594 15.2348 C 982.445 22.2884 1014.97 61.1602 1019.25 75.8931 C 1021.41 83.3463 1021.55 91.4712 1017.64 98.3383 C 1011.58 109 1002.81 118.409 994.972 127.791 C 975.988 150.063 956.662 172.041 937.002 193.718 C 909.345 224.492 882.476 256.041 855.144 287.103 C 813.456 333.834 772.753 381.434 733.061 429.871 C 719.856 446.254 694.44 474.723 684.751 492.31 C 697.683 505.83 713.986 515.62 727.712 528.318 C 736.725 536.654 744.553 547.364 744.924 560.09 C 745.269 571.957 739.299 578.011 731.678 586.019 C 715.189 598.714 692.275 601.182 672.938 607.775 C 668.006 608.549 662.945 609.917 658.094 611.125 C 651.841 612.683 644.478 615.092 639.983 619.933 C 623.287 637.908 616.856 705.643 600.124 732.961 C 595.332 740.784 588.384 747.208 579.267 749.348 C 569.053 751.747 558.053 749.205 548.967 744.279 C 539.766 739.291 532.235 731.817 524.612 724.776 C 507.633 709.093 490.315 689.829 470.609 677.724 C 461.421 679.709 452.156 681.421 443.085 683.902 C 422.144 689.629 391.873 703.235 370.642 695.811 C 359.032 691.751 346.907 682.837 341.681 671.589 C 331.483 649.643 346.036 624.491 354.251 604.388 C 359.2 592.069 363.99 579.686 368.62 567.243 C 345.44 539.78 316.197 517.266 294.047 488.826 C 286.569 479.225 281.966 468.806 283.635 456.401 C 287.603 426.905 320.096 422.735 343.753 418.298 C 359.425 415.359 394.146 409.653 407.358 402.034 C 428.11 390.067 434.225 321.379 460.57 302.13 C 468.225 296.537 477.261 294.878 486.537 296.459 C 493.039 297.567 498.861 300.341 504.182 304.192 C 516.194 312.887 544.225 344.561 553.483 357.372 z M 545.523 407.926 C 530.842 399.648 491.823 358.476 482.241 343.669 C 478.257 356.784 474.039 369.826 469.587 382.789 C 461.798 405.663 454.277 429.908 431.479 442.049 C 411.073 452.916 354.653 462.2 331.466 462.269 C 343.885 478.731 359.059 493.134 373.541 507.77 C 384.218 518.56 397.479 529.279 404.247 543.101 C 409.235 553.286 410.215 565.267 408.622 576.402 C 404.992 601.783 392.62 628.699 383.178 652.398 L 392.076 650.717 C 424.837 644.416 469.01 621.319 500.12 642.278 C 513.709 651.433 524.367 664.513 536.422 675.469 C 546.652 684.765 558.823 692.637 567.352 703.624 C 569.606 685.854 576.254 669.041 580.973 651.854 C 585.303 636.081 588.179 617.656 595.214 602.956 C 598.641 595.795 603.455 589.874 609.695 584.963 C 627.895 570.639 669.916 563.126 693.021 558.264 C 676.351 546.064 639.097 523.763 635.576 502.587 C 633.373 489.332 638.856 479.531 646.291 469.401 C 681.281 421.724 719.508 377.176 757.86 332.239 L 904.882 163.096 L 954.333 107.682 C 961.448 99.8312 969.287 92.5727 976.068 84.434 C 971.372 79.5943 956.3 62.5181 951.007 61.5912 L 669.138 309.302 C 644.1 331.454 618.36 353.295 594.015 376.185 C 585.594 384.103 578.66 395.479 569.422 402.217 C 561.522 407.979 555.022 408.301 545.523 407.926 z"/>
<path transform="translate(0,0)" fill="rgb(49,70,89)" d="M 267.199 666.056 C 270.428 666.247 273.592 667.038 276.531 668.389 C 291.533 675.295 308.387 697.862 321.309 709.608 C 332.688 719.953 346.8 727.26 357.466 738.406 C 362.303 743.462 366.349 749.438 368.685 756.064 C 371.845 765.026 371.99 775.837 367.681 784.424 C 359.511 800.705 325.572 830.739 311.678 844.684 C 289.308 867.106 267.055 889.646 244.921 912.301 L 188.085 971.66 C 179.295 980.729 170.662 990.454 161.172 998.775 C 153.581 1005.43 145.355 1010.43 135.736 1013.55 C 123.105 1016.18 111.993 1014.93 100.44 1008.94 C 81.087 998.91 37.9929 953.806 31.6128 933.075 C 28.8046 923.95 29.9792 913.447 34.5243 905.06 C 45.0036 885.721 71.2576 864.459 86.9555 848.521 L 187.426 746.551 C 201.49 732.416 216.367 718.996 230.138 704.593 C 239.349 694.958 243.89 681.477 253.076 672.553 C 256.914 668.824 262.219 667.598 267.199 666.056 z M 76.8676 921.43 C 85.7412 932.422 94.8564 943.395 104.837 953.404 C 110.996 959.58 117.768 965.116 123.941 971.248 C 135.209 964.578 145.275 952.404 154.442 943.08 C 180.978 916.088 205.837 887.692 232.004 860.423 C 248.035 843.822 264.223 827.372 280.564 811.075 C 294.363 797.219 309.947 782.613 320.984 766.412 C 305.457 752.337 289.907 738.479 275.908 722.833 C 209.231 788.679 144.123 856.164 76.8676 921.43 z"/>
<path transform="translate(0,0)" fill="rgb(49,70,89)" d="M 782.443 724.305 C 787.39 723.05 791.577 725.076 796.101 726.802 C 813.846 745.373 815.125 779.193 834.445 790.873 C 844.44 796.917 856.77 798.372 867.331 803.217 C 878.337 808.267 882.752 815.155 886.799 826.025 C 878.793 857.479 846.139 849.501 828.383 868.718 C 814.991 883.211 815.708 908.76 797.017 927.62 C 792.073 928.88 787.578 929.667 782.472 930.002 C 747.686 923.234 754.984 883.073 734.73 867.683 C 719.053 855.771 695.414 858.91 681.669 841.267 C 678.318 836.966 675.826 831.006 676.565 825.468 C 679.47 803.697 723.005 798.383 738.292 787.24 C 745.329 782.111 755.853 745.509 763.874 734.621 C 769.173 727.428 773.753 725.564 782.443 724.305 z M 783.514 858.449 L 784.774 859.454 C 786.801 856.912 786.361 853.013 787.617 849.888 C 791.294 840.74 799.701 833.353 806.912 826.91 C 801.154 821.778 796.374 817.008 791.89 810.693 C 789.451 807.257 786.537 800.194 783.626 797.713 C 783.503 797.977 783.382 798.242 783.256 798.504 C 778.398 808.623 768.76 818.521 760.083 825.572 C 758.938 826.502 757.279 827.263 758.02 828.862 C 759.62 832.313 766.611 837.629 769.522 840.592 C 774.857 846.024 779.174 852.219 783.514 858.449 z"/>
<path transform="translate(0,0)" fill="rgb(49,70,89)" d="M 107.342 417.156 C 110.28 416.921 113.47 416.503 116.405 416.833 C 136.873 419.14 141.059 459.147 152.525 472.987 C 166.695 490.09 195.468 482.902 209.554 500.699 C 213.354 505.499 214.239 512.927 213.409 518.809 C 209.832 544.169 172.961 543.653 155.971 556.159 C 148.626 570.639 145.577 586.822 137.142 600.828 C 131.588 610.05 125.382 616.413 114.784 619.079 C 111.609 619.062 108.092 619.167 105.059 618.097 C 88.4232 612.227 81.6179 586.862 74.6967 572.503 C 65.607 553.646 52.3255 552.219 34.3398 546.004 C 25.1241 542.82 13.4335 537.664 9.11741 528.367 C 6.50621 522.743 6.6503 514.876 8.9118 509.162 C 17.6612 487.056 50.4574 492.108 66.4224 478.6 C 85.7624 462.236 80.8371 429.101 107.342 417.156 z M 137.156 517.666 C 131.652 512.761 125.611 507.353 121.395 501.277 C 118.603 497.254 115.819 489.768 111.87 487.143 C 107.605 489.832 100.411 504.3 97.4047 509.054 L 95.5258 510.676 C 92.6861 513.107 88.3046 516.027 86.7666 519.451 L 88.0432 521.652 C 93.593 525.874 98.362 530.251 102.521 535.918 L 105.231 539.567 C 107.39 542.279 109.152 545.471 111.154 548.328 L 112.385 548.337 C 113.674 543.25 115.035 538.647 117.317 533.886 C 118.934 533.205 120.2 530.731 121.195 529.302 L 125.107 525.8 C 128.98 522.704 132.894 520.169 137.156 517.666 z"/>
<path transform="translate(0,0)" fill="rgb(246,243,244)" fill-opacity="0.00784314" d="M 97.4047 509.054 C 100.411 504.3 107.605 489.832 111.87 487.143 C 115.819 489.768 118.603 497.254 121.395 501.277 C 125.611 507.353 131.652 512.761 137.156 517.666 C 132.894 520.169 128.98 522.704 125.107 525.8 C 124.472 525.274 124.67 525.46 124.149 524.956 C 123.99 524.803 123.836 524.645 123.675 524.494 C 120.599 521.626 119.75 517.781 118.535 513.893 C 113.061 511.485 105.21 510.93 99.2352 510.56 L 98.7003 510.531 L 97.4047 509.054 z"/>
<path transform="translate(0,0)" fill="rgb(246,243,244)" fill-opacity="0.27451" d="M 95.5258 510.676 L 95.7859 513.538 C 102.135 515.673 111.399 519.001 116.562 523.215 C 118.688 524.951 118.658 528.08 121.195 529.302 C 120.2 530.731 118.934 533.205 117.317 533.886 L 116.334 531.779 C 116.055 531.972 115.779 532.168 115.497 532.356 C 112.877 534.1 109.072 536.117 105.903 536.113 C 105.596 537.288 105.319 538.351 105.231 539.567 L 102.521 535.918 C 101.632 530.948 104.167 526.394 101.932 521.868 C 97.7077 520.364 92.5237 521.639 88.0432 521.652 L 86.7666 519.451 C 88.3046 516.027 92.6861 513.107 95.5258 510.676 z"/>
<path transform="translate(0,0)" fill="rgb(246,243,244)" fill-opacity="0.054902" d="M 97.4047 509.054 L 98.7003 510.531 L 99.2352 510.56 C 105.21 510.93 113.061 511.485 118.535 513.893 C 119.75 517.781 120.599 521.626 123.675 524.494 C 123.836 524.645 123.99 524.803 124.149 524.956 C 124.67 525.46 124.472 525.274 125.107 525.8 L 121.195 529.302 C 118.658 528.08 118.688 524.951 116.562 523.215 C 111.399 519.001 102.135 515.673 95.7859 513.538 L 95.5258 510.676 L 97.4047 509.054 z"/>
<path transform="translate(0,0)" fill="rgb(246,243,244)" fill-opacity="0.372549" d="M 88.0432 521.652 C 92.5237 521.639 97.7077 520.364 101.932 521.868 C 104.167 526.394 101.632 530.948 102.521 535.918 C 98.362 530.251 93.593 525.874 88.0432 521.652 z"/>
<path transform="translate(0,0)" fill="rgb(49,70,89)" d="M 245.452 138.078 L 257.177 138.006 C 276.898 154.882 271.545 182.481 287.715 197.054 C 297.808 206.15 313.302 207.447 324.363 215.556 C 329.823 219.559 334.137 224.649 335.131 231.522 C 339.828 263.976 296.506 257.221 280.911 273.81 C 270.96 284.395 269.958 302.508 260.976 314.312 C 256.412 320.309 252.085 322.768 244.687 323.725 C 240.853 324.025 237.084 323.754 233.473 322.31 C 213.452 314.304 218.016 280.951 202.135 268.231 C 189.379 258.013 163.467 256.151 156.761 239.557 C 154.188 233.191 155.048 224.303 157.881 218.155 C 163.122 206.781 179.601 202.844 190.369 198.932 C 213.429 190.553 215.276 178.502 224.742 158.338 C 229.362 148.495 235.044 141.826 245.452 138.078 z M 232.311 226.242 C 229.725 228.294 228.467 228.769 227.527 231.997 C 229.737 239.568 237.226 244.186 240.985 251.106 C 241.313 252.081 241.917 252.482 242.648 253.2 C 247.281 251.366 253.877 243.338 256.355 238.964 C 254.737 232.403 251 225.431 247.213 219.853 C 242.286 222.135 237.235 223.994 232.311 226.242 z"/>
<path transform="translate(0,0)" fill="rgb(246,243,244)" fill-opacity="0.109804" d="M 232.311 226.242 C 237.235 223.994 242.286 222.135 247.213 219.853 C 251 225.431 254.737 232.403 256.355 238.964 C 253.877 243.338 247.281 251.366 242.648 253.2 C 241.917 252.482 241.313 252.081 240.985 251.106 C 242.633 250.188 242.781 250.191 243.576 248.363 C 240.666 241.95 244.718 235.71 240.465 227.623 C 237.475 225.531 235.893 226.122 232.311 226.242 z"/>
<path transform="translate(0,0)" fill="rgb(246,243,244)" fill-opacity="0.00784314" d="M 232.311 226.242 C 235.893 226.122 237.475 225.531 240.465 227.623 C 244.718 235.71 240.666 241.95 243.576 248.363 C 242.781 250.191 242.633 250.188 240.985 251.106 C 237.226 244.186 229.737 239.568 227.527 231.997 C 228.467 228.769 229.725 228.294 232.311 226.242 z"/>
</svg>