<svg version="1.1" xmlns="http://www.w3.org/2000/svg" style="display: block;" viewBox="0 0 1148 1024" width="287" height="256" preserveAspectRatio="none">
<path transform="translate(0,0)" fill="rgb(49,71,89)" d="M 574.192 156.629 C 584.977 137.695 599.421 121.746 614.722 106.383 C 656.578 64.3614 697.082 38.3486 754.605 22.4544 C 831.116 1.31359 918.32 12.6452 987.185 51.9283 C 1052.78 89.3453 1109.68 157.664 1129.62 231.025 C 1145.17 288.199 1145.64 332.981 1135.54 391.208 C 1126 446.273 1107.18 496.655 1079.3 545.14 C 1062.6 573.985 1043.15 601.157 1021.24 626.279 C 964.224 692.69 901.803 753.19 837.647 812.562 C 825.641 823.674 814.298 835.493 802.151 846.459 C 754.372 889.588 703.729 931.274 651.672 969.117 C 631.881 983.504 606.949 1004.25 583.303 1010.6 C 568.741 1014.51 555.144 1009.25 542.65 1001.93 C 527.343 992.966 512.867 981.945 498.367 971.733 C 403.359 904.814 313.876 821.784 231.918 739.466 C 189.975 697.338 147.634 654.2 110.82 607.428 C 85.8883 575.752 64.5362 542.986 46.959 506.692 C 34.4966 483.054 25.8822 457.749 18.602 432.105 C -0.896176 363.424 -0.379685 279.032 24.6657 211.842 C 30.6204 195.867 39.096 180.834 47.375 165.987 C 53.6879 156.749 59.0543 146.682 65.886 137.829 C 112.893 76.9147 179.776 31.3733 255.913 17.0368 C 331.814 2.74472 418.112 19.0543 482.029 62.9614 C 518.896 88.2866 547.201 121.447 574.192 156.629 z M 574.698 965.842 C 598.238 953.119 620.65 936.445 641.99 920.312 C 677.008 893.405 711.234 865.483 744.625 836.581 C 765.875 817.976 786.309 798.483 808.001 780.345 C 843.843 745.747 879.255 710.707 914.23 675.233 C 946.368 642.509 979.125 609.444 1007 572.913 C 1058.24 505.759 1094.84 420.458 1096.73 335.189 C 1098.3 264.23 1076.34 192.711 1026.53 140.883 C 977.566 89.9242 912.858 59.5307 841.956 58.1345 C 771.574 56.6527 703.483 83.1769 652.649 131.877 C 644.244 139.96 636.482 148.685 629.433 157.973 C 615.231 176.518 598.993 207.55 572.484 207.349 C 560.185 207.256 550.028 199.163 541.874 190.717 C 528.402 176.762 518.744 159.722 505.723 145.479 C 456.07 91.1663 391.024 59.6561 316.917 58.1867 C 314.147 58.1318 311.45 58.1206 308.693 58.4459 C 295.94 59.445 282.948 60.0776 270.328 62.2205 C 208.046 72.7967 154.365 104.715 113.456 152.525 C 63.9081 210.429 45.834 282.737 51.7156 357.679 C 58.8914 449.112 102.441 529.683 160.712 598.797 C 177.398 618.589 195.713 636.95 213.179 656.045 C 232.436 677.099 251.482 698.351 271.691 718.508 C 285.584 732.367 300.419 745.328 314.823 758.652 C 344.822 786.401 374.932 813.814 406.071 840.291 C 441.946 870.793 477.529 900.247 515.725 927.824 C 534.641 941.481 553.834 955.284 574.698 965.842 z"/>
</svg>