<svg version="1.1" xmlns="http://www.w3.org/2000/svg" style="display: block;" viewBox="0 0 1284 1024" width="321" height="256" preserveAspectRatio="none">
<path transform="translate(0,0)" fill="rgb(50,71,88)" d="M 883.546 8.90044 C 913.393 3.05466 1040.01 2.88184 1069.48 8.89454 C 1085.62 9.48623 1101.73 11.6326 1117.85 12.6987 C 1145.97 14.5585 1173.71 16.705 1201.72 19.9467 C 1211.06 21.027 1221.49 21.269 1230.5 23.8793 C 1239.58 26.4837 1247.78 31.5369 1254.18 38.4859 C 1257.54 42.1121 1260.34 46.1855 1263.13 50.2599 C 1268.97 60.2222 1270.68 70.3393 1271.15 81.7067 C 1272.07 104.233 1271.35 126.951 1271.33 149.502 L 1271.29 271.935 L 1271.31 648.439 L 1271.33 842.288 C 1271.32 870.18 1274.35 908.837 1269.62 935.529 C 1267.1 949.738 1256.44 964.949 1244.66 972.92 C 1233.38 980.557 1220.39 982.207 1207.18 983.377 C 1194 984.544 1180.53 983.979 1167.31 983.95 L 1100.79 983.883 L 855.74 983.774 C 816.537 983.768 776.467 982.067 737.344 984.175 C 723.162 984.94 711.722 997.323 698.907 1002.41 C 678.725 1010.43 658.301 1010.93 636.954 1011.08 C 612.176 1011.25 586.828 1012.31 562.603 1006.17 C 547.113 1002.24 534.044 994.733 519.244 989.341 C 503.683 983.671 487.238 983.857 470.912 983.667 C 370.447 982.494 269.866 983.444 169.383 983.173 C 153.271 983.032 137.157 983.099 121.046 983.374 C 101.519 983.811 80.4087 985.896 61.1575 982.038 C 44.3346 978.666 27.8331 969.193 18.3074 954.643 C 9.13717 940.636 7.42902 924.826 6.48146 908.471 C 5.16767 885.795 6.02806 862.729 6.02284 839.998 L 5.99316 718.12 L 5.8578 348.55 C 5.88854 277.134 5.46023 205.758 6.4729 134.354 C 6.77734 112.888 3.4334 89.4039 7.70993 68.3712 C 11.1836 51.2874 19.6061 40.001 34.0793 30.3615 C 40.5125 26.9915 46.9358 24.6763 54.0188 23.1479 C 88.2139 15.7695 124.17 14.7022 158.973 11.9747 C 189.833 9.55615 220.636 6.1466 251.599 5.22476 C 288.224 4.13431 325.59 4.25874 362.19 6.14923 C 388.872 7.5274 416.196 12.1118 442.482 16.9205 C 456.663 20.4238 471.192 22.3387 485.309 26.0054 C 538.402 39.7952 592.214 62.7695 636.835 94.9664 C 649.402 84.5559 663.134 76.3897 677.38 68.5131 C 688.553 64.3143 697.977 55.7378 709.143 51.2832 C 766.54 28.3841 822.323 16.0208 883.546 8.90044 z M 662.742 901.578 C 713.749 861.671 858.704 838.553 924.244 833.582 C 973.342 830.044 1024.82 829.358 1073.77 834.943 C 1097.02 837.596 1120.62 841.774 1143.76 845.464 C 1159.99 848.053 1202.19 860.849 1215.52 851.589 C 1219.63 842.766 1220.1 836.343 1220.42 826.711 C 1222.35 770.023 1221 712.901 1221 656.166 L 1220.98 347.106 L 1220.92 157.545 L 1220.85 104.22 C 1220.86 94.0449 1221.5 83.4316 1220.42 73.3249 C 1204.98 70.4997 1189.06 69.4222 1173.45 67.897 C 1140.61 64.689 1107.91 62.396 1074.99 60.1986 C 1060.1 59.2039 1045.27 56.9266 1030.39 56.086 C 1007.26 54.7801 983.716 55.3016 960.535 55.0978 C 946.222 54.9719 931.332 54.1175 917.091 55.4248 C 842.156 60.9114 780.661 74.5744 712.617 108.143 C 698.183 115.263 678.122 125.265 667.068 136.888 C 664.033 140.079 663.716 150.757 663.511 155.209 C 662.608 174.854 663.24 194.763 663.264 214.435 L 663.369 318.773 L 663.339 699.484 L 663.334 824.245 C 663.337 849.97 663.911 875.878 662.742 901.578 z M 56.2478 74.0145 C 55.2248 122.12 55.9473 170.34 55.9448 218.457 L 55.8261 461.178 L 55.9456 658.641 C 55.9447 694.148 54.7568 730.03 56.2012 765.484 C 57.3827 794.484 61.0773 823.027 63.2975 851.913 C 89.7083 853.603 112.576 847.912 138.241 844.054 C 162.076 840.471 186.362 837.542 210.32 834.87 C 266.009 828.658 324.992 829.89 380.63 835.702 C 400.375 837.765 420.1 841.054 439.772 843.764 C 500.039 851.104 558.637 868.553 613.103 895.376 L 612.336 435.083 L 612.175 250.365 C 612.165 220.471 613.854 190.155 612.48 160.329 C 612.159 153.376 612.745 145.66 607.576 140.491 C 595.832 128.748 576.941 119.218 562.31 111.309 C 527.893 92.7043 488.201 77.6783 450.01 69.1172 C 436.454 66.0783 422.482 64.2483 408.756 62.1076 C 394.551 59.8923 380.239 57.5121 365.89 56.4793 C 334.807 54.242 302.85 54.852 271.674 55.2081 C 268.591 55.2434 265.507 55.318 262.425 55.432 C 240.53 56.4613 218.805 59.6836 196.922 61.0669 C 165.153 63.075 133.703 65.3691 102.002 68.3962 C 86.8058 69.8473 71.146 70.5052 56.2478 74.0145 z M 954.162 882.443 C 911.854 883.884 870.773 890.94 829.303 898.845 C 803.452 903.772 777.933 908.349 753.051 917.185 C 741.198 921.395 730.317 926.919 719.343 932.991 C 749.944 936.022 781.74 933.321 812.483 933.214 L 990.658 933.387 C 1018.7 933.383 1207.23 935.355 1217.64 931.424 C 1222.49 923.592 1220.86 910.593 1222.23 901.56 C 1173.61 907.833 1127.85 892.182 1080.25 886.059 C 1038.78 880.724 995.92 880.805 954.162 882.443 z M 374.25 933.415 L 503.228 933.91 C 523.397 933.931 544.519 935.088 564.589 933.449 C 527.51 907.678 396.818 885.732 348.855 882.419 C 333.835 881.382 318.45 881.876 303.39 881.849 C 282.995 881.813 262.393 881.5 242.018 882.434 C 215.047 883.742 188.084 887.481 161.453 891.874 C 125.983 897.726 90.511 905.978 54.3215 901.626 C 57.64 912.794 59.9196 922.861 68.088 931.641 C 82.5105 934.117 97.493 933.438 112.088 933.428 L 166.161 933.425 L 374.25 933.415 z"/>
</svg>