<svg version="1.1" xmlns="http://www.w3.org/2000/svg" style="display: block;" viewBox="0 0 1260 1024" width="315" height="256" preserveAspectRatio="none">
<path transform="translate(0,0)" fill="rgb(49,70,88)" d="M 243.542 17.1846 C 251.518 16.8567 257.074 20.4763 262.047 26.487 C 267.757 33.3884 271.467 42.0622 275.871 49.8426 C 281.404 59.7189 287.354 69.3559 293.705 78.7275 C 324.854 125.258 366.684 167.517 411.592 200.862 C 441.34 222.949 475.237 242.811 509.216 257.66 C 520.679 262.67 532.626 266.626 544.303 271.111 C 558.956 276.738 573.604 282.887 588.525 287.751 C 602.156 292.194 616.088 295.726 629.68 300.288 C 689.587 320.4 749.931 344.133 802.753 379.228 C 804.309 369.169 807.984 358.844 811.058 349.12 C 833.515 278.076 887.742 208.09 954.303 173.734 C 992.841 153.843 1044.12 147.666 1085.69 160.982 C 1101.54 166.057 1114.84 175.046 1126.7 186.601 C 1136.61 196.248 1146.41 207.56 1153.23 219.643 C 1166.54 243.217 1173.46 271.283 1193.02 291.066 C 1198.59 296.694 1205.49 301.817 1212.26 305.9 C 1224.11 313.044 1248.36 321.655 1254.28 334.843 C 1256.33 339.407 1254.86 345.769 1253.13 350.196 C 1243.72 374.284 1216.27 380.29 1194.27 386.815 C 1178.97 391.355 1163.66 396.03 1148.23 400.108 C 1135.63 403.437 1121.15 405.673 1109.31 411.102 C 1100.13 415.311 1095.39 420.876 1093 430.691 C 1087.93 451.536 1091.37 486.207 1090.32 508.981 C 1087.98 559.567 1072.59 622.262 1054.44 669.464 C 1019.2 760.573 949.06 833.858 859.586 873.071 C 841.789 883.272 810.846 889.835 790.385 893.532 C 747.16 901.344 704.604 904.985 660.668 902.666 C 627.272 900.903 594.063 896.843 560.779 893.799 C 546.568 892.499 532.041 890.662 517.777 890.535 C 493.187 890.316 467.112 893.412 443.201 899.358 C 430.037 902.632 417.613 907.651 405.29 913.248 C 373.345 927.756 352.606 943.793 331.399 972.34 C 321.947 985.064 313.457 1011.07 298.056 1016.99 C 290.831 1019.77 283.174 1016.11 276.587 1013.17 C 184.982 972.226 110.352 892.008 62.5352 805.318 C 52.8293 787.721 43.8346 770.56 36.6623 751.729 C 30.183 734.718 11.1456 690.505 9.32353 673.837 C 8.81987 669.23 9.85047 664.245 11.7958 660.066 C 17.8662 647.025 36.1089 648.901 48.0733 650.288 C 71.1057 652.957 93.8536 654.069 116.926 656.035 C 130.376 657.18 143.723 659.532 157.233 659.897 C 208.967 661.292 291.15 653.266 340.78 639.243 C 360.485 633.675 379.102 625.255 398.296 618.247 C 365.812 601.617 336.542 577.956 310.589 552.407 C 292.972 535.065 275.169 516.795 260.112 497.162 C 217.646 441.787 187.916 366.686 179.113 297.579 C 176.614 277.963 176.523 257.765 176.375 238.006 C 176.112 216.254 177.302 194.51 179.937 172.917 C 184.92 135.059 203.83 47.6582 230.456 20.6488 C 234.757 19.2995 239.172 18.2842 243.542 17.1846 z M 451.794 648.69 C 439.867 652.044 428.665 658.011 417.266 662.81 C 399.55 670.269 380.714 677.376 362.318 682.933 C 341.156 689.327 319.473 695.073 297.6 698.447 C 258.63 704.458 219.22 704.829 179.885 704.918 C 143.091 705.001 106.072 704.639 69.4104 701.214 C 80.9791 728.306 91.672 755.565 105.579 781.594 C 144.919 855.223 206.681 921.547 280.595 961.07 C 286.181 952.072 291.694 942.736 298.211 934.38 C 333.59 889.012 381.455 864.463 436.454 851.609 C 478.963 841.674 537.377 843.012 581.188 847.017 C 595.153 848.294 608.988 850.693 622.96 851.898 C 639.07 853.287 655.399 853.273 671.561 853.557 C 730.229 854.588 789.668 851.552 844.257 827.655 C 923.548 791.001 983.671 721.06 1013.66 639.649 C 1022.48 615.717 1030.9 589.446 1034.48 564.156 C 1038.75 533.932 1041.07 503.411 1043.49 472.991 C 1045.47 447.937 1041.74 418.98 1052.37 395.706 C 1058.18 382.979 1072.94 373.712 1085.23 367.987 C 1104.83 358.852 1126.83 354.824 1147.69 349.378 C 1157.46 346.824 1166.99 343.514 1176.71 340.796 C 1163.3 330.433 1150.07 317.453 1140.85 303.205 C 1118.48 268.62 1110.6 221.153 1067.46 205.765 C 1053.64 200.838 1039.7 199.781 1025.21 201.662 C 974.341 208.263 930.771 243.117 900.452 282.775 C 878.181 311.904 848.612 369.014 844.936 405.85 C 851.957 415.257 860.137 423.439 866.734 433.247 C 889.601 467.242 903.582 512.785 897.765 553.877 C 897.396 556.354 896.901 558.81 896.282 561.237 C 890.709 567.226 885.441 570.13 877.116 570.428 C 871.977 570.612 866.594 569.893 861.677 568.431 C 833.521 537.436 865.158 489.699 805.044 440.71 C 730.43 379.906 637.55 355.802 548.561 324.782 C 533.128 319.402 517.399 314.366 502.267 308.187 C 466.226 293.469 427.475 271.001 394.777 249.748 C 365.62 230.797 328.86 199.122 305.996 172.693 C 294.698 159.633 283.062 146.478 272.798 132.589 C 268.887 127.297 249.811 97.5817 246.933 96.4848 C 241.304 112.029 237.874 128.565 234.316 144.691 C 228.212 172.349 223.483 201.545 222.786 229.923 C 221.416 285.715 236.264 349.75 259.887 400.193 C 296.974 479.387 362.603 546.117 438.823 588.324 C 453.545 596.477 468.3 604.279 484.168 610.003 C 507.024 618.248 530.687 627.083 554.248 632.968 C 563.677 635.323 601.787 642.427 607.532 647.023 C 609.098 648.277 610.864 650.708 611.734 652.509 C 614.739 658.727 614.873 668.649 612.452 675.069 C 610.368 680.595 606.764 686.294 601.295 688.981 C 587.021 695.993 475.772 658.654 456.012 650.69 C 454.562 650.106 453.172 649.425 451.794 648.69 z"/>
</svg>