<svg version="1.1" xmlns="http://www.w3.org/2000/svg" style="display: block;" viewBox="0 0 1024 1312" width="256" height="328" preserveAspectRatio="none">
<defs>
	<linearGradient id="Gradient1" gradientUnits="userSpaceOnUse" x1="193.266" y1="393.304" x2="188.625" y2="387.247">
		<stop class="stop0" offset="0" stop-opacity="0" stop-color="rgb(232,224,225)"/>
		<stop class="stop1" offset="1" stop-opacity="0.00784314" stop-color="rgb(236,231,215)"/>
	</linearGradient>
</defs>
<path transform="translate(0,0)" fill="rgb(49,70,88)" d="M 478.144 202.587 C 451.89 185.37 425.544 168.446 418.643 135.491 C 412.963 108.365 414.47 76.3806 430.106 52.6672 C 443.019 33.0838 465.578 19.2334 488.399 14.6757 C 514.99 9.36513 545.665 12.6164 568.545 27.9925 C 588.892 41.6657 601.831 63.1397 606.42 87.0597 C 610.895 110.387 608.388 141.091 594.697 161.171 C 582.636 178.859 563.871 192.187 544.642 201.008 C 577.455 206.827 610.536 210.437 642.783 219.37 C 742.664 246.832 832.17 303.27 900 381.561 C 909.615 392.697 919.238 403.755 927.674 415.827 C 1004.14 526.768 1034.24 663.198 1011.54 796.014 C 1006.94 821.846 1001.32 849.07 993.183 873.985 C 970.571 943.247 925.266 1018.56 873.669 1069.97 C 856.751 1086.54 839.289 1102.35 820.306 1116.56 C 808.401 1125.47 795.68 1133.32 783.84 1142.28 C 773.799 1146.05 763.051 1154.64 753.459 1159.91 C 739.12 1167.79 723.598 1174.21 708.565 1180.65 C 620.606 1218.35 512.911 1229.71 419.043 1210.27 C 281.513 1180.47 161.337 1097.52 84.7069 979.491 C 59.904 941.551 37.8528 891.662 26.3783 848.067 C 20.5621 825.971 16.8874 802.496 13.5777 779.878 C 10.3277 757.669 7.54299 735.618 7.3208 713.137 C 7.08452 689.232 9.36293 666.672 12.2541 643.037 C 13.7849 630.524 14.741 617.577 17.3503 605.261 C 38.1263 507.197 81.4493 424.591 152.015 353.463 C 165.192 340.182 178.614 326.809 193.179 315.033 C 210.61 300.94 229.191 288.598 247.952 276.382 C 254.213 274.124 261.256 269.16 267.338 266.035 C 276.77 261.189 287.235 257.429 296.071 251.602 C 355.254 225.424 413.394 208.504 478.144 202.587 z M 66.4932 793.783 C 70.2512 816.723 74.8206 839.043 83.3943 860.744 C 122.152 975.201 211.849 1070.96 319.651 1124.17 C 368.074 1148.07 422.821 1164.15 476.709 1168.34 C 493.548 1169.65 510.707 1169.16 527.6 1169.26 C 542.131 1169.11 556.468 1168.08 570.96 1167.33 C 583.121 1164.2 595.971 1162.56 608.291 1159.96 C 623.153 1156.83 638.012 1152.5 652.516 1147.99 C 719.394 1127.21 789.381 1084.08 838.449 1033.88 C 853.428 1018.56 866.726 1001.26 879.846 984.323 C 885.996 976.384 891.262 967.635 896.662 959.165 C 930.805 905.612 950.839 847.212 961.966 784.943 C 964.163 772.647 966.585 760.306 967.702 747.859 C 968.871 734.837 968.65 721.512 968.711 708.444 C 968.782 693.343 968.692 678.07 966.739 663.076 C 963.225 636.1 958.588 607.866 951.305 581.63 C 925.158 488.456 869.321 406.36 792.272 347.809 C 695.612 272.884 572.994 239.749 451.753 255.789 C 372.698 267.05 297.89 298.537 234.577 347.2 C 222.847 356.211 208.432 366.483 199.388 378.256 C 192.062 383.485 185.563 391.09 179.721 397.935 C 166.042 410.954 154.156 426.002 143.033 441.222 C 108.488 488.849 83.659 542.813 69.9643 600.033 C 66.5153 615.055 64.5421 630.544 62.3192 645.797 C 59.4666 665.372 56.8938 685.108 56.428 704.908 C 56.0914 719.216 61.9977 782.126 66.4932 793.783 z M 517.052 155.538 C 542.546 152.818 560.993 129.922 558.226 104.432 C 555.459 78.9428 532.53 60.5378 507.046 63.3504 C 481.627 66.1558 463.279 89.0136 466.038 114.438 C 468.798 139.862 491.622 158.252 517.052 155.538 z"/>
<path transform="translate(0,0)" fill="rgb(49,70,88)" d="M 746.02 1024.67 C 576.361 1150.04 337.862 1118.42 206.737 953.164 C 75.6123 787.906 99.0338 548.463 259.697 411.746 C 420.36 275.029 660.466 290.223 802.613 446.102 C 944.761 601.98 937.813 842.466 786.902 989.877 C 774.087 1002.4 760.427 1014.02 746.02 1024.67 z M 489.626 426.795 C 484.191 406.536 490.308 389.058 487.768 370.661 C 481.66 368.538 473.008 370.216 466.635 370.936 C 429.33 375.147 397.832 385.537 364.034 401.925 C 282.452 441.757 219.866 512.151 189.856 597.835 C 180.121 625.915 179.512 655.611 171.817 684.009 C 189.33 683.602 229.073 678.572 241.676 690.61 C 246.302 695.028 247.801 701.152 247.895 707.365 C 247.992 713.774 246.854 720.554 242.236 725.326 C 233.568 734.285 213.941 732.325 202.419 732.33 C 192.543 732.334 182.573 732.012 172.719 732.622 C 176.707 757.11 180.253 781.94 187.473 805.732 C 209.02 876.732 256.867 944.789 317.091 988.071 C 370.071 1026.15 425.26 1045.77 489.977 1053 C 489.731 1038.54 485.445 998.704 495.209 988.705 C 499.189 984.63 504.797 983.058 510.364 983.034 C 516.971 983.004 526.509 985.059 531.317 989.999 C 535.297 994.087 535.334 1042.21 534.712 1050.51 C 534.621 1051.62 534.496 1052.73 534.337 1053.84 C 547.117 1053.6 559.307 1051.33 571.822 1048.95 C 634.786 1036.97 706.08 1003.84 751.217 957.18 C 783.533 923.713 809.286 884.485 827.144 841.527 C 830.789 832.742 834.95 823.454 836.839 814.133 C 846.771 792.412 849.83 756.059 852.876 731.984 C 839.321 734.342 805.114 734.546 791.792 731.638 C 787.239 730.644 782.087 728.942 779.508 724.752 C 774.598 716.776 776.547 704.392 778.644 695.738 C 781.231 693.135 784.343 690.557 787.887 689.437 C 796.478 686.72 806.528 687.822 815.429 687.581 C 827.527 687.253 840.206 686.631 852.1 684.209 C 852.734 672.443 848.95 658.888 846.765 647.335 C 834.39 581.891 806.972 526.619 762.429 477.051 C 718.052 427.668 652.699 389.008 587.752 374.883 C 569.872 370.994 552.044 370.231 533.981 368.154 C 534.061 378.689 536.794 423.198 531.133 429.664 C 526.568 434.879 514.606 437 507.84 437.055 C 501.49 437.107 497.267 434.685 492.913 430.255 C 491.8 429.118 490.705 427.964 489.626 426.795 z"/>
<path transform="translate(0,0)" fill="rgb(49,70,88)" d="M 699.758 500.076 C 705.308 499.679 709.454 499.959 714.403 502.747 C 719.724 505.745 723.022 510.784 724.507 516.643 C 726.938 526.234 723.8 536.066 720.518 545.054 C 712.69 566.497 698.891 590.188 689.109 611.531 C 670.516 652.103 650.798 692.047 631.34 732.203 C 621.205 753.12 612.268 775.486 600.375 795.438 C 596.251 802.356 591.654 808.032 584.696 812.284 C 577.122 816.912 568.552 819.973 560.497 823.668 C 545.218 830.675 530.052 837.798 514.678 844.614 L 412.977 890.918 C 393.371 899.726 373.961 909.204 354.396 918.168 C 343.558 923.133 332.524 929.049 320.941 931.982 C 317.43 932.11 313.013 932.341 309.702 931.076 C 304.303 929.011 296.751 919.893 294.566 914.666 C 290.898 905.89 294.138 897.316 297.518 889.092 C 305.885 868.74 316.127 849.349 325.867 829.654 C 334.027 813.157 341.707 796.242 349.561 779.583 L 396.222 682.101 C 402.794 668.149 408.243 653.58 415.335 639.882 C 416.944 636.775 419.275 634.063 421.718 631.578 C 425.667 627.562 430.536 624.641 435.512 622.073 C 444.143 617.618 453.438 614.421 462.218 610.239 C 502.064 591.258 542.21 573.178 582.363 554.867 C 621.601 536.973 659.959 516.646 699.758 500.076 z M 476.989 654.942 C 494.592 669.912 510.56 687.399 525.735 704.798 C 540.746 719.849 555.51 735.155 570.711 750.013 L 634.112 616.771 C 637.263 610.315 653.176 579.706 652.927 575.666 L 652.143 574.947 C 641.235 581.111 629.317 585.758 617.906 590.948 L 568.154 614.071 L 519.304 636.204 C 505.265 642.727 491.743 650.084 476.989 654.942 z M 362.761 861.286 C 373.531 854.702 385.334 850.56 396.807 845.421 C 423.969 833.255 451.72 821.835 478.534 808.983 C 482.426 807.118 490.063 804.519 492.99 801.634 C 507.383 796.991 521.634 788.784 535.445 782.49 C 526.745 771.074 515.951 761.259 505.779 751.176 C 492.959 738.51 480.275 725.707 467.727 712.771 C 460.108 704.928 451.506 696.92 445.557 687.717 C 436.135 713.861 422.233 739.108 410.455 764.303 C 405.16 773.361 400.959 783.205 396.414 792.67 C 385.478 815.448 374.88 839.171 362.761 861.286 z"/>
<path transform="translate(0,0)" fill="rgb(50,66,73)" d="M 527.6 1169.26 C 542.131 1169.11 556.468 1168.08 570.96 1167.33 L 570.219 1169.08 L 565.752 1170.05 L 565.65 1170.33 C 553.861 1175.41 542.754 1173.41 530.686 1171.87 C 526.801 1171.37 522.245 1171.83 518.566 1170.55 C 521.585 1170.29 524.71 1170.22 527.6 1169.26 z"/>
<path transform="translate(0,0)" fill="url(#Gradient1)" d="M 199.388 378.256 C 202.281 378.438 202.742 375.71 205.578 376.521 C 205.099 379.768 182.776 402.192 178.695 405.308 L 177.677 404.65 L 181.016 399.914 L 179.721 397.935 C 185.563 391.09 192.062 383.485 199.388 378.256 z"/>
</svg>