<svg version="1.1" xmlns="http://www.w3.org/2000/svg" style="display: block;" viewBox="0 0 1356 1024" width="339" height="256" preserveAspectRatio="none">
<path transform="translate(0,0)" fill="rgb(50,72,89)" d="M 1131.97 317.463 C 1131.46 297.75 1136.1 278.935 1139.48 259.663 C 1141.41 248.675 1142.22 237.514 1144.32 226.551 C 1151.26 189.066 1162.56 152.519 1177.97 117.651 C 1194.21 80.1284 1220.61 37.3996 1260.29 21.8284 C 1277.24 15.176 1296.45 13.8832 1313.41 21.5502 C 1328.61 28.4238 1337.27 42.1176 1342.94 57.1384 C 1351.83 80.6959 1351.39 105.91 1349.25 130.669 C 1346.43 163.425 1338.78 196.946 1332.47 229.255 L 1308.73 355.032 L 1282.88 502.187 C 1276.82 536.479 1273.68 573.837 1259.31 605.829 C 1242.14 646.023 1211.86 675.954 1181.22 706.057 C 1168.01 719.038 1154.86 732.159 1141.19 744.662 C 1110.48 772.763 1054.43 813.654 1044.57 854.793 L 1044.47 855.268 C 1036.3 884.929 1042.33 989.516 1037.47 999.321 C 1035.01 1004.28 1030.24 1008.02 1025.02 1009.68 C 1014.74 1012.94 1006.25 1009.71 997.294 1004.91 C 985.431 987.513 990.742 951.909 991.148 930.976 C 991.776 898.662 991.052 863.057 1001.79 832.193 C 1017.4 787.324 1072.73 743.786 1106.93 712.368 C 1125.38 695.228 1143.46 677.683 1161.14 659.745 C 1182.08 638.528 1203.37 615.78 1214.93 587.9 C 1229.52 552.752 1232.88 511.858 1239.47 474.478 L 1267.91 315.993 C 1271.32 296.826 1275.54 277.781 1279.06 258.625 C 1281.61 244.709 1283.4 230.662 1286.23 216.793 C 1291.69 190.032 1298.61 162.737 1302.13 135.672 C 1304.46 117.795 1307.71 89.3421 1300.85 72.163 C 1299.47 68.7109 1296.91 65.6194 1294.65 62.6933 C 1271.06 66.2131 1257.91 80.6367 1244.25 98.8299 C 1202.14 154.883 1191.29 224.763 1178.89 291.881 C 1175.41 310.682 1174.13 330.299 1167.2 348.249 C 1157.83 372.52 1143.79 396.669 1130.73 419.184 C 1102.65 467.607 1071.43 514.255 1041.05 561.26 C 1028.55 580.61 1008.61 616.909 992.598 631.747 C 986.433 632.293 979.241 632.817 973.278 630.905 C 964.082 627.955 960.289 620.357 956.245 612.33 C 959.784 592.21 983.474 563.566 995.391 545.73 C 1018.79 510.664 1041.46 475.119 1063.39 439.117 C 1073.64 422.531 1090.62 398.04 1096.56 380.398 C 1099.94 370.344 1098.26 357.293 1093.62 347.931 C 1085.87 332.267 1072.39 325.524 1056.65 320.226 C 1047.13 323.005 1039.09 327 1031.76 333.746 C 1011.06 352.822 984.342 410.15 966.893 437.042 C 955.245 454.992 940.062 471.784 926.116 487.992 C 898.999 519.506 866.053 543.894 836.397 572.766 C 810.499 597.979 793.175 618.736 776.881 651.412 C 748.509 708.307 751.389 763.913 753.896 825.339 C 755.348 860.889 755.266 896.408 756.049 931.968 C 756.432 949.342 758.364 966.795 758.083 984.167 C 757.979 990.538 758.335 998.147 753.322 1002.79 C 747.144 1008.52 737.319 1011.53 729.061 1011.07 C 723.991 1010.79 719.668 1008.51 716.406 1004.63 C 713.284 1000.91 711.582 996.305 710.891 991.54 C 708.477 974.901 711.337 956.414 710.405 939.41 C 709.633 925.345 707.343 911.385 706.489 897.328 C 705.093 874.375 705.495 851.046 705.074 828.032 C 704.497 796.532 703.166 764.782 705.379 733.328 C 706.534 716.913 710.18 701.368 713.952 685.399 C 743.698 559.452 842.752 519.796 915.635 425.782 C 926.153 412.216 936.417 397.561 945.106 382.766 C 963.019 352.269 978.079 316.75 1005.33 293.165 C 1020.5 280.04 1040.33 272.625 1060.51 274.173 C 1088.2 276.297 1114.57 297.286 1131.97 317.463 z"/>
<path transform="translate(0,0)" fill="rgb(50,72,89)" d="M 317.196 996.484 C 316.04 962.46 322.669 870.931 307.195 845.884 C 300.061 834.337 288.566 825.305 279.019 815.808 C 260.657 797.54 242.246 779.488 223.316 761.802 C 192.964 733.444 163.183 706.158 135.877 674.763 C 125.78 663.153 115.368 651.318 108.044 637.697 C 99.0175 620.911 91.1545 602.675 86.4098 584.18 C 81.8668 566.472 80.8625 548.519 77.8226 530.616 C 71.6293 494.141 64.4655 457.684 57.805 421.281 L 28.3131 261.307 C 21.2239 221.092 13.6861 181.096 12.3224 140.182 C 11.3836 112.017 9.49304 53.6032 29.1657 32.7821 C 37.9464 23.4889 50.785 19.0296 63.3871 18.7994 C 87.5404 18.3582 113.397 31.0452 130.392 47.6878 C 178.928 95.2173 202.579 190.613 215.839 255.648 C 220.748 279.723 224.182 304.336 230.304 328.123 C 238.21 308.211 254.185 290.066 274.044 281.454 C 290.909 274.14 311.872 272.792 329.092 279.635 C 343.343 285.299 354.999 296.478 364.672 308.137 C 380.834 327.616 392.242 351.398 405.458 372.938 C 420.64 397.68 437.494 420.877 455.308 443.764 C 474.663 468.631 495.849 490.565 519.052 511.851 C 530.204 522.082 542.154 531.611 552.884 542.27 C 582.516 571.702 609.705 607.509 626.097 646.003 C 630.582 656.537 633.363 667.435 637.459 678.04 C 641.476 697.454 643.554 716.826 644.406 736.62 C 646.411 783.217 644.259 830.433 644.099 877.106 C 644.037 895.26 645.953 992.968 642.76 1002.34 C 639.43 1005.28 636.182 1008.21 632.036 1009.92 C 628.497 1010.28 624.903 1011.05 621.342 1010.97 C 612.415 1010.78 607.304 1006.87 601.396 1000.66 C 599.848 997.289 598.703 993.891 598.364 990.172 C 597.292 978.417 599.076 965.636 599.503 953.781 C 600.14 936.091 600.084 918.345 600.227 900.643 C 599.902 884.03 600.41 867.394 600.737 850.782 C 599.769 803.15 604.662 753.942 594.716 706.988 L 592.766 696.83 C 591.733 692.049 591.022 686.758 589.071 682.266 C 586.994 673.631 582.495 665.082 578.497 657.163 C 555.531 611.679 524.407 583.061 488.324 548.34 C 464.814 525.718 441.451 502.84 420.232 478.025 C 392.285 445.344 370.714 409.463 350.79 371.543 C 349.908 369.955 348.708 368.561 347.582 367.14 C 343.165 356.221 331.31 340.884 322.008 333.526 C 315.379 328.282 307.813 325.827 299.378 326.973 C 285.496 328.86 274.345 338.045 266.185 348.877 L 263.318 353.216 C 257.42 362.549 255.176 371.131 257.688 382.131 C 265.805 417.672 343.733 522.57 369.533 559.015 C 380.493 574.497 393.595 588.685 401.124 606.32 C 399.708 614.598 398.481 623.743 391.01 628.943 C 383.464 634.195 373.113 632.638 364.592 631.413 C 348.956 615.749 338.052 596.889 325.225 578.992 C 311.509 559.857 297.57 540.955 284.358 521.459 C 274.731 507.254 265.794 492.602 256.257 478.341 C 234.481 445.781 210.731 412.22 195.85 375.749 C 185.905 351.372 182.637 325.475 177.352 299.876 C 163.087 230.771 138.622 93.3289 69.0581 60.8202 C 60.7543 74.3167 57.1256 88.6285 56.8234 104.483 C 55.956 149.993 65.4119 195.895 72.6443 240.626 C 85.9117 321.499 100.699 402.115 116.998 482.432 C 120.503 499.672 123.637 516.985 126.398 534.36 C 128.232 546.642 129.093 559.328 132 571.409 C 150.984 650.315 270.061 734.427 325.427 795.425 C 336.452 807.572 349.23 819.758 355.085 835.447 C 364.165 859.781 361.597 904.911 361.846 932.208 C 361.984 947.414 365.465 989.673 358.659 1000.58 C 355.49 1005.65 350.418 1008.98 344.572 1010.15 C 338.195 1011.36 331.596 1010.03 326.188 1006.44 C 322.485 1003.94 319.571 1000.22 317.196 996.484 z"/>
<path transform="translate(0,0)" fill="rgb(13,29,52)" d="M 600.737 850.782 C 602.348 853.294 604.174 856.001 604.87 858.936 C 607.264 869.031 607.417 906.486 605.055 916.608 C 604.88 917.352 604.676 918.089 604.443 918.817 C 603.409 914.93 604.989 893.58 603.321 892.606 C 600.563 900.846 603.566 910.996 601.725 919.563 C 600.503 913.272 600.397 907.028 600.227 900.643 C 599.902 884.03 600.41 867.394 600.737 850.782 z"/>
</svg>