<svg version="1.1" xmlns="http://www.w3.org/2000/svg" style="display: block;" viewBox="0 0 1332 1024" width="333" height="256" preserveAspectRatio="none">
<defs>
	<linearGradient id="Gradient1" gradientUnits="userSpaceOnUse" x1="1004.54" y1="675.519" x2="962.315" y2="689.204">
		<stop class="stop0" offset="0" stop-opacity="1" stop-color="rgb(51,76,87)"/>
		<stop class="stop1" offset="1" stop-opacity="1" stop-color="rgb(48,68,92)"/>
	</linearGradient>
</defs>
<path transform="translate(0,0)" fill="rgb(49,71,88)" d="M 1078.82 43.8411 C 1100.73 42.493 1119.57 59.1933 1120.86 81.1062 C 1122.15 103.019 1105.4 121.814 1083.48 123.044 C 1061.65 124.27 1042.94 107.597 1041.65 85.7666 C 1040.37 63.9366 1056.99 45.184 1078.82 43.8411 z"/>
<path transform="translate(0,0)" fill="rgb(49,71,88)" d="M 1197.26 184.295 C 1197.42 184.265 1197.57 184.227 1197.73 184.206 C 1205.21 183.183 1214.58 185.499 1220.54 190.173 C 1226.89 195.16 1230.48 202.603 1231.36 210.55 C 1232.3 219.092 1230.49 228.4 1224.97 235.173 C 1219.5 241.886 1213.41 243.821 1205.09 244.607 C 1197.78 245.917 1189.56 244.6 1183.28 240.574 C 1176.69 236.353 1172.46 229.497 1171 221.874 C 1169.35 213.213 1170.47 202.674 1175.64 195.317 C 1181.08 187.579 1188.49 185.763 1197.26 184.295 z"/>
<path transform="translate(0,0)" fill="rgb(49,71,88)" d="M 418.071 11.6713 C 453.005 13.1812 478.829 16.3652 503.867 43.6074 C 521.469 62.7581 533.879 91.1436 540.349 116.248 C 560.589 114.708 585.539 122.982 600.959 136.252 C 622.486 154.777 619.116 173.286 632.359 193.132 C 642.031 207.628 657.757 211.081 670.345 232.83 C 676.53 248.537 675.397 271.03 672.431 287.38 C 668.577 308.625 659.534 330.98 653.982 352.273 C 632.808 432.811 609.806 512.858 584.992 592.35 L 556.022 688.341 C 548.253 713.406 539.839 738.337 532.403 763.496 L 508.373 844.197 C 502.076 865.765 496.215 887.672 488.976 908.94 C 482.455 928.096 473.143 944.913 454.211 954.136 C 442.761 959.715 428.377 964.098 415.535 962.79 C 398.544 961.059 381.985 954.289 365.82 949.113 L 305.994 930.203 L 183.042 892.229 C 158.021 884.57 132.865 877.421 108.107 868.916 C 88.564 862.203 68.9789 854.246 59.5544 834.39 C 55.0254 824.848 52.8116 813.763 53.1149 803.217 C 53.7848 779.926 63.1757 754.728 69.3233 732.307 C 73.5595 716.857 77.199 700.683 82.6547 685.649 C 65.2669 674.984 47.0559 665.136 33.8353 649.183 C 16.4182 628.165 9.78159 597.175 12.4317 570.419 C 15.3562 540.894 26.8409 512.353 35.0341 484.002 C 42.1332 459.437 50.4152 423.708 60.8462 401.314 C 67.2567 387.551 75.8916 374.044 87.7727 364.372 C 116.273 341.169 148.856 342.953 183.293 346.429 C 184.141 333.378 210.789 242.392 216.879 227.995 C 221.67 216.67 228.501 205.171 236.397 195.754 C 232.399 188.148 229.288 180.47 227.355 172.082 C 222.884 152.68 223.41 126.952 234.311 109.607 C 238.959 102.212 245.317 95.8737 249.792 88.5243 C 249.882 88.3762 249.969 88.2259 250.057 88.0767 C 268.739 74.3977 277.829 70.0843 301.613 68.5071 C 305.208 69.603 309.599 69.8223 313.34 70.5813 C 321.219 72.1798 328.636 74.3273 336.191 77.0603 C 339.533 66.2496 345.209 55.3954 352.071 46.394 C 368.944 24.2623 391.197 15.3211 418.071 11.6713 z M 434.695 916.257 C 440.442 911.386 445.599 906.653 448.392 899.424 C 455.285 881.579 459.132 862.012 464.403 843.601 C 473.419 812.106 483.13 780.721 492.762 749.408 C 525.598 645.738 557.174 541.674 587.483 437.237 L 601.404 388.746 C 605.24 375.545 610.227 361.786 611.328 348.027 C 611.783 342.348 611.474 335.157 607.539 330.625 C 602.234 324.515 594.272 321.021 586.826 318.27 C 566.537 310.774 545.148 305.221 524.41 298.993 L 378.222 256.631 L 317.297 238.292 C 305.034 234.564 291.139 228.823 278.377 227.988 C 276.018 227.833 273.617 228.004 271.265 228.196 C 263.69 231.194 259.447 234.864 256.188 242.437 C 246.719 264.438 242.31 289.065 235.666 312.057 L 200.144 431.183 L 140.626 640.81 L 113.743 733.086 C 108.593 750.49 102.593 767.919 98.2943 785.542 C 96.4972 792.909 94.0442 802.626 96.9183 809.944 C 100.326 818.621 109.097 823.544 117.254 826.892 C 141.28 836.757 167.369 842.845 192.228 850.332 L 295.111 882.323 L 362.693 903.598 C 377.275 908.344 391.886 913.959 406.888 917.213 C 415.671 919.118 424.98 920.346 433.473 916.76 L 434.695 916.257 z M 629.107 288.792 C 632.391 275.544 633.966 264.498 632.948 250.888 C 622.264 238.389 605.297 234.974 594.795 222.645 C 580.198 205.51 590.394 161.239 555.3 158.215 C 539.215 156.829 517.594 166.633 505.248 152.218 C 496.641 142.17 497.138 124.757 493.888 112.493 C 485.417 80.5255 459.73 55.7785 426.493 52.405 C 409.099 54.8186 396.664 59.8875 385.788 74.2975 C 374.724 88.956 368.739 114.531 347.949 117.463 C 323.938 120.848 297.516 96.0458 275.717 124.076 C 268.964 132.759 263.801 144.029 265.326 155.226 C 266.48 163.695 271.791 171.937 278.624 176.982 C 297.879 191.197 340.732 200.641 364.755 207.846 C 411.978 222.01 459.66 234.892 506.744 249.425 C 546.718 262.15 591.21 271.289 629.107 288.792 z M 82.5422 637.743 C 86.9737 640.596 91.5702 643.328 95.8412 646.412 C 110.459 585.547 129.892 524.882 147.225 464.692 C 154.932 437.929 162.966 411.391 168.872 384.161 C 162.654 384.146 155.869 383.626 149.73 384.404 C 131.002 386.447 115.98 392.848 104.026 407.757 C 99.8505 412.965 96.9138 420.344 94.6236 426.582 C 87.3321 446.441 82.5737 467.426 76.5584 487.71 C 68.269 515.663 58.0578 543.802 53.2416 572.609 C 52.4364 577.425 52.5163 582.06 53.1267 586.884 C 55.4389 605.155 62.6326 622.435 77.4157 634.103 C 79.0601 635.401 80.794 636.59 82.5422 637.743 z"/>
<path transform="translate(0,0)" fill="rgb(49,71,88)" d="M 295.155 341.281 C 298.086 341.032 301.198 340.636 304.097 341.27 C 312.527 343.113 316.308 349.484 320.512 356.313 C 319.479 374.897 312.682 393.835 307.648 411.642 L 292.368 466.15 C 280.823 505.898 270.074 546.012 259.214 585.964 L 225.603 707.052 C 222.402 718.165 221.516 730.088 216.85 740.738 C 213.797 747.707 210.128 751.307 203.028 754.056 C 197.651 754.305 192.39 753.932 187.31 752.007 C 183.6 750.602 180.373 748.02 178.806 744.297 C 175.132 735.57 178.796 721.103 180.779 712.201 C 184.869 693.842 191.219 675.9 196.144 657.725 L 238.987 501.888 C 247.837 469.279 257.496 436.876 266.166 404.229 C 270.511 387.868 273.544 367.583 279.87 352.174 C 282.552 345.64 289.142 343.711 295.155 341.281 z"/>
<path transform="translate(0,0)" fill="rgb(49,71,88)" d="M 400.191 377.23 C 404.477 376.876 409.201 377.15 413.167 378.939 C 419.482 381.788 422.11 387.216 424.429 393.381 C 420.497 419.768 413.013 443.985 405.507 469.498 L 384.232 542.9 L 338.207 702.444 C 332.579 721.423 328.278 740.892 321.93 759.643 C 318.596 769.491 314.116 775.767 304.725 780.381 C 300.402 780.329 296.193 779.762 292.172 778.096 C 287.331 776.09 283.657 772.83 281.755 767.882 C 278.931 760.539 280.484 751.605 282.221 744.119 C 284.152 735.796 287.404 727.736 289.692 719.492 C 298.11 688.37 307.177 657.427 316.886 626.684 C 323.143 606.206 328.369 585.409 334.202 564.807 C 339.717 545.329 345.841 526.042 351.474 506.605 C 358.434 482.589 365.575 458.531 372.09 434.397 C 375.969 420.025 378.461 403.506 384.578 390.034 C 387.963 382.579 392.747 379.974 400.191 377.23 z"/>
<path transform="translate(0,0)" fill="rgb(49,71,88)" d="M 439.012 597.025 L 475.503 471.62 C 477.455 465.025 479.748 458.465 481.459 451.812 C 483.511 443.835 484.63 435.289 487.741 427.648 C 489.528 423.258 491.823 419.77 496.035 417.372 C 501.494 414.265 508.251 413.972 514.206 415.67 C 519.073 417.058 523.593 419.89 526.092 424.405 C 529.051 429.753 527.963 434.789 526.824 440.464 C 523.282 458.109 518.014 475.555 513.124 492.864 L 485.392 588.612 L 448.732 717.028 C 442.198 740.694 437.037 764.945 429.789 788.378 C 427.439 795.976 425.505 802.367 417.91 806.282 C 412.939 808.845 407.423 808.865 402.206 807.031 C 396.342 804.968 392.927 801.168 389.26 796.367 C 388.16 772.429 395.913 750.012 402.337 727.248 C 406.275 713.292 409.946 699.291 414.311 685.46 C 417.854 674.231 423.437 660.721 424.555 649.015 C 430.113 632.036 434.433 614.3 439.012 597.025 z"/>
<path transform="translate(0,0)" fill="rgb(49,71,88)" d="M 724.729 301.554 C 725.307 279.552 730.785 257.259 743.55 239.07 C 754.583 223.348 770.925 212.773 790.128 210.781 C 796.615 210.108 804.392 210.135 810.18 206.877 C 816.835 203.131 822.091 196.219 827.169 190.601 C 844.213 171.744 863.296 160.226 888.55 155.912 C 923.593 149.924 947.214 164.45 974.632 183.841 C 994.528 175.698 1018.14 172.247 1038.43 180.781 C 1053.03 186.921 1065.34 199.008 1073.54 212.405 C 1086.16 232.998 1092.08 259.683 1098.98 282.659 C 1105.04 302.818 1111.9 322.684 1118.29 342.733 C 1123.31 358.478 1127.61 374.443 1133.84 389.768 C 1167.91 380.009 1194.94 384.674 1225.52 400.745 C 1235.71 408.779 1247.62 417.889 1254.05 429.408 C 1265.47 449.875 1271.66 473.721 1278.62 496.011 L 1303.8 577.209 C 1311.63 602.327 1323.63 628.303 1326.65 654.452 C 1329.99 683.294 1322.83 709.888 1304.69 732.67 C 1303.88 733.696 1303.05 734.716 1302.22 735.729 C 1286.99 751.716 1271.31 760.64 1250.15 766.136 C 1255.26 790.536 1265.35 813.224 1270.86 837.301 C 1275.08 855.778 1274.64 873.877 1264.22 890.366 C 1257.2 901.472 1247.04 909.844 1235.25 915.528 C 1220.89 922.45 1204.65 925.772 1189.47 930.563 C 1156.86 940.856 1124.36 951.165 1091.58 960.898 L 982.994 993.053 C 963.02 998.968 943.518 1005.83 923.167 1010.46 C 903.864 1014.85 885.442 1016.11 867.99 1005.05 C 858.407 998.987 848.297 989.301 843.553 978.883 C 835.171 960.479 829.846 939.922 824.014 920.586 L 801.041 844.02 C 798.244 834.396 794.208 825.156 791.348 815.549 L 748.714 671.572 C 727.48 601.612 706.642 531.533 686.201 461.337 C 679.914 439.066 671.628 417.089 666.718 394.438 C 662.501 374.988 661.258 350.388 672.692 333.096 C 684.947 314.56 703.558 305.695 724.729 301.554 z M 719.492 417.768 C 755.047 410.786 815.004 380.667 848.235 382.925 C 853.141 383.294 857.866 384.932 861.946 387.68 C 867.06 391.076 870.977 395.723 874.729 400.5 C 884.992 412.824 898.552 433.488 915.936 434.836 C 923.069 435.389 930.469 433.112 935.841 428.366 C 943.055 421.992 945.597 414.054 946.071 404.622 C 947.096 384.226 941.968 356.982 958.904 341.604 C 974.136 327.773 1009.52 319.889 1029.65 312.91 C 1037.01 310.36 1045.18 307.968 1051.42 303.192 C 1055.18 300.318 1057.32 297.026 1057.59 292.231 C 1058.35 278.706 1043.97 239.128 1034.04 228.291 C 1028.92 222.707 1022.96 219.66 1015.34 219.486 C 998.192 219.095 980.67 228.128 963.483 224.259 C 937.006 218.297 930.072 193.709 896.559 199.364 C 880.221 201.103 865.68 207.465 855.164 220.541 C 844.74 233.502 839.366 248.218 820.481 250.402 C 804.849 252.211 789.715 249.435 778.436 263.348 C 763.928 281.244 775.002 306.131 764.948 325.286 C 749.558 354.604 699.583 328.95 705.552 379.715 C 707.296 394.547 710.609 405.529 719.492 417.768 z M 1237.91 729.209 C 1243.34 726.024 1248.96 723.613 1254.53 720.744 C 1268.79 711.237 1280.58 699.564 1284.17 682.049 C 1286.65 669.975 1285.86 656.861 1283.31 644.872 C 1278.59 622.648 1268.66 598.922 1261.51 577.076 C 1252.56 549.742 1229.4 468.054 1215.79 447.708 C 1209.59 438.45 1196.02 431.585 1185.24 429.606 C 1181.56 428.932 1177.74 428.647 1174.02 428.368 C 1165.1 428.867 1156.13 429.208 1147.25 430.261 C 1152.16 448.462 1156.26 466.859 1161.51 484.98 C 1175.7 533.991 1191.89 582.536 1206.97 631.284 L 1224.84 689.656 C 1228.84 702.768 1232.59 716.572 1237.91 729.209 z M 1075.07 346.036 C 1063.36 347.733 1051.79 350.354 1040.49 353.875 C 1028.66 357.989 1006.29 363.263 996.412 368.536 C 993.719 369.974 991.312 372.188 990.004 374.977 C 986.101 383.295 987.113 406.364 985.633 416.915 C 985.604 417.069 985.577 417.223 985.546 417.377 C 981.737 436.576 970.856 454.246 954.536 465.182 C 939.427 475.307 917.929 477.849 900.269 474.313 C 873.643 468.983 852.894 444.974 838.441 423.369 C 837.909 423.706 837.366 424.024 836.811 424.323 C 830.179 427.967 822.533 429.696 815.302 431.853 C 795.926 437.635 765.288 443.987 748.191 452.136 C 742.659 454.772 736.209 458.572 734.172 464.732 C 732.54 469.665 733.654 474.496 734.929 479.364 C 743.375 511.615 754.327 543.567 763.749 575.574 L 834.859 812.444 C 844.644 844.41 853.549 876.612 863.431 908.556 C 868.001 923.331 871.924 939.527 878.877 953.35 C 882.468 960.489 887.332 966.532 895.164 969.02 C 900.641 970.761 905.496 971.363 911.132 970.216 C 931.131 966.145 951.046 958.879 970.552 952.888 L 1075.39 920.773 C 1095.37 914.721 1115.43 908.464 1135.53 902.909 C 1158.85 896.466 1194.49 888.188 1215.59 877.056 C 1221.55 873.915 1228.15 869.372 1230.16 862.581 C 1232.06 856.177 1230.31 849.148 1228.56 842.892 C 1225.41 831.662 1220.96 820.789 1217.44 809.666 L 1191.67 726.661 L 1128.55 519.553 L 1089.49 391.507 C 1085 377.048 1082.17 359.214 1075.07 346.036 z"/>
<path transform="translate(0,0)" fill="rgb(49,71,88)" d="M 1035.61 462.105 C 1038.69 462.092 1041.57 462.122 1044.45 463.362 C 1051.42 466.362 1054.8 472.668 1057.38 479.397 C 1064.04 496.807 1068.94 515.115 1074.45 532.926 C 1086.94 573.451 1099.08 614.08 1110.89 654.809 L 1138.29 746.387 C 1144.13 765.343 1151.33 784.663 1155.66 803.999 C 1157.19 810.88 1159.06 818.15 1155.93 824.842 C 1152.81 831.511 1146.14 834.143 1139.59 836.401 C 1133.43 836.131 1128.77 834.386 1123.17 832.023 C 1120.44 828.396 1117.41 824.067 1115.68 819.878 C 1111.92 810.769 1110.45 799.835 1107.79 790.288 C 1102.07 769.762 1095.83 749.245 1089.56 728.874 L 1043.44 575.046 C 1035.63 549.247 1026.12 523.492 1019.26 497.473 C 1017.59 491.138 1014.24 480.193 1017 474.032 C 1020.25 466.798 1028.81 464.667 1035.61 462.105 z"/>
<path transform="translate(0,0)" fill="url(#Gradient1)" d="M 934.694 504.234 C 936.575 504.08 938.727 503.814 940.59 504.182 C 945.219 505.097 948.851 508.512 951.494 512.257 C 961.139 525.921 974.732 580.747 980.602 600.591 L 1010.68 701.14 L 1035.56 781.977 C 1039.46 794.314 1044.22 806.453 1047.66 818.92 C 1049.39 825.2 1052.4 834.322 1051.29 840.781 C 1050.63 844.597 1049.98 848.329 1047.77 851.601 C 1044.05 857.093 1039.29 858.51 1033.04 859.594 C 1027.22 859.858 1022.77 857.961 1017.71 855.277 C 1013.4 848.691 1010.44 841.757 1007.86 834.354 C 1002.08 817.786 998.165 800.467 992.987 783.691 C 978.999 739.327 965.354 694.856 952.051 650.282 L 929.34 575.837 C 925.288 562.859 920.027 549.785 917.251 536.47 C 915.856 529.782 914.086 518.061 918.165 512.177 C 921.815 506.91 928.781 505.185 934.694 504.234 z"/>
<path transform="translate(0,0)" fill="rgb(49,71,88)" d="M 834.491 537.231 C 837.073 537.03 840.652 537.237 842.929 538.557 C 849.159 542.171 853.244 553.972 855.696 560.564 C 867.061 591.121 874.14 623.878 883.999 655.043 L 918.257 766.461 C 926.226 792.063 935.452 817.686 941.739 843.753 C 943.948 852.913 949.51 870.564 944.11 878.902 C 940.314 884.763 932.329 885.884 926.044 887.243 C 922.268 886.348 918.633 885.267 915.394 883.05 C 910.949 880.008 908.997 876.601 907.122 871.69 C 902.355 859.203 899.024 845.849 895.147 833.038 C 886.918 804.924 878.445 776.882 869.728 748.915 L 831.195 623.428 C 825.167 603.605 817.247 584.003 813.399 563.606 C 812.283 557.693 810.944 552.346 814.726 547.063 C 819.129 540.913 827.406 538.399 834.491 537.231 z"/>
<path transform="translate(0,0)" fill="rgb(0,0,0)" fill-opacity="0.0666667" d="M 1330.27 623.271 L 1332 617.515 L 1332 628.2 L 1330.27 623.271 z"/>
</svg>