<svg version="1.1" xmlns="http://www.w3.org/2000/svg" style="display: block;" viewBox="0 0 1068 1024" width="267" height="256" preserveAspectRatio="none">
<path transform="translate(0,0)" fill="rgb(48,71,88)" d="M 98.8667 39.8005 C 124.099 27.2628 154.418 24.4651 181.95 19.8835 C 198.268 17.1681 215.137 13.5426 231.711 13.1392 C 239.745 12.9436 249.073 13.7151 256.719 16.2691 C 264.116 18.7396 272.6 26.995 278.223 32.247 C 289.76 43.0245 300.191 55.0653 311.124 66.4564 C 327.179 83.1846 343.623 99.5644 359.84 116.139 C 404.283 161.562 449.708 206.092 494.712 250.961 C 513.198 269.391 530.929 289.367 550.306 306.821 C 552.634 302.451 555.123 298.653 558.097 294.707 C 574.363 277.716 591.384 261.416 607.788 244.535 C 638.581 212.847 669.857 178.062 706.591 153.167 C 736.697 132.763 771.523 117.189 804.424 101.704 C 824.595 92.2111 848.873 78.098 871.464 77.4701 C 885.951 77.0674 899.536 83.3044 909.813 93.282 C 918.128 101.355 923.656 112.14 923.734 123.889 C 923.771 129.365 922.591 134.842 920.862 140.018 C 911.301 168.636 896.601 196.085 883.674 223.307 C 873.291 245.171 863.747 268.428 851.048 288.985 C 845.49 297.981 838.643 305.448 831.15 312.863 C 805.181 338.295 779.358 363.875 753.681 389.602 C 734.74 408.64 716.105 428.665 695.975 446.426 L 915.65 667.094 L 975.77 727.149 C 986.071 737.499 996.395 749.621 1007.77 758.671 L 1008.23 759.257 C 1028.34 784.419 1048.89 790.126 1055.63 825.699 C 1056.69 843.501 1056.97 862.732 1056.1 880.521 C 1055.67 889.162 1053.56 897.346 1049.04 904.78 C 1038.62 921.885 989.033 965.454 972.001 980.81 C 949.642 1000.97 930.945 1013.32 899.829 1011.6 C 884.7 1010.76 871.445 1007.03 859.108 998.003 C 848.206 990.028 839.077 979.783 829.485 970.329 C 810.778 951.891 792.397 933.042 773.297 915.015 C 705.498 851.218 638.588 786.483 572.585 720.83 C 547.916 696.175 521.275 672.4 498.105 646.408 C 485.66 660.171 471.861 672.92 458.677 685.985 C 431.966 712.259 405.521 738.802 379.346 765.609 C 332.122 815.33 284.296 864.475 235.879 913.033 L 190.927 958.585 C 181.021 968.446 171.275 978.891 159.89 987.069 C 146.152 996.937 128.872 1001.89 112.004 998.982 C 86.1666 994.526 68.8601 973.823 51.4258 956.102 C 41.4008 945.912 30.9637 935.855 22.6779 924.148 C 10.6898 907.211 6.56746 886.913 10.2954 866.49 C 11.7538 858.467 15.1932 850.934 20.3013 844.577 C 28.5904 834.282 38.3261 824.725 47.4052 815.095 C 65.4843 795.893 83.761 776.878 102.232 758.054 C 154.902 703.315 208.353 649.334 262.568 596.125 C 283.73 575.042 304.278 553.366 325.475 532.325 C 334.664 523.203 343.992 512.467 354.628 505.066 C 330.839 486.159 309.592 463.046 288.025 441.666 L 178.715 332.368 C 156.183 309.682 132.996 287.674 110.585 264.86 C 97.2773 251.314 83.0537 237.789 72.5089 221.905 C 68.9771 216.585 66.4612 211.922 65.2976 205.581 C 60.9096 181.665 67.7845 101.5 73.038 76.2087 C 76.5405 59.3468 84.6733 49.1109 98.8667 39.8005 z M 128.622 951.481 C 145.566 940.296 159.489 923.288 173.849 908.949 L 266.612 814.927 L 638.735 437.476 L 737.693 337.992 C 753.635 322.102 769.185 304.516 786.629 290.362 C 775.554 278.717 715.735 216.795 706.872 213.495 C 694.865 223.472 684.134 235.13 673.119 246.19 L 619.326 300.314 C 583.914 335.857 548.023 371.006 513.108 407.026 L 415.343 509.848 C 338.666 589.129 259.848 666.533 181.901 744.578 C 147.095 779.428 111.833 813.957 77.9771 849.733 C 71.2897 856.8 54.2493 872.276 53.3669 882.138 C 52.7203 889.365 62.0537 899.075 66.6309 904.193 C 74.8875 913.427 110.776 953.372 121.472 953.895 C 124.019 954.019 126.447 952.655 128.622 951.481 z M 952.867 772.681 C 919.594 801.589 887.969 839.327 856.068 870.813 C 845.926 880.823 835.731 892.158 824.099 900.425 C 846.988 920.424 866.185 944.312 890.625 962.52 C 899.462 966.314 908.949 967.485 918.053 963.723 C 931.049 958.352 1007.23 883.456 1012.15 871.298 C 1015.7 862.516 1013.64 840.934 1009.9 832.422 C 1008.17 828.489 1005.73 824.933 1002.91 821.707 C 999.497 817.813 954.588 773.408 952.867 772.681 z M 197.436 284.976 C 238.931 327.829 282.259 368.787 324.77 410.63 L 365.332 450.836 C 372.418 457.915 379.612 466.297 387.487 472.436 C 397.695 458.073 423.456 431.945 437.678 421.781 C 386.906 373.719 337.757 323.926 288.013 274.808 C 279.61 266.51 255.503 239.025 248.799 234.739 C 231.712 251.374 215.514 269.456 197.436 284.976 z M 278.662 203.324 C 306.333 227.629 331.269 254.729 357.645 280.384 C 394.411 316.144 432.311 350.626 467.199 388.292 C 470.798 387.271 475.303 379.263 477.987 376.16 C 489.623 362.713 502.504 350.229 514.881 337.459 C 498.074 319.451 334.18 153.033 329.629 151.624 C 313.235 169.434 296.236 186.678 278.662 203.324 z M 783.31 223.592 C 794.628 234.436 806.946 246.053 815.849 258.95 C 821.193 245.877 828.428 233.593 834.527 220.857 C 843.461 202.203 851.647 183.111 860.22 164.283 C 865.814 151.996 873.581 137.287 876.083 124.135 L 874.955 122.99 C 845.345 134.836 816.554 146.969 787.924 161.152 C 775.26 167.425 759.866 178.451 747.047 182.869 C 751.101 191.216 775.476 215.066 783.31 223.592 z M 844.583 817.974 C 822.067 798.063 801.312 775.22 779.698 754.253 C 729.814 706.283 680.184 658.049 630.811 609.552 C 619.964 598.853 609.2 588.069 598.52 577.203 C 593.169 571.718 588.104 565.687 582.403 560.585 C 571.561 574.138 542.212 604.617 528.418 614.709 C 553.131 635.046 575.841 661.411 599.054 683.767 C 631.389 714.91 664.594 745.14 696.735 776.473 C 728.696 807.631 759.667 839.935 792.136 870.54 C 808.98 852.352 826.721 835.146 844.583 817.974 z M 226.799 60.4109 C 210.359 61.5543 127.885 72.2469 119.896 81.8962 C 113.216 89.9635 108.35 173.959 110.46 187.781 C 111.264 193.049 112.952 197.718 115.866 202.195 C 124.281 215.128 153.587 242.111 165.878 255.027 L 174.423 245.324 C 198.238 220.168 221.813 194.934 246.597 170.706 L 279.873 138.418 C 286.004 132.526 292.773 126.801 298.374 120.414 C 285.476 103.502 255.53 71.4937 238.462 59.8392 C 234.683 59.9749 230.509 59.7661 226.799 60.4109 z M 616.158 527.212 C 640.492 554.239 667.721 579.465 693.501 605.143 C 734.44 646.22 775.634 687.043 817.08 727.608 C 836.74 746.612 857.455 764.381 876.385 784.155 C 881.722 782.957 913.064 748.159 919.998 741.057 C 912.029 728.953 900.23 718.841 889.958 708.672 L 847.947 667.022 L 710.005 527.465 C 700.577 517.99 691.27 508.395 682.087 498.683 C 676.623 492.79 670.938 484.775 664.546 479.995 L 663.509 479.8 C 647.864 495.742 632.08 511.546 616.158 527.212 z"/>
</svg>