<svg version="1.1" xmlns="http://www.w3.org/2000/svg" style="display: block;" viewBox="0 0 1260 1024" width="315" height="256" preserveAspectRatio="none">
<path transform="translate(0,0)" fill="rgb(49,70,88)" d="M 556.092 35.0885 C 564.152 31.7121 570.059 23.7186 578.816 20.1517 C 609.126 7.57811 643.22 7.72985 673.417 20.5727 C 698.303 35.1597 715.064 56.9769 722.46 85.0522 C 729.039 110.751 725.299 138.004 712.043 160.981 C 703.661 175.261 691.525 185.775 678.209 195.284 C 691.603 219.809 706.649 243.148 721.121 267.026 C 726.856 276.487 732.347 288.833 739.137 297.403 L 811.992 420.331 C 819.54 432.845 826.498 446.136 834.516 458.302 C 843.118 476.701 855.803 493.757 866.148 511.234 C 880.406 496.261 898.181 483.172 914.221 470.075 L 990.258 408.127 C 1028.51 377.167 1065.25 342.853 1105.78 314.901 C 1086.26 298.306 1073.51 280.708 1070.27 254.74 C 1067.25 230.562 1072.76 205.089 1087.95 185.719 C 1102.68 166.948 1122.58 155.354 1146.29 152.593 C 1173.72 149.4 1199.61 153.262 1221.68 170.88 C 1239.59 185.191 1251.16 205.966 1253.91 228.728 C 1256.91 255.689 1252.23 281.38 1234.96 302.822 C 1217.72 324.235 1192.18 335.462 1165.16 338.454 C 1164 368.916 1156.83 398.27 1153.11 428.374 C 1146.35 480.591 1138.92 532.718 1130.83 584.745 C 1127.92 603.019 1124.02 621.169 1121.27 639.449 C 1115.08 680.641 1110.21 722.172 1104.75 763.479 C 1100.97 792.018 1094.56 820.646 1092.31 849.319 C 1089.62 883.673 1096.37 918.411 1096.1 952.889 C 1095.95 971.118 1094.8 990.579 1080.92 1003.99 C 1073.55 1011.11 1064.38 1016.67 1054.06 1017.84 C 1024.34 1021.2 987.495 1018.64 957.004 1018.65 L 762.072 1018.73 L 395.2 1018.72 C 337.06 1018.7 278.652 1020.03 220.552 1018.82 C 204.244 1018.47 189.23 1015.58 177.482 1003.14 C 149.692 973.701 172.175 900.72 169.74 862.463 C 168.267 839.306 163.345 816.11 159.626 793.229 C 155.173 765.831 151.415 738.27 147.121 710.835 C 144.336 693.038 142.713 675.102 140.016 657.302 C 129.335 586.818 118.035 516.604 108.397 445.954 C 103.563 410.515 92.9248 375.194 94.1005 339.135 C 92.1899 339.08 90.2812 338.97 88.3768 338.807 C 64.7328 336.73 39.4689 321.064 24.5321 303.077 C 7.76862 282.891 3.16668 256.731 5.65977 231.046 C 8.02247 206.703 19.6868 185.685 38.5333 170.213 C 58.3312 153.96 85.0763 149.528 110.003 152.095 C 134.776 154.645 155.369 165.624 171.069 185.026 C 187.059 204.787 192.922 230.825 190.225 255.79 C 187.645 279.669 176.979 300.517 158.251 315.686 L 392.169 512.039 C 396.987 498.347 407.816 485.136 415.595 472.833 C 424.464 458.81 432.939 444.377 441.47 430.137 L 531.618 280.183 C 547.028 254.541 561.815 225.283 580.034 201.734 C 579.914 201.641 579.792 201.549 579.672 201.454 C 554.108 181.145 532.653 158.971 528.53 125.109 C 525.731 102.127 527.954 75.4308 540.439 55.3298 C 544.87 48.1965 550.896 41.7114 556.092 35.0885 z M 140.601 362.086 C 146.509 395.379 150.971 428.565 156.078 461.952 L 187.941 671.006 C 194.306 712.044 200.536 752.928 206.15 794.078 C 208.214 809.207 212.385 823.971 212.124 839.369 C 260.352 837.982 308.856 839.067 357.115 839.07 L 625.75 839.078 L 912.112 839.065 L 999.489 838.998 C 1015.48 838.97 1032.3 839.963 1048.16 838.146 C 1048.05 811.642 1054.6 785.721 1058.11 759.628 C 1064.37 713.074 1070.48 666.473 1077.44 620.022 C 1080.79 597.636 1085.17 575.386 1088.54 553.007 L 1103.32 450.831 C 1107.21 423.031 1108.31 390.624 1119.39 364.652 C 1079.9 400.614 1036.78 432.482 995.879 466.801 L 909.06 538.794 C 895.689 549.694 882.837 561.995 868.418 571.467 C 864.659 573.936 861.76 574.642 857.305 574.47 C 852.295 574.276 848.119 572.831 844.708 569.092 C 833.002 556.261 825.045 539.074 816.392 524.057 C 808.172 509.791 799.583 495.717 791.262 481.504 L 694.694 318.687 C 675.092 285.228 656.839 250.784 636.365 217.858 C 634.536 214.916 632.547 210.927 629.372 209.326 C 619.227 227.319 608.016 244.783 597.554 262.613 C 562.119 323.395 526.083 383.823 489.451 443.891 L 442.356 522.752 C 434.176 536.368 426.316 551.025 416.82 563.744 C 413.412 568.307 408.89 572.418 403.306 574.021 C 398.557 575.384 393.373 572.258 389.29 569.91 C 374.749 561.548 361.589 549.109 348.82 538.281 L 295.942 493.677 C 264.908 468.39 234.096 442.832 203.509 417.006 C 182.335 399.453 159.648 381.94 140.601 362.086 z M 1155.2 198.479 C 1130.06 202.43 1112.85 225.986 1116.74 251.141 C 1120.63 276.296 1144.15 293.558 1169.31 289.731 C 1194.56 285.891 1211.9 262.277 1208 237.034 C 1204.09 211.791 1180.44 194.514 1155.2 198.479 z M 87.465 198.742 C 62.6008 204.405 46.9719 229.078 52.4775 253.977 C 57.983 278.877 82.5576 294.66 107.491 289.312 C 132.647 283.915 148.603 259.073 143.049 233.951 C 137.494 208.829 112.551 193.03 87.465 198.742 z M 1044.22 884.852 L 827.243 884.764 L 410.007 884.773 L 277.506 884.749 C 266.716 884.737 224.391 882.842 216.444 885.586 L 216.381 888.032 C 212.898 909.982 209.643 942.389 212.085 964.03 L 211.968 972.327 C 230.215 973.75 248.877 972.901 267.175 972.818 C 295.202 972.624 323.23 972.657 351.256 972.916 L 680.083 973.055 L 936.967 972.972 C 958.59 972.847 980.213 972.858 1001.84 973.004 C 1015.24 973.033 1029.07 973.666 1042.39 972.186 C 1044.4 972.069 1046.04 972.205 1047.6 970.811 C 1053.1 946.227 1043.7 910.736 1044.22 884.852 z M 614.683 58.7395 C 586.603 64.7401 568.699 92.3627 574.688 120.445 C 580.678 148.528 608.293 166.442 636.378 160.464 C 664.479 154.483 682.406 126.848 676.413 98.7498 C 670.42 70.6513 642.779 52.7355 614.683 58.7395 z"/>
<path transform="translate(0,0)" fill="rgb(55,70,75)" d="M 211.968 972.327 C 230.215 973.75 248.877 972.901 267.175 972.818 C 295.202 972.624 323.23 972.657 351.256 972.916 L 680.083 973.055 L 936.967 972.972 C 958.59 972.847 980.213 972.858 1001.84 973.004 C 1015.24 973.033 1029.07 973.666 1042.39 972.186 L 1043.13 973.26 C 1039.45 975.848 1025.95 974.976 1021.04 975.206 L 1021.76 975.429 C 1003.39 977.566 985.368 976.692 966.971 976.763 C 951.223 976.825 935.717 977.759 919.946 977.06 L 921.784 975.356 C 916.074 975.635 910.426 975.002 904.724 974.995 L 862.127 975.275 L 754.002 975.469 L 391.476 975.441 C 371.707 975.478 224.6 980.173 215.494 976.156 C 213.669 975.351 212.687 974.126 211.968 972.327 z"/>
</svg>