<svg version="1.1" xmlns="http://www.w3.org/2000/svg" style="display: block;" viewBox="0 0 2048 2048" width="800" height="800" preserveAspectRatio="none">
<path transform="translate(0,0)" fill="rgb(68,126,150)" d="M 686.352 652.48 C 703.811 635.817 722.035 623.41 743.584 612.639 C 755.728 606.569 768.11 600.724 781.126 596.772 C 813.622 586.905 857.292 584.698 889.873 595.528 C 891.205 595.988 892.894 596.318 893.98 597.219 C 912.748 608.844 931.402 617.766 952.835 623.392 C 1018.29 640.572 1084.59 630.16 1142.65 596.272 L 1143.15 595.813 L 1144.93 595.943 C 1217.25 581.357 1267.34 592.306 1328.6 632.943 C 1337.12 638.591 1345.31 644.369 1351.02 653.007 C 1370 660.705 1387.07 672.218 1403.81 683.87 C 1472.37 731.581 1559.37 815.977 1592.16 893.956 C 1608.83 933.6 1610.42 978.155 1594.05 1018.09 C 1577.28 1058.99 1534.71 1105.79 1498.92 1131.78 C 1508.44 1158.18 1514.39 1187.01 1521.32 1214.22 C 1538.58 1281.28 1553.74 1348.87 1566.8 1416.87 C 1573.54 1449.98 1579.37 1483.27 1584.28 1516.7 C 1586.32 1530.2 1589.32 1544.33 1589.98 1557.93 C 1592.77 1571.56 1594.37 1585.59 1596.08 1599.39 C 1598.75 1620.95 1609.36 1688.75 1597.26 1704.44 C 1589.44 1714.58 1571.11 1717.96 1559 1719 C 1532.15 1721.3 1505.17 1716.51 1478.4 1719.33 C 1447.2 1722.62 1417.16 1735.11 1387.33 1744.31 C 1369.46 1749.82 1351.35 1753.84 1333.43 1759.01 C 1333.84 1774.15 1335.57 1789.81 1335.15 1804.88 C 1337.67 1826.59 1336.35 1849.41 1336.98 1871.3 C 1339.49 1888.52 1338.72 1907.5 1339.19 1924.93 C 1370.38 1942.61 1415.56 1961.73 1427.69 1998.47 C 1430.35 2006.52 1432.19 2017.17 1428.01 2024.95 C 1424.89 2030.77 1419.23 2033.66 1413.12 2035.44 C 1374.8 2046.64 1185.77 2043.36 1144.89 2033.41 C 1140.88 2032.44 1137.47 2030.83 1133.87 2028.85 C 1129.04 2012.25 1129.57 1992.92 1128.22 1975.64 C 1126.12 1948.8 1123.88 1921.89 1121.26 1895.09 C 1118.91 1870.57 1116.15 1846.09 1112.99 1821.65 C 1110.82 1804.64 1107.87 1787.41 1106.99 1770.28 C 1063.51 1775.96 1019.16 1776.44 975.392 1774.39 C 959.507 1773.64 943.58 1771.68 927.746 1771.05 C 926.386 1766.94 935.026 1719.81 936.624 1712.7 C 857.612 1721.1 785.328 1716.25 707.288 1703.42 C 705.002 1722.02 705.957 1740.8 703.862 1759.34 L 702.643 1759.97 C 692.647 1755.57 668.338 1752.35 655.948 1748.97 C 622.276 1739.77 588.836 1723.87 554.038 1719.78 C 521.75 1715.99 474.97 1725.51 446.422 1712.92 C 439.768 1709.99 434.429 1705.68 432.051 1698.61 C 425.214 1678.29 433.981 1615.13 436.801 1591.5 C 452.465 1452.94 476.856 1315.5 509.828 1180.02 C 513.867 1163.54 518.012 1137.88 525.564 1123.19 C 518.742 1115.99 510.921 1109.54 503.739 1102.67 C 480.108 1080.06 458.466 1055.6 444.738 1025.62 C 426.046 984.928 424.526 938.421 440.523 896.593 C 474.415 805.911 599.503 692.029 686.352 652.48 z"/>
<path transform="translate(0,0)" fill="rgb(68,126,150)" d="M 686.352 652.48 C 703.811 635.817 722.035 623.41 743.584 612.639 C 755.728 606.569 768.11 600.724 781.126 596.772 C 813.622 586.905 857.292 584.698 889.873 595.528 C 891.205 595.988 892.894 596.318 893.98 597.219 C 912.748 608.844 931.402 617.766 952.835 623.392 C 1018.29 640.572 1084.59 630.16 1142.65 596.272 L 1143.15 595.813 L 1144.93 595.943 C 1217.25 581.357 1267.34 592.306 1328.6 632.943 C 1337.12 638.591 1345.31 644.369 1351.02 653.007 C 1370 660.705 1387.07 672.218 1403.81 683.87 C 1472.37 731.581 1559.37 815.977 1592.16 893.956 C 1608.83 933.6 1610.42 978.155 1594.05 1018.09 C 1577.28 1058.99 1534.71 1105.79 1498.92 1131.78 C 1481.3 1144.09 1464.3 1157.3 1446.21 1168.96 C 1436.08 1175.49 1425.37 1180.9 1414.95 1186.94 C 1407.31 1213.96 1394.1 1236.18 1368.86 1250.07 C 1350.21 1260.55 1328.14 1263.1 1307.6 1257.15 C 1301.86 1255.45 1296.18 1253.48 1290.51 1251.55 C 1278.78 1244.07 1267.87 1235.39 1262.98 1221.89 C 1259.26 1206.63 1249.27 1200 1244.78 1186.28 C 1240.56 1173.35 1242.59 1160.02 1248.91 1148.21 C 1238.16 1148.56 1226.98 1151.2 1216.24 1152.57 C 1192.35 1155.62 1168.08 1158.45 1144.05 1160.05 C 1132.29 1160.83 1063.07 1163.39 1058.16 1165.17 C 1047.1 1155.11 1035.44 1148.29 1019.97 1147.64 C 1002.23 1146.88 989.303 1154.43 976.791 1166.03 C 913.629 1161.76 851.088 1156.32 788.213 1149.12 C 794.594 1160.27 796.668 1172.16 793.058 1184.65 C 789.107 1198.32 777.151 1206.56 773.202 1220.23 C 769.304 1233.1 757.419 1245.12 745.426 1251.19 C 744.998 1251.41 744.564 1251.61 744.133 1251.82 C 739.003 1253.79 733.879 1255.84 728.576 1257.3 C 706.185 1263.63 682.18 1260.56 662.108 1248.79 C 637.511 1234.44 626.596 1212.17 619.454 1185.58 C 609.707 1177.89 585.827 1167.16 573.451 1159.01 C 556.802 1148.06 542.157 1133.93 525.564 1123.19 C 518.742 1115.99 510.921 1109.54 503.739 1102.67 C 480.108 1080.06 458.466 1055.6 444.738 1025.62 C 426.046 984.928 424.526 938.421 440.523 896.593 C 474.415 805.911 599.503 692.029 686.352 652.48 z"/>
<path transform="translate(0,0)" fill="rgb(242,195,158)" d="M 703.084 1080.18 C 717.764 1077.8 730.833 1077.66 745.542 1079.85 C 760.204 1084.08 773.696 1089.84 781.719 1103.8 C 787.92 1114.6 788.031 1125.14 786.769 1137.07 C 786.499 1139.62 785.629 1143.06 785.99 1145.56 C 786.263 1147.44 786.846 1147.93 788.213 1149.12 C 794.594 1160.27 796.668 1172.16 793.058 1184.65 C 789.107 1198.32 777.151 1206.56 773.202 1220.23 C 769.304 1233.1 757.419 1245.12 745.426 1251.19 C 744.998 1251.41 744.564 1251.61 744.133 1251.82 C 739.003 1253.79 733.879 1255.84 728.576 1257.3 C 706.185 1263.63 682.18 1260.56 662.108 1248.79 C 637.511 1234.44 626.596 1212.17 619.454 1185.58 C 617.832 1165.99 621.469 1147.97 631.479 1130.98 C 647.571 1103.67 673.001 1088.13 703.084 1080.18 z"/>
<path transform="translate(0,0)" fill="rgb(242,195,158)" d="M 1289.7 1080.45 C 1304.58 1078.01 1318.46 1077.84 1333.43 1079.67 C 1362.58 1087.52 1388.93 1104.28 1404.15 1131.04 C 1414.47 1149.19 1416.08 1166.43 1414.95 1186.94 C 1407.31 1213.96 1394.1 1236.18 1368.86 1250.07 C 1350.21 1260.55 1328.14 1263.1 1307.6 1257.15 C 1301.86 1255.45 1296.18 1253.48 1290.51 1251.55 C 1278.78 1244.07 1267.87 1235.39 1262.98 1221.89 C 1259.26 1206.63 1249.27 1200 1244.78 1186.28 C 1240.56 1173.35 1242.59 1160.02 1248.91 1148.21 C 1249.58 1147.64 1250.68 1145.88 1250.88 1145.04 C 1251.26 1143.49 1250.64 1140.17 1250.56 1138.39 C 1250.04 1127.51 1249.33 1117.94 1254.03 1107.68 C 1261.11 1092.19 1274.65 1085.92 1289.7 1080.45 z"/>
<path transform="translate(0,0)" fill="rgb(242,195,158)" d="M 893.98 597.219 C 912.748 608.844 931.402 617.766 952.835 623.392 C 1018.29 640.572 1084.59 630.16 1142.65 596.272 C 1137.43 605.815 1138.67 613.309 1138.07 623.673 L 1138.95 657.187 C 1110.87 678.356 1080.34 693.082 1045.2 697.617 C 988.626 704.916 941.479 691.421 896.464 656.892 C 899.197 641.994 898.072 625.3 898.102 610.195 C 897.607 606.28 896.551 604.147 894.426 600.817 C 893.414 599.23 893.776 599.022 893.98 597.219 z"/>
<path transform="translate(0,0)" fill="rgb(223,154,122)" d="M 893.98 597.219 C 912.748 608.844 931.402 617.766 952.835 623.392 C 1018.29 640.572 1084.59 630.16 1142.65 596.272 C 1137.43 605.815 1138.67 613.309 1138.07 623.673 C 1136.44 625.548 1134.8 627.43 1133.06 629.201 C 1110.22 652.407 1053.29 661.421 1022.26 661.221 C 981.225 660.957 933.29 648.351 903.729 618.249 C 902.93 615.492 902.861 613.375 901.335 610.774 L 898.102 610.195 C 897.607 606.28 896.551 604.147 894.426 600.817 C 893.414 599.23 893.776 599.022 893.98 597.219 z"/>
<path transform="translate(0,0)" fill="rgb(213,87,83)" d="M 686.352 652.48 C 703.811 635.817 722.035 623.41 743.584 612.639 C 755.728 606.569 768.11 600.724 781.126 596.772 C 813.622 586.905 857.292 584.698 889.873 595.528 C 891.205 595.988 892.894 596.318 893.98 597.219 C 893.776 599.022 893.414 599.23 894.426 600.817 C 896.551 604.147 897.607 606.28 898.102 610.195 C 898.072 625.3 899.197 641.994 896.464 656.892 C 894.106 662.613 891.439 668.377 887.805 673.416 C 864.193 706.157 825.546 682.8 798.065 669.633 C 784.464 663.117 770.678 656.769 756.016 653.011 C 732.724 647.04 709.814 648.824 686.352 652.48 z"/>
<path transform="translate(0,0)" fill="rgb(213,87,83)" d="M 1144.93 595.943 C 1217.25 581.357 1267.34 592.306 1328.6 632.943 C 1337.12 638.591 1345.31 644.369 1351.02 653.007 C 1327.61 650.483 1307.28 646.061 1283.63 651.295 C 1269.31 654.464 1255.07 659.934 1241.79 666.101 C 1214.92 678.578 1172.19 707.295 1147.26 675.361 C 1143.12 670.05 1140.43 663.736 1138.95 657.187 L 1138.07 623.673 C 1138.67 613.309 1137.43 605.815 1142.65 596.272 L 1143.15 595.813 L 1144.93 595.943 z"/>
<path transform="translate(0,0)" fill="rgb(190,66,63)" d="M 703.084 1080.18 C 687.697 1062.88 639.96 997.163 641.573 974.815 C 642.537 961.456 662.74 947.139 672.594 939.186 C 685.965 928.396 701.32 916.887 717.149 909.97 C 726.608 966.554 737.47 1023.05 745.542 1079.85 C 730.833 1077.66 717.764 1077.8 703.084 1080.18 z"/>
<path transform="translate(0,0)" fill="rgb(213,87,83)" d="M 1317.45 910.587 C 1336.34 920.534 1383.59 951.486 1390.13 971.67 C 1394.27 984.447 1383.03 1004.4 1376.96 1015.31 C 1364.35 1037.99 1349.24 1059.14 1333.43 1079.67 C 1318.46 1077.84 1304.58 1078.01 1289.7 1080.45 C 1291.05 1063.62 1294.36 1047.2 1297.32 1030.6 C 1302.27 1003.49 1306.99 976.342 1311.46 949.15 C 1313.56 936.387 1316.18 923.444 1317.45 910.587 z"/>
<path transform="translate(0,0)" fill="rgb(213,87,83)" d="M 1018.08 767.544 C 1027.74 777.663 1055.39 838.625 1060.75 853.81 C 1091.77 853.31 1122.81 853.602 1153.83 853.334 C 1144.85 862.554 1137.03 873.174 1128.94 883.186 L 1090.91 929.916 C 1095.54 938.801 1101.36 947.194 1106.6 955.739 C 1117.95 974.245 1129.48 992.777 1139.99 1011.77 C 1113.34 1007.02 1086.29 999.705 1060.11 992.722 C 1054.91 1006.55 1026.89 1067.5 1019.18 1076.38 C 1003.76 1049.11 992.818 1019.34 976.525 992.538 C 950.014 1001.7 920.643 1006.65 893.246 1012.67 C 907.3 982.497 928.401 955.513 944.853 926.601 C 928.92 903.136 903.595 876.441 885.156 853.771 C 915.651 852.513 946.531 853.574 977.063 853.703 C 991.223 826.093 1000.88 793.342 1018.08 767.544 z"/>
<path transform="translate(0,0)" fill="rgb(213,87,83)" d="M 1414.95 1186.94 C 1425.37 1180.9 1436.08 1175.49 1446.21 1168.96 C 1464.3 1157.3 1481.3 1144.09 1498.92 1131.78 C 1508.44 1158.18 1514.39 1187.01 1521.32 1214.22 C 1538.58 1281.28 1553.74 1348.87 1566.8 1416.87 C 1573.54 1449.98 1579.37 1483.27 1584.28 1516.7 C 1586.32 1530.2 1589.32 1544.33 1589.98 1557.93 C 1592.77 1571.56 1594.37 1585.59 1596.08 1599.39 C 1598.75 1620.95 1609.36 1688.75 1597.26 1704.44 C 1589.44 1714.58 1571.11 1717.96 1559 1719 C 1532.15 1721.3 1505.17 1716.51 1478.4 1719.33 C 1447.2 1722.62 1417.16 1735.11 1387.33 1744.31 C 1369.46 1749.82 1351.35 1753.84 1333.43 1759.01 C 1333.84 1774.15 1335.57 1789.81 1335.15 1804.88 C 1337.67 1826.59 1336.35 1849.41 1336.98 1871.3 C 1339.49 1888.52 1338.72 1907.5 1339.19 1924.93 C 1370.38 1942.61 1415.56 1961.73 1427.69 1998.47 C 1430.35 2006.52 1432.19 2017.17 1428.01 2024.95 C 1424.89 2030.77 1419.23 2033.66 1413.12 2035.44 C 1374.8 2046.64 1185.77 2043.36 1144.89 2033.41 C 1140.88 2032.44 1137.47 2030.83 1133.87 2028.85 C 1129.04 2012.25 1129.57 1992.92 1128.22 1975.64 C 1126.12 1948.8 1123.88 1921.89 1121.26 1895.09 C 1118.91 1870.57 1116.15 1846.09 1112.99 1821.65 C 1110.82 1804.64 1107.87 1787.41 1106.99 1770.28 C 1107.31 1751.19 1101.91 1729.71 1098.89 1710.77 C 1122.58 1712.83 1146.2 1715.16 1170.01 1715.78 C 1222.83 1716.75 1275.61 1712.24 1327.5 1702.32 C 1325.33 1687.34 1324.67 1671.92 1323.32 1656.83 C 1320.03 1617.81 1317.06 1578.77 1314.42 1539.7 C 1310.23 1479.36 1304.27 1419.15 1299.66 1358.84 L 1294.34 1293.47 C 1293.37 1279.98 1294.45 1264.52 1290.51 1251.55 C 1296.18 1253.48 1301.86 1255.45 1307.6 1257.15 C 1328.14 1263.1 1350.21 1260.55 1368.86 1250.07 C 1394.1 1236.18 1407.31 1213.96 1414.95 1186.94 z"/>
<path transform="translate(0,0)" fill="rgb(190,66,63)" d="M 525.564 1123.19 C 542.157 1133.93 556.802 1148.06 573.451 1159.01 C 585.827 1167.16 609.707 1177.89 619.454 1185.58 C 626.596 1212.17 637.511 1234.44 662.108 1248.79 C 682.18 1260.56 706.185 1263.63 728.576 1257.3 C 733.879 1255.84 739.003 1253.79 744.133 1251.82 C 733.304 1368.85 725.631 1486.24 715.534 1603.34 C 712.663 1636.65 711.045 1670.22 707.288 1703.42 C 705.002 1722.02 705.957 1740.8 703.862 1759.34 L 702.643 1759.97 C 692.647 1755.57 668.338 1752.35 655.948 1748.97 C 622.276 1739.77 588.836 1723.87 554.038 1719.78 C 521.75 1715.99 474.97 1725.51 446.422 1712.92 C 439.768 1709.99 434.429 1705.68 432.051 1698.61 C 425.214 1678.29 433.981 1615.13 436.801 1591.5 C 452.465 1452.94 476.856 1315.5 509.828 1180.02 C 513.867 1163.54 518.012 1137.88 525.564 1123.19 z"/>
<path transform="translate(0,0)" fill="rgb(190,66,63)" d="M 1017.08 1376.51 C 1020.76 1385.66 1022.8 1395.91 1025.3 1405.47 C 1030.45 1425.15 1035.43 1444.88 1040.24 1464.65 C 1060.96 1546.43 1079.03 1628.79 1098.89 1710.77 C 1101.91 1729.71 1107.31 1751.19 1106.99 1770.28 C 1063.51 1775.96 1019.16 1776.44 975.392 1774.39 C 959.507 1773.64 943.58 1771.68 927.746 1771.05 C 926.386 1766.94 935.026 1719.81 936.624 1712.7 C 943.39 1693.33 946.928 1672.07 951.639 1652.03 L 975.674 1551.69 L 999.875 1451.03 C 1005.96 1426.44 1013.03 1401.52 1017.08 1376.51 z"/>
<path transform="translate(0,0)" fill="rgb(70,61,60)" d="M 1058.16 1165.17 C 1063.07 1163.39 1132.29 1160.83 1144.05 1160.05 C 1168.08 1158.45 1192.35 1155.62 1216.24 1152.57 C 1226.98 1151.2 1238.16 1148.56 1248.91 1148.21 C 1242.59 1160.02 1240.56 1173.35 1244.78 1186.28 C 1249.27 1200 1259.26 1206.63 1262.98 1221.89 C 1243.71 1225.02 1224 1226.51 1204.57 1228.52 C 1171.45 1231.94 1138.19 1235.29 1104.93 1236.91 C 1089.49 1237.66 1073.99 1237.38 1058.55 1238.08 C 1063.45 1229.83 1067.51 1222.01 1069.34 1212.5 C 1072.76 1194.83 1067.89 1179.63 1058.16 1165.17 z"/>
<path transform="translate(0,0)" fill="rgb(70,61,60)" d="M 788.213 1149.12 C 851.088 1156.32 913.629 1161.76 976.791 1166.03 C 967.163 1178.89 962.052 1193.7 964.513 1209.99 C 966.02 1219.96 970.48 1229.75 976.254 1237.96 C 954.575 1237.92 780.837 1226.18 773.202 1220.23 C 777.151 1206.56 789.107 1198.32 793.058 1184.65 C 796.668 1172.16 794.594 1160.27 788.213 1149.12 z"/>
<path transform="translate(0,0)" fill="rgb(242,195,158)" d="M 976.791 1166.03 C 989.303 1154.43 1002.23 1146.88 1019.97 1147.64 C 1035.44 1148.29 1047.1 1155.11 1058.16 1165.17 C 1067.89 1179.63 1072.76 1194.83 1069.34 1212.5 C 1067.51 1222.01 1063.45 1229.83 1058.55 1238.08 C 1047.59 1248.85 1036.2 1256.15 1020.21 1256.71 C 1002.1 1257.34 989.053 1249.69 976.254 1237.96 C 970.48 1229.75 966.02 1219.96 964.513 1209.99 C 962.052 1193.7 967.163 1178.89 976.791 1166.03 z"/>
<path transform="translate(0,0)" fill="rgb(70,61,60)" d="M 917.152 51.9485 C 929.907 31.6541 940.713 12.4012 965.999 6.3703 C 1001.42 -2.07709 1016.06 21.5696 1045.45 26.8583 C 1056.21 28.7937 1067.74 27.8602 1078.61 27.4607 C 1113.83 26.1671 1144.32 27.6436 1174.82 47.2159 C 1198.46 62.3853 1212.68 80.8591 1218.51 108.366 C 1219.19 111.551 1219.79 114.704 1220.75 117.818 C 1238.64 126.883 1253.34 136.521 1260.05 156.643 C 1275.43 202.77 1253.6 272.409 1244.92 319.716 C 1261.08 325.202 1273.22 334.656 1280.9 350.111 C 1288.46 365.329 1289.3 385.091 1283.79 401.127 C 1278.03 417.89 1264.9 432.105 1248.88 439.576 C 1240.32 443.565 1231.98 444.551 1222.69 445.131 C 1215.11 489.025 1203.15 534.309 1173.31 568.74 C 1164.78 578.588 1154.6 587.235 1144.93 595.943 L 1143.15 595.813 L 1142.65 596.272 C 1084.59 630.16 1018.29 640.572 952.835 623.392 C 931.402 617.766 912.748 608.844 893.98 597.219 C 892.894 596.318 891.205 595.988 889.873 595.528 C 890.554 593.595 890.672 594.538 888.81 592.897 C 876.191 581.776 864.498 570.233 854.986 556.294 C 832.218 522.932 821.952 485.576 815.857 446.156 C 807.452 445.616 799.484 444.622 791.558 441.63 C 775.055 435.401 762.302 422.53 755.326 406.409 C 748.339 390.261 748.362 369.406 754.969 353.133 C 762.191 335.344 774.495 325.731 791.856 318.375 C 785.044 280.97 780.893 215.173 786.933 178.385 C 789.42 163.237 794.133 147.513 802.948 134.766 C 808.523 126.705 815.197 120.288 823.054 114.488 C 826.515 111.933 830.743 109.393 833.633 106.207 C 838.774 100.539 840.784 91.6892 844.248 84.9595 C 853.142 67.6827 875.653 57.0861 893.984 53.9523 C 901.638 52.6457 909.387 51.9755 917.152 51.9485 z"/>
<path transform="translate(0,0)" fill="rgb(242,195,158)" d="M 791.856 318.375 L 803.524 318.254 C 805.412 333.873 806.422 349.505 807.403 365.202 C 808.453 370.467 808.537 375.881 808.829 381.233 C 809.868 402.793 812.153 424.898 815.857 446.156 C 807.452 445.616 799.484 444.622 791.558 441.63 C 775.055 435.401 762.302 422.53 755.326 406.409 C 748.339 390.261 748.362 369.406 754.969 353.133 C 762.191 335.344 774.495 325.731 791.856 318.375 z"/>
<path transform="translate(0,0)" fill="rgb(223,154,122)" d="M 808.829 381.233 C 807.779 380.07 808.217 380.293 806.98 379.74 C 802.001 377.517 797.168 375.26 792.713 372.076 C 789.337 369.664 787.675 367.968 786.971 363.831 C 787.913 361.635 788.21 361.258 790.098 359.793 C 793.913 359.774 799.756 362.804 802.807 365.237 C 803.958 366.154 804.587 366.548 805.965 366.996 L 807.403 365.202 C 808.453 370.467 808.537 375.881 808.829 381.233 z"/>
<path transform="translate(0,0)" fill="rgb(242,195,158)" d="M 1244.92 319.716 C 1261.08 325.202 1273.22 334.656 1280.9 350.111 C 1288.46 365.329 1289.3 385.091 1283.79 401.127 C 1278.03 417.89 1264.9 432.105 1248.88 439.576 C 1240.32 443.565 1231.98 444.551 1222.69 445.131 C 1224.45 422.628 1227.12 400.273 1228.37 377.711 C 1228.22 375.431 1228.51 373.832 1228.88 371.586 C 1228.81 354.697 1230.09 336.731 1232.39 320.001 L 1244.92 319.716 z"/>
<path transform="translate(0,0)" fill="rgb(223,154,122)" d="M 1228.88 371.586 C 1229.1 371.225 1229.35 370.878 1229.55 370.503 C 1230.61 368.526 1230.77 366.785 1231.1 364.599 C 1232.95 361.946 1238.24 359.09 1241.48 358.652 C 1243.31 358.406 1244.68 358.705 1246.43 359.158 C 1248.37 361.051 1249.03 361.505 1249.11 364.403 C 1249.3 371.223 1240.59 378.136 1235.79 381.843 C 1234.67 382.707 1233.54 383.563 1232.41 384.411 C 1231.75 381.607 1230.96 378.795 1230.74 375.916 L 1229.5 375.707 C 1229.33 376.144 1229.22 376.609 1228.98 377.017 C 1228.83 377.286 1228.57 377.479 1228.37 377.711 C 1228.22 375.431 1228.51 373.832 1228.88 371.586 z"/>
<path transform="translate(0,0)" fill="rgb(242,195,158)" d="M 893.571 186.253 C 915.475 183.682 937.256 196.876 958.175 202.458 C 977.441 207.775 997.298 210.656 1017.28 211.034 C 1035.15 211.44 1053.5 209.771 1070.9 205.617 C 1096.73 199.452 1132.26 178.01 1157.8 189.711 C 1168.74 194.72 1176.61 204.03 1180.55 215.295 C 1182.79 221.685 1183.49 228.655 1183.8 235.386 C 1184.87 259.013 1182.9 283.57 1182.52 307.279 C 1181.95 343.652 1183 380.316 1178.66 416.498 C 1177.21 428.645 1175.1 441.788 1169.56 452.809 C 1163.95 463.957 1156.38 469.723 1144.82 473.569 C 1115.65 477.097 1101.78 461.351 1077.2 460.679 C 1059.83 460.204 1041.51 471.624 1023.09 472.848 C 998.446 474.484 982.129 461.162 960.98 460.651 C 937.071 460.073 912.39 483.663 888.12 471.336 C 876.902 465.638 870.137 454.688 866.135 443.153 C 862.101 431.525 860.255 418.863 859.072 406.657 C 855.732 372.191 856.382 336.516 856.146 301.912 C 855.999 280.256 854.597 257.642 856.419 236.067 C 857.166 227.225 858.382 217.118 862.448 209.122 C 868.98 196.276 880.437 190.347 893.571 186.253 z"/>
<path transform="translate(0,0)" fill="rgb(70,61,60)" d="M 1096.06 334.979 C 1098.34 334.881 1100.53 334.782 1102.78 335.244 C 1107.92 336.297 1111.96 339.907 1114.67 344.267 C 1120.55 353.718 1120.82 367.452 1118.06 377.946 C 1115.92 386.06 1112.41 392.451 1105.09 396.753 C 1102.47 396.919 1099.74 397.156 1097.15 396.628 C 1092.17 395.615 1088.08 391.972 1085.43 387.768 C 1079.88 378.955 1079.47 365.827 1081.72 355.927 C 1083.89 346.435 1087.94 340.226 1096.06 334.979 z"/>
<path transform="translate(0,0)" fill="rgb(70,61,60)" d="M 937.21 335.003 C 939.438 334.91 941.54 334.824 943.72 335.389 C 948.94 336.742 953.148 341.098 955.631 345.733 C 960.879 355.531 961.094 369.598 957.835 380.037 C 955.32 388.096 951.59 393.138 944.073 396.94 C 941.469 397.078 938.768 397.28 936.197 396.711 C 931.69 395.712 927.954 391.482 925.756 387.639 C 920.243 377.999 919.798 363.723 922.878 353.252 C 925.459 344.479 929.304 339.473 937.21 335.003 z"/>
<path transform="translate(0,0)" fill="rgb(70,61,60)" d="M 1096.51 286.401 C 1107.26 286.518 1120.94 286.666 1129.37 294.239 C 1132.22 296.793 1133.48 299.183 1133.65 303.03 C 1133.04 304.7 1132.59 305.945 1131.13 307.092 C 1124.23 312.511 1112.52 309.255 1104.78 308.029 C 1097.05 307.876 1075.97 312.502 1070.41 309.64 C 1067.8 308.297 1066.21 304.342 1066.1 301.576 C 1065.99 298.875 1067.08 296.797 1068.87 294.865 C 1075.16 288.057 1087.81 287.077 1096.51 286.401 z"/>
<path transform="translate(0,0)" fill="rgb(70,61,60)" d="M 936.689 286.418 C 946.569 286.428 957.665 287.018 965.882 293.129 C 969.074 295.503 972.513 299.499 972.474 303.735 C 972.455 305.83 971.229 307.245 969.659 308.467 C 963.636 313.155 949.032 309.006 942.061 307.894 C 933.286 307.81 915.001 313.361 908.009 308.947 C 906.465 306.639 905.155 303.922 905.113 301.068 C 905.073 298.299 906.003 296.384 907.864 294.385 C 914.099 287.686 928.12 287.111 936.689 286.418 z"/>
<path transform="translate(0,0)" fill="rgb(223,154,122)" d="M 1000.74 360.783 L 1006.16 360.995 C 1014.8 367.141 1004.78 403.373 1007.71 415.305 C 1011.47 430.559 1029.89 418.759 1038.77 424.284 C 1038.65 427.501 1037.09 428.836 1035.26 431.429 C 1028.17 435.414 1021.65 435.389 1013.81 434.241 C 1007.66 433.34 1002.16 430.999 998.575 425.679 C 990.637 413.903 998.412 375.225 1000.74 360.783 z"/>
<path transform="translate(0,0)" fill="rgb(39,32,31)" d="M 978.572 496.772 C 993.234 501.786 1002.83 509.788 1019.53 509.321 C 1026.24 509.133 1033.04 508.565 1039.59 507.062 C 1044.92 505.841 1061.59 499.141 1065.78 499.58 C 1066.8 499.685 1067.63 500.421 1068.56 500.842 C 1069.8 502.928 1070.2 503.484 1069.98 506.005 C 1069.61 510.196 1067.08 512.408 1064.08 515.045 C 1054.65 520.393 1044.15 523.288 1033.47 524.814 C 1017.71 527.064 989.343 525.397 976.578 515.018 C 974.146 513.04 972.515 510.275 972.533 507.059 C 972.557 502.521 975.672 499.825 978.572 496.772 z"/>
<path transform="translate(0,0)" fill="rgb(213,87,83)" d="M 702.643 1759.97 L 703.862 1759.34 C 705.957 1740.8 705.002 1722.02 707.288 1703.42 C 785.328 1716.25 857.612 1721.1 936.624 1712.7 C 935.026 1719.81 926.386 1766.94 927.746 1771.05 C 928.873 1781.81 925.847 1794.83 924.544 1805.65 C 922.591 1822.18 920.773 1838.74 919.09 1855.3 C 915.523 1890.34 911.655 1925.41 908.544 1960.49 C 906.831 1979.8 906.884 2009.57 901.523 2027.25 C 900.162 2028.21 898.795 2029.07 897.325 2029.85 C 876.517 2040.96 822.547 2039.62 797.496 2040.44 C 755.854 2041.82 719.015 2042.62 677.197 2040.81 C 659.713 2040.06 640.677 2040.08 623.862 2034.9 C 617.669 2032.99 611.829 2030.49 608.78 2024.39 C 604.387 2015.59 606.871 2003.25 610.065 1994.32 C 622.698 1959 665.454 1940.02 697.067 1925.34 C 696.413 1887.29 698.636 1848.85 700.196 1810.83 C 700.875 1794.28 699.86 1776.26 702.643 1759.97 z"/>
</svg>