<svg version="1.1" xmlns="http://www.w3.org/2000/svg" style="display: block;" viewBox="0 0 2048 2048" width="800" height="800" preserveAspectRatio="none">
<defs>
	<linearGradient id="Gradient1" gradientUnits="userSpaceOnUse" x1="740.801" y1="1688.76" x2="755.735" y2="1690.42">
		<stop class="stop0" offset="0" stop-opacity="0" stop-color="rgb(76,78,75)"/>
		<stop class="stop1" offset="1" stop-opacity="0.00784314" stop-color="rgb(116,112,116)"/>
	</linearGradient>
</defs>
<path transform="translate(0,0)" fill="rgb(50,50,50)" d="M 913.153 620.722 C 915.745 622.892 916.886 623.53 918.105 626.75 C 930.973 631.452 943.046 638.236 956.128 642.353 C 1005.22 657.801 1064.39 658.025 1111.57 635.969 C 1116.92 633.464 1122.62 630.952 1127.59 627.776 C 1127.63 627.654 1127.62 627.511 1127.7 627.41 C 1128.86 625.856 1128.7 625.977 1130.31 625.357 C 1133.09 624.289 1135.35 623.658 1137.75 621.856 C 1149.32 619.796 1164.64 623.427 1176.32 625.428 C 1235.67 635.596 1291.56 654.223 1341.34 688.753 C 1413.94 739.104 1458.81 813.151 1487.77 895.136 C 1498.46 925.412 1507.31 956.08 1513.01 987.712 C 1525.52 1057.17 1531.59 1124.03 1489.05 1185.36 C 1456.27 1232.61 1404.38 1259.56 1348.77 1269.35 C 1341.99 1270.61 1335.17 1271.65 1328.33 1272.46 L 1328.37 1349.56 C 1328.41 1368.02 1329.17 1387.05 1326.77 1405.38 C 1319.23 1406.32 1311.72 1407.21 1304.14 1407.74 C 1305.88 1478.8 1302.38 1550.17 1301.21 1621.24 L 1298.42 1741.97 C 1297.82 1771 1298.44 1800.74 1295.97 1829.65 C 1295.86 1850.77 1296.35 1872.06 1293.86 1893.06 C 1331.26 1910.2 1374.93 1932.46 1390.4 1973.56 C 1394.93 1985.61 1399.29 2005 1393.88 2017.08 C 1390.26 2025.18 1381.11 2028.95 1373.17 2031.68 C 1360.19 2036.15 1345.71 2038.19 1332.07 2039.31 C 1286.72 2043.04 1122.85 2043.34 1088.69 2026.18 C 1083.45 2023.55 1080.52 2020.7 1078.81 2014.98 C 1074.37 2000.07 1072.2 1926 1072.48 1908.56 C 1070.97 1908.08 1069.5 1907.4 1068.03 1906.8 C 1065.41 1904.1 1064.8 1900.76 1064.16 1897.16 C 1060.47 1876.62 1060.01 1854.71 1058.2 1833.89 C 1055.86 1807.01 1052.39 1780.12 1050.94 1753.17 C 1049.07 1740.88 1048.63 1728.08 1047.66 1715.67 C 1042.09 1665.15 1038.49 1613.85 1034.68 1563.14 C 1033.57 1548.32 1032.02 1533.53 1030.93 1518.72 C 1030.33 1510.51 1030.82 1502.16 1028.81 1494.13 C 1026.47 1492.62 1026.23 1493.2 1023.59 1493.58 C 1021.53 1496.72 1021.09 1500.24 1020.65 1503.91 C 1016.29 1540.14 1014.78 1577.17 1011.72 1613.58 L 992.691 1832.68 C 991.451 1846.63 989.493 1892.29 986.4 1901.88 C 985.464 1904.78 983.511 1906.49 980.519 1907.17 C 979.645 1907.37 978.754 1907.48 977.869 1907.61 C 978.946 1924.03 976.132 2001.35 971.756 2014.94 C 969.974 2020.47 967.305 2022.61 962.181 2025.19 C 921.784 2045.55 714.632 2045.8 672.409 2031.44 C 664.866 2028.88 658.369 2025.74 654.924 2018.15 C 649.365 2005.89 651.893 1988.93 656.352 1976.63 C 667.793 1945.08 697.391 1921.62 726.553 1907.13 C 736.527 1902.17 747.001 1898.5 757.029 1893.75 C 754.391 1873.53 755.217 1852.1 754.842 1831.66 C 754.03 1787.38 754.163 1742.53 751.899 1698.34 C 752.342 1683.64 750.985 1668.84 751.176 1654.1 L 750.649 1634.62 C 750.446 1626.94 750.474 1619.24 750.391 1611.56 L 749.117 1557.12 C 748.919 1507.41 748.21 1457.7 746.991 1408 C 740.645 1407.27 734.312 1406.43 727.996 1405.47 C 726.854 1379.92 727.03 1354.42 727.091 1328.84 C 727.136 1310.13 726.658 1291.18 728.109 1272.52 C 676.776 1266.93 626.137 1248.47 588.099 1212.62 C 553.692 1180.2 531.09 1133.13 529.767 1085.6 C 526.331 962.194 576.012 819.229 661.415 729.107 C 717.482 669.942 800.999 634.816 880.899 624.174 C 891.559 622.754 902.393 621 913.153 620.722 z"/>
<path transform="translate(0,0)" fill="rgb(31,31,32)" d="M 977.869 1907.61 C 978.946 1924.03 976.132 2001.35 971.756 2014.94 C 969.974 2020.47 967.305 2022.61 962.181 2025.19 C 921.784 2045.55 714.632 2045.8 672.409 2031.44 C 664.866 2028.88 658.369 2025.74 654.924 2018.15 C 649.365 2005.89 651.893 1988.93 656.352 1976.63 C 667.793 1945.08 697.391 1921.62 726.553 1907.13 C 736.527 1902.17 747.001 1898.5 757.029 1893.75 C 757.602 1893.85 758.177 1893.93 758.748 1894.04 C 769.282 1896.05 780.712 1904.86 793.036 1907.25 C 825.354 1913.53 942.98 1917.31 974.993 1908.41 L 976.794 1907.92 C 977.153 1907.83 977.511 1907.72 977.869 1907.61 z"/>
<path transform="translate(0,0)" fill="rgb(31,31,32)" d="M 1289.92 1892.82 C 1289.98 1880.56 1289.24 1867.64 1290.86 1855.49 C 1291.99 1847.03 1292.21 1837.43 1295.97 1829.65 C 1295.86 1850.77 1296.35 1872.06 1293.86 1893.06 C 1331.26 1910.2 1374.93 1932.46 1390.4 1973.56 C 1394.93 1985.61 1399.29 2005 1393.88 2017.08 C 1390.26 2025.18 1381.11 2028.95 1373.17 2031.68 C 1360.19 2036.15 1345.71 2038.19 1332.07 2039.31 C 1286.72 2043.04 1122.85 2043.34 1088.69 2026.18 C 1083.45 2023.55 1080.52 2020.7 1078.81 2014.98 C 1074.37 2000.07 1072.2 1926 1072.48 1908.56 C 1078.47 1907.28 1088.26 1910.44 1094.55 1911.21 C 1103.81 1912.35 1113.81 1912.01 1123.19 1912.32 C 1160.54 1913.58 1229.15 1916.15 1262.71 1907.42 C 1273.43 1904.63 1281.27 1899.54 1289.92 1892.82 z"/>
<path transform="translate(0,0)" fill="rgb(240,184,139)" d="M 918.105 626.75 C 930.973 631.452 943.046 638.236 956.128 642.353 C 1005.22 657.801 1064.39 658.025 1111.57 635.969 C 1116.92 633.464 1122.62 630.952 1127.59 627.776 C 1129.24 650.805 1124.41 669.905 1110.18 688.333 C 1092.71 710.963 1066.78 723.297 1038.7 726.624 C 1011.09 729.895 978.839 722.309 956.848 704.916 C 930.653 684.198 921.642 658.92 918.105 626.75 z"/>
<path transform="translate(0,0)" fill="rgb(31,31,32)" d="M 750.391 1611.56 C 751.1 1606.5 751.915 1602.28 754.026 1597.55 C 754.146 1605.91 755.639 1648.25 752.619 1653.2 L 751.176 1654.1 L 750.649 1634.62 C 750.446 1626.94 750.474 1619.24 750.391 1611.56 z"/>
<path transform="translate(0,0)" fill="rgb(31,31,32)" d="M 749.117 1557.12 C 756.954 1565.31 752.759 1586.44 754.026 1597.55 C 751.915 1602.28 751.1 1606.5 750.391 1611.56 L 749.117 1557.12 z"/>
<path transform="translate(0,0)" fill="rgb(31,31,32)" d="M 1047.66 1715.67 C 1051.99 1719.92 1052.63 1723.94 1052.68 1729.93 C 1052.76 1737.6 1051.41 1745.49 1050.94 1753.17 C 1049.07 1740.88 1048.63 1728.08 1047.66 1715.67 z"/>
<path transform="translate(0,0)" fill="rgb(194,87,73)" d="M 732.199 1082.78 C 700.84 1029.24 695.367 953.983 711.075 894.603 C 723.356 848.179 752.534 807.253 794.573 783.273 C 836.956 758.803 887.427 752.493 934.53 765.774 C 981.296 778.808 1006.36 802.849 1034.64 840.308 C 1043.06 828.657 1051.46 816.8 1061.65 806.606 C 1085.55 782.68 1120.51 766.965 1153.64 761.628 C 1200.23 754.123 1250.86 763.881 1289.38 791.882 C 1332.29 823.066 1357.95 869.626 1366.02 921.709 C 1372.74 965.061 1367.67 1008.66 1353.73 1050.08 C 1350.64 1059.27 1347.47 1069.74 1341.75 1077.7 C 1334.13 1088.31 1317.53 1092.57 1305.16 1094.12 C 1304.79 1094.17 1304.42 1094.19 1304.05 1094.22 C 1326.17 1125.56 1334.34 1168.42 1327.87 1206.09 C 1323.98 1228.72 1313.64 1249.41 1294.43 1262.74 C 1266.77 1281.95 1226.83 1282.56 1194.94 1276.44 C 1186.03 1274.73 1177.45 1272.05 1168.87 1269.17 C 1159.65 1274.77 1151.06 1284.06 1142.3 1290.6 C 1118.67 1308.26 1071.77 1337.34 1044.32 1344.24 C 1038.23 1345.78 1032.39 1346.13 1026.23 1344.83 C 999.636 1339.21 955.09 1310.63 933.123 1294.02 C 923.353 1286.64 911.462 1274.87 901.388 1268.99 C 900.974 1268.74 900.553 1268.51 900.135 1268.28 C 888.6 1272.01 877.004 1275.14 865.033 1277.13 C 833.405 1282.4 798.623 1281.58 771.679 1262.02 C 753.718 1248.98 744.471 1228.01 741.074 1206.59 C 734.848 1167.33 743.629 1124.66 766.966 1092.36 C 755.134 1092.35 742.459 1088.59 732.199 1082.78 z"/>
<path transform="translate(0,0)" fill="rgb(240,184,139)" d="M 1222.58 1084.07 C 1214.18 1074.23 1209.2 1060.9 1208.5 1047.99 C 1208.07 1040.02 1209.07 1028.9 1215 1022.98 C 1217.76 1020.22 1221.42 1018.77 1225.33 1018.98 C 1228.44 1019.14 1231.88 1020.15 1234.32 1022.12 C 1244.14 1030.07 1251.27 1041.19 1260.01 1050.27 C 1267.32 1057.88 1275.57 1064.57 1283.19 1071.85 C 1290.58 1078.91 1297.3 1086.56 1304.05 1094.22 C 1326.17 1125.56 1334.34 1168.42 1327.87 1206.09 C 1323.98 1228.72 1313.64 1249.41 1294.43 1262.74 C 1266.77 1281.95 1226.83 1282.56 1194.94 1276.44 C 1186.03 1274.73 1177.45 1272.05 1168.87 1269.17 C 1163.62 1266.84 1157.98 1264.6 1153.21 1261.38 C 1148.05 1257.9 1143.49 1253.18 1142.34 1246.86 C 1141.65 1243.1 1142.18 1237.16 1144.65 1234.11 C 1149.97 1227.54 1180.37 1231.99 1189.39 1232 C 1172.77 1227.52 1147.65 1226.64 1134.42 1215.29 C 1130.17 1211.65 1127.94 1206.93 1127.54 1201.37 C 1127.23 1196.96 1128.04 1192.29 1131.15 1188.96 C 1140.41 1179.04 1173.3 1186.45 1186.81 1186 L 1188.44 1185.93 C 1171.84 1182.44 1143.51 1180.83 1129.81 1171.06 C 1124.37 1167.18 1121.38 1160.06 1120.7 1153.61 C 1120.15 1148.38 1121 1142.54 1124.51 1138.43 C 1135.37 1125.65 1173.09 1134.59 1188.41 1133.43 L 1188.63 1132.9 C 1173.36 1129.5 1148.95 1127.92 1138.05 1115.37 C 1134.24 1110.98 1131.3 1104.79 1132 1098.86 C 1132.57 1094.16 1135.26 1090.21 1138.94 1087.33 C 1155.98 1074.01 1201.59 1081.92 1222.58 1084.07 z"/>
<path transform="translate(0,0)" fill="rgb(240,184,139)" d="M 766.966 1092.36 C 780.126 1076.92 794.778 1063.67 808.625 1048.99 C 816.09 1041.07 822.643 1031.35 830.874 1024.3 C 834.072 1021.56 837.862 1019.52 842.125 1019.18 C 846.057 1018.86 849.771 1020.35 852.585 1023.08 C 858.893 1029.19 859.931 1038.52 859.716 1046.85 C 859.357 1060.69 854.567 1072.44 847.302 1084.06 C 866.91 1082.04 912.587 1074.14 928.751 1086.99 C 932.494 1089.97 934.667 1094.05 935.125 1098.8 C 935.698 1104.75 934.018 1110.89 930.136 1115.48 C 918.505 1129.23 892.519 1129.81 876.304 1133.94 L 877.746 1134.01 C 894.686 1134.63 927.746 1124.46 940.97 1137.49 C 945.263 1141.73 946.836 1147.92 946.682 1153.81 C 946.527 1159.76 944.084 1164.96 939.571 1168.85 C 925.734 1180.78 900.906 1181.42 883.764 1186.45 C 896.483 1185.77 924.405 1179.06 934.193 1187.69 C 937.519 1190.62 938.654 1194.93 938.665 1199.23 C 938.68 1205.38 936.437 1210.72 931.873 1214.87 C 918.7 1226.87 896.445 1226.68 879.991 1231.11 C 890.97 1231.15 917.389 1226.27 925.131 1235.43 C 926.929 1237.56 927.571 1239.61 927.187 1242.36 C 926.101 1250.12 918.952 1257.93 912.687 1262.26 C 908.915 1264.86 904.361 1266.54 900.135 1268.28 C 888.6 1272.01 877.004 1275.14 865.033 1277.13 C 833.405 1282.4 798.623 1281.58 771.679 1262.02 C 753.718 1248.98 744.471 1228.01 741.074 1206.59 C 734.848 1167.33 743.629 1124.66 766.966 1092.36 z"/>
<path transform="translate(0,0)" fill="rgb(74,47,37)" d="M 962.067 6.66772 C 978.997 5.4666 994.817 5.69827 1011.69 7.25614 C 1070.24 13.9036 1097.02 30.3148 1137.98 71.4386 C 1166.39 63.0979 1188.28 62.4199 1215.01 76.8318 C 1245.88 93.4752 1266.06 125.571 1275.84 158.595 C 1291.73 212.231 1285.52 275.33 1259.74 324.936 C 1272.02 333.278 1281.55 346.259 1284.37 361.005 C 1288.28 381.425 1283.1 404.753 1271.07 421.655 C 1258.35 439.532 1239.31 449.854 1217.93 453.597 C 1217.6 453.654 1217.27 453.696 1216.95 453.745 C 1216.59 454.415 1210.27 493.841 1208.26 501.725 C 1199.3 536.744 1184.72 569.947 1160.95 597.546 C 1153.75 605.914 1144.07 612.906 1137.75 621.856 C 1135.35 623.658 1133.09 624.289 1130.31 625.357 C 1128.7 625.977 1128.86 625.856 1127.7 627.41 C 1127.62 627.511 1127.63 627.654 1127.59 627.776 C 1122.62 630.952 1116.92 633.464 1111.57 635.969 C 1064.39 658.025 1005.22 657.801 956.128 642.353 C 943.046 638.236 930.973 631.452 918.105 626.75 C 916.886 623.53 915.745 622.892 913.153 620.722 C 870.597 589.615 848.452 540.145 838.043 489.721 C 835.601 477.886 834.487 465.904 832.283 454.046 C 812.015 450.353 793.904 443.164 780.784 426.563 C 767.417 409.649 761.46 386.582 764.098 365.254 C 766.234 347.977 774.865 335.362 788.493 324.903 C 792.005 315.419 767.704 254.582 763.244 240.505 C 760.46 231.718 758.018 222.681 756.577 213.569 C 751.132 179.125 768.13 163.815 792.063 143.343 C 802.281 134.602 812.395 125.448 821.337 115.401 C 836.269 98.6262 846.423 79.8486 859.542 61.9542 C 885.679 26.3027 919.868 13.3794 962.067 6.66772 z"/>
<path transform="translate(0,0)" fill="rgb(240,184,139)" d="M 1216.95 453.745 C 1214.56 447.56 1217.69 429.403 1218.02 421.983 C 1219.16 397.03 1217.65 371.869 1219.15 346.982 C 1219.49 341.281 1220.25 335.22 1222.07 329.793 C 1223.26 326.255 1226.71 323.987 1230.05 322.531 C 1239.62 318.357 1250.48 321.548 1259.74 324.936 C 1272.02 333.278 1281.55 346.259 1284.37 361.005 C 1288.28 381.425 1283.1 404.753 1271.07 421.655 C 1258.35 439.532 1239.31 449.854 1217.93 453.597 C 1217.6 453.654 1217.27 453.696 1216.95 453.745 z"/>
<path transform="translate(0,0)" fill="rgb(240,184,139)" d="M 788.493 324.903 C 798.309 322.22 809.906 318.633 819.455 324.07 C 823.696 326.486 825.204 329.406 826.394 334.027 C 829.249 345.12 828.817 357.455 828.983 368.84 C 829.335 392.894 827.927 431.684 832.283 454.046 C 812.015 450.353 793.904 443.164 780.784 426.563 C 767.417 409.649 761.46 386.582 764.098 365.254 C 766.234 347.977 774.865 335.362 788.493 324.903 z"/>
<path transform="translate(0,0)" fill="rgb(240,184,139)" d="M 1113.36 148.594 C 1133.01 158.048 1148.95 179.787 1159.78 198.041 C 1170.87 216.732 1177.93 236.889 1182.42 258.11 C 1191.72 302.035 1193.28 390.151 1181.58 434.939 C 1176.35 454.952 1167.1 480.091 1148.01 490.76 C 1123.18 504.639 1107.5 488.022 1084.7 482.232 C 1067.07 477.755 1048.85 488.174 1030.98 487.96 C 1012.99 487.744 996.136 478.786 977.988 481.048 C 968.215 482.266 959.603 487.838 951.221 492.61 C 947.091 494.619 943.037 496.377 938.629 497.687 C 927.614 500.961 917.433 499.703 907.425 493.961 C 886.003 481.67 874.208 450.511 868.4 427.749 C 862.592 404.986 862.866 383.022 862.724 359.827 C 862.673 351.504 861.788 341.844 863.762 333.704 C 867.355 318.886 889.298 272.686 898.007 258.207 C 916.746 227.055 938.305 238.758 966.993 240.015 C 983.661 240.714 1000.34 239.088 1016.56 235.182 C 1048.16 227.181 1075.78 208.002 1094.32 181.196 C 1101.41 170.799 1106.88 159.372 1113.36 148.594 z"/>
<path transform="translate(0,0)" fill="rgb(74,47,37)" d="M 1085.29 315.298 C 1101.66 314.186 1129.07 312.328 1141.96 324.292 C 1144.6 326.74 1146.76 330.133 1146.59 333.867 C 1146.46 336.54 1145.12 338.414 1143.16 340.106 C 1138.6 344.04 1131.91 343.314 1126.44 342.647 C 1119.86 341.868 1113.43 341.101 1106.78 341.151 C 1096.57 341.229 1078.08 345.642 1068.68 341.528 C 1065.77 340.256 1063.05 336.934 1062.33 333.755 C 1061.61 330.532 1062.32 327.819 1064.29 325.252 C 1069.32 318.721 1077.59 316.521 1085.29 315.298 z"/>
<path transform="translate(0,0)" fill="rgb(74,47,37)" d="M 934.437 315.289 C 949.332 314.35 971.015 311.743 983.265 322.105 C 986.442 324.791 989.429 328.752 989.293 333.121 C 989.207 335.856 987.881 337.866 985.915 339.65 C 980.004 345.016 970.985 343.269 963.914 342.33 C 958.348 341.73 952.858 341.243 947.253 341.337 C 936.502 341.518 920.029 345.474 910.19 340.445 C 907.21 338.921 906.285 337.171 905.268 334.099 C 905.58 331.407 906.31 329.623 907.826 327.418 C 913.936 318.535 924.567 316.824 934.437 315.289 z"/>
<path transform="translate(0,0)" fill="rgb(31,31,32)" d="M 945.706 369.104 C 948.041 369.008 950.491 368.843 952.807 369.212 C 957.408 369.944 960.877 372.876 963.321 376.721 C 968.757 385.271 968.663 399.856 966.508 409.625 C 964.812 417.31 962.14 421.43 955.448 425.537 C 952.439 425.706 948.952 426.151 946.043 425.214 C 941.515 423.756 938.29 419.464 936.392 415.299 C 932.035 405.737 932.061 389.622 935.81 379.845 C 937.928 374.322 940.323 371.476 945.706 369.104 z"/>
<path transform="translate(0,0)" fill="rgb(31,31,32)" d="M 1097.96 369.264 C 1100.36 369.38 1102.9 369.414 1105.26 369.933 C 1109.68 370.907 1112.56 374.262 1114.68 378.045 C 1119.71 386.992 1119.59 401.962 1116.66 411.613 C 1114.63 418.304 1111.85 422.204 1105.72 425.546 C 1101.71 425.753 1097.73 426.413 1094.05 424.468 C 1089.8 422.222 1086.97 416.79 1085.75 412.344 C 1082.8 401.59 1083.85 383.74 1089.77 374.23 C 1091.89 370.829 1094.18 370.025 1097.96 369.264 z"/>
<path transform="translate(0,0)" fill="rgb(74,47,37)" d="M 1015.81 407.033 C 1016.71 407.16 1018.75 407.415 1019.57 407.689 C 1026.53 410.034 1021.32 452.444 1025.17 460.919 C 1029.53 470.506 1039.74 464.033 1047.47 467.223 L 1048.08 469.03 C 1046.32 472.103 1044.31 473.704 1041.51 475.837 C 1036.63 477.087 1031.2 477.436 1026.3 476.065 C 1020.25 474.372 1015.48 470.091 1012.71 464.509 C 1007.56 454.15 1005.8 422.169 1010.04 411.489 C 1011.25 408.429 1013.02 408.145 1015.81 407.033 z"/>
<path transform="translate(0,0)" fill="rgb(31,31,32)" d="M 983.337 526.499 C 983.511 526.501 983.686 526.506 983.86 526.506 C 992.247 526.493 1005.98 541.463 1027.47 542.102 C 1046.91 542.68 1057.69 528.967 1068.99 528.337 C 1070.64 528.245 1070.86 529.073 1071.93 530.138 C 1072.51 533.441 1071.6 535.529 1070.46 538.548 C 1067.13 542.782 1063.99 545.563 1059.05 547.821 C 1041.03 556.065 1016.5 555.627 998.123 548.75 C 991.873 546.411 985.714 543.058 983.044 536.599 C 981.409 532.643 981.777 530.298 983.337 526.499 z"/>
<path transform="translate(0,0)" fill="url(#Gradient1)" d="M 751.899 1698.34 C 747.585 1704.53 754.908 1736.57 748.77 1746.27 L 748.049 1745.02 C 748.522 1736.79 747.085 1691.14 748.47 1687.73 C 748.601 1687.41 748.788 1687.11 748.947 1686.8 C 747.54 1685.84 748.168 1686.39 747.056 1685.13 C 748.208 1678.65 747.016 1671.85 746.831 1665.28 C 746.485 1653 746.31 1640.34 748.154 1628.18 L 749.132 1628.54 L 749.254 1634.01 L 750.649 1634.62 L 751.176 1654.1 C 750.985 1668.84 752.342 1683.64 751.899 1698.34 z"/>
</svg>