<svg version="1.1" xmlns="http://www.w3.org/2000/svg" style="display: block;" viewBox="0 0 2048 2048" width="800" height="800" preserveAspectRatio="none">
<path transform="translate(0,0)" fill="rgb(85,108,82)" d="M 1089.59 677.892 C 1099.26 678.597 1109.25 678.839 1118.76 680.786 C 1148.45 685.48 1182.37 696.244 1208.36 711.399 C 1252.94 731.762 1306.8 782.054 1336.45 820.317 C 1343.43 829.321 1358.65 856.936 1365.61 861.239 C 1379.45 851.162 1432.45 829.459 1449.9 823.545 C 1478.46 813.864 1559.7 790.536 1586.51 794.452 C 1589.98 794.959 1593.27 796.034 1595.4 799.01 C 1596.8 800.97 1595.97 803.899 1595.43 806.094 C 1592.98 816.029 1588.64 825.991 1585.13 835.613 C 1577.76 855.878 1570.16 876.055 1562.32 896.14 C 1555.2 914.498 1549.45 933.706 1540.84 951.434 C 1552.61 954.244 1563.36 960.932 1569.63 971.511 C 1581.6 991.688 1573.86 1016.76 1569.08 1037.84 C 1566.59 1048.79 1564.25 1059.86 1561.2 1070.67 C 1556.3 1088.06 1549.8 1108.5 1533.21 1118.18 C 1522.29 1124.56 1501.13 1127.02 1488.83 1123.18 C 1488.4 1123.05 1487.99 1122.88 1487.57 1122.73 C 1487.28 1123.33 1486.98 1123.93 1486.69 1124.54 C 1483.03 1132.33 1481.98 1142.1 1479.3 1150.38 C 1477.04 1157.36 1473.76 1165.42 1468.34 1170.49 C 1459.43 1178.82 1431.55 1188.04 1419.43 1192.7 C 1382.76 1206.8 1346.6 1222.22 1309.6 1235.41 C 1299.93 1238.86 1288.99 1244.04 1278.91 1245.6 C 1275.94 1246.23 1274.11 1246.05 1271.18 1245.57 C 1255.23 1244.71 1238.12 1237.63 1223.03 1232.42 C 1221.5 1240.01 1224.7 1257.95 1225.95 1265.9 C 1227.71 1276.45 1228 1287.26 1228.88 1297.9 L 1234.35 1363.25 C 1238.59 1408 1242.45 1452.79 1245.92 1497.6 C 1247.55 1517.45 1251.81 1541.26 1249.98 1560.84 C 1246.32 1565.36 1237.54 1565.74 1232.06 1566.31 C 1223.33 1567.23 1214.54 1568.04 1205.76 1568.08 C 1161.2 1573.06 1116.47 1576.4 1071.67 1578.09 C 1041.41 1578.93 1010.4 1577.07 980.262 1579.35 L 955.313 1578.99 C 953.174 1561.69 944.169 1457.33 941.359 1452.63 C 937.841 1462.93 938.344 1478.52 937.373 1489.58 C 934.785 1519.05 932.795 1548.79 929.142 1578.14 C 921.171 1579.23 912.997 1578.98 904.982 1578.68 C 888.544 1576.65 870.422 1578.09 853.805 1577.95 C 829.794 1577.73 805.728 1576.52 781.732 1575.61 C 747.903 1574.33 713.628 1568.64 680.098 1568.04 C 663.114 1568.09 644.459 1565.61 627.95 1561.73 C 626.692 1525.71 632.543 1488.98 636.078 1453.13 C 641.76 1391.2 648.555 1329.37 656.458 1267.68 C 658.01 1257.61 658.584 1247.39 659.974 1237.28 C 639.923 1239.48 621.892 1244.26 601.373 1241.86 C 557.571 1236.73 517.538 1215.8 490.292 1180.72 C 459.014 1140.45 447.127 1087.67 455.167 1037.55 C 457.573 1022.55 463.21 1008.09 465.011 993.054 C 465.063 992.619 465.104 992.183 465.15 991.748 C 462.144 973.416 478.17 930.781 485.557 912.965 C 523.991 820.271 603.416 739.661 696.165 701.16 C 724.776 687.807 755.883 683.384 786.84 679.183 L 807.32 678.624 C 806.487 688.97 807.583 699.863 809.905 709.966 C 820.882 757.731 854.966 780.126 892.744 805.827 C 911.085 818.305 929.214 830.816 948.043 842.569 C 975.497 829.441 1030.6 790.289 1052.43 768.4 C 1078.18 742.575 1089.75 714.131 1089.59 677.892 z"/>
<path transform="translate(0,0)" fill="rgb(151,111,73)" d="M 867.469 1177.67 C 867.884 1176.1 868.338 1174.54 868.831 1173 C 871.117 1165.99 875.857 1158.98 882.738 1155.82 C 892.406 1151.38 998.753 1151.31 1008.7 1155.37 C 1018.14 1159.22 1024.3 1167.32 1028 1176.53 C 1044.21 1175.95 1064.37 1174.68 1080.14 1178.38 C 1113.02 1192.06 1146.17 1205.07 1179.59 1217.4 C 1193.4 1222.47 1210.09 1225.78 1223.03 1232.42 C 1221.5 1240.01 1224.7 1257.95 1225.95 1265.9 C 1227.71 1276.45 1228 1287.26 1228.88 1297.9 L 1234.35 1363.25 C 1238.59 1408 1242.45 1452.79 1245.92 1497.6 C 1247.55 1517.45 1251.81 1541.26 1249.98 1560.84 C 1246.32 1565.36 1237.54 1565.74 1232.06 1566.31 C 1223.33 1567.23 1214.54 1568.04 1205.76 1568.08 C 1161.2 1573.06 1116.47 1576.4 1071.67 1578.09 C 1041.41 1578.93 1010.4 1577.07 980.262 1579.35 L 955.313 1578.99 C 953.174 1561.69 944.169 1457.33 941.359 1452.63 C 937.841 1462.93 938.344 1478.52 937.373 1489.58 C 934.785 1519.05 932.795 1548.79 929.142 1578.14 C 921.171 1579.23 912.997 1578.98 904.982 1578.68 C 888.544 1576.65 870.422 1578.09 853.805 1577.95 C 829.794 1577.73 805.728 1576.52 781.732 1575.61 C 747.903 1574.33 713.628 1568.64 680.098 1568.04 C 663.114 1568.09 644.459 1565.61 627.95 1561.73 C 626.692 1525.71 632.543 1488.98 636.078 1453.13 C 641.76 1391.2 648.555 1329.37 656.458 1267.68 C 658.01 1257.61 658.584 1247.39 659.974 1237.28 C 661.195 1237.18 662.294 1237.07 663.486 1236.77 C 696.829 1228.22 727.994 1205.03 744.819 1174.99 C 752.53 1177.42 763.172 1176.43 771.309 1176.42 C 788.621 1176.4 856.55 1173.9 867.469 1177.67 z"/>
<path transform="translate(0,0)" fill="rgb(224,170,99)" d="M 867.469 1177.67 C 867.884 1176.1 868.338 1174.54 868.831 1173 C 871.117 1165.99 875.857 1158.98 882.738 1155.82 C 892.406 1151.38 998.753 1151.31 1008.7 1155.37 C 1018.14 1159.22 1024.3 1167.32 1028 1176.53 C 1029.81 1193.91 1030.21 1252.59 1027.68 1268.1 C 1023.72 1276.92 1018.63 1283.68 1009.39 1287.49 C 1006.23 1288.8 1002.89 1289.39 999.521 1289.89 C 965.768 1289.79 931.107 1288.12 897.454 1290 C 890.606 1288.85 884.71 1287.01 879.102 1282.76 C 871.348 1276.87 868.456 1269.01 867.108 1259.77 C 866.937 1232.5 866.274 1204.91 867.469 1177.67 z"/>
<path transform="translate(0,0)" fill="rgb(97,76,61)" d="M 898.174 1181.94 L 997.089 1182.02 C 998.083 1208.1 997.74 1234.56 997.06 1260.65 C 964.213 1260.69 931.28 1261.22 898.444 1260.43 C 897.166 1234.41 897.943 1207.99 898.174 1181.94 z"/>
<path transform="translate(0,0)" fill="rgb(97,76,61)" d="M 744.819 1174.99 C 752.53 1177.42 763.172 1176.43 771.309 1176.42 C 788.621 1176.4 856.55 1173.9 867.469 1177.67 C 866.274 1204.91 866.937 1232.5 867.108 1259.77 L 866.898 1267.01 C 865.199 1268.38 687.224 1269.11 667.465 1266.98 C 664.966 1266.71 663.493 1266.64 661.111 1267.42 C 658.88 1269.76 658.842 1270.74 658.118 1273.81 C 656.854 1271.86 656.802 1269.94 656.458 1267.68 C 658.01 1257.61 658.584 1247.39 659.974 1237.28 C 661.195 1237.18 662.294 1237.07 663.486 1236.77 C 696.829 1228.22 727.994 1205.03 744.819 1174.99 z"/>
<path transform="translate(0,0)" fill="rgb(97,76,61)" d="M 1028 1176.53 C 1044.21 1175.95 1064.37 1174.68 1080.14 1178.38 C 1113.02 1192.06 1146.17 1205.07 1179.59 1217.4 C 1193.4 1222.47 1210.09 1225.78 1223.03 1232.42 C 1221.5 1240.01 1224.7 1257.95 1225.95 1265.9 C 1225.29 1266.45 1224.77 1267.27 1223.95 1267.55 C 1218.1 1269.58 1197.76 1268.06 1190.36 1268.06 L 1080.52 1267.97 C 1063.36 1267.94 1044.65 1266.23 1027.68 1268.1 C 1030.21 1252.59 1029.81 1193.91 1028 1176.53 z"/>
<path transform="translate(0,0)" fill="rgb(214,189,147)" d="M 1118.76 680.786 C 1148.45 685.48 1182.37 696.244 1208.36 711.399 C 1252.94 731.762 1306.8 782.054 1336.45 820.317 C 1343.43 829.321 1358.65 856.936 1365.61 861.239 C 1379.45 851.162 1432.45 829.459 1449.9 823.545 C 1478.46 813.864 1559.7 790.536 1586.51 794.452 C 1589.98 794.959 1593.27 796.034 1595.4 799.01 C 1596.8 800.97 1595.97 803.899 1595.43 806.094 C 1592.98 816.029 1588.64 825.991 1585.13 835.613 C 1577.76 855.878 1570.16 876.055 1562.32 896.14 C 1555.2 914.498 1549.45 933.706 1540.84 951.434 C 1552.61 954.244 1563.36 960.932 1569.63 971.511 C 1581.6 991.688 1573.86 1016.76 1569.08 1037.84 C 1566.59 1048.79 1564.25 1059.86 1561.2 1070.67 C 1556.3 1088.06 1549.8 1108.5 1533.21 1118.18 C 1522.29 1124.56 1501.13 1127.02 1488.83 1123.18 C 1488.4 1123.05 1487.99 1122.88 1487.57 1122.73 C 1487.28 1123.33 1486.98 1123.93 1486.69 1124.54 C 1483.03 1132.33 1481.98 1142.1 1479.3 1150.38 C 1477.04 1157.36 1473.76 1165.42 1468.34 1170.49 C 1459.43 1178.82 1431.55 1188.04 1419.43 1192.7 C 1382.76 1206.8 1346.6 1222.22 1309.6 1235.41 C 1299.93 1238.86 1288.99 1244.04 1278.91 1245.6 C 1275.94 1246.23 1274.11 1246.05 1271.18 1245.57 C 1255.23 1244.71 1238.12 1237.63 1223.03 1232.42 C 1210.09 1225.78 1193.4 1222.47 1179.59 1217.4 C 1146.17 1205.07 1113.02 1192.06 1080.14 1178.38 C 1083.96 1156.13 1086.02 1133.4 1089.06 1111.02 L 1104.32 1004.48 C 1104.93 999.066 1105.43 993.634 1106.53 988.289 C 1111.35 945.96 1118.2 903.755 1123.84 861.517 C 1125.96 845.63 1128.6 829.607 1129.91 813.644 C 1127.93 809.659 1121.1 697.312 1118.76 680.786 z"/>
<path transform="translate(0,0)" fill="rgb(214,189,147)" d="M 1118.76 680.786 C 1148.45 685.48 1182.37 696.244 1208.36 711.399 C 1252.94 731.762 1306.8 782.054 1336.45 820.317 C 1343.43 829.321 1358.65 856.936 1365.61 861.239 L 1364.79 862.078 L 1361.24 862.098 C 1358.71 865.358 1356.47 868.467 1354.85 872.3 C 1348.42 887.553 1345.49 905.008 1341.54 921.066 C 1332.52 957.744 1323.77 994.743 1317.22 1031.96 C 1293.87 1025.48 1269.67 1021.77 1245.94 1016.89 C 1216.21 1010.77 1186.67 1003.79 1156.99 997.505 C 1150 996.025 1108.99 990.431 1107.6 989.558 C 1107.13 989.264 1106.89 988.712 1106.53 988.289 C 1111.35 945.96 1118.2 903.755 1123.84 861.517 C 1125.96 845.63 1128.6 829.607 1129.91 813.644 C 1127.93 809.659 1121.1 697.312 1118.76 680.786 z"/>
<path transform="translate(0,0)" fill="rgb(97,76,61)" d="M 1118.76 680.786 C 1148.45 685.48 1182.37 696.244 1208.36 711.399 C 1207.59 721.303 1211.02 733.175 1212.65 743.136 C 1214.7 755.704 1224.35 817.724 1222 827.444 C 1191.35 822.425 1160.6 818.289 1129.91 813.644 C 1127.93 809.659 1121.1 697.312 1118.76 680.786 z"/>
<path transform="translate(0,0)" fill="rgb(85,108,82)" d="M 1208.36 711.399 C 1252.94 731.762 1306.8 782.054 1336.45 820.317 C 1343.43 829.321 1358.65 856.936 1365.61 861.239 L 1364.79 862.078 L 1361.24 862.098 C 1330.79 852.801 1300.39 843.726 1269.33 836.642 C 1253.67 833.071 1237.76 830.478 1222 827.444 C 1224.35 817.724 1214.7 755.704 1212.65 743.136 C 1211.02 733.175 1207.59 721.303 1208.36 711.399 z"/>
<path transform="translate(0,0)" fill="rgb(214,189,147)" d="M 1461.63 1008.32 C 1472.76 1009.14 1484.01 1009.83 1495.03 1011.67 C 1503.67 1013.11 1512.76 1015.94 1521.46 1016.45 C 1524.48 1016.62 1527.89 1016.59 1530.79 1015.61 C 1532.76 1014.94 1532.08 1015.43 1533.05 1013.57 C 1521.71 1002.18 1485.55 1007.26 1474.32 995.358 C 1470.95 991.786 1470.17 986.87 1470.43 982.131 C 1470.92 973.394 1474.15 961.115 1481.19 955.487 C 1494.81 944.602 1524.97 949.068 1540.84 951.434 C 1552.61 954.244 1563.36 960.932 1569.63 971.511 C 1581.6 991.688 1573.86 1016.76 1569.08 1037.84 C 1566.59 1048.79 1564.25 1059.86 1561.2 1070.67 C 1556.3 1088.06 1549.8 1108.5 1533.21 1118.18 C 1522.29 1124.56 1501.13 1127.02 1488.83 1123.18 C 1488.4 1123.05 1487.99 1122.88 1487.57 1122.73 C 1487.28 1123.33 1486.98 1123.93 1486.69 1124.54 C 1483.03 1132.33 1481.98 1142.1 1479.3 1150.38 C 1477.04 1157.36 1473.76 1165.42 1468.34 1170.49 C 1459.43 1178.82 1431.55 1188.04 1419.43 1192.7 C 1382.76 1206.8 1346.6 1222.22 1309.6 1235.41 C 1299.93 1238.86 1288.99 1244.04 1278.91 1245.6 C 1278.59 1244.56 1278.55 1243.14 1278.41 1242.05 C 1287.9 1222.05 1290.91 1201.3 1296.36 1180.15 L 1329.48 1046.26 C 1346.87 1043.64 1364.06 1038.88 1381.17 1034.85 C 1402.98 1029.71 1424.86 1025.01 1446.59 1019.55 C 1451.17 1013.52 1454.74 1011.24 1461.63 1008.32 z"/>
<path transform="translate(0,0)" fill="rgb(244,191,151)" d="M 1461.63 1008.32 C 1472.76 1009.14 1484.01 1009.83 1495.03 1011.67 C 1503.67 1013.11 1512.76 1015.94 1521.46 1016.45 C 1524.48 1016.62 1527.89 1016.59 1530.79 1015.61 C 1532.76 1014.94 1532.08 1015.43 1533.05 1013.57 C 1521.71 1002.18 1485.55 1007.26 1474.32 995.358 C 1470.95 991.786 1470.17 986.87 1470.43 982.131 C 1470.92 973.394 1474.15 961.115 1481.19 955.487 C 1494.81 944.602 1524.97 949.068 1540.84 951.434 C 1552.61 954.244 1563.36 960.932 1569.63 971.511 C 1581.6 991.688 1573.86 1016.76 1569.08 1037.84 C 1566.59 1048.79 1564.25 1059.86 1561.2 1070.67 C 1556.3 1088.06 1549.8 1108.5 1533.21 1118.18 C 1522.29 1124.56 1501.13 1127.02 1488.83 1123.18 C 1488.4 1123.05 1487.99 1122.88 1487.57 1122.73 C 1475.19 1119.17 1462.33 1118.31 1450.26 1113.39 C 1442.98 1110.43 1436.23 1105.94 1433.34 1098.3 C 1430.59 1091.02 1432.01 1082.87 1435.1 1075.93 C 1436.68 1072.39 1440.05 1065.98 1443.86 1064.4 C 1459.28 1058.03 1505.83 1077.92 1520.18 1072.04 L 1520.8 1070.03 L 1519.53 1067.98 C 1509.18 1061.12 1481.5 1060.11 1468.1 1056.91 C 1459.89 1054.95 1451.22 1051.53 1446.87 1043.8 C 1442.78 1036.54 1444.58 1027.17 1446.59 1019.55 C 1451.17 1013.52 1454.74 1011.24 1461.63 1008.32 z"/>
<path transform="translate(0,0)" fill="rgb(214,189,147)" d="M 1365.61 861.239 C 1379.45 851.162 1432.45 829.459 1449.9 823.545 C 1478.46 813.864 1559.7 790.536 1586.51 794.452 C 1589.98 794.959 1593.27 796.034 1595.4 799.01 C 1596.8 800.97 1595.97 803.899 1595.43 806.094 C 1592.98 816.029 1588.64 825.991 1585.13 835.613 C 1577.76 855.878 1570.16 876.055 1562.32 896.14 C 1555.2 914.498 1549.45 933.706 1540.84 951.434 C 1524.97 949.068 1494.81 944.602 1481.19 955.487 C 1474.15 961.115 1470.92 973.394 1470.43 982.131 C 1470.17 986.87 1470.95 991.786 1474.32 995.358 C 1485.55 1007.26 1521.71 1002.18 1533.05 1013.57 C 1532.08 1015.43 1532.76 1014.94 1530.79 1015.61 C 1527.89 1016.59 1524.48 1016.62 1521.46 1016.45 C 1512.76 1015.94 1503.67 1013.11 1495.03 1011.67 C 1484.01 1009.83 1472.76 1009.14 1461.63 1008.32 C 1465.11 1007.4 1468.73 1008.04 1472.26 1007.25 L 1467.73 1006.74 C 1468.21 1005.36 1468.39 1004.62 1468.45 1003.12 C 1467.8 1002.28 1467.82 1002.19 1466.8 1001.48 C 1464.27 999.716 1460.97 999.428 1458.02 999.812 C 1441.05 1002.02 1423.65 1008.22 1407.11 1012.67 C 1382.5 1019.12 1357.83 1025.38 1333.12 1031.45 C 1338.68 1007.65 1369.3 878.029 1364.79 862.078 L 1365.61 861.239 z"/>
<path transform="translate(0,0)" fill="rgb(224,170,99)" d="M 1361.24 862.098 L 1364.79 862.078 C 1369.3 878.029 1338.68 1007.65 1333.12 1031.45 C 1357.83 1025.38 1382.5 1019.12 1407.11 1012.67 C 1423.65 1008.22 1441.05 1002.02 1458.02 999.812 C 1460.97 999.428 1464.27 999.716 1466.8 1001.48 C 1467.82 1002.19 1467.8 1002.28 1468.45 1003.12 C 1468.39 1004.62 1468.21 1005.36 1467.73 1006.74 L 1472.26 1007.25 C 1468.73 1008.04 1465.11 1007.4 1461.63 1008.32 C 1454.74 1011.24 1451.17 1013.52 1446.59 1019.55 C 1424.86 1025.01 1402.98 1029.71 1381.17 1034.85 C 1364.06 1038.88 1346.87 1043.64 1329.48 1046.26 L 1296.36 1180.15 C 1290.91 1201.3 1287.9 1222.05 1278.41 1242.05 C 1278.55 1243.14 1278.59 1244.56 1278.91 1245.6 C 1275.94 1246.23 1274.11 1246.05 1271.18 1245.57 L 1272.84 1244.55 C 1273.03 1241.01 1270.83 1237.77 1269.23 1234.7 C 1271.57 1213.19 1278.65 1192.31 1283.67 1171.32 L 1313.82 1047.06 C 1301.75 1044.08 1289.22 1042.25 1277.03 1039.73 L 1210.31 1025.76 C 1174.95 1018.66 1139.88 1010.57 1104.32 1004.48 C 1104.93 999.066 1105.43 993.634 1106.53 988.289 C 1106.89 988.712 1107.13 989.264 1107.6 989.558 C 1108.99 990.431 1150 996.025 1156.99 997.505 C 1186.67 1003.79 1216.21 1010.77 1245.94 1016.89 C 1269.67 1021.77 1293.87 1025.48 1317.22 1031.96 C 1323.77 994.743 1332.52 957.744 1341.54 921.066 C 1345.49 905.008 1348.42 887.553 1354.85 872.3 C 1356.47 868.467 1358.71 865.358 1361.24 862.098 z"/>
<path transform="translate(0,0)" fill="rgb(214,189,147)" d="M 465.15 991.748 C 462.144 973.416 478.17 930.781 485.557 912.965 C 523.991 820.271 603.416 739.661 696.165 701.16 C 697.966 703.953 697.994 706.209 697.841 709.431 C 696.675 733.874 691.629 758.746 689.178 783.163 L 684.582 831.654 C 684.059 837.475 684.524 844.517 683.048 850.062 C 682.866 850.744 682.39 851.836 682.149 852.426 C 688.664 864.45 689.435 877.52 685.525 890.521 C 684.068 895.365 681.981 899.798 679.692 904.294 C 713.578 910.95 745.689 933.387 764.857 961.96 C 767.2 965.453 769.677 969.052 771.597 972.798 C 788.577 1009.55 793.965 1049.57 779.841 1088.35 C 776.073 1098.69 759.444 1133.82 749.906 1138.88 C 748.831 1139.45 747.681 1139.76 746.531 1140.11 C 751.024 1149.07 750.241 1159.44 747.108 1168.75 C 746.394 1170.85 745.63 1172.93 744.819 1174.99 C 727.994 1205.03 696.829 1228.22 663.486 1236.77 C 662.294 1237.07 661.195 1237.18 659.974 1237.28 C 639.923 1239.48 621.892 1244.26 601.373 1241.86 C 557.571 1236.73 517.538 1215.8 490.292 1180.72 C 459.014 1140.45 447.127 1087.67 455.167 1037.55 C 457.573 1022.55 463.21 1008.09 465.011 993.054 C 465.063 992.619 465.104 992.183 465.15 991.748 z"/>
<path transform="translate(0,0)" fill="rgb(244,191,151)" d="M 465.15 991.748 C 477.396 993.132 494.487 1004.72 506.004 1010.58 C 507.882 1015.45 505.101 1033.01 504.933 1039.01 C 503.754 1081.2 526.458 1117.33 554.591 1146.53 C 564.846 1139.88 575.016 1132.87 585.517 1126.62 C 589.323 1124.75 592.628 1121.79 596.505 1119.91 C 605.507 1115.54 615.767 1114.22 625.532 1112.48 C 629.415 1113.86 633.312 1114.91 636.528 1117.57 C 641.578 1120.14 646.238 1122.25 649.918 1126.75 C 650.161 1126.53 650.428 1126.32 650.647 1126.07 C 651.883 1124.66 652.028 1123.19 652.419 1121.42 C 659.715 1116.64 670.468 1117.4 678.659 1119.17 C 686.757 1120.92 698.756 1124.93 705.044 1130.3 L 706.485 1131.46 C 716.103 1128.26 721.735 1122.48 732.128 1128.18 C 737.663 1131.21 741.98 1135.84 746.531 1140.11 C 751.024 1149.07 750.241 1159.44 747.108 1168.75 C 746.394 1170.85 745.63 1172.93 744.819 1174.99 C 727.994 1205.03 696.829 1228.22 663.486 1236.77 C 662.294 1237.07 661.195 1237.18 659.974 1237.28 C 639.923 1239.48 621.892 1244.26 601.373 1241.86 C 557.571 1236.73 517.538 1215.8 490.292 1180.72 C 459.014 1140.45 447.127 1087.67 455.167 1037.55 C 457.573 1022.55 463.21 1008.09 465.011 993.054 C 465.063 992.619 465.104 992.183 465.15 991.748 z"/>
<path transform="translate(0,0)" fill="rgb(207,138,107)" d="M 636.528 1117.57 C 641.578 1120.14 646.238 1122.25 649.918 1126.75 C 648.821 1130.73 649.03 1135.19 648.24 1139.3 C 645.247 1154.88 638.612 1170.52 626.874 1181.56 C 623.04 1185.17 617.426 1188.88 611.922 1188.43 C 610.047 1188.27 610.603 1188.28 609.264 1186.68 C 611.767 1180.31 622.955 1173.02 627.505 1167.16 C 636.043 1156.17 638.942 1138.05 641.937 1124.68 C 639.836 1122.45 637.7 1120.47 636.528 1117.57 z"/>
<path transform="translate(0,0)" fill="rgb(207,138,107)" d="M 708.906 1142.34 L 709.362 1142.62 C 710.806 1148.11 700.847 1174.48 698.176 1180.99 C 695.869 1186.61 692.237 1197.38 686.418 1199.78 C 685.248 1198.52 684.215 1197.21 683.172 1195.85 C 683.01 1192.01 697.405 1151.94 700.062 1145.88 C 702.513 1143.44 705.658 1143.1 708.906 1142.34 z"/>
<path transform="translate(0,0)" fill="rgb(85,108,82)" d="M 465.15 991.748 C 462.144 973.416 478.17 930.781 485.557 912.965 C 523.991 820.271 603.416 739.661 696.165 701.16 C 697.966 703.953 697.994 706.209 697.841 709.431 C 696.675 733.874 691.629 758.746 689.178 783.163 L 684.582 831.654 C 684.059 837.475 684.524 844.517 683.048 850.062 C 682.866 850.744 682.39 851.836 682.149 852.426 C 672.954 841.649 662.443 833.751 647.759 832.723 C 636.001 831.9 624.43 835.266 615.619 843.234 C 606.578 851.41 602.013 863.008 601.509 875.049 C 601.048 886.061 603.917 897.034 610.747 905.775 C 573.286 916.924 541.432 937.382 522.238 972.498 C 515.937 984.026 511.129 996.661 507.67 1009.32 L 506.004 1010.58 C 494.487 1004.72 477.396 993.132 465.15 991.748 z"/>
<path transform="translate(0,0)" fill="rgb(140,144,138)" d="M 610.747 905.775 C 603.917 897.034 601.048 886.061 601.509 875.049 C 602.013 863.008 606.578 851.41 615.619 843.234 C 624.43 835.266 636.001 831.9 647.759 832.723 C 662.443 833.751 672.954 841.649 682.149 852.426 C 688.664 864.45 689.435 877.52 685.525 890.521 C 684.068 895.365 681.981 899.798 679.692 904.294 C 713.578 910.95 745.689 933.387 764.857 961.96 C 767.2 965.453 769.677 969.052 771.597 972.798 C 788.577 1009.55 793.965 1049.57 779.841 1088.35 C 776.073 1098.69 759.444 1133.82 749.906 1138.88 C 748.831 1139.45 747.681 1139.76 746.531 1140.11 C 741.98 1135.84 737.663 1131.21 732.128 1128.18 C 721.735 1122.48 716.103 1128.26 706.485 1131.46 L 705.044 1130.3 C 706.228 1129.12 705.798 1129.46 706.96 1128.59 L 710.489 1125.96 C 712.129 1124.74 713.757 1123.53 715.292 1122.18 C 739.111 1101.2 751.065 1076.68 753.077 1045.27 C 753.934 1042.39 755.254 1037.17 754.078 1034.31 C 751.504 1012.05 744.676 993.942 730.945 976.008 C 710.265 948.996 681.508 939.473 649.005 935.176 C 645.482 934.87 643.378 934.974 640.056 936.234 L 638.661 937.93 C 632.294 934.573 619.574 938.998 612.973 941.056 C 586.953 949.296 565.241 967.482 552.564 991.653 C 545.504 1005.32 541.996 1019.71 539.339 1034.76 C 543.317 1035.05 547.51 1035.1 551.412 1035.92 C 554.197 1036.27 555.241 1036.61 557.322 1038.51 C 557.986 1041.15 557.957 1041.12 556.738 1043.57 C 554.385 1045.01 553.073 1045.1 550.334 1045.09 C 546.747 1045.62 544.501 1045.5 541.592 1047.74 C 538.521 1059.35 547.491 1082.79 553.554 1093.18 C 561.845 1107.38 572.709 1116.63 585.517 1126.62 C 575.016 1132.87 564.846 1139.88 554.591 1146.53 C 526.458 1117.33 503.754 1081.2 504.933 1039.01 C 505.101 1033.01 507.882 1015.45 506.004 1010.58 L 507.67 1009.32 C 511.129 996.661 515.937 984.026 522.238 972.498 C 541.432 937.382 573.286 916.924 610.747 905.775 z"/>
<path transform="translate(0,0)" fill="rgb(113,117,115)" d="M 551.412 1035.92 C 554.197 1036.27 555.241 1036.61 557.322 1038.51 C 557.986 1041.15 557.957 1041.12 556.738 1043.57 C 554.385 1045.01 553.073 1045.1 550.334 1045.09 C 547.667 1045.05 545.074 1044.93 542.418 1044.69 C 540.345 1043.08 539.989 1042.87 539.127 1040.42 L 540.851 1037.6 C 543.987 1035.33 547.73 1035.86 551.412 1035.92 z"/>
<path transform="translate(0,0)" fill="rgb(85,108,82)" d="M 643.883 857.912 C 651.038 857.198 658.013 860.441 662.079 866.371 C 666.145 872.302 666.655 879.977 663.409 886.393 C 660.162 892.809 653.677 896.946 646.49 897.183 C 635.877 897.534 626.897 889.405 626.193 878.809 C 625.49 868.213 633.316 858.968 643.883 857.912 z"/>
<path transform="translate(0,0)" fill="rgb(113,117,115)" d="M 638.661 937.93 L 640.056 936.234 C 643.378 934.974 645.482 934.87 649.005 935.176 C 649.182 942.481 650.287 948.167 645.515 954.215 L 643.429 954.988 C 641.459 953.775 640.116 952.739 639.395 950.405 C 638.236 946.657 638.657 941.844 638.661 937.93 z"/>
<path transform="translate(0,0)" fill="rgb(113,117,115)" d="M 754.078 1034.31 C 755.254 1037.17 753.934 1042.39 753.077 1045.27 L 750.718 1045.25 C 745.238 1045.2 739.473 1046.03 735.318 1041.8 L 735.355 1039.66 C 740.46 1034.46 747.254 1034.88 754.078 1034.31 z"/>
<path transform="translate(0,0)" fill="rgb(166,92,76)" d="M 624.551 1026.73 C 635.442 1013.94 649.692 999.597 665.526 993.105 C 671.549 990.636 678.675 990.006 684.432 987.163 C 688.01 985.396 694.493 977.852 698.051 978.208 C 698.73 978.277 700.043 978.793 700.711 979.035 C 701.181 981.344 701.198 981.639 699.822 983.728 C 698.293 986.048 695.458 987.394 693.033 988.588 C 688.868 1011.19 680.299 1035.53 664.107 1052.45 C 650.952 1046.38 637.94 1034.13 624.551 1026.73 z"/>
<path transform="translate(0,0)" fill="rgb(140,144,138)" d="M 664.107 1052.45 C 658.027 1059.19 651.21 1064.92 643.903 1070.28 C 636.181 1075.95 603.837 1098.5 595.75 1097.25 L 594.623 1095.52 C 594.958 1090.13 602.189 1081.61 604.601 1075.98 C 611.754 1059.28 613.555 1041.87 624.551 1026.73 C 637.94 1034.13 650.952 1046.38 664.107 1052.45 z"/>
<path transform="translate(0,0)" fill="rgb(97,76,61)" d="M 696.165 701.16 C 724.776 687.807 755.883 683.384 786.84 679.183 C 786.221 700.756 785.893 722.303 784.882 743.866 C 783.693 769.198 781.404 794.463 779.974 819.783 L 773.711 939.756 C 773.353 945.551 773.635 969.508 771.597 972.798 C 769.677 969.052 767.2 965.453 764.857 961.96 C 745.689 933.387 713.578 910.95 679.692 904.294 C 681.981 899.798 684.068 895.365 685.525 890.521 C 689.435 877.52 688.664 864.45 682.149 852.426 C 682.39 851.836 682.866 850.744 683.048 850.062 C 684.524 844.517 684.059 837.475 684.582 831.654 L 689.178 783.163 C 691.629 758.746 696.675 733.874 697.841 709.431 C 697.994 706.209 697.966 703.953 696.165 701.16 z"/>
<path transform="translate(0,0)" fill="rgb(244,191,151)" d="M 931.522 0 L 969.503 0 C 969.872 0.100218 970.239 0.205431 970.609 0.300655 C 989.475 5.15696 1009.66 4.8422 1028.83 9.55521 C 1088.05 24.1147 1140.96 68.1721 1172.07 119.895 C 1181.1 134.922 1189.64 151.53 1195.31 168.123 C 1201.9 182.462 1205.5 197.977 1208.42 213.424 C 1208.93 213.611 1209.42 213.808 1209.93 213.985 C 1219.13 217.211 1235.22 218.568 1245.51 220.755 C 1274.43 226.906 1355.29 246.654 1369.22 274.584 C 1371.46 279.06 1372.08 284.678 1370.51 289.475 C 1369.92 291.275 1368.85 292.809 1367.81 294.374 C 1361.99 300.54 1356.47 305.276 1349.05 309.454 C 1317.19 327.377 1252.36 341.05 1215.28 343.219 L 1217.89 379.543 C 1231.42 386.854 1240.03 392.335 1244.77 408.131 C 1252.21 432.911 1246.12 462.655 1233.6 484.729 C 1224.43 500.879 1210.63 515.105 1192.28 520.192 C 1181.74 523.112 1171.76 522.062 1161.45 518.903 C 1157.92 530.267 1156.02 542.036 1152.19 553.32 C 1140.78 586.964 1118.3 623.935 1088.99 644.663 C 1089.74 655.744 1088.81 666.893 1089.59 677.892 C 1089.75 714.131 1078.18 742.575 1052.43 768.4 C 1030.6 790.289 975.497 829.441 948.043 842.569 C 929.214 830.816 911.085 818.305 892.744 805.827 C 854.966 780.126 820.882 757.731 809.905 709.966 C 807.583 699.863 806.487 688.97 807.32 678.624 C 808.615 669.3 807.073 657.541 807.181 647.992 C 800.553 639.874 792.326 633.004 785.282 625.215 C 767.9 605.998 754.095 582.014 745.698 557.536 C 741.309 544.74 739.692 531.19 735.243 518.491 C 735.121 518.143 734.991 517.798 734.866 517.451 C 730.443 519.157 726.115 520.744 721.401 521.475 C 706.495 523.87 691.256 520.103 679.182 511.038 C 659.662 496.119 650.401 468.04 647.073 444.645 C 644.646 427.588 644.957 407.727 656.174 393.599 C 662.78 385.28 671.53 381.034 681.913 379.737 C 685.054 368.82 684.369 354.984 685.079 343.511 C 646.127 339.295 554.585 325.29 529.932 295.612 C 528.444 293.461 526.976 290.955 526.127 288.47 C 524.279 283.06 525.795 276.495 528.621 271.713 C 541.957 249.148 613.273 228.317 640.06 222.569 C 656.535 219.034 673.607 217.6 689.906 213.533 L 690.932 213.268 C 695.274 197.838 698.891 182.325 704.226 167.186 C 711.301 144.784 724.354 121.705 737.392 102.173 C 749.358 84.2474 773.129 58.9229 790.481 46.2798 C 812.135 30.5018 841.434 16.635 867.333 10.4955 C 888.251 5.537 909.5 4.64202 930.322 0.263846 L 931.522 0 z"/>
<path transform="translate(0,0)" fill="rgb(224,170,99)" d="M 931.522 0 L 969.503 0 C 969.872 0.100218 970.239 0.205431 970.609 0.300655 C 989.475 5.15696 1009.66 4.8422 1028.83 9.55521 C 1088.05 24.1147 1140.96 68.1721 1172.07 119.895 C 1181.1 134.922 1189.64 151.53 1195.31 168.123 C 1201.9 182.462 1205.5 197.977 1208.42 213.424 C 1208.93 213.611 1209.42 213.808 1209.93 213.985 C 1219.13 217.211 1235.22 218.568 1245.51 220.755 C 1274.43 226.906 1355.29 246.654 1369.22 274.584 C 1371.46 279.06 1372.08 284.678 1370.51 289.475 C 1369.92 291.275 1368.85 292.809 1367.81 294.374 C 1361.99 300.54 1356.47 305.276 1349.05 309.454 C 1317.19 327.377 1252.36 341.05 1215.28 343.219 C 1212.15 319.497 1212.64 293.903 1212.16 269.926 C 1191.43 268.836 1165.85 264.46 1145.76 265.726 L 1144.56 267.804 L 1143.4 264.094 C 1130.8 258.507 792.966 260.098 758.581 263.037 C 756.223 264.874 757.556 266.336 756.624 268.806 L 756.088 266.201 C 750.719 263.646 698.411 269.315 687.944 269.717 C 687.559 282.598 688.01 336.229 685.079 343.511 C 646.127 339.295 554.585 325.29 529.932 295.612 C 528.444 293.461 526.976 290.955 526.127 288.47 C 524.279 283.06 525.795 276.495 528.621 271.713 C 541.957 249.148 613.273 228.317 640.06 222.569 C 656.535 219.034 673.607 217.6 689.906 213.533 L 690.932 213.268 C 695.274 197.838 698.891 182.325 704.226 167.186 C 711.301 144.784 724.354 121.705 737.392 102.173 C 749.358 84.2474 773.129 58.9229 790.481 46.2798 C 812.135 30.5018 841.434 16.635 867.333 10.4955 C 888.251 5.537 909.5 4.64202 930.322 0.263846 L 931.522 0 z"/>
<path transform="translate(0,0)" fill="rgb(224,170,99)" d="M 931.522 0 L 969.503 0 C 969.872 0.100218 970.239 0.205431 970.609 0.300655 C 989.475 5.15696 1009.66 4.8422 1028.83 9.55521 C 1088.05 24.1147 1140.96 68.1721 1172.07 119.895 C 1181.1 134.922 1189.64 151.53 1195.31 168.123 C 1181.9 163.579 1167.05 161.273 1153.15 158.69 C 1087.23 146.445 1019.81 143.899 952.91 143.911 C 910.922 143.919 868.657 144.751 826.827 148.6 C 795.299 151.185 763.975 155.837 733.057 162.526 C 726.774 163.821 709.802 169.301 704.226 167.186 C 711.301 144.784 724.354 121.705 737.392 102.173 C 749.358 84.2474 773.129 58.9229 790.481 46.2798 C 812.135 30.5018 841.434 16.635 867.333 10.4955 C 888.251 5.537 909.5 4.64202 930.322 0.263846 L 931.522 0 z"/>
<path transform="translate(0,0)" fill="rgb(151,111,73)" d="M 704.226 167.186 C 709.802 169.301 726.774 163.821 733.057 162.526 C 763.975 155.837 795.299 151.185 826.827 148.6 C 868.657 144.751 910.922 143.919 952.91 143.911 C 1019.81 143.899 1087.23 146.445 1153.15 158.69 C 1167.05 161.273 1181.9 163.579 1195.31 168.123 C 1201.9 182.462 1205.5 197.977 1208.42 213.424 C 1195.04 209.479 1170.17 207.981 1155.52 206.14 C 1087.47 197.588 1017.54 195.616 949.002 195.68 C 862.936 195.76 776.012 199.247 690.932 213.268 C 695.274 197.838 698.891 182.325 704.226 167.186 z"/>
<path transform="translate(0,0)" fill="rgb(200,142,74)" d="M 529.932 295.612 C 581.808 279.74 634.483 276.622 687.944 269.717 C 687.559 282.598 688.01 336.229 685.079 343.511 C 646.127 339.295 554.585 325.29 529.932 295.612 z"/>
<path transform="translate(0,0)" fill="rgb(200,142,74)" d="M 1212.16 269.926 C 1240.72 271.52 1345.6 284.031 1367.81 294.374 C 1361.99 300.54 1356.47 305.276 1349.05 309.454 C 1317.19 327.377 1252.36 341.05 1215.28 343.219 C 1212.15 319.497 1212.64 293.903 1212.16 269.926 z"/>
<path transform="translate(0,0)" fill="rgb(97,76,61)" d="M 687.944 269.717 C 698.411 269.315 750.719 263.646 756.088 266.201 L 756.624 268.806 C 753.263 302.559 752.061 336.735 749.933 370.594 C 749.161 382.891 749.495 396.129 747.521 408.247 C 746.787 412.757 745.634 416.763 742.509 420.167 C 740.418 420.795 740.02 421.03 737.962 419.97 C 721.764 411.626 722.602 380.215 681.913 379.737 C 685.054 368.82 684.369 354.984 685.079 343.511 C 688.01 336.229 687.559 282.598 687.944 269.717 z"/>
<path transform="translate(0,0)" fill="rgb(97,76,61)" d="M 1144.56 267.804 L 1145.76 265.726 C 1165.85 264.46 1191.43 268.836 1212.16 269.926 C 1212.64 293.903 1212.15 319.497 1215.28 343.219 L 1217.89 379.543 C 1209.83 380.443 1200.3 381.533 1193.05 385.313 C 1179.62 392.31 1170.74 418.348 1161.03 421.326 C 1159.86 421.687 1158.93 421.402 1158.04 420.531 C 1155.18 417.725 1154.09 412.955 1153.46 409.16 C 1150.65 392.14 1151.19 373.393 1150.27 356.118 C 1148.57 326.667 1146.66 297.228 1144.56 267.804 z"/>
<path transform="translate(0,0)" fill="rgb(207,138,107)" d="M 960.85 392.919 C 964.397 392.62 968.629 391.979 971.47 394.722 C 977.726 400.763 982.138 477.758 981.924 490.657 C 981.78 499.334 980.772 512.43 974.098 518.551 C 963.334 528.423 946.852 526.293 933.361 526.005 C 925.71 524.8 920.991 522.856 916.033 516.613 C 914.018 514.076 913.549 512.248 913.879 509.079 C 921.275 498.03 945.887 509.169 956.951 504.146 C 966.606 499.764 951.328 410.865 960.85 392.919 z"/>
<path transform="translate(0,0)" fill="rgb(166,92,76)" d="M 887.377 546.589 C 895.896 549.019 908.593 561.421 923.355 565.592 C 942.522 571.009 966.584 570.847 984.736 561.993 C 991.83 558.533 998.275 553.76 1005.21 549.978 C 1008.04 548.433 1010.8 547.202 1013.96 548.616 C 1016.65 549.817 1017.18 551.146 1018.37 553.614 C 1018.36 559.916 1015.97 562.777 1011.78 567.32 C 994.528 582.194 974.162 588.731 951.427 589.205 C 930.08 589.649 900.935 583.699 885.38 567.854 C 882.454 564.874 879.692 560.501 880.263 556.114 C 880.89 551.305 883.839 549.392 887.377 546.589 z"/>
<path transform="translate(0,0)" fill="rgb(97,76,61)" d="M 818.614 306.388 C 832.88 306.022 885.792 303.054 895.908 309.532 C 898.608 311.261 900.648 313.818 901.162 317.058 C 901.699 320.436 900.511 324.908 898.3 327.529 C 895.371 331.002 890.643 331.229 886.474 331.729 C 873.064 331.746 819.107 334.714 809.612 329.382 C 807.054 327.945 805.806 326.463 804.914 323.667 C 803.962 320.683 804.55 315.162 806.084 312.509 C 808.634 308.102 814.051 307.145 818.614 306.388 z"/>
<path transform="translate(0,0)" fill="rgb(97,76,61)" d="M 1019.55 306.446 C 1035.09 305.815 1079.44 303.255 1092.21 308.576 C 1095.57 309.975 1098.84 312.298 1099.95 315.943 C 1100.92 319.088 1099.61 323.651 1097.66 326.279 C 1094.96 329.918 1091.74 330.528 1087.55 331.475 C 1075.01 332.018 1018.87 334.541 1010.87 328.37 C 1008.7 326.694 1007.36 324.184 1006.89 321.509 C 1006.31 318.185 1006.38 313.957 1008.64 311.229 C 1011.28 308.026 1015.71 307.22 1019.55 306.446 z"/>
<path transform="translate(0,0)" fill="rgb(97,76,61)" d="M 851.021 373.077 C 853.35 372.902 855.72 372.689 858.057 372.75 C 862.039 372.853 865.637 375.256 868.197 378.156 C 874.047 384.784 875.073 394.572 874.585 403.05 C 873.965 413.844 870.852 423.408 862.614 430.654 C 860.015 431.312 857.15 431.853 854.452 431.689 C 850.013 431.42 846.38 428.78 843.811 425.299 C 838.071 417.523 837.636 404.267 839.146 394.935 C 840.624 385.794 843.469 378.663 851.021 373.077 z"/>
<path transform="translate(0,0)" fill="rgb(97,76,61)" d="M 1043.07 373.076 C 1045.28 373.077 1047.6 373.029 1049.78 373.457 C 1054.92 374.469 1058.7 378.928 1061.09 383.297 C 1066.3 392.801 1067.09 407.608 1064.15 417.906 C 1062.18 424.777 1059.47 428.416 1053.22 431.775 C 1050.19 431.971 1046.63 432.136 1043.7 431.208 C 1039.14 429.767 1035.79 425.792 1033.61 421.699 C 1028.5 412.077 1028.23 396.777 1031.54 386.544 C 1033.77 379.645 1036.72 376.39 1043.07 373.076 z"/>
<path transform="translate(0,0)" fill="rgb(244,191,151)" d="M 680.098 1568.04 C 713.628 1568.64 747.903 1574.33 781.732 1575.61 C 805.728 1576.52 829.794 1577.73 853.805 1577.95 C 870.422 1578.09 888.544 1576.65 904.982 1578.68 C 903.132 1619.81 899.103 1660.59 896.394 1701.62 C 894.802 1725.72 895.047 1751.12 891.206 1774.96 C 888.76 1796.3 889.519 1823.77 886.008 1843.84 C 879.392 1840.91 849.409 1843.83 839.893 1843.95 C 793.536 1844.93 747.16 1844.26 700.85 1841.96 C 688.441 1841.31 673.835 1841.91 661.912 1838.63 C 664.144 1816.88 664.132 1794.84 665.896 1773 C 665.824 1764.95 666.999 1756.68 667.503 1748.64 C 668.456 1733.42 669.064 1718.22 670.101 1703 C 673.17 1657.95 675.863 1613.01 680.098 1568.04 z"/>
<path transform="translate(0,0)" fill="rgb(151,111,73)" d="M 665.896 1773 C 712.716 1777.23 761.519 1778.55 808.531 1777.75 C 836.101 1777.28 863.612 1775.38 891.206 1774.96 C 888.76 1796.3 889.519 1823.77 886.008 1843.84 C 879.392 1840.91 849.409 1843.83 839.893 1843.95 C 793.536 1844.93 747.16 1844.26 700.85 1841.96 C 688.441 1841.31 673.835 1841.91 661.912 1838.63 C 664.144 1816.88 664.132 1794.84 665.896 1773 z"/>
<path transform="translate(0,0)" fill="rgb(244,191,151)" d="M 980.262 1579.35 C 1010.4 1577.07 1041.41 1578.93 1071.67 1578.09 C 1116.47 1576.4 1161.2 1573.06 1205.76 1568.08 C 1206.09 1579.26 1207.26 1590.35 1207.89 1601.5 C 1211.07 1657.98 1215.84 1714.74 1217.36 1771.26 C 1219.14 1790.9 1222.01 1821.97 1221.36 1841.2 C 1214.71 1837.03 1181.94 1841.63 1172.65 1842.01 C 1114.19 1844.41 1055.78 1845.37 997.381 1840.99 C 994.67 1820.02 994.768 1798.5 992.712 1777.39 C 991.31 1771.11 991.765 1763.56 991.405 1757.08 L 988.856 1711.46 C 986.549 1667.41 983.217 1623.36 980.262 1579.35 z"/>
<path transform="translate(0,0)" fill="rgb(151,111,73)" d="M 1217.36 1771.26 C 1219.14 1790.9 1222.01 1821.97 1221.36 1841.2 C 1214.71 1837.03 1181.94 1841.63 1172.65 1842.01 C 1114.19 1844.41 1055.78 1845.37 997.381 1840.99 C 994.67 1820.02 994.768 1798.5 992.712 1777.39 C 1000.42 1777.78 1008.17 1777.79 1015.89 1777.88 C 1036.6 1778.12 1211.43 1777.06 1217.36 1771.26 z"/>
<path transform="translate(0,0)" fill="rgb(97,76,61)" d="M 661.912 1838.63 C 673.835 1841.91 688.441 1841.31 700.85 1841.96 C 747.16 1844.26 793.536 1844.93 839.893 1843.95 C 849.409 1843.83 879.392 1840.91 886.008 1843.84 C 883.409 1865.14 883.01 1887.46 881.881 1908.92 C 880.723 1930.93 878.897 1953 877.244 1974.98 C 876.124 1989.89 876.385 2012.21 870.658 2025.64 C 866.058 2029.74 860.635 2032.83 854.752 2034.68 C 829.263 2042.61 616.135 2040.07 582.413 2036.44 C 574.118 2035.55 565.581 2033.97 558.156 2029.98 C 550.794 2026.02 547.919 2021.09 545.421 2013.35 C 546.256 2009.18 546.791 2004.51 549.058 2000.84 C 557.501 1987.16 572.769 1976.29 585.008 1966.17 C 608.321 1946.89 636.915 1926.09 658.67 1905.9 C 660.892 1883.54 661.974 1861.09 661.912 1838.63 z"/>
<path transform="translate(0,0)" fill="rgb(97,76,61)" d="M 997.381 1840.99 C 1055.78 1845.37 1114.19 1844.41 1172.65 1842.01 C 1181.94 1841.63 1214.71 1837.03 1221.36 1841.2 C 1222.37 1863.05 1223.02 1885.14 1225.27 1906.9 C 1244.52 1926.93 1331.74 1987.94 1336.12 2008.22 C 1337.11 2012.85 1336.23 2017.38 1333.56 2021.29 C 1327.12 2030.73 1313.8 2033.58 1303.23 2035.46 C 1291.91 2037.47 1280 2037.59 1268.53 2038.17 C 1233.55 2039.92 1198.2 2039.29 1163.17 2039.27 C 1131.64 2039.24 1099.91 2039.77 1068.42 2038.42 C 1057.3 2037.94 1045.9 2037.86 1034.88 2036.23 C 1028.94 2035.36 1022.5 2033.34 1017.65 2029.71 C 1012.93 2026.18 1011.21 2020.68 1009.97 2015.11 C 1005.91 1996.88 1005.91 1972.32 1004.91 1953.5 C 1003.8 1932.48 1002.09 1911.49 1000.76 1890.47 C 999.725 1874 999.224 1857.38 997.381 1840.99 z"/>
</svg>