<svg version="1.1" xmlns="http://www.w3.org/2000/svg" style="display: block;" viewBox="0 0 2048 2048" width="1024" height="1024" preserveAspectRatio="none">
<defs>
	<linearGradient id="Gradient1" gradientUnits="userSpaceOnUse" x1="930.646" y1="1670.62" x2="1014.52" y2="1571.14">
		<stop class="stop0" offset="0" stop-opacity="1" stop-color="rgb(137,148,140)"/>
		<stop class="stop1" offset="1" stop-opacity="1" stop-color="rgb(168,182,173)"/>
	</linearGradient>
</defs>
<path transform="translate(0,0)" fill="rgb(43,81,78)" d="M 833.706 391.011 C 855.464 390.637 877.141 393.155 898.916 393.167 C 899.096 420.6 901.834 448.452 916.108 472.645 C 919.381 478.192 925.952 483.211 928.529 488.924 C 964.682 522.612 1018.24 549.987 1068.64 548.066 C 1110.72 546.462 1167.84 521.723 1196.7 490.807 L 1197.64 489.775 C 1200.77 498.288 1200.13 513.806 1204.31 526.547 C 1227.86 586.435 1259.32 616.417 1318.1 641.956 C 1328.01 646.262 1338.09 650.21 1347.93 654.657 L 1348.02 656.095 C 1359.82 659.015 1399.54 657.046 1414.08 657.042 L 1579.29 657.151 C 1610.66 659.442 1642.94 658.022 1674.44 657.958 C 1686.77 657.933 1700.51 656.46 1712.6 658.804 C 1716.59 659.567 1720.22 661.603 1722.96 664.607 C 1727.15 669.212 1728.5 675.481 1728 681.556 C 1727.5 687.789 1724.39 692.923 1719.43 696.68 C 1716.04 699.244 1710.69 701.635 1706.46 701.946 C 1702.39 747.639 1694.53 786.734 1664.97 823.593 C 1657.94 832.35 1649.65 839.832 1642.32 848.277 C 1663.38 868.29 1677.99 921.586 1678.82 949.96 C 1679.77 982.694 1668.35 1019.61 1645.3 1043.49 C 1631.35 1057.95 1615.1 1069.55 1594.66 1071.41 C 1588.9 1072.32 1584.2 1074.22 1578.89 1076.51 L 1578.3 1077.98 C 1580.16 1079.06 1581.58 1079.09 1583.68 1079.31 C 1597.96 1080.88 1613.23 1090.16 1622.04 1101.32 C 1625.48 1105.68 1628.92 1110.74 1628.61 1116.47 C 1627.53 1119 1626.4 1120.29 1623.88 1121.39 C 1611.2 1126.91 1580.06 1120.72 1564.56 1123.73 L 1627.56 1602 L 1647.39 1755.45 C 1650.72 1781.55 1656.35 1808.6 1656.52 1834.92 C 1656.62 1849.79 1652.99 1863.67 1644 1875.72 C 1633.55 1889.73 1616.64 1901.3 1599.16 1903.66 C 1588.32 1905.11 1564.07 1905.94 1555.35 1898.55 C 1549.69 1893.75 1547.47 1843.19 1547.59 1833.38 C 1547.61 1832.11 1547.87 1831 1548.15 1829.77 C 1514.67 1830.81 1482.1 1829.93 1448.87 1830.32 C 1427.36 1830.58 1403.03 1833.47 1381.81 1830.09 C 1381.9 1855.62 1385.01 1883.84 1383.68 1908.77 C 1410.01 1926.26 1472.78 1958.29 1491.16 1978.15 C 1495.02 1982.33 1497.06 1986.53 1498.1 1992.13 C 1499.1 1997.45 1499.54 2005.28 1495.81 2009.76 C 1493.31 2012.76 1488.66 2012.81 1485.04 2013.08 C 1449.25 2015.71 1412.45 2012.86 1376.55 2012.97 C 1315.11 2013.15 1253.56 2015.21 1192.13 2013.35 C 1188.7 2013.25 1185.17 2012.98 1182.56 2010.39 C 1173.62 2001.5 1184.67 1950.95 1184.12 1936.79 C 1183.34 1916.8 1180.14 1894.55 1176.44 1874.88 C 1170.15 1867.64 1131.61 1834.77 1123.6 1829.9 L 956.387 1830.11 C 952.72 1843.04 951.891 1858.48 949.914 1871.89 C 947.283 1889.73 940.531 1922.06 941.08 1938.79 C 941.771 1959.81 948.417 1981.21 946.517 2002.39 C 946.186 2006.07 945.547 2009.39 942.628 2011.87 C 940.064 2012.84 937.763 2013.42 935.01 2013.5 C 913.803 2014.15 892.429 2013.65 871.205 2013.75 L 707.132 2013.65 C 693.792 2013.61 645.96 2015.95 636.157 2013.04 C 632.835 2012.06 629.801 2008.41 628.325 2005.4 C 625.686 2000.02 625.954 1993.52 627.953 1987.98 C 630.253 1981.59 635.321 1976.73 640.412 1972.46 C 657.871 1957.82 679.453 1946.41 698.977 1934.74 C 713.414 1926.11 727.674 1916.62 742.685 1909.06 C 743.371 1894.72 746.109 1839.92 742.902 1829.62 C 718.232 1833.45 685.841 1831.08 660.331 1830.69 L 542.013 1829.91 C 542.007 1839.85 539.197 1892.24 534.279 1898.23 C 528.712 1905.01 505.549 1904.64 497.479 1904.42 C 478.298 1903.89 461.641 1898.45 448.326 1884.06 C 437.827 1872.71 431.782 1859.3 430.57 1843.88 C 428.795 1821.28 437.233 1777.71 440.418 1753.02 L 469.538 1530.57 L 477.121 1473.92 C 478.558 1463.37 480.617 1452.52 480.952 1441.87 C 480.964 1441.49 480.968 1441.11 480.976 1440.72 C 478.116 1437.74 476.2 1434.92 475.201 1430.85 C 471.797 1416.99 481.11 1402.8 487.731 1391.31 C 492.04 1369.86 493.921 1347.31 496.77 1325.58 C 496.952 1323.15 497.251 1321.83 496.195 1319.54 C 490.337 1321.26 483.921 1323.26 477.859 1321.43 C 461.426 1316.46 450.683 1296.97 442.896 1283.02 C 440.601 1282.97 438.289 1282.92 436.005 1282.68 C 429.215 1281.96 422.259 1278.07 418.112 1272.64 C 407.663 1258.97 410.511 1240.31 412.441 1224.6 C 413.015 1222.3 414.006 1220.05 414.831 1217.83 C 420.653 1202.3 427.641 1187.24 433.902 1171.89 C 438.54 1165.3 441.555 1157.18 444.778 1149.81 C 442.446 1147.43 441.449 1146.05 440.336 1142.91 C 438.428 1130.05 438.163 1117.18 437.492 1104.22 C 438.092 1092.08 437.724 1079.9 438.265 1067.76 C 439.338 1043.68 441.982 1019.06 445.65 995.254 C 458.19 889.28 506.301 761.362 568.716 674.578 C 564.969 672.155 561.008 669.701 557.66 666.741 C 549.894 659.875 544.824 650.007 544.522 639.599 C 543.434 602.125 585.541 574.158 608 549.707 L 608.855 548.76 C 607.006 543.524 605.4 538.394 605.343 532.787 C 605.136 512.151 617.43 496.547 631.339 482.774 C 653.533 460.797 681.255 444.902 709.853 432.688 C 720.109 428.307 731.592 424.836 741.239 419.32 C 752.845 412.683 759.439 402.479 772.931 397.868 C 792.486 391.185 813.308 390.895 833.706 391.011 z"/>
<path transform="translate(0,0)" fill="rgb(43,81,78)" d="M 833.706 391.011 C 855.464 390.637 877.141 393.155 898.916 393.167 C 899.096 420.6 901.834 448.452 916.108 472.645 C 919.381 478.192 925.952 483.211 928.529 488.924 C 964.682 522.612 1018.24 549.987 1068.64 548.066 C 1110.72 546.462 1167.84 521.723 1196.7 490.807 L 1197.64 489.775 C 1200.77 498.288 1200.13 513.806 1204.31 526.547 C 1227.86 586.435 1259.32 616.417 1318.1 641.956 C 1328.01 646.262 1338.09 650.21 1347.93 654.657 L 1348.02 656.095 C 1340.82 658.605 1335.73 661.89 1332.13 668.845 C 1329.03 674.84 1328.25 682.125 1330.58 688.524 C 1332.43 693.617 1336.08 697.558 1341.06 699.707 C 1344.6 701.231 1348.11 701.553 1351.91 701.617 C 1352.59 741.47 1360.63 773.33 1380.75 807.95 C 1375.64 812.081 1375.53 816.713 1374.9 822.907 C 1373.15 840.267 1367.53 941.838 1364.89 946.732 C 1365.65 979.771 1362.47 1012.83 1363.78 1045.99 C 1344.37 1045.93 1164.82 1044.28 1159.56 1046.79 C 1159.06 1047.84 1158.46 1048.92 1158.08 1050.02 C 1157.67 1055.35 1155.98 1059.95 1152.56 1064.1 C 1146.59 1071.36 1139.31 1072.86 1130.41 1073.42 C 1108.51 1074.79 1085.82 1073.52 1063.82 1073.57 C 1043.08 1073.61 1002.1 1075.9 983.578 1072.07 C 980.165 1071.36 976.773 1069.17 974.248 1066.83 C 968.102 1061.14 966.866 1054.18 966.72 1046.16 C 947.203 1044.02 922.553 1045.89 902.521 1045.9 L 764.441 1045.86 C 763.053 1064.11 758.356 1082.27 754.435 1100.12 C 748.082 1129.69 741.149 1159.12 733.641 1188.42 C 722.706 1231.9 713.021 1275.88 701.569 1319.21 C 684.085 1304.94 666.503 1290.8 648.825 1276.77 C 622.954 1308.08 599.286 1341.11 573.441 1372.36 C 564.811 1382.7 556.113 1393 547.349 1403.23 C 534.426 1418.53 518.299 1442.44 496.439 1444.04 C 490.865 1444.44 486.071 1442.75 480.976 1440.72 C 478.116 1437.74 476.2 1434.92 475.201 1430.85 C 471.797 1416.99 481.11 1402.8 487.731 1391.31 C 492.04 1369.86 493.921 1347.31 496.77 1325.58 C 496.952 1323.15 497.251 1321.83 496.195 1319.54 C 490.337 1321.26 483.921 1323.26 477.859 1321.43 C 461.426 1316.46 450.683 1296.97 442.896 1283.02 C 440.601 1282.97 438.289 1282.92 436.005 1282.68 C 429.215 1281.96 422.259 1278.07 418.112 1272.64 C 407.663 1258.97 410.511 1240.31 412.441 1224.6 C 413.015 1222.3 414.006 1220.05 414.831 1217.83 C 420.653 1202.3 427.641 1187.24 433.902 1171.89 C 438.54 1165.3 441.555 1157.18 444.778 1149.81 C 442.446 1147.43 441.449 1146.05 440.336 1142.91 C 438.428 1130.05 438.163 1117.18 437.492 1104.22 C 438.092 1092.08 437.724 1079.9 438.265 1067.76 C 439.338 1043.68 441.982 1019.06 445.65 995.254 C 458.19 889.28 506.301 761.362 568.716 674.578 C 564.969 672.155 561.008 669.701 557.66 666.741 C 549.894 659.875 544.824 650.007 544.522 639.599 C 543.434 602.125 585.541 574.158 608 549.707 L 608.855 548.76 C 607.006 543.524 605.4 538.394 605.343 532.787 C 605.136 512.151 617.43 496.547 631.339 482.774 C 653.533 460.797 681.255 444.902 709.853 432.688 C 720.109 428.307 731.592 424.836 741.239 419.32 C 752.845 412.683 759.439 402.479 772.931 397.868 C 792.486 391.185 813.308 390.895 833.706 391.011 z"/>
<path transform="translate(0,0)" fill="rgb(102,40,41)" d="M 742.433 756.224 L 761.934 946.851 C 763.003 979.895 764.201 1012.79 764.441 1045.86 C 763.053 1064.11 758.356 1082.27 754.435 1100.12 C 748.082 1129.69 741.149 1159.12 733.641 1188.42 C 722.706 1231.9 713.021 1275.88 701.569 1319.21 C 684.085 1304.94 666.503 1290.8 648.825 1276.77 C 622.954 1308.08 599.286 1341.11 573.441 1372.36 C 564.811 1382.7 556.113 1393 547.349 1403.23 C 534.426 1418.53 518.299 1442.44 496.439 1444.04 C 490.865 1444.44 486.071 1442.75 480.976 1440.72 C 478.116 1437.74 476.2 1434.92 475.201 1430.85 C 471.797 1416.99 481.11 1402.8 487.731 1391.31 C 492.04 1369.86 493.921 1347.31 496.77 1325.58 C 496.952 1323.15 497.251 1321.83 496.195 1319.54 C 490.337 1321.26 483.921 1323.26 477.859 1321.43 C 461.426 1316.46 450.683 1296.97 442.896 1283.02 C 440.601 1282.97 438.289 1282.92 436.005 1282.68 C 429.215 1281.96 422.259 1278.07 418.112 1272.64 C 407.663 1258.97 410.511 1240.31 412.441 1224.6 C 413.015 1222.3 414.006 1220.05 414.831 1217.83 C 420.653 1202.3 427.641 1187.24 433.902 1171.89 C 438.54 1165.3 441.555 1157.18 444.778 1149.81 L 445.433 1147.67 C 459.155 1133.23 482.405 1126.63 501.699 1125.16 C 529.263 1123.07 593.255 1124.83 613.982 1142.77 C 614.575 1135 613.597 1127.23 614.473 1119.34 C 616.949 1097.08 622.491 1074.66 627.033 1052.74 C 641.714 978.782 665.535 906.938 697.948 838.862 C 711.555 810.788 727.302 783.514 742.433 756.224 z"/>
<path transform="translate(0,0)" fill="rgb(245,187,137)" d="M 444.778 1149.81 L 445.433 1147.67 C 459.155 1133.23 482.405 1126.63 501.699 1125.16 C 529.263 1123.07 593.255 1124.83 613.982 1142.77 C 624.31 1162.92 632.399 1182.05 637.856 1204.12 C 633.902 1209.73 629.349 1213.81 623.627 1217.56 C 614.143 1230.62 603.791 1244.61 592.323 1255.97 C 589.81 1259.08 587.374 1262.3 584.67 1265.23 C 573.727 1282.36 540.956 1331.93 525.757 1341.59 C 513.067 1340.45 505.643 1333.93 496.77 1325.58 C 496.952 1323.15 497.251 1321.83 496.195 1319.54 C 490.337 1321.26 483.921 1323.26 477.859 1321.43 C 461.426 1316.46 450.683 1296.97 442.896 1283.02 C 440.601 1282.97 438.289 1282.92 436.005 1282.68 C 429.215 1281.96 422.259 1278.07 418.112 1272.64 C 407.663 1258.97 410.511 1240.31 412.441 1224.6 C 413.015 1222.3 414.006 1220.05 414.831 1217.83 C 420.653 1202.3 427.641 1187.24 433.902 1171.89 C 438.54 1165.3 441.555 1157.18 444.778 1149.81 z"/>
<path transform="translate(0,0)" fill="rgb(200,131,83)" d="M 595.119 1235.61 C 597.896 1232.09 598.983 1227.19 602.089 1223.56 C 604.866 1220.31 608.252 1219.19 612.384 1218.88 C 616.179 1218.6 619.861 1218.11 623.627 1217.56 C 614.143 1230.62 603.791 1244.61 592.323 1255.97 C 595.481 1249.13 595.132 1243.01 595.119 1235.61 z"/>
<path transform="translate(0,0)" fill="rgb(220,153,98)" d="M 584.67 1265.23 C 584.716 1264.33 584.783 1263.43 584.882 1262.53 C 585.912 1253.09 587.396 1241.98 595.119 1235.61 C 595.132 1243.01 595.481 1249.13 592.323 1255.97 C 589.81 1259.08 587.374 1262.3 584.67 1265.23 z"/>
<path transform="translate(0,0)" fill="rgb(236,170,67)" d="M 637.856 1204.12 C 645.676 1192.36 665.303 1167.42 676.05 1159.22 C 679.199 1156.81 682.454 1155.47 686.326 1154.64 C 693.434 1153.11 700.86 1154.5 706.927 1158.51 C 712.137 1161.99 715.736 1167.41 716.919 1173.56 C 719.077 1184.71 713.171 1194.71 706.944 1203.41 C 690.902 1225.82 667.092 1256.15 648.825 1276.77 C 622.954 1308.08 599.286 1341.11 573.441 1372.36 C 564.811 1382.7 556.113 1393 547.349 1403.23 C 534.426 1418.53 518.299 1442.44 496.439 1444.04 C 490.865 1444.44 486.071 1442.75 480.976 1440.72 C 478.116 1437.74 476.2 1434.92 475.201 1430.85 C 471.797 1416.99 481.11 1402.8 487.731 1391.31 C 492.04 1369.86 493.921 1347.31 496.77 1325.58 C 505.643 1333.93 513.067 1340.45 525.757 1341.59 C 540.956 1331.93 573.727 1282.36 584.67 1265.23 C 587.374 1262.3 589.81 1259.08 592.323 1255.97 C 603.791 1244.61 614.143 1230.62 623.627 1217.56 C 629.349 1213.81 633.902 1209.73 637.856 1204.12 z"/>
<path transform="translate(0,0)" fill="rgb(156,63,62)" d="M 496.77 1325.58 C 505.643 1333.93 513.067 1340.45 525.757 1341.59 C 512.35 1357.4 502.632 1376.79 487.731 1391.31 C 492.04 1369.86 493.921 1347.31 496.77 1325.58 z"/>
<path transform="translate(0,0)" fill="rgb(156,63,62)" d="M 833.706 391.011 C 855.464 390.637 877.141 393.155 898.916 393.167 C 899.096 420.6 901.834 448.452 916.108 472.645 C 919.381 478.192 925.952 483.211 928.529 488.924 C 926.465 500.599 924.223 512.085 921.28 523.575 C 903.889 576.844 863.59 613.602 814.73 638.507 C 763.763 664.485 708.57 677.61 651.852 682.316 C 626.39 684.428 601.426 685.67 576.803 677.58 C 574.068 676.688 571.37 675.687 568.716 674.578 C 564.969 672.155 561.008 669.701 557.66 666.741 C 549.894 659.875 544.824 650.007 544.522 639.599 C 543.434 602.125 585.541 574.158 608 549.707 L 608.855 548.76 C 607.006 543.524 605.4 538.394 605.343 532.787 C 605.136 512.151 617.43 496.547 631.339 482.774 C 653.533 460.797 681.255 444.902 709.853 432.688 C 720.109 428.307 731.592 424.836 741.239 419.32 C 752.845 412.683 759.439 402.479 772.931 397.868 C 792.486 391.185 813.308 390.895 833.706 391.011 z"/>
<path transform="translate(0,0)" fill="rgb(102,40,41)" d="M 681.571 578.948 C 683.663 578.853 686.253 578.926 688.249 579.654 C 690.502 580.476 692.304 581.971 693.094 584.298 C 693.764 586.272 693.091 588.741 692.294 590.572 C 686.772 603.264 659.586 624.608 646.461 629.397 C 645.296 629.253 644.371 629.179 643.26 628.927 C 640.316 628.26 638.267 626.034 636.866 623.48 C 635.081 620.226 634.742 616.916 636.032 613.424 C 640.917 600.194 669.053 584.524 681.571 578.948 z"/>
<path transform="translate(0,0)" fill="rgb(102,40,41)" d="M 820.797 554.126 C 821.414 554.076 822.03 554.016 822.648 553.976 C 826.408 553.732 829.018 554.4 831.861 556.949 C 832.676 559.381 833.031 560.618 832.125 563.1 C 827.034 577.049 802.731 593.587 789.674 599.973 C 786.681 601.475 784.52 602.812 781.045 602.415 C 779.961 601.671 779.015 601.402 778.61 600.062 C 777.478 596.311 779.641 591.505 781.349 588.213 C 788.969 573.525 805.111 559.104 820.797 554.126 z"/>
<path transform="translate(0,0)" fill="rgb(102,40,41)" d="M 826.121 462.125 C 829.007 462.16 830.521 461.973 832.927 463.78 C 833.991 466.86 833.935 468.7 832.707 471.752 C 827.211 485.41 808.684 502.358 795.48 508.239 C 793.881 508.183 792.493 508.131 791.002 507.45 C 789.194 506.625 786.962 504.682 786.479 502.722 C 785.121 497.211 789.032 490.828 791.962 486.431 C 799.695 474.827 812.339 464.812 826.121 462.125 z"/>
<path transform="translate(0,0)" fill="rgb(102,40,41)" d="M 699.623 484.936 C 702.514 484.919 705.077 484.528 707.458 486.45 C 708.481 488.931 708.732 490.142 707.872 492.76 C 704.368 503.426 679.008 524.325 669.208 529.973 C 668.134 529.952 667.066 529.976 666.007 529.737 C 663.336 529.135 662.184 527.801 660.711 525.65 C 659.925 522.09 660.09 518.808 661.328 515.339 C 666.661 500.401 686.329 491.315 699.623 484.936 z"/>
<path transform="translate(0,0)" fill="rgb(236,170,67)" d="M 966.678 946.74 C 966.774 940.866 967.555 936.286 970.632 931.138 C 973.965 925.561 978.839 921.5 985.289 920.162 C 1002.94 916.497 1039.12 918.785 1058.65 918.778 C 1081.92 918.77 1112.96 916.8 1135.41 919.748 C 1140.04 920.356 1143.84 921.512 1147.7 924.183 C 1154.55 928.919 1156.8 935.569 1158.32 943.425 C 1156.86 979.032 1158.93 1014.49 1158.08 1050.02 C 1157.67 1055.35 1155.98 1059.95 1152.56 1064.1 C 1146.59 1071.36 1139.31 1072.86 1130.41 1073.42 C 1108.51 1074.79 1085.82 1073.52 1063.82 1073.57 C 1043.08 1073.61 1002.1 1075.9 983.578 1072.07 C 980.165 1071.36 976.773 1069.17 974.248 1066.83 C 968.102 1061.14 966.866 1054.18 966.72 1046.16 C 967.666 1034.49 966.981 1022.27 966.979 1010.54 C 967.064 989.274 966.964 968.006 966.678 946.74 z"/>
<path transform="translate(0,0)" fill="rgb(213,148,55)" d="M 1002.94 957.678 C 1013.7 955.895 1113.13 955.682 1119.82 958.083 C 1120.67 985.289 1119.92 1012.72 1119.86 1039.95 L 1002.81 1039.96 C 1002.64 1012.62 1001.89 984.993 1002.94 957.678 z"/>
<path transform="translate(0,0)" fill="rgb(200,131,83)" d="M 1002.94 957.678 C 1013.7 955.895 1113.13 955.682 1119.82 958.083 C 1119.51 958.191 1119.2 958.316 1118.88 958.408 C 1113.3 960.007 1017.21 959.952 1007.47 959.205 C 1005.58 959.06 1004.53 958.631 1002.94 957.678 z"/>
<path transform="translate(0,0)" fill="rgb(213,148,55)" d="M 1158.32 943.425 C 1159 944.761 1159.12 945.956 1160.65 946.453 C 1166.61 948.386 1192.13 946.645 1200.16 946.643 L 1306.88 946.63 C 1326.12 946.609 1345.7 945.833 1364.89 946.732 C 1365.65 979.771 1362.47 1012.83 1363.78 1045.99 C 1344.37 1045.93 1164.82 1044.28 1159.56 1046.79 C 1159.06 1047.84 1158.46 1048.92 1158.08 1050.02 C 1158.93 1014.49 1156.86 979.032 1158.32 943.425 z"/>
<path transform="translate(0,0)" fill="rgb(213,148,55)" d="M 761.934 946.851 C 830.102 945.638 898.493 946.468 966.678 946.74 C 966.964 968.006 967.064 989.274 966.979 1010.54 C 966.981 1022.27 967.666 1034.49 966.72 1046.16 C 947.203 1044.02 922.553 1045.89 902.521 1045.9 L 764.441 1045.86 C 764.201 1012.79 763.003 979.895 761.934 946.851 z"/>
<path transform="translate(0,0)" fill="rgb(245,187,137)" d="M 928.529 488.924 C 964.682 522.612 1018.24 549.987 1068.64 548.066 C 1110.72 546.462 1167.84 521.723 1196.7 490.807 L 1197.64 489.775 C 1200.77 498.288 1200.13 513.806 1204.31 526.547 C 1186.94 536.017 1171.22 549.105 1154.66 559.971 C 1125.22 579.499 1094.62 597.231 1063.04 613.07 C 1023.12 595.458 954.916 551.615 921.28 523.575 C 924.223 512.085 926.465 500.599 928.529 488.924 z"/>
<path transform="translate(0,0)" fill="rgb(21,58,63)" d="M 445.65 995.254 C 447.166 1011.62 444.757 1027.08 443.621 1043.33 C 442.713 1056.33 442.466 1069.38 441.767 1082.4 C 441.653 1096.66 444.738 1126.78 441.508 1138.63 C 441.119 1140.06 440.742 1141.49 440.336 1142.91 C 438.428 1130.05 438.163 1117.18 437.492 1104.22 C 438.092 1092.08 437.724 1079.9 438.265 1067.76 C 439.338 1043.68 441.982 1019.06 445.65 995.254 z"/>
<path transform="translate(0,0)" fill="url(#Gradient1)" d="M 648.825 1276.77 C 666.503 1290.8 684.085 1304.94 701.569 1319.21 C 715.268 1331.15 729.959 1342.04 744.088 1353.48 L 816.831 1413.12 C 879.528 1464.52 941.667 1516.87 1005.24 1567.19 C 1048.7 1602.72 1092.98 1637.51 1135.74 1673.86 C 1140.5 1662.23 1131.63 1634.89 1131.33 1621.25 C 1141.4 1621.9 1151.78 1621.03 1161.9 1621 L 1227.12 1621 L 1320.37 1620.95 C 1336 1620.94 1351.83 1621.47 1367.44 1620.89 C 1370.91 1620.76 1373.58 1620.5 1376.67 1618.83 C 1378.88 1623.13 1381.32 1627.53 1382.48 1632.25 C 1386.06 1646.86 1385.02 1663.02 1385.55 1678 C 1386.13 1694.27 1387.11 1710.44 1387.34 1726.74 C 1383.62 1728.38 1379.16 1729.59 1377.65 1733.73 C 1374.36 1742.75 1381.04 1813.98 1381.81 1830.09 C 1381.9 1855.62 1385.01 1883.84 1383.68 1908.77 C 1410.01 1926.26 1472.78 1958.29 1491.16 1978.15 C 1495.02 1982.33 1497.06 1986.53 1498.1 1992.13 C 1499.1 1997.45 1499.54 2005.28 1495.81 2009.76 C 1493.31 2012.76 1488.66 2012.81 1485.04 2013.08 C 1449.25 2015.71 1412.45 2012.86 1376.55 2012.97 C 1315.11 2013.15 1253.56 2015.21 1192.13 2013.35 C 1188.7 2013.25 1185.17 2012.98 1182.56 2010.39 C 1173.62 2001.5 1184.67 1950.95 1184.12 1936.79 C 1183.34 1916.8 1180.14 1894.55 1176.44 1874.88 C 1170.15 1867.64 1131.61 1834.77 1123.6 1829.9 L 956.387 1830.11 C 952.72 1843.04 951.891 1858.48 949.914 1871.89 C 947.283 1889.73 940.531 1922.06 941.08 1938.79 C 941.771 1959.81 948.417 1981.21 946.517 2002.39 C 946.186 2006.07 945.547 2009.39 942.628 2011.87 C 940.064 2012.84 937.763 2013.42 935.01 2013.5 C 913.803 2014.15 892.429 2013.65 871.205 2013.75 L 707.132 2013.65 C 693.792 2013.61 645.96 2015.95 636.157 2013.04 C 632.835 2012.06 629.801 2008.41 628.325 2005.4 C 625.686 2000.02 625.954 1993.52 627.953 1987.98 C 630.253 1981.59 635.321 1976.73 640.412 1972.46 C 657.871 1957.82 679.453 1946.41 698.977 1934.74 C 713.414 1926.11 727.674 1916.62 742.685 1909.06 C 743.371 1894.72 746.109 1839.92 742.902 1829.62 C 718.232 1833.45 685.841 1831.08 660.331 1830.69 L 542.013 1829.91 C 542.007 1839.85 539.197 1892.24 534.279 1898.23 C 528.712 1905.01 505.549 1904.64 497.479 1904.42 C 478.298 1903.89 461.641 1898.45 448.326 1884.06 C 437.827 1872.71 431.782 1859.3 430.57 1843.88 C 428.795 1821.28 437.233 1777.71 440.418 1753.02 L 469.538 1530.57 L 477.121 1473.92 C 478.558 1463.37 480.617 1452.52 480.952 1441.87 C 480.964 1441.49 480.968 1441.11 480.976 1440.72 C 486.071 1442.75 490.865 1444.44 496.439 1444.04 C 518.299 1442.44 534.426 1418.53 547.349 1403.23 C 556.113 1393 564.811 1382.7 573.441 1372.36 C 599.286 1341.11 622.954 1308.08 648.825 1276.77 z"/>
<path transform="translate(0,0)" fill="rgb(102,40,41)" d="M 480.976 1440.72 C 486.071 1442.75 490.865 1444.44 496.439 1444.04 C 518.299 1442.44 534.426 1418.53 547.349 1403.23 C 556.113 1393 564.811 1382.7 573.441 1372.36 L 577.241 1375.12 L 765.215 1532.08 C 760.274 1546.03 760.319 1566.63 758.647 1581.5 C 757.301 1593.47 755.066 1605.37 753.387 1617.3 L 752.193 1619.43 C 751.717 1619.51 751.238 1619.58 750.763 1619.67 C 749.276 1619.95 748.091 1620.32 746.7 1620.87 C 743.959 1627.2 734.988 1720.23 736.665 1725.36 C 739.024 1727.39 741.154 1728.2 744.025 1729.21 C 744.624 1746.93 744.638 1764.67 744.069 1782.4 C 743.482 1797.62 741.215 1814.46 742.902 1829.62 C 718.232 1833.45 685.841 1831.08 660.331 1830.69 L 542.013 1829.91 C 542.007 1839.85 539.197 1892.24 534.279 1898.23 C 528.712 1905.01 505.549 1904.64 497.479 1904.42 C 478.298 1903.89 461.641 1898.45 448.326 1884.06 C 437.827 1872.71 431.782 1859.3 430.57 1843.88 C 428.795 1821.28 437.233 1777.71 440.418 1753.02 L 469.538 1530.57 L 477.121 1473.92 C 478.558 1463.37 480.617 1452.52 480.952 1441.87 C 480.964 1441.49 480.968 1441.11 480.976 1440.72 z"/>
<path transform="translate(0,0)" fill="rgb(156,63,62)" d="M 480.976 1440.72 C 486.071 1442.75 490.865 1444.44 496.439 1444.04 C 518.299 1442.44 534.426 1418.53 547.349 1403.23 C 556.113 1393 564.811 1382.7 573.441 1372.36 L 577.241 1375.12 C 575.84 1426.71 569.634 1478.12 565.139 1529.51 L 550.968 1711.53 L 544.777 1787.55 C 543.642 1801.46 541.526 1815.99 542.013 1829.91 C 542.007 1839.85 539.197 1892.24 534.279 1898.23 C 528.712 1905.01 505.549 1904.64 497.479 1904.42 C 478.298 1903.89 461.641 1898.45 448.326 1884.06 C 437.827 1872.71 431.782 1859.3 430.57 1843.88 C 428.795 1821.28 437.233 1777.71 440.418 1753.02 L 469.538 1530.57 L 477.121 1473.92 C 478.558 1463.37 480.617 1452.52 480.952 1441.87 C 480.964 1441.49 480.968 1441.11 480.976 1440.72 z"/>
<path transform="translate(0,0)" fill="rgb(63,55,50)" d="M 753.387 1617.3 L 754.025 1620.02 C 759.497 1622.89 856.731 1622.25 865.875 1620.18 L 867.816 1617.9 C 904.257 1646.62 940.882 1676.55 975.622 1707.27 C 972.256 1714.07 971.299 1721.59 969.802 1728.96 C 963.886 1762.44 962.355 1796.62 956.387 1830.11 C 952.72 1843.04 951.891 1858.48 949.914 1871.89 C 947.283 1889.73 940.531 1922.06 941.08 1938.79 C 941.771 1959.81 948.417 1981.21 946.517 2002.39 C 946.186 2006.07 945.547 2009.39 942.628 2011.87 C 940.064 2012.84 937.763 2013.42 935.01 2013.5 C 913.803 2014.15 892.429 2013.65 871.205 2013.75 L 707.132 2013.65 C 693.792 2013.61 645.96 2015.95 636.157 2013.04 C 632.835 2012.06 629.801 2008.41 628.325 2005.4 C 625.686 2000.02 625.954 1993.52 627.953 1987.98 C 630.253 1981.59 635.321 1976.73 640.412 1972.46 C 657.871 1957.82 679.453 1946.41 698.977 1934.74 C 713.414 1926.11 727.674 1916.62 742.685 1909.06 C 743.371 1894.72 746.109 1839.92 742.902 1829.62 C 741.215 1814.46 743.482 1797.62 744.069 1782.4 C 744.638 1764.67 744.624 1746.93 744.025 1729.21 C 741.154 1728.2 739.024 1727.39 736.665 1725.36 C 734.988 1720.23 743.959 1627.2 746.7 1620.87 C 748.091 1620.32 749.276 1619.95 750.763 1619.67 C 751.238 1619.58 751.717 1619.51 752.193 1619.43 L 753.387 1617.3 z"/>
<path transform="translate(0,0)" fill="rgb(63,55,50)" d="M 1376.67 1618.83 C 1378.88 1623.13 1381.32 1627.53 1382.48 1632.25 C 1386.06 1646.86 1385.02 1663.02 1385.55 1678 C 1386.13 1694.27 1387.11 1710.44 1387.34 1726.74 C 1383.62 1728.38 1379.16 1729.59 1377.65 1733.73 C 1374.36 1742.75 1381.04 1813.98 1381.81 1830.09 C 1381.9 1855.62 1385.01 1883.84 1383.68 1908.77 C 1410.01 1926.26 1472.78 1958.29 1491.16 1978.15 C 1495.02 1982.33 1497.06 1986.53 1498.1 1992.13 C 1499.1 1997.45 1499.54 2005.28 1495.81 2009.76 C 1493.31 2012.76 1488.66 2012.81 1485.04 2013.08 C 1449.25 2015.71 1412.45 2012.86 1376.55 2012.97 C 1315.11 2013.15 1253.56 2015.21 1192.13 2013.35 C 1188.7 2013.25 1185.17 2012.98 1182.56 2010.39 C 1173.62 2001.5 1184.67 1950.95 1184.12 1936.79 C 1183.34 1916.8 1180.14 1894.55 1176.44 1874.88 C 1182.14 1879.46 1187.84 1884.14 1194.02 1888.07 C 1199.76 1891.73 1205.79 1894.44 1212.25 1896.58 C 1230.59 1902.67 1250.02 1906.42 1268.71 1911.44 C 1285.54 1915.96 1302.97 1922.21 1319.98 1925.54 C 1322.69 1926.07 1327.03 1926.94 1329.73 1925.92 C 1332.35 1924.94 1332.54 1924.36 1333.62 1921.98 C 1332.71 1908.77 1317.07 1878.12 1311.18 1864.5 C 1302.94 1845.45 1291.27 1811.51 1280.18 1795.48 C 1271.54 1782.99 1256.37 1773.4 1244.61 1763.9 L 1179.42 1711.21 C 1165.12 1699.7 1149.32 1688.45 1136.78 1674.99 L 1135.74 1673.86 C 1140.5 1662.23 1131.63 1634.89 1131.33 1621.25 C 1141.4 1621.9 1151.78 1621.03 1161.9 1621 L 1227.12 1621 L 1320.37 1620.95 C 1336 1620.94 1351.83 1621.47 1367.44 1620.89 C 1370.91 1620.76 1373.58 1620.5 1376.67 1618.83 z"/>
<path transform="translate(0,0)" fill="rgb(102,40,41)" d="M 975.622 1707.27 C 1025.17 1747.74 1075.48 1787.75 1123.6 1829.9 L 956.387 1830.11 C 962.355 1796.62 963.886 1762.44 969.802 1728.96 C 971.299 1721.59 972.256 1714.07 975.622 1707.27 z"/>
<path transform="translate(0,0)" fill="rgb(43,81,78)" d="M 753.387 1617.3 C 755.066 1605.37 757.301 1593.47 758.647 1581.5 C 760.319 1566.63 760.274 1546.03 765.215 1532.08 C 780.931 1544.27 795.856 1557.58 811.066 1570.4 L 867.816 1617.9 L 865.875 1620.18 C 856.731 1622.25 759.497 1622.89 754.025 1620.02 L 753.387 1617.3 z"/>
<path transform="translate(0,0)" fill="rgb(102,40,41)" d="M 1348.02 656.095 C 1359.82 659.015 1399.54 657.046 1414.08 657.042 L 1579.29 657.151 C 1610.66 659.442 1642.94 658.022 1674.44 657.958 C 1686.77 657.933 1700.51 656.46 1712.6 658.804 C 1716.59 659.567 1720.22 661.603 1722.96 664.607 C 1727.15 669.212 1728.5 675.481 1728 681.556 C 1727.5 687.789 1724.39 692.923 1719.43 696.68 C 1716.04 699.244 1710.69 701.635 1706.46 701.946 C 1702.39 747.639 1694.53 786.734 1664.97 823.593 C 1657.94 832.35 1649.65 839.832 1642.32 848.277 C 1663.38 868.29 1677.99 921.586 1678.82 949.96 C 1679.77 982.694 1668.35 1019.61 1645.3 1043.49 C 1631.35 1057.95 1615.1 1069.55 1594.66 1071.41 C 1588.9 1072.32 1584.2 1074.22 1578.89 1076.51 L 1578.3 1077.98 C 1580.16 1079.06 1581.58 1079.09 1583.68 1079.31 C 1597.96 1080.88 1613.23 1090.16 1622.04 1101.32 C 1625.48 1105.68 1628.92 1110.74 1628.61 1116.47 C 1627.53 1119 1626.4 1120.29 1623.88 1121.39 C 1611.2 1126.91 1580.06 1120.72 1564.56 1123.73 L 1627.56 1602 L 1647.39 1755.45 C 1650.72 1781.55 1656.35 1808.6 1656.52 1834.92 C 1656.62 1849.79 1652.99 1863.67 1644 1875.72 C 1633.55 1889.73 1616.64 1901.3 1599.16 1903.66 C 1588.32 1905.11 1564.07 1905.94 1555.35 1898.55 C 1549.69 1893.75 1547.47 1843.19 1547.59 1833.38 C 1547.61 1832.11 1547.87 1831 1548.15 1829.77 C 1514.67 1830.81 1482.1 1829.93 1448.87 1830.32 C 1427.36 1830.58 1403.03 1833.47 1381.81 1830.09 C 1381.04 1813.98 1374.36 1742.75 1377.65 1733.73 C 1379.16 1729.59 1383.62 1728.38 1387.34 1726.74 C 1387.11 1710.44 1386.13 1694.27 1385.55 1678 C 1385.02 1663.02 1386.06 1646.86 1382.48 1632.25 C 1381.32 1627.53 1378.88 1623.13 1376.67 1618.83 C 1372.8 1606.15 1372.9 1591.32 1371.99 1578.15 C 1370.03 1550.03 1368.9 1522.03 1367.96 1493.86 C 1367.18 1470.54 1365.52 1447.29 1364.92 1423.95 C 1392.68 1422.42 1420.79 1423.2 1448.6 1422.98 C 1445.63 1397.97 1438.27 1372.97 1432.37 1348.53 L 1410.05 1252.81 C 1393.9 1184.09 1381.05 1114.41 1363.78 1045.99 C 1362.47 1012.83 1365.65 979.771 1364.89 946.732 C 1367.53 941.838 1373.15 840.267 1374.9 822.907 C 1375.53 816.713 1375.64 812.081 1380.75 807.95 C 1360.63 773.33 1352.59 741.47 1351.91 701.617 C 1348.11 701.553 1344.6 701.231 1341.06 699.707 C 1336.08 697.558 1332.43 693.617 1330.58 688.524 C 1328.25 682.125 1329.03 674.84 1332.13 668.845 C 1335.73 661.89 1340.82 658.605 1348.02 656.095 z"/>
<path transform="translate(0,0)" fill="rgb(156,63,62)" d="M 1434.52 1123.19 C 1430.65 1122.95 1425.97 1123.12 1423.2 1119.91 C 1420.96 1117.31 1420.17 1113.24 1420.44 1109.9 C 1421.2 1100.71 1427.92 1091.45 1434.79 1085.7 C 1448.84 1073.94 1466.79 1074.86 1483.97 1076.51 C 1490.59 1081.67 1541.47 1079.15 1552.45 1078.37 C 1559.95 1077.84 1571.78 1075 1578.89 1076.51 L 1578.3 1077.98 C 1580.16 1079.06 1581.58 1079.09 1583.68 1079.31 C 1597.96 1080.88 1613.23 1090.16 1622.04 1101.32 C 1625.48 1105.68 1628.92 1110.74 1628.61 1116.47 C 1627.53 1119 1626.4 1120.29 1623.88 1121.39 C 1611.2 1126.91 1580.06 1120.72 1564.56 1123.73 L 1627.56 1602 L 1647.39 1755.45 C 1650.72 1781.55 1656.35 1808.6 1656.52 1834.92 C 1656.62 1849.79 1652.99 1863.67 1644 1875.72 C 1633.55 1889.73 1616.64 1901.3 1599.16 1903.66 C 1588.32 1905.11 1564.07 1905.94 1555.35 1898.55 C 1549.69 1893.75 1547.47 1843.19 1547.59 1833.38 C 1547.61 1832.11 1547.87 1831 1548.15 1829.77 C 1543.77 1808.06 1543.85 1784.16 1542.03 1761.98 L 1529.68 1595.79 L 1507.11 1316.8 C 1501.85 1252.69 1495.64 1188.4 1492.88 1124.14 C 1474.63 1123.98 1452.21 1125.84 1434.52 1123.19 z"/>
<path transform="translate(0,0)" fill="rgb(236,170,67)" d="M 1434.52 1123.19 C 1430.65 1122.95 1425.97 1123.12 1423.2 1119.91 C 1420.96 1117.31 1420.17 1113.24 1420.44 1109.9 C 1421.2 1100.71 1427.92 1091.45 1434.79 1085.7 C 1448.84 1073.94 1466.79 1074.86 1483.97 1076.51 C 1490.59 1081.67 1541.47 1079.15 1552.45 1078.37 C 1559.95 1077.84 1571.78 1075 1578.89 1076.51 L 1578.3 1077.98 C 1580.16 1079.06 1581.58 1079.09 1583.68 1079.31 C 1597.96 1080.88 1613.23 1090.16 1622.04 1101.32 C 1625.48 1105.68 1628.92 1110.74 1628.61 1116.47 C 1627.53 1119 1626.4 1120.29 1623.88 1121.39 C 1611.2 1126.91 1580.06 1120.72 1564.56 1123.73 C 1521.24 1124.22 1477.87 1122.44 1434.52 1123.19 z"/>
<path transform="translate(0,0)" fill="rgb(236,170,67)" d="M 1348.02 656.095 C 1359.82 659.015 1399.54 657.046 1414.08 657.042 L 1579.29 657.151 C 1610.66 659.442 1642.94 658.022 1674.44 657.958 C 1686.77 657.933 1700.51 656.46 1712.6 658.804 C 1716.59 659.567 1720.22 661.603 1722.96 664.607 C 1727.15 669.212 1728.5 675.481 1728 681.556 C 1727.5 687.789 1724.39 692.923 1719.43 696.68 C 1716.04 699.244 1710.69 701.635 1706.46 701.946 C 1702.39 747.639 1694.53 786.734 1664.97 823.593 C 1657.94 832.35 1649.65 839.832 1642.32 848.277 C 1628.14 859.798 1609.13 870.068 1591.1 873.742 C 1589.67 874.034 1590.3 873.847 1588.9 874.446 C 1574.62 875.495 1488.97 870.849 1483.01 874.685 C 1480.48 873.948 1477.85 873.794 1475.25 873.443 C 1434.95 868.004 1404.3 838.823 1380.75 807.95 C 1360.63 773.33 1352.59 741.47 1351.91 701.617 C 1348.11 701.553 1344.6 701.231 1341.06 699.707 C 1336.08 697.558 1332.43 693.617 1330.58 688.524 C 1328.25 682.125 1329.03 674.84 1332.13 668.845 C 1335.73 661.89 1340.82 658.605 1348.02 656.095 z"/>
<path transform="translate(0,0)" fill="rgb(213,148,55)" d="M 1348.02 656.095 C 1359.82 659.015 1399.54 657.046 1414.08 657.042 L 1579.29 657.151 C 1610.66 659.442 1642.94 658.022 1674.44 657.958 C 1686.77 657.933 1700.51 656.46 1712.6 658.804 C 1716.59 659.567 1720.22 661.603 1722.96 664.607 C 1727.15 669.212 1728.5 675.481 1728 681.556 C 1727.5 687.789 1724.39 692.923 1719.43 696.68 C 1716.04 699.244 1710.69 701.635 1706.46 701.946 C 1705.15 701.431 1357.27 700.197 1351.91 701.617 C 1348.11 701.553 1344.6 701.231 1341.06 699.707 C 1336.08 697.558 1332.43 693.617 1330.58 688.524 C 1328.25 682.125 1329.03 674.84 1332.13 668.845 C 1335.73 661.89 1340.82 658.605 1348.02 656.095 z"/>
<path transform="translate(0,0)" fill="rgb(245,187,137)" d="M 1642.32 848.277 C 1663.38 868.29 1677.99 921.586 1678.82 949.96 C 1679.77 982.694 1668.35 1019.61 1645.3 1043.49 C 1631.35 1057.95 1615.1 1069.55 1594.66 1071.41 C 1588.9 1072.32 1584.2 1074.22 1578.89 1076.51 C 1571.78 1075 1559.95 1077.84 1552.45 1078.37 C 1541.47 1079.15 1490.59 1081.67 1483.97 1076.51 C 1481.63 1063.91 1480.8 1054.98 1484.04 1042.42 C 1482.13 1037.63 1483.41 1032.47 1481.25 1027.55 C 1479.09 1026.3 1477.44 1024.99 1476.25 1022.76 C 1471.1 1013.09 1474.82 999.079 1477.69 989.13 C 1465.64 988.457 1451.64 988.15 1441.77 980.285 C 1432.3 972.732 1428.79 960.647 1427.58 949.072 C 1425.6 930.14 1425.94 903.212 1438.84 887.885 C 1450.42 874.118 1466.35 878.199 1482 876.54 L 1482.95 876.429 L 1483.01 874.685 C 1488.97 870.849 1574.62 875.495 1588.9 874.446 C 1590.3 873.847 1589.67 874.034 1591.1 873.742 C 1609.13 870.068 1628.14 859.798 1642.32 848.277 z"/>
<path transform="translate(0,0)" fill="rgb(43,81,78)" d="M 1642.32 848.277 C 1663.38 868.29 1677.99 921.586 1678.82 949.96 C 1679.77 982.694 1668.35 1019.61 1645.3 1043.49 C 1631.35 1057.95 1615.1 1069.55 1594.66 1071.41 C 1598.11 1069.46 1601.68 1067.54 1604.93 1065.26 C 1620.73 1054.16 1628.2 1033.46 1631.42 1015.23 C 1637.79 979.081 1642.39 925.604 1620.24 894.398 C 1612.44 883.414 1602.19 876.716 1588.9 874.446 C 1590.3 873.847 1589.67 874.034 1591.1 873.742 C 1609.13 870.068 1628.14 859.798 1642.32 848.277 z"/>
<path transform="translate(0,0)" fill="rgb(220,153,98)" d="M 1482.95 876.429 C 1480.86 892.779 1480.14 900.713 1489.92 915.02 C 1504.35 915.719 1518.81 915.429 1533.25 915.347 C 1539.64 915.31 1547.04 914.471 1553.29 915.548 C 1558.28 916.408 1562.26 918.316 1565.73 921.986 C 1566.39 924.36 1566.85 925.308 1565.17 927.498 C 1559.27 935.205 1533.92 932.585 1524.97 932.514 C 1514.81 932.432 1486.16 929.552 1479.64 935.409 C 1474.9 939.668 1474.09 949.248 1474.5 955.116 C 1474.89 960.63 1476.63 965.291 1481.09 968.754 C 1497.39 981.404 1555.53 965.527 1561.95 980.788 C 1561.39 983.568 1560.21 985.258 1557.74 986.761 C 1554.97 988.439 1551.46 989.268 1548.27 989.533 C 1541.79 990.07 1534.76 989.274 1528.22 989.196 C 1511.46 988.997 1494.44 988.599 1477.69 989.13 C 1465.64 988.457 1451.64 988.15 1441.77 980.285 C 1432.3 972.732 1428.79 960.647 1427.58 949.072 C 1425.6 930.14 1425.94 903.212 1438.84 887.885 C 1450.42 874.118 1466.35 878.199 1482 876.54 L 1482.95 876.429 z"/>
<path transform="translate(0,0)" fill="rgb(220,153,98)" d="M 1481.25 1027.55 C 1494.12 1025.97 1535.93 1025.78 1549.31 1027.32 C 1551.84 1027.61 1554.75 1028.45 1556.78 1030.04 C 1558.76 1031.59 1559.16 1033.25 1559.47 1035.61 C 1558.45 1038.37 1557.51 1039.86 1554.73 1041.08 C 1542.86 1046.33 1499.72 1041.79 1484.04 1042.42 C 1482.13 1037.63 1483.41 1032.47 1481.25 1027.55 z"/>
<path transform="translate(0,0)" fill="rgb(102,40,41)" d="M 1064.11 1340.14 C 1070.14 1355.28 1073.38 1371.79 1077.45 1387.58 C 1088.22 1429.29 1097.22 1471.53 1106.82 1513.53 C 1114.79 1548.38 1126.95 1586.21 1131.33 1621.25 C 1131.63 1634.89 1140.5 1662.23 1135.74 1673.86 C 1092.98 1637.51 1048.7 1602.72 1005.24 1567.19 C 1009.75 1556.99 1011.81 1544.75 1014.56 1533.88 C 1019.77 1512.77 1025.09 1491.69 1030.52 1470.64 C 1039.12 1437.84 1049.12 1405.35 1057.06 1372.39 C 1059.6 1361.81 1063 1350.99 1064.11 1340.14 z"/>
<path transform="translate(0,0)" fill="rgb(245,187,137)" d="M 1064.46 3.64134 C 1084.43 27.4712 1097.94 56.5314 1116.95 81.063 C 1129.52 66.5507 1143.22 51.7248 1156.91 38.284 C 1160.35 34.9034 1162.57 32.7641 1167.56 32.804 C 1175.97 37.7653 1189.34 69.6172 1196.67 79.7337 C 1196.93 80.0872 1197.19 80.4344 1197.45 80.7847 C 1207.31 74.8086 1257.96 36.153 1266.01 37.5606 C 1268.46 48.3711 1247.76 133.882 1243.67 151.277 C 1242.05 158.193 1239.58 164.977 1238.65 172.031 C 1238.61 172.324 1238.58 172.618 1238.54 172.912 C 1237.26 185.458 1237.2 218.066 1233.35 227.911 L 1234.13 228.479 C 1238.96 231.931 1244.46 234.415 1249.16 237.989 C 1260.01 246.251 1267.78 259.587 1269.92 272.94 C 1272.29 287.74 1268.37 301.708 1259.53 313.603 C 1278.27 327.048 1288.79 345.432 1292.59 368.012 C 1293.63 374.196 1293.09 384.957 1296.07 390.169 L 1298.23 390.9 C 1274.79 390.648 1251.41 393.101 1227.89 393.011 C 1226.75 418.948 1224.83 446.443 1210.82 469.142 C 1207.56 474.429 1198.9 484.493 1197.64 489.775 L 1196.7 490.807 C 1167.84 521.723 1110.72 546.462 1068.64 548.066 C 1018.24 549.987 964.682 522.612 928.529 488.924 C 925.952 483.211 919.381 478.192 916.108 472.645 C 901.834 448.452 899.096 420.6 898.916 393.167 C 877.141 393.155 855.464 390.637 833.706 391.011 C 833.289 386.599 833.912 381.77 834.255 377.356 C 836.607 347.028 844.968 332.724 867.625 313.396 C 863.411 307.933 859.703 302.193 857.168 295.743 C 852.098 282.843 851.598 268.488 857.64 255.797 C 864.534 241.312 875.838 234.985 890.225 229.905 C 888.338 211.723 889.384 190.721 884.944 173.137 C 880.673 155.503 877.88 137.386 874.052 119.627 C 868.045 91.7601 861.153 64.0067 855.919 35.9877 C 880.071 46.9433 903.368 66.3406 925.683 80.8965 C 933.207 71.0691 947.486 37.1429 954.547 32.6787 C 968.244 32.0127 995.808 71.2143 1007.66 81.1016 C 1007.94 81.3321 1008.22 81.5549 1008.5 81.7816 C 1023.22 60.1829 1045.74 19.4503 1064.46 3.64134 z"/>
<path transform="translate(0,0)" fill="rgb(63,55,50)" d="M 884.944 173.137 C 899.146 173.282 926.016 173.593 938.695 168.17 C 935.145 198.402 935.046 229.118 934.123 259.511 C 933.507 279.781 930.662 301.661 934.425 321.691 C 936.54 332.949 941.042 342.808 948.107 351.831 C 954.993 360.627 963.483 367.308 972.709 373.476 C 991.656 359.078 1014.43 341.216 1039.98 344.701 C 1043.09 345.126 1046.22 345.933 1049.28 346.646 C 1061.9 350.348 1081.03 348.061 1093.19 343.535 C 1118.28 348.386 1132.69 357.495 1151.27 374.665 C 1161.21 369.296 1170.01 361.458 1177.07 352.681 C 1183.82 344.285 1189.28 334.744 1191.5 324.113 C 1195 307.328 1192.1 289.646 1191.51 272.703 C 1190.32 238.379 1188.99 204.269 1185.47 170.082 C 1195.72 167.683 1231.71 177.737 1238.54 172.912 C 1237.26 185.458 1237.2 218.066 1233.35 227.911 L 1234.13 228.479 C 1238.96 231.931 1244.46 234.415 1249.16 237.989 C 1260.01 246.251 1267.78 259.587 1269.92 272.94 C 1272.29 287.74 1268.37 301.708 1259.53 313.603 C 1278.27 327.048 1288.79 345.432 1292.59 368.012 C 1293.63 374.196 1293.09 384.957 1296.07 390.169 L 1298.23 390.9 C 1274.79 390.648 1251.41 393.101 1227.89 393.011 C 1226.75 418.948 1224.83 446.443 1210.82 469.142 C 1207.56 474.429 1198.9 484.493 1197.64 489.775 L 1196.7 490.807 C 1167.84 521.723 1110.72 546.462 1068.64 548.066 C 1018.24 549.987 964.682 522.612 928.529 488.924 C 925.952 483.211 919.381 478.192 916.108 472.645 C 901.834 448.452 899.096 420.6 898.916 393.167 C 877.141 393.155 855.464 390.637 833.706 391.011 C 833.289 386.599 833.912 381.77 834.255 377.356 C 836.607 347.028 844.968 332.724 867.625 313.396 C 863.411 307.933 859.703 302.193 857.168 295.743 C 852.098 282.843 851.598 268.488 857.64 255.797 C 864.534 241.312 875.838 234.985 890.225 229.905 C 888.338 211.723 889.384 190.721 884.944 173.137 z"/>
<path transform="translate(0,0)" fill="rgb(245,187,137)" d="M 1233.35 227.911 L 1234.13 228.479 C 1238.96 231.931 1244.46 234.415 1249.16 237.989 C 1260.01 246.251 1267.78 259.587 1269.92 272.94 C 1272.29 287.74 1268.37 301.708 1259.53 313.603 C 1255.71 316.399 1251.85 319.258 1247.78 321.677 C 1241 325.695 1231.11 331.526 1223.11 329.492 C 1222.83 328.904 1222.45 328.355 1222.27 327.73 C 1221.64 325.508 1219.89 249.204 1220.34 243.878 C 1220.67 239.983 1221.33 236.225 1223.78 233.069 C 1226.31 229.813 1229.39 228.515 1233.35 227.911 z"/>
<path transform="translate(0,0)" fill="rgb(245,187,137)" d="M 890.225 229.905 C 893.298 229.902 895.626 229.785 898.091 231.949 C 905.712 238.637 904.072 257.028 903.87 266.299 C 903.402 287.889 902.943 309.796 900.98 331.301 C 887.575 327.532 878.506 321.951 867.625 313.396 C 863.411 307.933 859.703 302.193 857.168 295.743 C 852.098 282.843 851.598 268.488 857.64 255.797 C 864.534 241.312 875.838 234.985 890.225 229.905 z"/>
<path transform="translate(0,0)" fill="rgb(49,39,35)" d="M 1014.12 389.263 C 1031.05 388.611 1048.08 388.943 1065.03 388.93 C 1075.68 388.922 1088 387.79 1098.45 389.83 C 1101.09 390.345 1102.38 390.637 1103.88 392.883 C 1103.61 395.908 1102.89 397.146 1101.28 399.607 C 1099.56 400.134 1097.83 400.586 1096.06 400.924 C 1085.7 402.896 1022.12 404.66 1016.62 399.58 C 1014 397.161 1014.18 392.491 1014.12 389.263 z"/>
<path transform="translate(0,0)" fill="rgb(236,170,67)" d="M 1064.46 3.64134 C 1084.43 27.4712 1097.94 56.5314 1116.95 81.063 C 1129.52 66.5507 1143.22 51.7248 1156.91 38.284 C 1160.35 34.9034 1162.57 32.7641 1167.56 32.804 C 1175.97 37.7653 1189.34 69.6172 1196.67 79.7337 C 1196.93 80.0872 1197.19 80.4344 1197.45 80.7847 C 1207.31 74.8086 1257.96 36.153 1266.01 37.5606 C 1268.46 48.3711 1247.76 133.882 1243.67 151.277 C 1242.05 158.193 1239.58 164.977 1238.65 172.031 C 1238.61 172.324 1238.58 172.618 1238.54 172.912 C 1231.71 177.737 1195.72 167.683 1185.47 170.082 C 1184.81 168.543 1184.24 168.381 1182.93 167.402 C 1137.1 162.677 1089.71 164.898 1043.65 164.846 C 1023.88 164.824 955.168 163.457 938.695 168.17 C 926.016 173.593 899.146 173.282 884.944 173.137 C 880.673 155.503 877.88 137.386 874.052 119.627 C 868.045 91.7601 861.153 64.0067 855.919 35.9877 C 880.071 46.9433 903.368 66.3406 925.683 80.8965 C 933.207 71.0691 947.486 37.1429 954.547 32.6787 C 968.244 32.0127 995.808 71.2143 1007.66 81.1016 C 1007.94 81.3321 1008.22 81.5549 1008.5 81.7816 C 1023.22 60.1829 1045.74 19.4503 1064.46 3.64134 z"/>
<path transform="translate(0,0)" fill="rgb(200,131,83)" d="M 1049.28 346.646 C 1050.13 346.15 1050.64 345.482 1051.29 344.759 C 1048.04 339.343 1042.57 334.854 1041.43 328.214 C 1039.49 317.01 1046.57 262.184 1052.29 253.412 L 1053.79 253.202 C 1055.58 255.356 1056.61 257.823 1056.99 260.599 C 1058.51 271.602 1056.22 284.748 1055.38 295.899 C 1054.39 308.997 1054.26 321.336 1055.48 334.452 C 1063.73 335.395 1071.59 335.144 1079.86 334.591 C 1084.25 337.651 1088.7 340.632 1093.19 343.535 C 1081.03 348.061 1061.9 350.348 1049.28 346.646 z"/>
<path transform="translate(0,0)" fill="rgb(63,55,50)" d="M 986.476 205.319 C 998.593 204.559 1027.33 202.694 1038.01 207.18 C 1041.06 208.461 1042.31 209.987 1043.56 212.965 C 1043.28 215.747 1042.52 217.633 1040.71 219.748 C 1037.28 223.751 1032.14 223.701 1027.25 224.036 C 1011.67 224.948 992.171 227.033 976.979 223.619 C 973.203 222.77 970.267 221.616 968.173 218.225 C 968.146 215.344 968.53 213.912 970.283 211.558 C 974.088 206.446 980.676 205.975 986.476 205.319 z"/>
<path transform="translate(0,0)" fill="rgb(63,55,50)" d="M 1093.5 205.335 C 1107.61 204.821 1131.4 202.833 1144.51 205.978 C 1148.33 206.897 1152.92 208.777 1154.62 212.636 C 1155.56 214.75 1155.46 217.893 1154.44 219.936 C 1152.76 223.267 1148.87 224.025 1145.6 224.855 C 1130.89 225.154 1100.39 227.835 1087.98 221.251 C 1085.63 220.003 1084.31 218.639 1083.44 216.09 C 1083.55 214.218 1083.69 212.987 1084.7 211.329 C 1086.93 207.657 1089.6 206.512 1093.5 205.335 z"/>
<path transform="translate(0,0)" fill="rgb(63,55,50)" d="M 1118.49 247.913 C 1119.42 247.889 1119.61 247.859 1120.65 247.976 C 1125.06 248.473 1128.43 250.55 1131.03 254.166 C 1134.62 259.157 1135.33 265.61 1134.14 271.524 C 1132.95 277.356 1130.2 280.573 1125.35 283.793 C 1123.39 283.956 1123.26 284.013 1121.29 283.988 C 1118.21 283.95 1115.57 282.556 1113.48 280.325 C 1109.81 276.404 1109.01 270.661 1109.5 265.504 C 1110.22 258.055 1112.72 252.645 1118.49 247.913 z"/>
<path transform="translate(0,0)" fill="rgb(63,55,50)" d="M 998.242 247.977 C 998.73 247.98 999.219 247.975 999.707 247.983 C 1004.26 248.057 1007.36 248.918 1010.51 252.359 C 1014.31 256.514 1015.45 262.039 1014.95 267.526 C 1014.3 274.767 1011.5 278.567 1006.15 283.219 C 1005.51 283.355 1004.87 283.525 1004.22 283.627 C 1000.55 284.204 997.73 283.213 994.982 280.813 C 991.142 277.46 990.227 271.107 990.336 266.336 C 990.515 258.543 992.623 253.335 998.242 247.977 z"/>
<path transform="translate(0,0)" fill="rgb(156,63,62)" d="M 1298.23 390.9 C 1321.32 390.718 1354.73 394.266 1372.23 411.561 C 1374.84 414.138 1377.62 417.956 1380.75 419.819 C 1388.69 424.535 1411.39 430.758 1422.65 435.965 C 1455.49 451.154 1519.55 489.536 1520.07 530.304 C 1520.15 536.507 1518.45 543.027 1517.16 549.08 C 1540.13 570.366 1581.66 603.802 1583.3 637.329 C 1583.64 644.377 1582.32 650.791 1579.29 657.151 L 1414.08 657.042 C 1399.54 657.046 1359.82 659.015 1348.02 656.095 L 1347.93 654.657 C 1338.09 650.21 1328.01 646.262 1318.1 641.956 C 1259.32 616.417 1227.86 586.435 1204.31 526.547 C 1200.13 513.806 1200.77 498.288 1197.64 489.775 C 1198.9 484.493 1207.56 474.429 1210.82 469.142 C 1224.83 446.443 1226.75 418.948 1227.89 393.011 C 1251.41 393.101 1274.79 390.648 1298.23 390.9 z"/>
<path transform="translate(0,0)" fill="rgb(102,40,41)" d="M 1295.28 457.393 C 1306.92 458.565 1321.65 466.666 1330.18 474.65 C 1336.89 480.933 1348.17 492.314 1348.07 502.055 C 1348.02 506.019 1346.39 507.882 1343.7 510.412 C 1335.3 508.308 1326.16 502.035 1319.07 497.144 C 1310.33 491.114 1292.94 479.638 1291.39 468.181 C 1290.79 463.722 1292.85 460.864 1295.28 457.393 z"/>
<path transform="translate(0,0)" fill="rgb(102,40,41)" d="M 1437.76 579.072 C 1450.69 579.294 1461.35 588.604 1470.28 597.219 C 1476.44 603.172 1488.95 615.345 1488.01 624.551 C 1487.71 627.469 1486.06 628.828 1483.99 630.555 L 1482.56 630.403 C 1466.37 628.807 1450.53 614.311 1440.03 602.528 C 1436.08 598.09 1431.71 592.351 1432.33 586.031 C 1432.71 582.214 1435.01 581.102 1437.76 579.072 z"/>
<path transform="translate(0,0)" fill="rgb(102,40,41)" d="M 1292.99 553.961 C 1295.4 553.925 1297.83 553.966 1300.23 554.15 C 1313.61 555.18 1325.98 566.051 1334.23 575.921 C 1340.86 583.849 1346.28 592.338 1345.37 603.048 C 1344.33 603.103 1343.29 603.168 1342.26 603.168 C 1330.42 603.163 1317.15 590.574 1309.18 582.724 C 1300.97 574.648 1293.14 566.021 1292.99 553.961 z"/>
<path transform="translate(0,0)" fill="rgb(102,40,41)" d="M 1417.96 484.664 C 1424.36 484.667 1429.67 486.975 1435.16 490.098 C 1446.21 496.387 1457.84 506.85 1460.93 519.574 C 1462.4 525.648 1462.43 530.289 1459.12 535.652 C 1457.76 535.09 1456.44 534.454 1455.15 533.747 C 1447.56 529.498 1416.76 499.542 1415.58 491.394 C 1415.12 488.201 1416.33 487.177 1417.96 484.664 z"/>
<path transform="translate(0,0)" fill="rgb(236,170,67)" d="M 363.873 1179.7 C 360.884 1178.95 357.724 1179.49 354.669 1179.59 C 344.661 1179.95 334.431 1178.79 325.918 1173.12 C 315.357 1166.09 307.491 1154.35 305.315 1141.83 C 303.174 1129.51 306.081 1116.35 313.663 1106.36 C 321.24 1096.37 332.692 1089.5 345.208 1088.18 C 356.938 1086.85 368.685 1090.53 377.567 1098.3 C 390.43 1109.4 393.691 1122.19 394.697 1138.31 C 390.696 1149.46 380.696 1173.9 368.726 1178.53 C 367.117 1179.15 365.569 1179.45 363.873 1179.7 z"/>
<path transform="translate(0,0)" fill="rgb(81,76,72)" d="M 394.697 1138.31 C 409.092 1148.71 421.605 1159.04 433.902 1171.89 C 427.641 1187.24 420.653 1202.3 414.831 1217.83 C 414.006 1220.05 413.015 1222.3 412.441 1224.6 C 395.304 1216.67 376.407 1199.73 366.279 1183.87 L 363.873 1179.7 C 365.569 1179.45 367.117 1179.15 368.726 1178.53 C 380.696 1173.9 390.696 1149.46 394.697 1138.31 z"/>
<path transform="translate(0,0)" fill="rgb(63,55,50)" d="M 366.279 1183.87 C 369.916 1183.76 370.694 1184.86 373.414 1187.31 C 383.396 1196.33 397.988 1218.33 412.709 1217.95 C 413.417 1217.93 414.124 1217.88 414.831 1217.83 C 414.006 1220.05 413.015 1222.3 412.441 1224.6 C 395.304 1216.67 376.407 1199.73 366.279 1183.87 z"/>
</svg>