<svg version="1.1" xmlns="http://www.w3.org/2000/svg" style="display: block;" viewBox="0 0 2048 2048" width="800" height="800" preserveAspectRatio="none">
<path transform="translate(0,0)" fill="rgb(226,90,89)" d="M 1213.14 746.087 L 1221.06 747.878 C 1232.86 750.484 1244.7 756.78 1255.58 761.969 C 1316.62 791.072 1372.24 829.379 1427.49 868.076 C 1440.07 876.885 1455.04 885.441 1466.32 895.698 C 1458.15 909.097 1446.25 917.288 1437.17 929.465 C 1457.54 943.809 1472.23 964.785 1490.04 981.792 C 1495.38 983.001 1504.26 976.058 1508.99 973.389 C 1533.63 959.529 1557.54 944.393 1580.61 928.045 C 1595.03 918.021 1624.02 896.486 1638.33 890.247 C 1638.67 890.098 1639.02 889.961 1639.36 889.818 C 1642.06 893.795 1644.42 898.001 1646.84 902.151 C 1647.15 913.247 1716.79 1018.72 1728.36 1029.8 C 1733.29 1035.77 1738.15 1041.64 1741.7 1048.57 C 1734.32 1060.63 1710.77 1080.59 1699.23 1089.57 C 1681.63 1106.09 1662.18 1124.62 1642.14 1138.02 C 1637.38 1145.25 1626.46 1151.61 1619.5 1156.93 C 1585.57 1182.87 1539.19 1218.33 1496.82 1226.8 C 1464.97 1233.17 1439.39 1220.81 1413.49 1203.31 C 1385.95 1184.72 1361.31 1161.05 1337.18 1138.3 C 1340.59 1156.94 1341.92 1176.29 1343.89 1195.16 C 1344.73 1203.26 1346.72 1212.51 1346.21 1220.56 C 1348.18 1240.77 1350.59 1260.99 1352.21 1281.23 C 1355.54 1294.93 1356.81 1317 1356.94 1331.33 C 1357.64 1341.91 1359.55 1352.38 1360.23 1362.92 C 1350.91 1364.38 1341.59 1365.97 1332.21 1367.01 C 1336.27 1391.86 1339.15 1416.95 1342.28 1441.92 C 1343.7 1453.28 1346.66 1466.36 1346.08 1477.71 C 1349.64 1498.49 1353.71 1525.03 1354.67 1545.93 C 1361.36 1592.1 1366.26 1638.62 1372.13 1684.9 C 1375.66 1711.71 1378.63 1738.59 1381.05 1765.52 C 1382.38 1779.85 1384.39 1794.66 1383.94 1809.04 C 1383.7 1816.89 1382.69 1825.48 1378.05 1832.02 C 1370.31 1842.96 1354.63 1851.53 1342.27 1856.34 C 1294.94 1874.34 1220.45 1873.81 1169.07 1872.01 C 1158.46 1871.63 1137.31 1866.6 1128.01 1869.94 C 1122.56 1865.56 1102.85 1865.7 1092.44 1857.96 C 1088.57 1855.07 1085.64 1851.79 1084.16 1847.14 C 1079.82 1833.44 1078.38 1818.55 1075.94 1804.4 C 1072.43 1784.7 1068.82 1765.02 1065.08 1745.36 C 1054.81 1691.53 1045.39 1637.55 1036.82 1583.43 C 1032.3 1556.48 1026.67 1529.91 1023.43 1502.74 C 1020.34 1513.25 1019.9 1524.22 1018.41 1535.03 C 1017.09 1544.62 1015.11 1554.16 1013.37 1563.68 C 999.705 1638.51 989.728 1714.02 975.456 1788.75 C 972.132 1806.16 970.146 1831.92 963.715 1847.54 C 960.963 1854.22 955.495 1858.98 949.197 1862.29 C 939.766 1867.25 928.321 1869.02 917.847 1870.11 C 894.497 1870.74 870.877 1873.56 847.467 1874.62 C 806.805 1876.46 743.671 1873.7 705.776 1860.54 C 691.487 1851.89 677.823 1848.5 668.87 1832.64 C 662.617 1821.56 662.533 1809.24 663.055 1796.83 C 664.879 1753.46 673.187 1709.2 679.518 1666.26 C 685.992 1622.35 691.185 1578.2 697.249 1534.22 L 709.753 1440.99 C 712.873 1416.76 715.03 1389.86 721.969 1366.46 C 713.761 1366.27 695.875 1366.21 689.108 1361.68 C 687.306 1345.28 691.353 1326.71 692.975 1310.19 C 696.836 1270.11 700.995 1230.05 705.45 1190.02 C 707.806 1167.83 708.056 1140.18 713.421 1119.26 C 708.821 1122.55 704.259 1125.9 699.735 1129.29 C 688.847 1139.54 677.371 1150.07 665.206 1158.76 C 636.845 1184.3 597.749 1214.21 557.766 1212.75 C 494.35 1210.44 379.648 1107.59 332.35 1063.01 C 320.974 1052.29 309.139 1041.77 298.555 1030.26 C 300.727 1025.44 308.926 1015.84 308.875 1011.09 C 319.881 1003.28 385.678 900.877 395.428 885.083 C 398.655 880.162 401.756 874.997 405.27 870.286 C 422.487 878.152 442.301 894.577 458.299 905.657 C 490.183 927.74 522.787 950.064 556.88 968.611 C 570.616 953.754 585.821 936.892 602.644 925.573 C 595.55 918.516 582.174 907.113 579.742 897.332 C 580.151 895.583 580.746 894.269 581.837 892.855 C 591.353 880.512 608.94 873.86 621.574 865.106 C 629.45 859.649 635.713 851.974 643.663 846.61 C 652.087 840.926 661.129 836.116 669.667 830.592 C 678.568 824.832 687.074 818.45 696.045 812.807 C 703.591 808.061 711.635 804.078 719.308 799.535 C 728.519 794.08 737.246 787.817 746.538 782.497 C 764.534 772.194 809.175 749.939 828.926 747.567 C 845.325 769.891 876.273 797.203 899.477 812.066 C 937.907 836.681 981.245 844.227 1026.03 844.308 C 1041.06 844.335 1055.72 844.198 1070.48 840.941 C 1118.42 830.366 1159.68 804.273 1193.38 768.97 C 1200.08 761.956 1207.96 754.271 1213.14 746.087 z"/>
<path transform="translate(0,0)" fill="rgb(249,184,64)" d="M 721.969 1366.46 C 733.766 1365.21 748.247 1368.46 760.062 1369.74 C 777.972 1371.74 795.912 1373.44 813.877 1374.85 C 883.263 1380.51 953.734 1385.54 1023.35 1385.01 L 1023.52 1464.52 C 1023.51 1477.08 1022.6 1490.26 1023.43 1502.74 C 1020.34 1513.25 1019.9 1524.22 1018.41 1535.03 C 1017.09 1544.62 1015.11 1554.16 1013.37 1563.68 C 999.705 1638.51 989.728 1714.02 975.456 1788.75 C 972.132 1806.16 970.146 1831.92 963.715 1847.54 C 960.963 1854.22 955.495 1858.98 949.197 1862.29 C 939.766 1867.25 928.321 1869.02 917.847 1870.11 C 894.497 1870.74 870.877 1873.56 847.467 1874.62 C 806.805 1876.46 743.671 1873.7 705.776 1860.54 C 691.487 1851.89 677.823 1848.5 668.87 1832.64 C 662.617 1821.56 662.533 1809.24 663.055 1796.83 C 664.879 1753.46 673.187 1709.2 679.518 1666.26 C 685.992 1622.35 691.185 1578.2 697.249 1534.22 L 709.753 1440.99 C 712.873 1416.76 715.03 1389.86 721.969 1366.46 z"/>
<path transform="translate(0,0)" fill="rgb(249,184,64)" d="M 1213.14 746.087 L 1221.06 747.878 C 1232.86 750.484 1244.7 756.78 1255.58 761.969 C 1316.62 791.072 1372.24 829.379 1427.49 868.076 C 1440.07 876.885 1455.04 885.441 1466.32 895.698 C 1458.15 909.097 1446.25 917.288 1437.17 929.465 C 1437.03 929.661 1436.92 929.88 1436.75 930.055 C 1432.16 934.839 1424.8 938.757 1419.14 942.364 C 1378.77 968.107 1337.53 943.845 1298.91 926.769 C 1287.21 921.598 1274.32 915.694 1261.29 915.654 C 1211.03 915.497 1236.28 1005.54 1203.29 1036.49 C 1194.68 1044.58 1181.83 1046.57 1170.59 1043.92 C 1144.08 1037.69 1096.59 996.906 1075.87 977.922 C 1064.98 967.943 1035.61 934.004 1020.97 935.467 C 1010.61 936.503 996.259 953.875 988.855 960.991 C 965.752 983.192 897.492 1045.97 866.983 1044.55 C 808.349 1041.83 833.626 953.696 804.977 924.401 C 797.796 917.058 787.388 913.925 777.281 914.748 C 741.465 917.665 700.247 952.636 660.482 952.716 C 638.964 952.759 617.5 940.602 602.644 925.573 C 595.55 918.516 582.174 907.113 579.742 897.332 C 580.151 895.583 580.746 894.269 581.837 892.855 C 591.353 880.512 608.94 873.86 621.574 865.106 C 629.45 859.649 635.713 851.974 643.663 846.61 C 652.087 840.926 661.129 836.116 669.667 830.592 C 678.568 824.832 687.074 818.45 696.045 812.807 C 703.591 808.061 711.635 804.078 719.308 799.535 C 728.519 794.08 737.246 787.817 746.538 782.497 C 764.534 772.194 809.175 749.939 828.926 747.567 C 845.325 769.891 876.273 797.203 899.477 812.066 C 937.907 836.681 981.245 844.227 1026.03 844.308 C 1041.06 844.335 1055.72 844.198 1070.48 840.941 C 1118.42 830.366 1159.68 804.273 1193.38 768.97 C 1200.08 761.956 1207.96 754.271 1213.14 746.087 z"/>
<path transform="translate(0,0)" fill="rgb(249,184,64)" d="M 1017.51 1065.16 C 1037.6 1062.23 1056.23 1076.24 1059 1096.36 C 1061.77 1116.47 1047.61 1134.99 1027.47 1137.59 C 1007.56 1140.17 989.303 1126.21 986.568 1106.32 C 983.832 1086.43 997.645 1068.06 1017.51 1065.16 z"/>
<path transform="translate(0,0)" fill="rgb(249,184,64)" d="M 1015.61 1212.68 C 1035.39 1208.81 1054.54 1221.74 1058.35 1241.52 C 1062.16 1261.31 1049.17 1280.43 1029.37 1284.17 C 1009.66 1287.9 990.646 1274.98 986.856 1255.28 C 983.066 1235.58 995.927 1216.53 1015.61 1212.68 z"/>
<path transform="translate(0,0)" fill="rgb(253,203,172)" d="M 1022.07 331.019 C 1079.97 331.196 1135.62 337.134 1191.92 350.782 C 1202.9 353.443 1215.68 355.552 1226.16 359.794 C 1242.45 361.685 1276.24 374.439 1292.98 380.301 C 1301 383.112 1311.13 388.296 1319.66 388.124 C 1319.24 390.582 1318.81 393.017 1318.61 395.506 C 1317.85 419.119 1316.63 442.714 1314.95 466.279 L 1314.83 470.089 C 1330.06 469.32 1343.45 470.005 1355.29 481.087 C 1368.03 493.015 1372.78 512.592 1372.85 529.486 C 1372.97 555.421 1362.29 586.237 1343.63 604.672 C 1329.11 619.029 1310.47 625.257 1290.29 625.053 C 1284.8 624.998 1279.37 624.412 1273.92 623.699 C 1260.6 668.704 1242.71 709.233 1213.14 746.087 C 1207.96 754.271 1200.08 761.956 1193.38 768.97 C 1159.68 804.273 1118.42 830.366 1070.48 840.941 C 1055.72 844.198 1041.06 844.335 1026.03 844.308 C 981.245 844.227 937.907 836.681 899.477 812.066 C 876.273 797.203 845.325 769.891 828.926 747.567 C 825.373 738.626 813.456 725.051 807.837 715.932 C 792.675 691.328 777.693 656.01 770.148 628.299 L 769.234 628.318 C 745.718 628.658 720.773 625.437 703.282 608.159 C 684.534 589.639 673.345 556.387 673.409 530.387 C 673.449 514.182 677.71 492.864 689.908 481.387 C 701.422 470.552 715.418 468.981 730.388 469.749 L 730.959 468.885 C 729.35 462.784 730.081 454.97 729.737 448.585 C 728.671 428.75 727.542 409.169 727.254 389.3 L 731.142 390.029 L 733.064 388.944 C 743.495 384.968 813.292 359.404 818.181 360.588 L 818.455 363.673 L 819.441 359.744 C 825.382 354.558 840.113 352.848 847.944 351.024 C 904.93 337.158 963.421 330.438 1022.07 331.019 z"/>
<path transform="translate(0,0)" fill="rgb(76,63,59)" d="M 1226.16 359.794 C 1242.45 361.685 1276.24 374.439 1292.98 380.301 C 1301 383.112 1311.13 388.296 1319.66 388.124 C 1319.24 390.582 1318.81 393.017 1318.61 395.506 C 1317.85 419.119 1316.63 442.714 1314.95 466.279 L 1314.83 470.089 C 1295.89 478.121 1286.3 489.941 1272.47 504.189 C 1241.09 466.207 1230.46 407.795 1226.16 359.794 z"/>
<path transform="translate(0,0)" fill="rgb(21,22,22)" d="M 1314.95 466.279 C 1310.42 450.579 1312.34 420.043 1314.24 403.508 C 1314.7 399.434 1315.36 398.092 1318.61 395.506 C 1317.85 419.119 1316.63 442.714 1314.95 466.279 z"/>
<path transform="translate(0,0)" fill="rgb(76,63,59)" d="M 733.064 388.944 C 743.495 384.968 813.292 359.404 818.181 360.588 L 818.455 363.673 C 814.466 408.301 803.799 467.417 773.079 501.917 C 760.716 489.443 747.607 475.314 730.388 469.749 L 730.959 468.885 C 729.35 462.784 730.081 454.97 729.737 448.585 C 728.671 428.75 727.542 409.169 727.254 389.3 L 731.142 390.029 L 733.064 388.944 z"/>
<path transform="translate(0,0)" fill="rgb(21,22,22)" d="M 727.254 389.3 L 731.142 390.029 C 733.195 404.769 732.764 420.413 733.273 435.304 C 733.646 446.185 734.883 457.521 734.259 468.361 L 730.959 468.885 C 729.35 462.784 730.081 454.97 729.737 448.585 C 728.671 428.75 727.542 409.169 727.254 389.3 z"/>
<path transform="translate(0,0)" fill="rgb(76,63,59)" d="M 1093.63 652.886 C 1097.59 652.666 1100.53 652.84 1103.57 655.651 C 1106.62 658.465 1107.68 662.468 1107.87 666.493 C 1108.62 682.187 1096.85 699.367 1086.62 710.422 C 1070.39 727.94 1049.3 739.088 1025.2 739.909 C 1001.63 740.712 980.24 730.866 963.276 714.891 C 959.013 710.714 955.211 706.091 951.936 701.101 C 945.967 691.928 936.015 672.532 939.622 661.317 C 940.517 658.535 941.791 656.921 944.358 655.514 C 952.561 651.022 967.055 661.391 975.052 664.305 C 1019.14 680.375 1052.84 671.712 1093.63 652.886 z"/>
<path transform="translate(0,0)" fill="rgb(237,151,131)" d="M 1017.02 532.68 C 1019.65 533.067 1022.14 533.529 1024.56 534.675 C 1032.66 538.515 1037.19 547.352 1039.84 555.514 C 1045.11 571.817 1049.51 600.291 1040.98 615.897 C 1037.7 621.907 1033.45 624.135 1027.05 625.928 C 1024.26 626.205 1021.45 626.456 1018.64 626.27 C 1013.04 625.9 1008.33 623.251 1004.82 618.891 C 996.569 608.659 998.045 591.036 999.107 578.716 C 1000.53 562.268 1003.79 543.859 1017.02 532.68 z"/>
<path transform="translate(0,0)" fill="rgb(76,63,59)" d="M 1113.43 409.255 C 1128.71 408.616 1144.09 408.01 1158.78 413.05 C 1167.53 416.055 1176.79 421.331 1180.7 430.155 C 1182.69 434.656 1183 439.889 1180.89 444.414 C 1179.29 447.849 1176.32 450.483 1172.64 451.495 C 1166.5 453.189 1161.82 450.075 1156.74 447.081 C 1151.18 443.965 1144.95 440.529 1138.65 439.255 C 1123.61 436.213 1104.01 449.717 1090.3 441.556 C 1087.44 439.857 1085.85 437.306 1085.29 434.098 C 1084.51 429.603 1085.65 423.251 1088.44 419.583 C 1094.13 412.077 1104.74 410.601 1113.43 409.255 z"/>
<path transform="translate(0,0)" fill="rgb(76,63,59)" d="M 1124.97 485.054 C 1127.66 484.974 1130.4 484.984 1133.01 485.736 C 1139.46 487.596 1144.41 493.564 1147.14 499.437 C 1153.4 512.879 1153.91 533.587 1148.55 547.378 C 1145.23 555.914 1141.4 559.611 1133.16 563.313 C 1129.88 563.9 1126.69 564.105 1123.47 563.059 C 1117.57 561.148 1113.44 556.382 1110.89 550.897 C 1104.63 537.485 1104.92 515.465 1109.94 501.621 C 1113.03 493.13 1116.77 488.723 1124.97 485.054 z"/>
<path transform="translate(0,0)" fill="rgb(76,63,59)" d="M 905.64 409.218 C 911.458 408.782 917.351 408.659 923.187 408.633 C 934.159 408.584 948.654 409.886 956.581 418.297 C 960.006 421.933 962 427.085 961.619 432.093 C 961.347 436.109 959.401 439.826 956.256 442.338 C 946.792 449.806 929.673 439.891 918.792 438.885 L 917.537 438.78 C 913.076 439.155 908.549 439.595 904.277 441.008 C 894.302 444.307 881.763 453.428 870.971 448.994 C 868.251 447.877 865.845 445.831 865 442.906 C 863.449 437.545 866.476 431.237 869.507 426.992 C 878.059 415.013 891.975 411.44 905.64 409.218 z"/>
<path transform="translate(0,0)" fill="rgb(76,63,59)" d="M 917.249 487.176 C 920.231 487.211 923.431 487.189 926.193 488.45 C 931.997 491.099 936.124 497.032 938.392 502.801 C 943.595 516.039 943.281 537.441 937.421 550.441 C 934.216 557.551 930.272 561.289 923.08 564.169 C 919.171 564.337 915.376 564.556 911.824 562.628 C 905 558.926 901.026 551.202 899.182 543.957 C 895.603 529.895 896.019 508.364 904.011 495.994 C 907.458 490.659 911.174 488.547 917.249 487.176 z"/>
<path transform="translate(0,0)" fill="rgb(249,184,64)" d="M 1021.71 161.419 C 1022.08 160.958 1022.45 160.502 1022.81 160.035 C 1025.7 156.278 1027.67 151.691 1030.11 147.623 C 1036.64 136.752 1043.27 124.729 1051.04 114.753 C 1069.74 90.7135 1102.84 61.2318 1129.34 45.7346 C 1137.91 40.7212 1147.42 37.0215 1156.52 33.0541 C 1185.57 20.3788 1212.54 10.8398 1244 6.19209 C 1321.49 -5.25788 1405.22 9.33922 1468.6 57.0825 C 1509.19 87.6643 1541.15 125.726 1560.24 173.21 C 1564.41 183.591 1568.74 194.458 1570.34 205.584 C 1586.98 205.844 1600.67 210.842 1612.37 222.909 C 1624.4 235.309 1631.77 252.319 1631.26 269.669 C 1630.75 287.221 1622.46 302.051 1609.77 313.815 C 1597.96 324.927 1582.18 330.821 1565.97 330.172 C 1548.5 329.494 1531.22 322.344 1519.29 309.412 C 1507.75 296.907 1502.42 281.307 1503.23 264.372 C 1504.04 247.17 1511.08 235.415 1521.79 222.392 C 1500.04 199.111 1478.29 182.162 1445.07 180.939 C 1418.23 179.952 1391.03 188.234 1371.28 206.81 C 1357.7 219.582 1348.34 234.75 1341.06 251.811 C 1321.73 297.153 1324.01 340.545 1319.66 388.124 C 1311.13 388.296 1301 383.112 1292.98 380.301 C 1276.24 374.439 1242.45 361.685 1226.16 359.794 C 1215.68 355.552 1202.9 353.443 1191.92 350.782 C 1135.62 337.134 1079.97 331.196 1022.07 331.019 L 1021.69 206.464 C 1021.59 192.97 1019.37 174.631 1020.26 162.024 L 1021.71 161.419 z"/>
<path transform="translate(0,0)" fill="rgb(226,90,89)" d="M 476.911 204.746 C 477.539 196.109 480.512 186.903 483.259 178.739 C 501.347 124.976 551.433 65.8912 602.549 40.6468 C 621.903 31.0887 642.567 21.2536 663.218 14.8789 C 721.518 -3.11853 792.66 -1.9007 850.2 17.9247 C 919.276 41.7244 989.186 95.1058 1021.71 161.419 L 1020.26 162.024 C 1019.37 174.631 1021.59 192.97 1021.69 206.464 L 1022.07 331.019 C 963.421 330.438 904.93 337.158 847.944 351.024 C 840.113 352.848 825.382 354.558 819.441 359.744 L 818.455 363.673 L 818.181 360.588 C 813.292 359.404 743.495 384.968 733.064 388.944 L 731.142 390.029 L 727.254 389.3 C 727.083 364.961 725.271 341.035 723.756 316.762 C 721.33 312.373 720.664 298.742 719.515 293.271 C 712.696 260.8 696.869 225.941 670.958 204.381 C 649.377 186.423 623.445 179.075 595.613 181.806 C 564.417 184.868 540.856 198.777 521.119 222.879 C 509.344 211.252 493.459 204.737 476.911 204.746 z"/>
<path transform="translate(0,0)" fill="rgb(221,65,64)" d="M 723.756 316.762 C 728.47 320.671 728.825 329.016 729.396 334.935 C 730.365 344.981 729.377 382.848 733.064 388.944 L 731.142 390.029 L 727.254 389.3 C 727.083 364.961 725.271 341.035 723.756 316.762 z"/>
<path transform="translate(0,0)" fill="rgb(249,184,64)" d="M 1128.01 1869.94 C 1137.31 1866.6 1158.46 1871.63 1169.07 1872.01 C 1220.45 1873.81 1294.94 1874.34 1342.27 1856.34 C 1343.67 1874.61 1349.57 1893.08 1363.75 1905.58 C 1376.4 1916.74 1395.7 1923.21 1412.5 1921.74 C 1420.9 1921 1430.65 1918.49 1437.93 1914.14 C 1455.23 1903.78 1472.53 1871.93 1496.17 1891.94 C 1509.99 1903.64 1514.86 1922.48 1515.84 1939.83 C 1517.31 1965.68 1510.54 1990.6 1493.04 2010.18 C 1479 2025.89 1462.8 2032.7 1442.48 2036.57 C 1423.93 2039.51 1142.23 2037.78 1141.1 2037.3 C 1139.78 2036.73 1139.39 2033.88 1138.97 2032.54 C 1139.05 2023.67 1137.35 2014.56 1136.88 2005.64 C 1135.67 1982.81 1134.63 1959.75 1132.79 1936.97 C 1130.99 1914.74 1128.36 1892.25 1128.01 1869.94 z"/>
<path transform="translate(0,0)" fill="rgb(226,90,89)" d="M 705.776 1860.54 C 743.671 1873.7 806.805 1876.46 847.467 1874.62 C 870.877 1873.56 894.497 1870.74 917.847 1870.11 C 918.57 1885.93 910.217 2030.44 907.428 2036.78 C 892.385 2039.06 875.271 2037.62 859.993 2037.59 L 765.227 2037.21 L 652.491 2037.24 C 634.54 2037.2 615.059 2039.46 597.4 2035.74 C 576.535 2031.34 560.106 2017.98 548.817 2000.2 C 534.284 1977.32 530.609 1946.04 536.741 1919.84 C 539.457 1908.23 545.412 1895.95 556.091 1889.81 C 577.138 1877.69 588.519 1898.01 602.325 1909.07 C 608.509 1914.03 616.057 1917.59 623.69 1919.7 C 640.129 1924.24 659.566 1922.67 674.31 1913.8 C 694.571 1901.63 700.329 1881.97 705.776 1860.54 z"/>
<path transform="translate(0,0)" fill="rgb(253,203,172)" d="M 1646.84 902.151 C 1647.21 901.873 1647.59 901.604 1647.95 901.318 C 1653.27 897.129 1658.41 887.516 1662.24 881.835 C 1671.52 868.051 1680.26 852.873 1690.72 840.013 C 1704.12 823.559 1729.72 801.901 1752.09 804.117 C 1755.64 804.47 1758.72 805.803 1761.02 808.598 C 1764.42 812.778 1765.91 818.191 1765.14 823.525 C 1763.18 837.868 1750.03 853.43 1741.5 864.744 C 1773.55 859.94 1871.89 840.446 1897.47 859.618 C 1900.64 861.993 1902.9 865.075 1903.23 869.109 C 1903.65 874.275 1900.96 879.863 1897.63 883.66 C 1888.6 893.937 1871.86 896.857 1859.25 900.058 C 1871.4 903.707 1894.27 910.469 1900.36 922.233 C 1902.5 926.373 1902.55 931.104 1900.99 935.448 C 1898.34 942.777 1890.68 947.318 1883.88 950.19 C 1871.9 955.25 1860.16 953.546 1847.88 956.164 C 1847.46 958.447 1847.29 957.51 1847.84 959.02 C 1853.61 957.102 1862.12 958.841 1867.5 961.458 C 1873.35 964.3 1879.48 969.655 1881.46 976.059 C 1882.6 979.733 1882 983.293 1879.99 986.535 C 1871.72 999.849 1850.39 1005.35 1836.03 1008.23 C 1800.12 1015.44 1762.04 1014.5 1728.36 1029.8 C 1716.79 1018.72 1647.15 913.247 1646.84 902.151 z"/>
<path transform="translate(0,0)" fill="rgb(237,151,131)" d="M 1847.84 959.02 C 1847.02 959.746 1847.33 959.543 1846.06 960.177 C 1841.09 962.655 1797.4 966.715 1791.96 964.429 C 1790.43 963.784 1790.49 962.742 1789.93 961.317 C 1790.26 959.896 1790.57 958.991 1791.67 957.935 C 1796.55 953.287 1838.68 955.196 1847.88 956.164 C 1847.46 958.447 1847.29 957.51 1847.84 959.02 z"/>
<path transform="translate(0,0)" fill="rgb(253,203,172)" d="M 291.134 839.295 C 281.577 829.927 268.603 823.452 263.635 810.184 C 261.766 805.195 261.753 799.847 264.163 795.036 C 266.257 790.857 269.617 787.554 274.205 786.311 C 285.83 783.162 301.462 792.435 311.193 798.08 C 340.851 815.282 361.929 837.612 382.421 864.515 C 387.432 871.094 393.275 876.956 395.428 885.083 C 385.678 900.877 319.881 1003.28 308.875 1011.09 C 299.849 1007.47 290.775 1003.76 281.543 1000.71 C 250.989 990.59 172.994 970.379 152.039 947.729 C 147.951 943.31 144.245 937.195 144.647 930.954 C 145.01 925.314 148.855 921.644 152.78 918.043 C 166.276 907.928 181.284 918.648 189.07 915.31 C 176.277 909.66 161.661 904.603 152.354 893.579 C 149.081 889.702 146.146 884.146 146.845 878.907 C 147.5 873.996 151.133 868.925 155.101 866.109 C 165.93 858.422 185.248 861.654 197.409 864.03 C 189.243 859.479 181.63 854.665 175.87 847.095 C 171.536 841.398 168.757 835.522 170.049 828.271 C 170.863 823.704 173.012 819.84 176.93 817.231 C 199.129 802.448 263.66 833.493 289.543 838.97 L 291.134 839.295 z"/>
<path transform="translate(0,0)" fill="rgb(237,151,131)" d="M 152.78 918.043 C 166.276 907.928 181.284 918.648 189.07 915.31 C 202.337 915.039 236.244 920.009 246.17 928.716 C 247.489 929.873 248.346 931.358 249.246 932.84 L 249.202 934.759 C 246.313 936.661 242.692 935.732 239.508 935.088 C 224.151 931.983 209.504 925.712 194.041 922.608 C 180.31 919.852 166.389 920.281 152.78 918.043 z"/>
<path transform="translate(0,0)" fill="rgb(249,184,64)" d="M 476.911 204.746 C 493.459 204.737 509.344 211.252 521.119 222.879 C 542.489 243.977 545.955 277.242 529.395 302.293 C 512.834 327.344 480.87 337.187 453.086 325.791 C 425.302 314.395 409.456 284.942 415.255 255.478 C 421.055 226.013 446.881 204.763 476.911 204.746 z"/>
</svg>