<svg version="1.1" xmlns="http://www.w3.org/2000/svg" style="display: block;" viewBox="0 0 2048 2048" width="800" height="800" preserveAspectRatio="none">
<path transform="translate(0,0)" fill="rgb(56,35,38)" d="M 826.648 422.821 C 838.591 417.831 851.776 414.42 864.113 410.426 C 902.928 397.86 983.346 371.403 1022.39 373.232 C 1056.29 374.82 1089.73 385.785 1122.42 394.398 L 1177.74 409.215 C 1188.4 412.047 1199.82 415.988 1210.79 416.901 C 1211.13 416.93 1211.47 416.947 1211.81 416.969 C 1220.69 430.766 1219.86 442.585 1222.08 458.168 C 1221.4 471.28 1220.76 484.374 1217.75 497.208 C 1215.4 507.226 1211.1 517.758 1210.14 527.939 C 1235.45 537.226 1260.74 546.808 1284.46 559.714 C 1347.51 594.008 1392.77 649.794 1422.61 714.084 C 1470.29 816.795 1488.85 949.281 1498.5 1061.57 C 1499.95 1078.45 1504.35 1112.59 1503.11 1127.65 C 1504.81 1149.31 1506.84 1171.95 1505.9 1193.65 C 1506.21 1199.28 1508.28 1210.68 1503.43 1214.89 C 1501.97 1216.17 1499.88 1216.85 1498.04 1217.34 C 1489.83 1217.11 1481.33 1218.69 1473.15 1219.62 C 1459.15 1221.2 1445.1 1222.71 1431 1223.04 C 1417.31 1223.36 1403.43 1223.31 1389.76 1222.55 C 1380.31 1222.02 1369.52 1220.15 1360.16 1221.13 C 1355.33 1220.52 1351.26 1219.08 1346.76 1217.36 C 1338.25 1193.32 1336.24 1160.48 1332.89 1134.88 C 1328.84 1103.98 1323.11 1068.41 1322.08 1037.54 C 1317.59 1018.37 1317.67 991.665 1315.43 971.5 C 1315.06 968.131 1314.63 965.344 1311.92 963.156 C 1311.98 977.647 1310.12 992.492 1308.94 1006.95 C 1307.04 1030 1306.3 1056.14 1300.13 1078.42 C 1298.79 1083.27 1296.71 1087.04 1293.86 1091.14 C 1265.58 1092.54 1237.27 1096.67 1208.91 1098.3 C 1110.72 1104.32 1012.31 1105.67 913.994 1102.34 C 862.292 1100.82 810.566 1099.62 759.325 1091.79 C 755.699 1090.23 751.858 1088.85 749.022 1086.01 C 746.771 1083.76 746.045 1080.46 745.663 1077.42 C 743.597 1061 744.989 1042.98 744.991 1026.4 L 745.097 928.201 C 730.45 944.647 717.612 961.241 701.231 976.163 C 679.505 995.954 652.292 1009.66 622.249 1008.14 C 596.062 1006.8 573.713 994.579 556.355 975.234 C 508.663 922.081 505.762 818.905 509.434 750.728 C 508.789 751.053 508.143 751.376 507.488 751.678 C 497.904 756.193 486.881 756.552 477.024 752.67 C 464.581 747.687 455.887 736.231 450.744 724.213 C 446.154 713.488 443.779 700.746 448.539 689.678 C 461.085 660.504 484.297 680.963 502.863 673.311 L 503.873 672.884 C 500.47 668.65 497.591 664.022 495.297 659.099 C 490.015 647.766 488.323 636.001 492.97 624.105 C 502.712 599.169 557.039 557.228 581.933 546.147 C 597.903 539.039 616.073 532.093 633.323 539.139 C 655.011 547.998 665.301 569.073 673.619 589.466 C 693.707 581.336 712.553 570.799 731.738 560.786 C 765.511 543.159 800.289 524.678 835.472 510.085 C 835.576 495.162 815.763 478.575 815.766 450.961 C 815.767 439.811 818.717 430.756 826.648 422.821 z"/>
<path transform="translate(0,0)" fill="rgb(212,87,56)" d="M 826.648 422.821 C 838.591 417.831 851.776 414.42 864.113 410.426 C 902.928 397.86 983.346 371.403 1022.39 373.232 C 1056.29 374.82 1089.73 385.785 1122.42 394.398 L 1177.74 409.215 C 1188.4 412.047 1199.82 415.988 1210.79 416.901 C 1211.13 416.93 1211.47 416.947 1211.81 416.969 C 1220.69 430.766 1219.86 442.585 1222.08 458.168 C 1221.4 471.28 1220.76 484.374 1217.75 497.208 C 1215.4 507.226 1211.1 517.758 1210.14 527.939 C 1198.87 581.099 1088.35 659.89 1046.23 696.073 C 991.291 672.875 949.126 647.825 901.41 611.722 C 891.796 604.448 882.623 596.736 873.535 588.819 C 867.846 583.863 862.1 577.838 855.723 573.824 C 851.731 570.371 847.713 566.904 844.31 562.849 C 830.389 546.262 833.786 529.773 835.472 510.085 C 835.576 495.162 815.763 478.575 815.766 450.961 C 815.767 439.811 818.717 430.756 826.648 422.821 z"/>
<path transform="translate(0,0)" fill="rgb(179,70,47)" d="M 883.931 468.402 C 896.808 472.077 912.916 484.662 927.535 490.753 C 957.122 503.082 998.723 509.552 1030.79 506.307 C 1040.53 505.322 1050.19 502.128 1059.97 501.743 C 1063.99 501.585 1065.93 501.87 1068.89 504.658 C 1069.69 506.983 1070.03 508.347 1069.72 510.802 L 1067.7 512.293 C 1017.52 524.697 956.389 520.473 909.937 496.93 C 902.61 493.216 882.792 483.246 880.285 475.535 C 880.434 472.234 881.908 470.792 883.931 468.402 z"/>
<path transform="translate(0,0)" fill="rgb(254,177,71)" d="M 503.873 672.884 C 500.47 668.65 497.591 664.022 495.297 659.099 C 490.015 647.766 488.323 636.001 492.97 624.105 C 502.712 599.169 557.039 557.228 581.933 546.147 C 597.903 539.039 616.073 532.093 633.323 539.139 C 655.011 547.998 665.301 569.073 673.619 589.466 C 674.98 596.578 675.098 603.816 675.418 611.032 C 685.757 618.494 695.881 625.519 697.767 639.192 C 698.251 642.698 698.194 646.348 698.233 649.883 C 691.895 668.811 675.433 689.894 657.554 699.17 C 646.692 704.806 633.625 704.339 621.966 701.571 C 600.653 712.011 574.539 721.985 550.844 714.02 C 549.9 713.703 548.972 713.341 548.043 712.984 C 537.801 716.183 516.679 723.432 511.535 733.594 C 508.953 738.696 510.784 745.297 509.434 750.728 C 508.789 751.053 508.143 751.376 507.488 751.678 C 497.904 756.193 486.881 756.552 477.024 752.67 C 464.581 747.687 455.887 736.231 450.744 724.213 C 446.154 713.488 443.779 700.746 448.539 689.678 C 461.085 660.504 484.297 680.963 502.863 673.311 L 503.873 672.884 z"/>
<path transform="translate(0,0)" fill="rgb(140,89,38)" d="M 575.866 690.605 C 570.161 676.582 563.097 662.736 553.354 651.045 C 548.612 645.354 542.56 640.229 538.766 633.878 C 549.88 640.495 563.287 658.959 569.244 670.648 C 571.68 675.429 574.187 685.076 578.335 688.381 C 579.677 689.449 582.689 688.917 584.222 688.543 C 591.333 686.809 599.212 681.159 602.711 674.682 C 606.9 666.927 606.07 657.526 603.424 649.41 C 597.42 630.992 582.39 612.19 570.101 597.348 C 569.13 596.175 569.463 596.595 568.783 594.94 C 577.98 598.272 597.901 631.895 602.383 641.405 C 606.014 649.107 610.616 660.558 607.525 668.843 C 605.859 673.308 603.665 677.609 601.555 681.88 L 607.37 691.15 C 604.619 688.609 601.893 686.043 599.191 683.451 C 592.659 687.554 586.469 690.294 578.91 692.158 C 573.24 699.166 568.345 705.263 560.465 709.932 C 556.507 709.982 552.734 710.1 548.817 710.697 L 548.043 712.984 C 537.801 716.183 516.679 723.432 511.535 733.594 C 508.953 738.696 510.784 745.297 509.434 750.728 C 508.789 751.053 508.143 751.376 507.488 751.678 C 497.904 756.193 486.881 756.552 477.024 752.67 C 464.581 747.687 455.887 736.231 450.744 724.213 C 446.154 713.488 443.779 700.746 448.539 689.678 C 461.085 660.504 484.297 680.963 502.863 673.311 L 503.873 672.884 C 507.764 677.617 514.358 679.917 519.208 683.71 C 529.305 691.608 539.794 707.245 553.616 708.163 C 558.97 708.518 563.805 706.218 567.616 702.564 C 571.123 699.203 573.607 694.856 575.866 690.605 z"/>
<path transform="translate(0,0)" fill="rgb(140,89,38)" d="M 673.619 589.466 C 693.707 581.336 712.553 570.799 731.738 560.786 C 765.511 543.159 800.289 524.678 835.472 510.085 C 833.786 529.773 830.389 546.262 844.31 562.849 C 847.713 566.904 851.731 570.371 855.723 573.824 C 826.995 587.663 797.777 599.976 768.829 613.271 C 746.694 623.437 724.982 634.787 702.571 644.32 C 700.432 643.473 700.78 642.995 699.903 640.982 C 698.888 643.866 699.001 646.906 698.233 649.883 C 698.194 646.348 698.251 642.698 697.767 639.192 C 695.881 625.519 685.757 618.494 675.418 611.032 C 675.098 603.816 674.98 596.578 673.619 589.466 z"/>
<path transform="translate(0,0)" fill="rgb(212,87,56)" d="M 759.325 1091.79 C 810.566 1099.62 862.292 1100.82 913.994 1102.34 C 1012.31 1105.67 1110.72 1104.32 1208.91 1098.3 C 1237.27 1096.67 1265.58 1092.54 1293.86 1091.14 C 1294.21 1109.38 1298.47 1128.06 1300.4 1146.25 C 1312.91 1246.03 1322.86 1346.1 1330.27 1446.39 C 1332.68 1475.87 1334.89 1505.19 1336.75 1534.71 C 1338.11 1556.23 1340.01 1578.76 1337.69 1600.26 C 1336.23 1613.7 1332.39 1625.09 1324.05 1635.83 C 1319.15 1642.15 1313.24 1647.45 1307.35 1652.81 C 1298.64 1657.96 1290.18 1662.73 1280.6 1666.11 C 1241.35 1679.93 1190.19 1678.98 1150.01 1668.65 C 1142.02 1666.6 1134.11 1663.9 1126.39 1661.01 C 1119.95 1655.4 1111.84 1651.43 1105.16 1645.87 C 1092.8 1635.59 1083.82 1621.73 1077.17 1607.22 C 1053.89 1556.38 1042.8 1480.93 1034.7 1425.31 C 1031.06 1400.27 1027.17 1375.44 1024.71 1350.25 C 1022.31 1361.93 1021.75 1373.62 1020.53 1385.45 L 1015.1 1433.51 C 1009.34 1482.43 992.154 1583.51 964.509 1622.6 C 953.596 1638.03 939.87 1647.36 925.48 1658.95 L 924.009 1660.15 C 919.962 1662.04 915.742 1663.49 911.481 1664.82 C 869.996 1677.78 803.95 1675.57 762.147 1662.47 C 752.648 1659.49 744.054 1655.22 735.269 1650.63 C 728.587 1645.04 721.766 1638.91 716.727 1631.77 C 709.168 1621.07 705.183 1606.53 704.371 1593.55 C 701.886 1553.84 707.55 1513.48 711.413 1474 C 717.352 1409 724.8 1344.15 733.753 1279.5 C 739.475 1235.98 742.755 1191.63 750.501 1148.45 C 752.791 1129.89 754.638 1109.81 759.325 1091.79 z"/>
<path transform="translate(0,0)" fill="rgb(179,70,47)" d="M 759.325 1091.79 C 810.566 1099.62 862.292 1100.82 913.994 1102.34 C 1012.31 1105.67 1110.72 1104.32 1208.91 1098.3 C 1237.27 1096.67 1265.58 1092.54 1293.86 1091.14 C 1294.21 1109.38 1298.47 1128.06 1300.4 1146.25 C 1244.3 1153.2 1186.74 1154.37 1130.28 1156.27 C 1047.19 1159.1 964.033 1159.06 880.951 1156.14 C 837.387 1154.59 793.902 1152.75 750.501 1148.45 C 752.791 1129.89 754.638 1109.81 759.325 1091.79 z"/>
<path transform="translate(0,0)" fill="rgb(179,70,47)" d="M 1154.07 1298.47 C 1155.51 1298.71 1156.9 1299.17 1158.3 1299.57 C 1166.18 1307.98 1170.04 1325.08 1174.63 1335.79 C 1183.41 1356.27 1193.67 1376.55 1201.29 1397.47 C 1208.13 1416.23 1212.39 1435.87 1216.46 1455.37 C 1219.69 1470.7 1222.56 1486.11 1225.06 1501.57 C 1226.58 1510.84 1227.39 1521.22 1230.04 1530.16 C 1234.9 1546.61 1243.77 1559.18 1250.8 1574.39 C 1249.66 1577.12 1247.92 1578.43 1245.81 1580.42 C 1245.47 1580.51 1245.13 1580.64 1244.78 1580.68 C 1242.35 1580.95 1241.57 1580.53 1239.69 1579.01 C 1236.31 1576.3 1233.88 1571.86 1231.62 1568.2 C 1212.69 1537.48 1212.5 1501.67 1205.44 1467.29 C 1200.31 1442.29 1194.94 1417.74 1185.11 1394.11 C 1178.87 1379.11 1149.86 1316.53 1150.06 1304.6 C 1150.11 1301.72 1152.22 1300.4 1154.07 1298.47 z"/>
<path transform="translate(0,0)" fill="rgb(179,70,47)" d="M 914.023 1362.58 C 916.577 1363.34 918.64 1363.5 920.152 1366.01 C 921.667 1368.52 921.673 1372.11 921.31 1374.91 C 918.022 1400.27 908.8 1426.2 902.657 1451.09 C 895.418 1480.42 890.249 1510.29 881.159 1539.15 C 874.392 1560.64 858.108 1593.39 837.396 1604.22 C 834.429 1603.15 832.648 1602.72 831.142 1599.8 C 832.229 1588.65 849.377 1576.14 855.408 1566.28 C 860.448 1558.05 864.359 1548.56 867.66 1539.5 C 878.386 1510.08 901.342 1375.94 914.023 1362.58 z"/>
<path transform="translate(0,0)" fill="rgb(179,70,47)" d="M 845.986 1300.92 C 847.865 1300.93 850.168 1300.74 851.993 1301.13 C 854.629 1301.69 855.085 1302.47 856.565 1304.48 C 857.431 1314.82 852.517 1327.98 850.141 1338.09 C 846.217 1354.8 842.445 1371.67 835.037 1387.26 C 825.521 1407.27 812.562 1425.53 805.804 1446.84 C 799.809 1465.75 796.615 1486.75 793.692 1506.33 C 791.826 1518.83 790.835 1532.23 786.252 1544.1 C 784.304 1544.91 782.985 1544.94 780.89 1545.12 C 778.714 1544.03 777.859 1543.67 777.2 1541.06 C 775.296 1533.53 779.088 1517.39 780.284 1509.29 C 785.426 1474.45 789.017 1448.36 804.739 1416.17 C 812.099 1401.1 821.711 1387.32 827.03 1371.3 C 831.511 1357.8 834.803 1343.94 838.023 1330.1 C 840.211 1320.7 841.781 1309.6 845.986 1300.92 z"/>
<path transform="translate(0,0)" fill="rgb(179,70,47)" d="M 1236.76 1268.67 C 1238.5 1268.87 1239.97 1269.2 1241.65 1269.64 C 1258.72 1283.23 1270.29 1330.43 1273.54 1351.66 C 1275.73 1366.01 1281.59 1426.93 1274.41 1436.72 C 1271.02 1434.49 1267.78 1431.89 1264.5 1429.48 C 1263.64 1385.48 1261.56 1344.63 1245.81 1302.87 C 1242.65 1294.51 1233.52 1281.42 1233.78 1272.84 C 1233.85 1270.9 1235.48 1269.99 1236.76 1268.67 z"/>
<path transform="translate(0,0)" fill="rgb(179,70,47)" d="M 1148.67 1490.66 C 1148.89 1490.71 1149.12 1490.75 1149.34 1490.82 C 1151.61 1491.64 1152.28 1491.99 1153.42 1494.18 C 1156.33 1499.77 1157.29 1507.23 1158.6 1513.36 C 1161.94 1528.92 1165.81 1554.41 1172.15 1567.93 C 1178.2 1580.81 1187.58 1592.77 1192.69 1605.8 C 1191.44 1608.43 1190.12 1608.25 1187.52 1609.23 C 1184.76 1608.34 1182.31 1607.7 1180.17 1605.66 C 1159.76 1586.23 1142.56 1523.73 1142.66 1495.21 C 1144.08 1492.55 1146.05 1492.06 1148.67 1490.66 z"/>
<path transform="translate(0,0)" fill="rgb(179,70,47)" d="M 1012.02 1283.94 C 1016.03 1284.05 1020.05 1284.58 1024.04 1284.99 C 1025.09 1304.55 1025.57 1324.51 1024.46 1344.06 C 1019.92 1343.07 1015.52 1342.44 1010.9 1342.04 C 1012.91 1322.86 1011.8 1303.22 1012.02 1283.94 z"/>
<path transform="translate(0,0)" fill="rgb(254,177,71)" d="M 1016.28 41.0903 C 1035.58 24.5975 1058.55 8.81652 1083.61 2.93135 C 1087.67 1.97755 1093.29 1.24201 1096.76 4.19679 C 1105.27 11.453 1106.99 50.1483 1107.12 61.5824 C 1116.69 55.1741 1130.34 47.9193 1141.55 45.2491 C 1145.92 44.2093 1150.54 44.1487 1154.43 46.6779 C 1162.43 51.8919 1163.7 63.0283 1165.42 71.5717 C 1169.8 75.6257 1175.12 78.7076 1179.72 82.5786 C 1193.92 94.7202 1206.2 108.942 1216.14 124.761 C 1244.7 170.367 1258.86 235.623 1246.41 288.636 L 1246.22 291.107 C 1254.15 291.162 1260.82 293.347 1266.46 299.098 C 1276.37 309.197 1278.4 326.718 1277.82 340.271 C 1276.93 361.205 1269.3 383.515 1253.44 397.818 C 1242.03 408.113 1226.87 414.479 1211.81 416.969 C 1211.47 416.947 1211.13 416.93 1210.79 416.901 C 1199.82 415.988 1188.4 412.047 1177.74 409.215 L 1122.42 394.398 C 1089.73 385.785 1056.29 374.82 1022.39 373.232 C 983.346 371.403 902.928 397.86 864.113 410.426 C 851.776 414.42 838.591 417.831 826.648 422.821 C 811.044 422.279 794.053 418.091 781.601 408.291 C 765.983 395.998 759.267 377.196 756.97 358.048 C 755.082 342.313 756.203 320.262 766.697 307.51 C 772.672 300.251 779.361 297.537 788.533 296.679 L 791.291 295.767 C 791.168 295.359 791.052 294.949 790.923 294.543 C 790.561 293.401 790.272 292.701 790.026 291.584 C 788.165 283.123 788.574 272.531 788.787 263.868 C 789.592 221.089 801.391 179.236 823.05 142.336 C 858.912 81.8568 922.168 38.2045 989.791 20.9684 C 995.65 19.475 1004.8 16.9299 1010.08 20.9593 C 1015.81 25.3287 1015.79 34.601 1016.28 41.0903 z"/>
<path transform="translate(0,0)" fill="rgb(212,87,56)" d="M 1016.28 41.0903 C 1035.58 24.5975 1058.55 8.81652 1083.61 2.93135 C 1087.67 1.97755 1093.29 1.24201 1096.76 4.19679 C 1105.27 11.453 1106.99 50.1483 1107.12 61.5824 C 1116.69 55.1741 1130.34 47.9193 1141.55 45.2491 C 1145.92 44.2093 1150.54 44.1487 1154.43 46.6779 C 1162.43 51.8919 1163.7 63.0283 1165.42 71.5717 C 1169.8 75.6257 1175.12 78.7076 1179.72 82.5786 C 1193.92 94.7202 1206.2 108.942 1216.14 124.761 C 1244.7 170.367 1258.86 235.623 1246.41 288.636 L 1246.22 291.107 C 1223.26 300.207 1220.74 310.557 1209.45 330.044 C 1202.12 317.47 1197.26 304.209 1193.78 290.092 C 1187.17 263.219 1183.66 213.479 1171.79 191.28 C 1169.84 187.639 1167.18 184.157 1162.98 183.074 C 1155.61 181.172 1110.7 191.904 1099.34 193.541 C 1087.49 195.248 1075.58 196.446 1063.63 197.132 C 1020.58 199.918 975.989 198.813 933.434 191.596 C 915.813 188.608 898.591 183.746 881.05 180.639 C 857.003 202.51 846.412 259.131 837.959 290.946 C 835.051 301.889 832.699 313.642 827.387 323.724 C 825.768 326.797 825.49 327.414 822.163 327.264 C 810.342 319.963 803.719 298.497 788.957 296.742 C 788.815 296.725 788.674 296.7 788.533 296.679 L 791.291 295.767 C 791.168 295.359 791.052 294.949 790.923 294.543 C 790.561 293.401 790.272 292.701 790.026 291.584 C 788.165 283.123 788.574 272.531 788.787 263.868 C 789.592 221.089 801.391 179.236 823.05 142.336 C 858.912 81.8568 922.168 38.2045 989.791 20.9684 C 995.65 19.475 1004.8 16.9299 1010.08 20.9593 C 1015.81 25.3287 1015.79 34.601 1016.28 41.0903 z"/>
<path transform="translate(0,0)" fill="rgb(56,35,38)" d="M 1127.49 255.598 C 1134 255.023 1144.79 252.759 1150.62 256.396 C 1153.24 258.033 1156.12 262.805 1156.66 265.778 C 1157.13 268.35 1156.21 270.606 1154.65 272.603 C 1146.49 283.068 1102.69 281.649 1088.68 282.889 C 1081.75 283.112 1069.74 284.929 1064 280.638 C 1061.76 278.955 1060.71 276.97 1060.26 274.239 C 1059.69 270.795 1060.17 267.344 1062.61 264.652 C 1071.16 255.203 1114.17 256.809 1127.49 255.598 z"/>
<path transform="translate(0,0)" fill="rgb(56,35,38)" d="M 890.203 255.104 C 892.455 254.78 894.726 254.614 897 254.606 C 912.261 254.599 952.614 257.741 966.614 261.244 C 970.27 262.159 974.977 263.799 977.477 266.82 C 979.445 269.199 979.723 271.03 979.28 273.998 C 978.592 278.603 976.529 280.428 972.906 282.931 C 971.767 282.996 970.628 283.046 969.488 283.082 C 953.109 283.523 895.005 283.547 885.469 272.433 C 883.976 270.693 882.983 268.576 883.216 266.253 C 883.626 262.164 887.118 257.629 890.203 255.104 z"/>
<path transform="translate(0,0)" fill="rgb(56,35,38)" d="M 926.758 306.188 C 931.162 305.956 936.697 305.153 940.96 306.334 C 946.736 307.891 951.652 311.688 954.617 316.883 C 959.139 324.966 958.87 336.757 956.292 345.407 C 953.846 353.617 949.93 358.488 942.373 362.361 C 937.91 363.414 932.429 363.87 927.994 362.513 C 922.745 360.907 918.574 356.927 916.08 352.119 C 911.338 342.98 910.823 328.448 914.378 318.876 C 916.857 312.203 920.465 309.162 926.758 306.188 z"/>
<path transform="translate(0,0)" fill="rgb(56,35,38)" d="M 1093.99 306.276 C 1098.91 306.037 1105.15 305.902 1109.6 308.248 C 1114.88 311.039 1118.19 315.869 1119.64 321.591 C 1122.23 331.792 1121.21 346.467 1115.73 355.466 C 1112.79 360.279 1108.92 362.223 1103.58 363.471 C 1099.13 363.616 1093.83 364.061 1089.73 362.086 C 1084.46 359.55 1080.81 353.812 1079.11 348.422 C 1075.91 338.303 1075.6 323.829 1081.02 314.549 C 1084.03 309.399 1088.47 307.697 1093.99 306.276 z"/>
<path transform="translate(0,0)" fill="rgb(56,35,38)" d="M 735.269 1650.63 C 744.054 1655.22 752.648 1659.49 762.147 1662.47 C 803.95 1675.57 869.996 1677.78 911.481 1664.82 C 915.742 1663.49 919.962 1662.04 924.009 1660.15 C 922.521 1693.17 919.05 1726.09 916.341 1759.03 C 912.337 1806.52 909.135 1854.08 906.737 1901.68 C 905.854 1919.46 904.694 1937.46 905.016 1955.26 C 905.384 1975.61 908.261 1999.98 905.269 2019.79 C 904.428 2025.36 902.738 2028.55 898.203 2031.87 C 879.623 2035.23 859.416 2033.91 840.543 2034.02 C 819.551 2034.21 798.562 2034.63 777.58 2035.29 C 748.513 2035.97 719.246 2036.28 690.213 2037.51 C 670.222 2038.35 650.229 2040.37 630.195 2039.95 C 626.589 2039.87 621.541 2039.6 618.719 2036.97 C 615.239 2033.73 613.548 2026.95 613.21 2022.38 C 610.689 1988.3 659.231 1957.61 683.719 1940.69 C 692.716 1934.48 703.821 1928.09 711.137 1919.95 C 714.777 1897.69 715.117 1874.35 716.97 1851.85 C 720.331 1808.45 723.986 1765.09 727.936 1721.75 C 729.618 1700.99 730.14 1670.21 735.269 1650.63 z"/>
<path transform="translate(0,0)" fill="rgb(56,35,38)" d="M 1126.39 1661.01 C 1134.11 1663.9 1142.02 1666.6 1150.01 1668.65 C 1190.19 1678.98 1241.35 1679.93 1280.6 1666.11 C 1290.18 1662.73 1298.64 1657.96 1307.35 1652.81 C 1312.47 1711.01 1317.04 1769.27 1321.06 1827.56 C 1323.03 1855.86 1323.27 1896.48 1329.55 1923.36 C 1336.22 1930.44 1344.73 1936.02 1352.63 1941.66 C 1378.17 1959.9 1411.15 1978.79 1425.84 2007.47 C 1428.51 2012.69 1431.1 2018.75 1430.82 2024.73 C 1430.61 2029.03 1428.97 2033.52 1425.62 2036.36 C 1421.46 2039.89 1415.77 2039.73 1410.61 2039.92 C 1373.02 2041.35 1335.13 2037.62 1297.53 2037.1 C 1265.28 2036.71 1233.03 2036.07 1200.78 2035.18 C 1186.55 2034.87 1171.51 2036.01 1157.44 2034.33 C 1152.02 2033.68 1145.76 2032.32 1142.17 2027.81 C 1136.1 2020.17 1139.28 1978.64 1139.46 1967.1 C 1140.27 1898.38 1138.21 1829.65 1133.26 1761.1 C 1131.88 1740.68 1130.3 1720.26 1128.53 1699.86 C 1127.46 1687.17 1125.43 1673.72 1126.39 1661.01 z"/>
<path transform="translate(0,0)" fill="rgb(140,89,38)" d="M 1246.41 288.636 L 1247.92 287.973 C 1261.75 281.807 1274.78 273.216 1288.29 266.3 C 1341.11 239.271 1392.84 210.015 1445.78 183.25 C 1461.47 175.315 1478.25 163.959 1495.01 158.983 C 1509.25 154.754 1527.24 156.128 1541.08 161.177 C 1563.57 169.38 1584.64 188.204 1594.64 210.024 C 1603.82 230.037 1606.95 256.736 1598.99 277.642 C 1588.78 304.461 1567.78 314.744 1543.01 326.035 C 1530.98 331.529 1518.91 336.949 1506.81 342.296 C 1462.18 361.816 1416.63 379.254 1371.91 398.527 L 1289.15 433.631 C 1270.87 441.376 1252.45 449.912 1233.68 456.343 C 1229.77 457.682 1226.2 458.05 1222.08 458.168 C 1219.86 442.585 1220.69 430.766 1211.81 416.969 C 1226.87 414.479 1242.03 408.113 1253.44 397.818 C 1269.3 383.515 1276.93 361.205 1277.82 340.271 C 1278.4 326.718 1276.37 309.197 1266.46 299.098 C 1260.82 293.347 1254.15 291.162 1246.22 291.107 L 1246.41 288.636 z"/>
<path transform="translate(0,0)" fill="rgb(254,177,71)" d="M 1360.16 1221.13 C 1369.52 1220.15 1380.31 1222.02 1389.76 1222.55 C 1403.43 1223.31 1417.31 1223.36 1431 1223.04 C 1445.1 1222.71 1459.15 1221.2 1473.15 1219.62 C 1481.33 1218.69 1489.83 1217.11 1498.04 1217.34 C 1498.39 1236.03 1499.81 1255.13 1498.64 1273.78 C 1496.72 1304.53 1485.84 1344.47 1463.86 1367.21 C 1458.53 1372.73 1448.52 1382.42 1440.35 1381.89 C 1438.62 1381.78 1437.66 1381.46 1436.18 1380.66 L 1433.36 1377.97 C 1429.94 1383.19 1426.51 1388.96 1422.25 1393.53 C 1418.49 1397.58 1413.86 1400.5 1408.21 1400.62 C 1403.07 1400.73 1397.9 1398.96 1394.37 1395.14 C 1380.98 1380.65 1391.23 1346.88 1392.4 1329.01 C 1393.25 1316.01 1393.12 1302.81 1393.43 1289.78 C 1388.22 1298.87 1384.89 1308.45 1380.39 1317.84 C 1377.33 1324.22 1372.23 1331.21 1365.11 1333.29 C 1358.57 1335.2 1353.96 1333.2 1348.36 1329.96 C 1337.17 1286.98 1366.53 1248.91 1360.16 1221.13 z"/>
<path transform="translate(0,0)" fill="rgb(234,137,57)" d="M 1433.36 1377.97 C 1435.26 1373.48 1435.85 1368.77 1437.31 1364.15 C 1440.27 1354.76 1444.31 1345.7 1447.04 1336.24 C 1449.71 1327.06 1451.04 1317.45 1454.1 1308.39 C 1454.13 1326.83 1452.3 1345.69 1444.98 1362.8 C 1442.36 1368.91 1438.82 1374.55 1436.18 1380.66 L 1433.36 1377.97 z"/>
</svg>