<svg version="1.1" xmlns="http://www.w3.org/2000/svg" style="display: block;" viewBox="0 0 2048 2048" width="800" height="800" preserveAspectRatio="none">
<path transform="translate(0,0)" fill="rgb(103,43,103)" d="M 697.313 397.378 C 703.556 367.493 712.697 337.909 721.174 308.594 C 730.274 277.13 739.044 245.534 748.55 214.191 C 752.649 200.677 757.838 187.283 761.58 173.708 C 762.368 170.847 762.934 169.59 761.738 166.892 C 748.864 163.17 700.369 203.414 688.558 179.992 C 682.229 167.442 691.969 141.882 696.571 129.708 C 711.183 91.0494 739.602 24.9997 779.402 7.97019 C 802.156 -1.76589 828.897 2.35703 851.047 11.6659 C 931.638 45.5345 1015.91 163.796 1058.61 238.304 C 1078.44 273.37 1096.03 309.656 1111.27 346.944 C 1118.05 363.826 1123.34 380.715 1128.94 397.986 C 1148.13 404.869 1167.63 411.086 1186.33 419.238 C 1233.18 439.653 1290.29 476.649 1312.33 524.082 C 1315.75 531.43 1317.75 538.706 1319.29 546.633 C 1321.16 562.223 1318.13 576.038 1308.42 588.534 C 1284.6 619.195 1241.08 638.369 1205.04 650.528 C 1195.39 653.786 1183 655.627 1174.13 660.106 C 1166.02 664.729 1157.68 669.011 1148.87 672.148 C 1151.08 694.199 1148.26 717.244 1147.27 739.336 C 1146.72 751.693 1147.47 764.33 1145.97 776.602 L 1146.7 777.124 C 1159.11 785.789 1172.96 791.922 1185.05 801.277 C 1245.44 848.022 1284.64 918.149 1310.75 988.73 C 1317.13 1005.95 1321.4 1023.88 1327.73 1040.99 C 1350.97 1024.45 1367.71 1000.31 1390.96 983.47 C 1395.28 965.334 1392.01 932.056 1407.78 919.834 C 1413.79 915.173 1421.89 914.34 1429.19 915.628 C 1439.97 917.528 1447.98 923.996 1453.99 932.849 C 1455.01 942.014 1453.55 949.212 1451.55 958.09 C 1454.04 953.339 1456.56 948.387 1460.02 944.26 C 1473.74 927.909 1495.29 921.854 1515.71 919.718 C 1534.23 919.227 1560.23 918.922 1574.77 932.581 C 1582.79 940.119 1586.9 950.236 1586.98 961.184 C 1587.06 971.373 1582.87 980.531 1582.16 990.481 C 1581.49 1000 1585.27 1009.58 1584.89 1019.25 C 1584.48 1029.73 1579.18 1040.49 1576.47 1050.61 C 1573.28 1062.48 1573.4 1084.44 1564.32 1093.55 C 1552.3 1105.62 1531.08 1107.84 1515 1108.77 C 1515.95 1123.09 1519.11 1154.84 1509.71 1165.42 C 1503.42 1172.49 1494.99 1174.13 1486.15 1175.62 C 1481.14 1222.04 1460.83 1309.11 1423.43 1338.77 C 1407.35 1351.52 1387.21 1353.8 1367.43 1351.37 C 1319.11 1345.43 1269.74 1318.29 1239.95 1279.51 C 1237.89 1276.83 1236.02 1274.01 1234.16 1271.18 C 1238.98 1295.08 1239.7 1320.22 1242.01 1344.49 L 1255.65 1487.57 L 1279.22 1741.77 L 1285.97 1817.04 C 1287.37 1832.47 1289.27 1848 1289.74 1863.49 C 1289.99 1872.13 1289.93 1881.03 1284.99 1888.51 C 1273.31 1906.18 1243.93 1912.95 1224.52 1916.34 C 1207.04 1919.4 1188.72 1921.87 1170.98 1921.98 C 1181.16 1928.88 1193.3 1934.14 1204.05 1940.29 C 1232.64 1956.63 1263.53 1975.1 1288.66 1996.51 C 1296.33 2003.04 1305.2 2012.32 1305.63 2022.92 C 1305.81 2027.39 1304.29 2031.94 1301.03 2035.08 C 1296.68 2039.26 1290.19 2040.85 1284.38 2041.59 C 1257.73 2044.97 1229.43 2042.49 1202.57 2042.6 L 1029.28 2042.93 C 1015 2042.94 989.132 2045.64 978.694 2034.41 C 975.186 2030.64 973.306 2025.19 972.274 2020.24 C 968.132 2000.37 970.264 1952.04 971.086 1929.96 L 858.893 1930.09 C 860.685 1947.9 862.529 2008.11 858.492 2023.42 C 856.752 2030.02 852.014 2036.04 845.935 2039.2 C 840.627 2041.96 832.767 2042.29 826.84 2042.59 C 787.611 2044.54 747.517 2042.68 708.193 2042.64 C 679.276 2042.61 558.328 2045.9 539.889 2039.58 C 535.015 2037.91 530.164 2035.01 528.075 2030.07 C 524.665 2022.01 529.393 2012.12 534.351 2005.8 C 553.752 1981.06 609.42 1949.56 637.488 1932.61 C 642.026 1929.87 654.112 1924.51 655.902 1920.25 C 627.788 1916.72 577.665 1914.39 558.129 1892.69 C 552.428 1886.35 551.366 1875.91 551.248 1867.62 C 550.979 1848.68 553.544 1829.19 555.113 1810.31 L 562.586 1719.76 C 568.739 1646.49 574.512 1573.19 579.906 1499.86 C 582.46 1465.44 586.386 1430.88 587.968 1396.42 L 588.794 1384.36 C 578.253 1381.49 565.92 1376.74 556.911 1370.52 C 555.571 1370.34 554.283 1369.7 553.058 1369.13 C 515.485 1351.9 478.112 1307.16 463.513 1268.95 C 429.569 1180.12 453.905 1075.1 491.16 991.333 C 525.731 913.603 602.383 808.18 683.939 776.889 C 684.509 765.748 682.997 753.773 682.521 742.584 C 681.527 719.218 680.816 695.581 681.612 672.203 C 674.382 668.65 667.115 665.173 659.811 661.774 C 647.617 656.556 634.713 653.552 622.15 649.387 C 594.828 640.329 564.145 626.786 541.454 609.139 C 527.572 598.342 512.517 583.272 510.277 565.032 C 506.197 551.612 510.264 536.41 515.919 523.999 C 536.968 477.804 592.144 440.293 637.28 420.015 C 656.927 411.188 677.143 404.782 697.313 397.378 z"/>
<path transform="translate(0,0)" fill="rgb(209,209,208)" d="M 697.313 397.378 C 703.556 367.493 712.697 337.909 721.174 308.594 C 730.274 277.13 739.044 245.534 748.55 214.191 C 752.649 200.677 757.838 187.283 761.58 173.708 C 762.368 170.847 762.934 169.59 761.738 166.892 C 748.864 163.17 700.369 203.414 688.558 179.992 C 682.229 167.442 691.969 141.882 696.571 129.708 C 711.183 91.0494 739.602 24.9997 779.402 7.97019 C 802.156 -1.76589 828.897 2.35703 851.047 11.6659 C 931.638 45.5345 1015.91 163.796 1058.61 238.304 C 1078.44 273.37 1096.03 309.656 1111.27 346.944 C 1118.05 363.826 1123.34 380.715 1128.94 397.986 C 1148.13 404.869 1167.63 411.086 1186.33 419.238 C 1233.18 439.653 1290.29 476.649 1312.33 524.082 C 1315.75 531.43 1317.75 538.706 1319.29 546.633 C 1321.16 562.223 1318.13 576.038 1308.42 588.534 C 1284.6 619.195 1241.08 638.369 1205.04 650.528 C 1195.39 653.786 1183 655.627 1174.13 660.106 C 1166.02 664.729 1157.68 669.011 1148.87 672.148 C 1151.08 694.199 1148.26 717.244 1147.27 739.336 C 1146.72 751.693 1147.47 764.33 1145.97 776.602 C 1143.54 809.58 1141.11 842.327 1133.71 874.651 C 1112.49 967.259 1050.84 1080.39 978.371 1142.78 C 939.641 1176.12 889.171 1208.78 835.813 1204.46 C 820.324 1203.2 798.308 1197.49 788.035 1184.82 C 786.028 1182.35 785.329 1179.92 785.873 1176.8 C 787.109 1169.69 810.299 1155.8 817.085 1147.26 C 842.434 1115.38 823.759 1061.45 806.264 1030.66 C 766.482 960.628 715.901 937.675 694.116 850.399 C 690.435 835.651 688.143 820.823 686.752 805.705 C 685.879 796.216 685.642 786.244 683.939 776.889 C 684.509 765.748 682.997 753.773 682.521 742.584 C 681.527 719.218 680.816 695.581 681.612 672.203 C 674.382 668.65 667.115 665.173 659.811 661.774 C 647.617 656.556 634.713 653.552 622.15 649.387 C 594.828 640.329 564.145 626.786 541.454 609.139 C 527.572 598.342 512.517 583.272 510.277 565.032 C 506.197 551.612 510.264 536.41 515.919 523.999 C 536.968 477.804 592.144 440.293 637.28 420.015 C 656.927 411.188 677.143 404.782 697.313 397.378 z"/>
<path transform="translate(0,0)" fill="rgb(103,43,103)" d="M 697.313 397.378 C 703.556 367.493 712.697 337.909 721.174 308.594 C 730.274 277.13 739.044 245.534 748.55 214.191 C 752.649 200.677 757.838 187.283 761.58 173.708 C 762.368 170.847 762.934 169.59 761.738 166.892 C 748.864 163.17 700.369 203.414 688.558 179.992 C 682.229 167.442 691.969 141.882 696.571 129.708 C 711.183 91.0494 739.602 24.9997 779.402 7.97019 C 802.156 -1.76589 828.897 2.35703 851.047 11.6659 C 931.638 45.5345 1015.91 163.796 1058.61 238.304 C 1078.44 273.37 1096.03 309.656 1111.27 346.944 C 1118.05 363.826 1123.34 380.715 1128.94 397.986 C 987.452 361.105 838.901 360.896 697.313 397.378 z"/>
<path transform="translate(0,0)" fill="rgb(137,78,136)" d="M 697.313 397.378 C 838.901 360.896 987.452 361.105 1128.94 397.986 C 1148.13 404.869 1167.63 411.086 1186.33 419.238 C 1233.18 439.653 1290.29 476.649 1312.33 524.082 C 1315.75 531.43 1317.75 538.706 1319.29 546.633 C 1321.16 562.223 1318.13 576.038 1308.42 588.534 C 1284.6 619.195 1241.08 638.369 1205.04 650.528 C 1195.39 653.786 1183 655.627 1174.13 660.106 C 1166.02 664.729 1157.68 669.011 1148.87 672.148 C 1145.04 661.063 1147.86 639.236 1147.74 627.169 C 1147.44 597.321 1146.7 567.518 1146.8 537.66 L 1146.84 470.068 C 1132.97 466.201 1118.58 463.792 1104.39 461.425 C 1002.27 441.709 826.853 441.075 726.443 461.22 C 712.169 463.653 698.002 466.673 683.976 470.272 L 683.987 537.785 C 684.081 582.602 683.29 627.417 681.612 672.203 C 674.382 668.65 667.115 665.173 659.811 661.774 C 647.617 656.556 634.713 653.552 622.15 649.387 C 594.828 640.329 564.145 626.786 541.454 609.139 C 527.572 598.342 512.517 583.272 510.277 565.032 C 506.197 551.612 510.264 536.41 515.919 523.999 C 536.968 477.804 592.144 440.293 637.28 420.015 C 656.927 411.188 677.143 404.782 697.313 397.378 z"/>
<path transform="translate(0,0)" fill="rgb(103,43,103)" d="M 510.277 565.032 C 513.145 560.329 514.033 554.563 516.907 549.736 C 521.147 542.612 529.119 535.857 535.528 530.675 C 577.559 496.691 632.888 483.676 683.976 470.272 L 683.987 537.785 C 684.081 582.602 683.29 627.417 681.612 672.203 C 674.382 668.65 667.115 665.173 659.811 661.774 C 647.617 656.556 634.713 653.552 622.15 649.387 C 594.828 640.329 564.145 626.786 541.454 609.139 C 527.572 598.342 512.517 583.272 510.277 565.032 z"/>
<path transform="translate(0,0)" fill="rgb(253,203,142)" d="M 683.987 537.785 C 684.081 582.602 683.29 627.417 681.612 672.203 C 674.382 668.65 667.115 665.173 659.811 661.774 C 645.471 645.891 633.506 629.773 630.168 608.16 C 627.628 591.717 630.477 574.973 640.532 561.439 C 651.286 546.964 666.523 540.258 683.987 537.785 z"/>
<path transform="translate(0,0)" fill="rgb(103,43,103)" d="M 1146.84 470.068 C 1195.34 480.087 1250.35 497.586 1290.86 526.522 C 1297.61 531.345 1305.7 537.229 1310.26 544.268 C 1312.17 547.22 1314.41 554.53 1317.2 555.919 C 1319.11 553.071 1319.02 549.944 1319.29 546.633 C 1321.16 562.223 1318.13 576.038 1308.42 588.534 C 1284.6 619.195 1241.08 638.369 1205.04 650.528 C 1195.39 653.786 1183 655.627 1174.13 660.106 C 1166.02 664.729 1157.68 669.011 1148.87 672.148 C 1145.04 661.063 1147.86 639.236 1147.74 627.169 C 1147.44 597.321 1146.7 567.518 1146.8 537.66 L 1146.84 470.068 z"/>
<path transform="translate(0,0)" fill="rgb(253,203,142)" d="M 1146.8 537.66 C 1165.58 541.144 1181.94 546.191 1193.68 562.645 C 1203.58 576.516 1204.59 594.118 1201.56 610.386 C 1197.86 630.181 1187.03 645.211 1174.13 660.106 C 1166.02 664.729 1157.68 669.011 1148.87 672.148 C 1145.04 661.063 1147.86 639.236 1147.74 627.169 C 1147.44 597.321 1146.7 567.518 1146.8 537.66 z"/>
<path transform="translate(0,0)" fill="rgb(253,203,142)" d="M 726.443 461.22 C 826.853 441.075 1002.27 441.709 1104.39 461.425 C 1105.75 497.889 1104.96 534.613 1105.01 571.111 C 1105.04 592.144 1107.53 621.379 1103.37 641.279 C 1100.72 653.592 1094.79 664.959 1086.21 674.175 C 1071.64 690.047 1049.88 697.098 1028.77 697.874 C 1010.16 698.559 991.102 695.917 973.686 689.292 C 967.017 686.755 960.388 683.354 953.664 681.108 C 951.989 687.569 950.142 694.382 946.417 699.997 C 940.959 708.223 932.891 713.705 923.143 715.456 C 913.813 717.131 903.554 715.471 895.79 709.849 C 885.582 702.457 882.622 690.961 880.943 679.196 C 860.477 685.576 841.519 693.344 819.803 695.004 C 794.864 696.911 768.766 695.787 749.1 678.127 C 740.4 670.314 734.398 659.528 731.296 648.323 C 725.706 628.137 726.363 604.18 726.259 583.311 C 726.055 542.781 728.749 501.674 726.443 461.22 z"/>
<path transform="translate(0,0)" fill="rgb(239,175,111)" d="M 880.943 679.196 C 880.491 658.105 879.894 627.784 895.511 611.245 C 900.808 605.637 907.996 602.932 915.65 603.105 C 923.699 603.286 931.222 606.376 936.743 612.304 C 951.401 628.043 952.768 660.77 953.664 681.108 C 951.989 687.569 950.142 694.382 946.417 699.997 C 940.959 708.223 932.891 713.705 923.143 715.456 C 913.813 717.131 903.554 715.471 895.79 709.849 C 885.582 702.457 882.622 690.961 880.943 679.196 z"/>
<path transform="translate(0,0)" fill="rgb(63,40,31)" d="M 823.048 571.195 C 826.604 570.835 830.337 570.465 833.874 571.117 C 840.677 572.373 846.623 576.463 850.229 582.366 C 854.58 589.408 855.489 598.984 853.344 606.899 C 850.738 616.516 845.103 621.786 836.905 626.712 C 833.885 627.084 830.591 627.51 827.564 627.13 C 821.174 626.328 815.186 622.114 811.621 616.865 C 806.845 609.835 805.46 600.515 807.251 592.279 C 809.369 582.538 814.727 576.276 823.048 571.195 z"/>
<path transform="translate(0,0)" fill="rgb(63,40,31)" d="M 996.073 571.202 C 999.751 570.821 1004.03 570.513 1007.62 571.491 C 1013.91 573.204 1019.41 577.913 1022.51 583.585 C 1026.76 591.347 1027.16 600.801 1024.56 609.164 C 1021.97 617.473 1016.88 623.252 1009.16 627.071 C 1005.22 627.243 1000.54 627.691 996.7 626.697 C 990.631 625.126 985.357 620.202 982.499 614.748 C 978.262 606.664 977.549 595.947 980.642 587.363 C 983.583 579.199 988.491 574.955 996.073 571.202 z"/>
<path transform="translate(0,0)" fill="rgb(209,209,208)" d="M 984.305 510.503 C 998.374 510.165 1027.36 507.517 1039.14 514.767 C 1041.72 516.357 1043.99 518.681 1044.39 521.824 C 1044.78 524.958 1042.99 529.69 1040.72 531.944 C 1037.8 534.853 1032.89 534.892 1029.07 535.169 C 1015.04 534.823 982.169 538.333 971.488 530.356 C 969.442 528.828 967.948 526.755 967.776 524.139 C 967.584 521.224 969.11 517.654 971.082 515.506 C 974.458 511.829 979.596 510.949 984.305 510.503 z"/>
<path transform="translate(0,0)" fill="rgb(209,209,208)" d="M 803.077 510.252 C 815.449 509.508 844.586 507.543 854.923 513.261 C 857.687 514.79 859.885 517.105 860.407 520.339 C 860.861 523.145 860.141 525.782 858.57 528.104 C 856.087 531.772 850.987 532.953 846.995 533.931 C 833.404 534.611 805.471 537.61 793.653 531.829 C 790.914 530.489 788.402 528.281 787.852 525.126 C 787.425 522.672 787.986 519.781 789.38 517.71 C 792.415 513.201 798.143 511.597 803.077 510.252 z"/>
<path transform="translate(0,0)" fill="rgb(86,88,92)" d="M 864.061 745.57 C 871.013 746.931 878.049 749.919 884.868 751.943 C 900.001 756.434 919.738 758.636 935.266 755.276 C 944.88 753.196 953.901 748.511 963.47 746.538 C 966.686 745.874 967.812 746.473 970.531 748.144 C 971.899 750.436 972.325 751.834 972.006 754.443 C 971.541 758.249 969.784 759.741 966.921 761.868 C 964.608 763.023 962.268 764.045 959.867 765.002 C 934.602 775.068 893.367 775.804 868.508 764.274 C 865.005 762.649 860.583 759.853 859.673 755.782 C 858.759 751.694 861.751 748.522 864.061 745.57 z"/>
<path transform="translate(0,0)" fill="rgb(253,203,142)" d="M 1390.96 983.47 C 1395.28 965.334 1392.01 932.056 1407.78 919.834 C 1413.79 915.173 1421.89 914.34 1429.19 915.628 C 1439.97 917.528 1447.98 923.996 1453.99 932.849 C 1455.01 942.014 1453.55 949.212 1451.55 958.09 C 1454.04 953.339 1456.56 948.387 1460.02 944.26 C 1473.74 927.909 1495.29 921.854 1515.71 919.718 C 1534.23 919.227 1560.23 918.922 1574.77 932.581 C 1582.79 940.119 1586.9 950.236 1586.98 961.184 C 1587.06 971.373 1582.87 980.531 1582.16 990.481 C 1581.49 1000 1585.27 1009.58 1584.89 1019.25 C 1584.48 1029.73 1579.18 1040.49 1576.47 1050.61 C 1573.28 1062.48 1573.4 1084.44 1564.32 1093.55 C 1552.3 1105.62 1531.08 1107.84 1515 1108.77 C 1515.95 1123.09 1519.11 1154.84 1509.71 1165.42 C 1503.42 1172.49 1494.99 1174.13 1486.15 1175.62 C 1481.26 1175.01 1475.75 1174.19 1471.22 1172.26 C 1446.88 1161.86 1460.34 1135.64 1454.13 1119.64 L 1451.05 1118.3 C 1430.79 1117.23 1410.99 1119.43 1390.69 1116.66 C 1386.23 1072.59 1390.94 1027.71 1390.96 983.47 z"/>
<path transform="translate(0,0)" fill="rgb(157,108,62)" d="M 1455.07 1091.31 C 1456.71 1093.69 1458.4 1095.61 1460.67 1097.41 C 1475.43 1109.18 1497.01 1110.65 1515 1108.77 C 1515.95 1123.09 1519.11 1154.84 1509.71 1165.42 C 1503.42 1172.49 1494.99 1174.13 1486.15 1175.62 C 1481.26 1175.01 1475.75 1174.19 1471.22 1172.26 C 1446.88 1161.86 1460.34 1135.64 1454.13 1119.64 L 1451.05 1118.3 L 1454.31 1117.65 C 1457.61 1112.64 1455.25 1097.55 1455.07 1091.31 z"/>
<path transform="translate(0,0)" fill="rgb(239,175,111)" d="M 1497.48 971.279 C 1501.3 970.928 1505.55 970.506 1509.38 970.717 C 1511.33 970.825 1513.55 971.022 1514.96 972.45 C 1512.05 978.095 1493.91 981.257 1487.67 983.689 C 1483.16 985.447 1478.82 987.787 1474.52 990.008 C 1473.07 990.908 1471.61 991.793 1470.14 992.662 C 1467.41 994.247 1466.01 995.064 1462.91 994.251 L 1462.36 992.123 C 1462.9 990.881 1463.41 989.681 1464.18 988.558 C 1471.34 978.103 1485.69 973.72 1497.48 971.279 z"/>
<path transform="translate(0,0)" fill="rgb(239,175,111)" d="M 1507.64 1028.29 C 1510.38 1028.17 1513.49 1028.18 1516.22 1028.48 C 1518.99 1028.79 1520.23 1029.4 1522.01 1031.46 C 1506.21 1035.85 1490.74 1038.78 1475.38 1044.88 C 1472.19 1046.38 1469.5 1047.69 1465.98 1048.07 L 1464.88 1046.82 C 1465.06 1046.49 1465.2 1046.14 1465.41 1045.83 C 1472.63 1035.15 1495.57 1029.99 1507.64 1028.29 z"/>
<path transform="translate(0,0)" fill="rgb(253,203,142)" d="M 1445.16 393.191 C 1455.2 377.325 1463.13 345.93 1477.57 335.087 C 1480.52 332.875 1484.03 331.609 1487.75 332.272 C 1505.1 335.364 1517.51 377.713 1527.15 391.483 C 1527.41 391.853 1527.68 392.217 1527.94 392.583 C 1542.12 394.474 1584.85 394.561 1593.47 402.37 C 1595.62 404.318 1596.6 406.844 1596.69 409.685 C 1597.16 424.312 1562.11 451.458 1552.02 463.191 L 1550.75 464.68 C 1554.05 480.442 1565.5 516.492 1559.71 530.367 C 1558.16 534.079 1555.36 536.965 1551.61 538.454 C 1541.08 542.632 1524.6 535.812 1514.86 531.285 C 1505.79 527.804 1496.97 521.68 1488.46 516.886 C 1476.48 521.527 1464.89 527.172 1453.17 532.436 C 1444.49 536.299 1434.73 540.363 1425.03 539.713 C 1420.49 539.408 1416.29 537.775 1413.29 534.243 C 1410.42 530.868 1409.27 526.209 1409.18 521.863 C 1408.86 506.134 1417.13 480.519 1419.12 463.128 C 1408.59 446.49 1385.36 434.866 1379.76 415.582 C 1378.6 411.578 1378.47 407.062 1380.98 403.512 C 1389 392.117 1431.05 395.122 1445.16 393.191 z"/>
<path transform="translate(0,0)" fill="rgb(157,108,62)" d="M 1453.17 532.436 C 1464.89 527.172 1476.48 521.527 1488.46 516.886 C 1496.97 521.68 1505.79 527.804 1514.86 531.285 C 1516 620.103 1515.12 709.024 1515.15 797.854 L 1515.16 874.618 C 1515.17 889.556 1514.72 904.827 1515.71 919.718 C 1495.29 921.854 1473.74 927.909 1460.02 944.26 C 1456.56 948.387 1454.04 953.339 1451.55 958.09 C 1453.55 949.212 1455.01 942.014 1453.99 932.849 L 1454.17 646.861 L 1454.1 569.044 C 1454.07 557.612 1455.61 543.429 1453.17 532.436 z"/>
</svg>