<svg version="1.1" xmlns="http://www.w3.org/2000/svg" style="display: block;" viewBox="0 0 2048 2048" width="800" height="800" preserveAspectRatio="none">
<defs>
	<linearGradient id="Gradient1" gradientUnits="userSpaceOnUse" x1="750.83" y1="877.113" x2="473.957" y2="888.881">
		<stop class="stop0" offset="0" stop-opacity="1" stop-color="rgb(80,56,42)"/>
		<stop class="stop1" offset="1" stop-opacity="1" stop-color="rgb(111,79,50)"/>
	</linearGradient>
</defs>
<path transform="translate(0,0)" fill="rgb(125,94,132)" d="M 1307.21 565.23 C 1317.27 567.071 1327.51 568.033 1337.39 570.732 C 1373.09 580.48 1420.36 603.349 1445.7 631.312 C 1474.17 657.808 1493.73 686.939 1508.34 722.994 C 1528.04 771.604 1534.71 824.695 1542.58 876.134 C 1551.45 934.089 1558.3 992.334 1563.13 1050.76 C 1566.41 1087.45 1569.6 1124.45 1570.92 1161.25 C 1571.56 1179.18 1578.03 1291.39 1572.17 1297.11 C 1567.48 1301.68 1553.59 1300.05 1547.41 1299.98 C 1547.83 1366.77 1544.09 1436.7 1508.25 1495.37 C 1502.12 1505.4 1495.58 1515.5 1487.24 1523.85 C 1474.4 1536.71 1460.01 1542.86 1442.73 1547.62 C 1445.12 1604.08 1446.2 1660.53 1448.08 1716.99 C 1448.85 1740.11 1455.91 1842.79 1450.84 1857.98 C 1440.02 1863.96 1388.86 1860.48 1373.69 1860.22 C 1368.57 1860.13 1360.69 1859.11 1355.93 1860.82 C 1349.81 1858.59 1162.56 1859.93 1139.59 1860.23 C 1108.5 1860.49 1077.41 1860.52 1046.33 1860.31 C 1000.71 1859.71 955.043 1860.2 909.418 1860.19 C 884.081 1860.18 857.277 1858.45 832.075 1860.75 C 826.369 1859.48 818.842 1860.41 812.892 1860.49 C 795.013 1860.74 748.902 1864.37 734.378 1857.59 C 730.84 1847.09 736.251 1766.25 738.033 1750.74 C 736.811 1735.11 739.489 1718.41 740.214 1702.68 L 742.24 1656.11 C 742.667 1646.26 742.333 1635.76 744.423 1626.1 C 740.676 1623.39 735.999 1621.96 733.097 1618.13 C 730.421 1614.59 729.999 1610.42 729.869 1606.13 C 729.421 1591.27 730.622 1576.34 731.399 1561.52 C 731.995 1550.14 731.906 1538.75 732.464 1527.37 C 733.091 1514.62 734.383 1501.89 734.825 1489.14 C 736.097 1452.41 736.803 1415.59 738.616 1378.9 C 739.417 1362.7 739.385 1345.64 742.263 1329.69 C 742.351 1329.59 742.44 1329.48 742.526 1329.38 C 747.068 1323.79 752.448 1319.61 758.065 1315.15 C 756.088 1295.91 756.821 1276.45 754.803 1257.16 C 738.243 1257.08 722.973 1251.49 709.456 1242.13 C 678.729 1220.85 657.067 1187.23 647.716 1151.2 C 644.796 1139.94 643.634 1128.62 641.453 1117.28 L 641.072 1115.34 C 640.228 1114.87 639.392 1114.39 638.566 1113.89 C 609.022 1096.05 588.492 1071.44 580.221 1037.71 C 577.438 1032.58 528.544 1017.24 519.197 1013.95 C 508.47 1010.39 484.792 1004.78 477.205 996.82 C 473.781 993.227 473.46 985.524 473.223 980.848 C 472.149 959.752 474.905 937.124 476.178 916.054 C 476.863 904.711 476.757 893.351 477.268 882.003 C 478.132 862.857 479.581 843.82 480.096 824.643 C 480.605 794.028 482.613 763.457 486.115 733.038 C 486.547 729.222 486.639 725.704 489.745 723.232 C 503.802 714.132 512.986 704.018 524.919 692.637 C 546.536 672.02 578.721 678.247 605.112 683.879 C 638.72 691.052 681.565 706.956 701.585 736.904 C 702.694 738.572 703.734 740.285 704.7 742.04 C 708.946 737.666 708.975 722.294 711.138 715.724 C 714.023 706.958 719.415 698.306 724.337 690.574 C 752.673 646.057 800.673 618.493 848.107 598.136 C 865.364 590.729 884.314 585.283 900.984 576.883 C 901.331 576.708 901.674 576.525 902.019 576.346 C 915.833 613.436 946.741 644.863 981.786 662.44 C 1042.32 692.802 1129 698.614 1193.06 677.226 C 1235.13 663.177 1269.02 637.023 1291.31 598.441 C 1296.64 589.206 1300.46 579.44 1305.18 569.926 L 1307.21 565.23 z"/>
<path transform="translate(0,0)" fill="rgb(125,94,132)" d="M 902.019 576.346 C 915.833 613.436 946.741 644.863 981.786 662.44 C 1042.32 692.802 1129 698.614 1193.06 677.226 C 1235.13 663.177 1269.02 637.023 1291.31 598.441 C 1296.64 589.206 1300.46 579.44 1305.18 569.926 C 1298.84 601.402 1291.85 633.003 1281.66 663.489 C 1276.26 679.673 1269.41 695.532 1262.85 711.285 C 1214.2 827.986 1141.8 938.081 1060.31 1034.57 C 1023.53 1077.68 984.755 1119.03 944.101 1158.5 C 889.447 1212.41 824.196 1271.38 760.331 1314.22 C 759.846 1314.54 759.356 1314.86 758.868 1315.18 L 758.065 1315.15 C 756.088 1295.91 756.821 1276.45 754.803 1257.16 C 738.243 1257.08 722.973 1251.49 709.456 1242.13 C 678.729 1220.85 657.067 1187.23 647.716 1151.2 C 644.796 1139.94 643.634 1128.62 641.453 1117.28 L 641.072 1115.34 C 640.228 1114.87 639.392 1114.39 638.566 1113.89 C 609.022 1096.05 588.492 1071.44 580.221 1037.71 C 577.438 1032.58 528.544 1017.24 519.197 1013.95 C 508.47 1010.39 484.792 1004.78 477.205 996.82 C 473.781 993.227 473.46 985.524 473.223 980.848 C 472.149 959.752 474.905 937.124 476.178 916.054 C 476.863 904.711 476.757 893.351 477.268 882.003 C 478.132 862.857 479.581 843.82 480.096 824.643 C 480.605 794.028 482.613 763.457 486.115 733.038 C 486.547 729.222 486.639 725.704 489.745 723.232 C 503.802 714.132 512.986 704.018 524.919 692.637 C 546.536 672.02 578.721 678.247 605.112 683.879 C 638.72 691.052 681.565 706.956 701.585 736.904 C 702.694 738.572 703.734 740.285 704.7 742.04 C 708.946 737.666 708.975 722.294 711.138 715.724 C 714.023 706.958 719.415 698.306 724.337 690.574 C 752.673 646.057 800.673 618.493 848.107 598.136 C 865.364 590.729 884.314 585.283 900.984 576.883 C 901.331 576.708 901.674 576.525 902.019 576.346 z"/>
<path transform="translate(0,0)" fill="url(#Gradient1)" d="M 480.096 824.643 C 480.605 794.028 482.613 763.457 486.115 733.038 C 486.547 729.222 486.639 725.704 489.745 723.232 C 493.141 724.287 496.529 725.324 499.961 726.25 C 509.516 726.862 519.661 730.276 528.926 732.699 C 569.479 743.633 609.39 756.82 648.473 772.2 C 664.254 778.496 680.549 789.566 697.675 791.258 C 711.862 792.659 732.97 785.112 748.105 783.457 C 750.453 797.492 740.953 948.415 735.763 956.746 C 743.414 962.494 747.818 966.649 749.317 976.516 C 749.351 976.739 749.378 976.963 749.408 977.186 L 751.349 976.717 C 761.825 974.14 772.487 972.231 782.291 978.209 C 789.162 982.397 792.983 989.341 794.768 997.022 C 799.367 1016.82 795.424 1043.88 790.281 1063.22 C 783.63 1086.48 773.207 1106.08 751.417 1118.33 C 727.045 1132.04 693.92 1133.52 667.44 1125.74 C 658.381 1123.08 649.59 1119.4 641.072 1115.34 C 640.228 1114.87 639.392 1114.39 638.566 1113.89 C 609.022 1096.05 588.492 1071.44 580.221 1037.71 C 577.438 1032.58 528.544 1017.24 519.197 1013.95 C 508.47 1010.39 484.792 1004.78 477.205 996.82 C 473.781 993.227 473.46 985.524 473.223 980.848 C 472.149 959.752 474.905 937.124 476.178 916.054 C 476.863 904.711 476.757 893.351 477.268 882.003 C 478.132 862.857 479.581 843.82 480.096 824.643 z"/>
<path transform="translate(0,0)" fill="rgb(244,194,161)" d="M 617.481 1046.63 C 621.689 1022.66 634.558 970.922 653.905 954.412 C 660.547 948.743 668.924 946.497 677.56 947.446 C 686.004 948.374 690.465 953.059 695.446 959.413 C 697.587 958.041 699.75 956.678 702.058 955.601 C 713.414 950.303 724.566 952.495 735.763 956.746 C 743.414 962.494 747.818 966.649 749.317 976.516 C 749.351 976.739 749.378 976.963 749.408 977.186 L 751.349 976.717 C 761.825 974.14 772.487 972.231 782.291 978.209 C 789.162 982.397 792.983 989.341 794.768 997.022 C 799.367 1016.82 795.424 1043.88 790.281 1063.22 C 783.63 1086.48 773.207 1106.08 751.417 1118.33 C 727.045 1132.04 693.92 1133.52 667.44 1125.74 C 658.381 1123.08 649.59 1119.4 641.072 1115.34 C 640.228 1114.87 639.392 1114.39 638.566 1113.89 C 609.022 1096.05 588.492 1071.44 580.221 1037.71 L 580.955 1036.86 C 586.631 1036.16 609.607 1044.89 617.481 1046.63 z"/>
<path transform="translate(0,0)" fill="rgb(194,142,111)" d="M 749.408 977.186 L 751.349 976.717 C 752.564 982.403 752.32 988.739 751.997 994.521 C 751.245 1007.99 745.083 1059.34 735.706 1067.68 L 734.397 1067.21 C 732.781 1063.84 733.157 1060.85 733.759 1057.26 C 736.179 1042.83 742.26 1028.95 744.883 1014.55 C 747.121 1002.25 746.721 989.38 749.408 977.186 z"/>
<path transform="translate(0,0)" fill="rgb(194,142,111)" d="M 694.2 961.384 C 695.179 962.216 695.904 962.477 696.208 963.794 C 700.305 981.545 688.298 1039.19 679.056 1056.52 C 678.444 1056.52 677.873 1056.21 677.291 1056.01 C 679.594 1024.12 689.171 992.894 694.2 961.384 z"/>
<path transform="translate(0,0)" fill="rgb(100,71,47)" d="M 480.096 824.643 C 480.605 794.028 482.613 763.457 486.115 733.038 C 486.547 729.222 486.639 725.704 489.745 723.232 C 493.141 724.287 496.529 725.324 499.961 726.25 C 499.57 726.433 499.192 726.648 498.787 726.799 C 496.518 727.642 494.356 727.484 491.984 727.43 C 490.033 731.448 490.349 738.73 489.981 743.325 C 489.201 753.052 488.087 762.781 487.635 772.529 C 486.914 788.093 487.891 803.695 483.899 818.899 L 483.879 814.789 C 482.83 818.227 481.857 821.565 481.221 825.105 C 481.048 830.971 481.152 836.73 481.455 842.59 C 482.31 840.412 483.925 824.653 484.474 824.361 C 484.407 864.525 479.573 904.54 477.811 944.641 C 477.263 957.111 475.817 970.441 476.774 982.871 C 477.113 987.281 477.651 991.768 480.803 995.117 C 488.177 1002.95 517.73 1006.21 519.197 1013.95 C 508.47 1010.39 484.792 1004.78 477.205 996.82 C 473.781 993.227 473.46 985.524 473.223 980.848 C 472.149 959.752 474.905 937.124 476.178 916.054 C 476.863 904.711 476.757 893.351 477.268 882.003 C 478.132 862.857 479.581 843.82 480.096 824.643 z"/>
<path transform="translate(0,0)" fill="rgb(100,71,47)" d="M 980.775 761.096 C 988.512 762.321 994.74 764.371 1001.55 768.398 L 984.095 932.519 C 980.931 964.168 979.282 996.929 973.901 1028.26 C 973.048 1033.22 971.92 1039.74 968.706 1043.66 C 952.221 1051.51 888.806 1055.52 867.085 1057.76 C 854.464 1059.06 841.741 1061.2 829.105 1062.03 C 820.772 1062.25 795.766 1067.34 790.281 1063.22 C 795.424 1043.88 799.367 1016.82 794.768 997.022 C 792.983 989.341 789.162 982.397 782.291 978.209 C 772.487 972.231 761.825 974.14 751.349 976.717 L 749.408 977.186 C 749.378 976.963 749.351 976.739 749.317 976.516 C 747.818 966.649 743.414 962.494 735.763 956.746 C 740.953 948.415 750.453 797.492 748.105 783.457 C 754.259 781.986 761.528 781.927 767.853 781.289 L 815.465 776.671 C 870.542 771.203 925.646 766.011 980.775 761.096 z"/>
<path transform="translate(0,0)" fill="rgb(229,220,204)" d="M 489.745 723.232 C 503.802 714.132 512.986 704.018 524.919 692.637 C 546.536 672.02 578.721 678.247 605.112 683.879 C 638.72 691.052 681.565 706.956 701.585 736.904 C 702.694 738.572 703.734 740.285 704.7 742.04 C 705.507 742.165 706.309 742.503 707.121 742.415 C 712.826 741.803 745.247 721.826 757.896 718.367 C 814.687 702.84 885.899 698.074 943.814 708.291 C 953.209 709.948 968.501 711.599 974.811 719.639 C 982.537 729.481 981.284 749.224 980.775 761.096 C 925.646 766.011 870.542 771.203 815.465 776.671 L 767.853 781.289 C 761.528 781.927 754.259 781.986 748.105 783.457 C 732.97 785.112 711.862 792.659 697.675 791.258 C 680.549 789.566 664.254 778.496 648.473 772.2 C 609.39 756.82 569.479 743.633 528.926 732.699 C 519.661 730.276 509.516 726.862 499.961 726.25 C 496.529 725.324 493.141 724.287 489.745 723.232 z"/>
<path transform="translate(0,0)" fill="rgb(105,82,112)" d="M 790.281 1063.22 C 795.766 1067.34 820.772 1062.25 829.105 1062.03 C 829.163 1120.09 832.238 1189.66 787.579 1234.05 C 779.114 1242.54 769.524 1249.83 759.079 1255.72 C 758.537 1269.74 762.218 1305.27 758.868 1315.18 L 758.065 1315.15 C 756.088 1295.91 756.821 1276.45 754.803 1257.16 C 738.243 1257.08 722.973 1251.49 709.456 1242.13 C 678.729 1220.85 657.067 1187.23 647.716 1151.2 C 644.796 1139.94 643.634 1128.62 641.453 1117.28 L 641.072 1115.34 C 649.59 1119.4 658.381 1123.08 667.44 1125.74 C 693.92 1133.52 727.045 1132.04 751.417 1118.33 C 773.207 1106.08 783.63 1086.48 790.281 1063.22 z"/>
<path transform="translate(0,0)" fill="rgb(242,185,67)" d="M 1307.21 565.23 C 1317.27 567.071 1327.51 568.033 1337.39 570.732 C 1373.09 580.48 1420.36 603.349 1445.7 631.312 C 1441.98 757.562 1413.94 881.909 1363.12 997.538 C 1346.42 1036.95 1327.05 1075.17 1305.15 1111.95 C 1246.34 1208.57 1168.24 1297.31 1085.65 1374.25 C 993.821 1459.79 895.418 1538.18 787.142 1602.03 C 775.703 1608.78 756.088 1622.5 744.423 1626.1 C 740.676 1623.39 735.999 1621.96 733.097 1618.13 C 730.421 1614.59 729.999 1610.42 729.869 1606.13 C 729.421 1591.27 730.622 1576.34 731.399 1561.52 C 731.995 1550.14 731.906 1538.75 732.464 1527.37 C 733.091 1514.62 734.383 1501.89 734.825 1489.14 C 736.097 1452.41 736.803 1415.59 738.616 1378.9 C 739.417 1362.7 739.385 1345.64 742.263 1329.69 C 742.351 1329.59 742.44 1329.48 742.526 1329.38 C 747.068 1323.79 752.448 1319.61 758.065 1315.15 L 758.868 1315.18 C 759.356 1314.86 759.846 1314.54 760.331 1314.22 C 824.196 1271.38 889.447 1212.41 944.101 1158.5 C 984.755 1119.03 1023.53 1077.68 1060.31 1034.57 C 1141.8 938.081 1214.2 827.986 1262.85 711.285 C 1269.41 695.532 1276.26 679.673 1281.66 663.489 C 1291.85 633.003 1298.84 601.402 1305.18 569.926 L 1307.21 565.23 z"/>
<path transform="translate(0,0)" fill="rgb(244,194,161)" d="M 1435.87 1299.31 L 1547.41 1299.98 C 1547.83 1366.77 1544.09 1436.7 1508.25 1495.37 C 1502.12 1505.4 1495.58 1515.5 1487.24 1523.85 C 1474.4 1536.71 1460.01 1542.86 1442.73 1547.62 C 1441.13 1538.79 1441.94 1528.39 1441.6 1519.36 C 1440.65 1496.94 1439.93 1474.52 1439.47 1452.09 C 1438.42 1401.14 1435.94 1350.29 1435.87 1299.31 z"/>
<path transform="translate(0,0)" fill="rgb(194,142,111)" d="M 1483.76 1388.21 L 1486.84 1389.38 C 1490.92 1397.77 1483.95 1429.62 1481.12 1438.71 C 1475.35 1457.17 1465.25 1467.82 1448.32 1476.64 L 1447.05 1476.75 L 1446.79 1475.41 C 1476.33 1448.11 1474.2 1425.44 1483.44 1389.43 L 1483.76 1388.21 z"/>
<path transform="translate(0,0)" fill="rgb(105,82,112)" d="M 738.033 1750.74 C 743.223 1760.82 736.013 1837.91 736.701 1854.94 L 734.378 1857.59 C 730.84 1847.09 736.251 1766.25 738.033 1750.74 z"/>
<path transform="translate(0,0)" fill="rgb(229,220,204)" d="M 861.512 246.043 C 859.855 210.959 870.541 161.946 886.661 130.929 C 895.095 114.698 906.29 100.088 918.564 86.5988 C 929.005 75.1248 940.103 64.0379 952.692 54.9178 C 990.75 27.3466 1041.35 12.9603 1087.88 10.996 C 1155.08 8.15992 1226.65 25.6841 1277.16 72.2358 C 1322.49 114.013 1346.57 165.172 1348.9 226.788 C 1349.1 233.436 1349.18 240.086 1349.16 246.737 C 1352.14 246.901 1354.97 246.449 1357.27 248.751 C 1362.85 254.36 1360.84 278.233 1359.5 286.259 C 1359.38 286.986 1359.18 287.7 1359.01 288.417 C 1359.37 288.725 1359.73 289.039 1360.1 289.343 C 1365.07 293.468 1371.67 295.909 1377 299.708 C 1388.44 307.867 1396.12 324.744 1397.74 338.538 C 1399.64 354.723 1394.34 372.461 1384.05 385.07 C 1371.01 401.03 1354.31 406.778 1334.69 410.271 C 1334.29 461.997 1324.54 516.564 1307.21 565.23 L 1305.18 569.926 C 1300.46 579.44 1296.64 589.206 1291.31 598.441 C 1269.02 637.023 1235.13 663.177 1193.06 677.226 C 1129 698.614 1042.32 692.802 981.786 662.44 C 946.741 644.863 915.833 613.436 902.019 576.346 C 881.418 527.114 876.109 463.385 875.479 410.484 C 866.764 410.304 857.51 408.054 849.417 404.848 C 833.725 398.631 821.372 387.162 814.722 371.568 C 807.962 355.719 807.306 337.031 813.905 321.017 C 821.575 302.401 835.456 294.467 853.165 287.04 C 852.486 284.632 851.959 282.183 851.589 279.708 C 850.325 270.819 847.738 255.637 853.375 247.941 C 856.153 246.247 858.372 246.203 861.512 246.043 z"/>
<path transform="translate(0,0)" fill="rgb(244,194,161)" d="M 861.512 246.043 C 859.855 210.959 870.541 161.946 886.661 130.929 C 895.095 114.698 906.29 100.088 918.564 86.5988 C 929.005 75.1248 940.103 64.0379 952.692 54.9178 C 990.75 27.3466 1041.35 12.9603 1087.88 10.996 C 1155.08 8.15992 1226.65 25.6841 1277.16 72.2358 C 1322.49 114.013 1346.57 165.172 1348.9 226.788 C 1349.1 233.436 1349.18 240.086 1349.16 246.737 C 1346.68 248.44 1343.78 250.228 1341.73 252.437 C 1333.95 260.803 1332.97 276.629 1322.58 282.767 C 1317.41 285.821 1310.78 283.268 1306.07 285.811 C 1298.61 286.508 1290.71 285.929 1283.2 285.882 C 1281.44 274.097 1277.67 262.71 1271.2 252.651 C 1260.41 235.885 1242.33 223.729 1222.88 219.544 C 1203.45 215.558 1183.24 219.43 1166.65 230.313 C 1145.73 243.858 1135.74 262.155 1130.7 285.98 C 1114.08 284.38 1096.95 284.631 1080.33 286.011 C 1077.71 275.058 1074.44 264.618 1068.44 255.001 C 1057.45 237.387 1040.37 224.48 1020.07 219.84 C 1000.13 215.283 979.761 219.185 962.564 230.147 C 941.542 243.548 933.014 262.475 927.694 286.046 C 920.864 286.094 914.034 286.007 907.208 285.786 C 902.843 281.965 892.644 281.298 886.901 280.225 C 876.196 262.41 877.606 260.979 861.512 246.043 z"/>
<path transform="translate(0,0)" fill="rgb(33,32,33)" d="M 927.694 286.046 C 933.014 262.475 941.542 243.548 962.564 230.147 C 979.761 219.185 1000.13 215.283 1020.07 219.84 C 1040.37 224.48 1057.45 237.387 1068.44 255.001 C 1074.44 264.618 1077.71 275.058 1080.33 286.011 C 1096.95 284.631 1114.08 284.38 1130.7 285.98 C 1135.74 262.155 1145.73 243.858 1166.65 230.313 C 1183.24 219.43 1203.45 215.558 1222.88 219.544 C 1242.33 223.729 1260.41 235.885 1271.2 252.651 C 1277.67 262.71 1281.44 274.097 1283.2 285.882 C 1290.71 285.929 1298.61 286.508 1306.07 285.811 C 1305.96 290.392 1306.68 297.168 1304.78 301.306 C 1298.3 302.135 1291.48 301.857 1284.94 301.937 C 1282.68 317.855 1279.02 331.411 1269.43 344.612 C 1257.18 361.485 1238.58 371.864 1218.09 375.001 C 1197.58 378.216 1176.63 372.983 1160.04 360.496 C 1140.16 345.614 1132.06 325.264 1128.67 301.429 C 1113.05 300.743 1097.26 301.282 1081.63 301.372 C 1078.61 318.221 1073.55 334.156 1062.33 347.43 C 1048.66 363.833 1028.89 373.945 1007.59 375.427 C 988.305 376.867 968.075 369.964 953.507 357.271 C 936.741 342.663 929.399 323.589 927.816 301.873 C 922.154 301.947 911.23 303.46 906.383 300.945 C 906.284 295.859 906.768 290.846 907.208 285.786 C 914.034 286.007 920.864 286.094 927.694 286.046 z"/>
<path transform="translate(0,0)" fill="rgb(229,220,204)" d="M 1195 237.136 C 1228.23 230.465 1260.54 252.091 1267.03 285.349 C 1273.53 318.606 1251.74 350.803 1218.45 357.128 C 1185.4 363.408 1153.49 341.808 1147.04 308.794 C 1140.59 275.78 1162.02 243.757 1195 237.136 z"/>
<path transform="translate(0,0)" fill="rgb(33,32,33)" d="M 1198.7 273.799 C 1207.31 271.182 1216.65 273.404 1223.16 279.612 C 1229.67 285.821 1232.32 295.053 1230.11 303.77 C 1227.9 312.487 1221.16 319.336 1212.48 321.692 C 1199.34 325.26 1185.77 317.619 1182.01 304.533 C 1178.24 291.447 1185.68 277.762 1198.7 273.799 z"/>
<path transform="translate(0,0)" fill="rgb(229,220,204)" d="M 993.088 237.005 C 1026.29 231.121 1057.94 253.407 1063.59 286.655 C 1069.24 319.902 1046.73 351.388 1013.44 356.8 C 980.485 362.159 949.38 339.923 943.788 307.006 C 938.197 274.09 960.213 242.829 993.088 237.005 z"/>
<path transform="translate(0,0)" fill="rgb(33,32,33)" d="M 996.343 273.729 C 1001.56 271.971 1007.22 271.998 1012.42 273.805 C 1022.41 277.274 1029.1 286.69 1029.1 297.265 C 1029.1 307.839 1022.4 317.253 1012.41 320.719 C 999.412 325.23 985.225 318.312 980.774 305.294 C 976.323 292.276 983.305 278.121 996.343 273.729 z"/>
<path transform="translate(0,0)" fill="rgb(244,194,161)" d="M 906.383 300.945 C 911.23 303.46 922.154 301.947 927.816 301.873 C 929.399 323.589 936.741 342.663 953.507 357.271 C 968.075 369.964 988.305 376.867 1007.59 375.427 C 1028.89 373.945 1048.66 363.833 1062.33 347.43 C 1073.55 334.156 1078.61 318.221 1081.63 301.372 C 1097.26 301.282 1113.05 300.743 1128.67 301.429 C 1132.06 325.264 1140.16 345.614 1160.04 360.496 C 1176.63 372.983 1197.58 378.216 1218.09 375.001 C 1238.58 371.864 1257.18 361.485 1269.43 344.612 C 1279.02 331.411 1282.68 317.855 1284.94 301.937 C 1291.48 301.857 1298.3 302.135 1304.78 301.306 C 1304.57 301.63 1304.33 301.933 1304.16 302.278 C 1302.08 306.562 1302.19 314.799 1301.87 319.725 C 1298.85 366.465 1312.05 410.16 1258.59 432.935 C 1235.38 442.821 1211.86 446.028 1188.17 436.25 C 1180.37 433.029 1172.79 428.741 1164.82 426.029 C 1154.34 422.462 1145.79 426.681 1139.27 415.206 C 1138.45 415.859 1137.64 416.519 1136.79 417.129 C 1121.47 428.172 1103.36 430.99 1084.95 428.152 C 1071.19 426.031 1061.41 420.283 1053.24 409.191 C 1052.24 411.257 1052.42 410.299 1052.39 412.423 C 1052.37 413.962 1052.25 415.032 1051.88 416.513 C 1045.8 420.114 1038.92 422.526 1032.38 425.194 C 1014.03 432.682 998.006 439.002 977.793 437.49 C 958.079 436.014 939.156 425.353 926.42 410.382 C 908.791 389.66 907.997 363.806 906.761 337.977 C 906.174 325.694 905.402 313.221 906.383 300.945 z"/>
<path transform="translate(0,0)" fill="rgb(194,142,111)" d="M 1053.24 409.191 C 1048.5 394.477 1054.11 371.99 1061.08 358.445 C 1066.06 348.782 1073.44 340.605 1079.63 331.726 C 1075.57 351.423 1059.72 385.009 1071.09 403.176 C 1075.29 409.886 1082.82 414.325 1090.51 415.819 C 1099.79 417.623 1116.73 414.311 1124.48 408.558 C 1130.27 404.26 1139.37 384.282 1144.97 384.562 C 1147.53 388.596 1147.19 397.028 1146.09 401.567 C 1144.92 406.428 1142.18 411.178 1139.27 415.206 C 1138.45 415.859 1137.64 416.519 1136.79 417.129 C 1121.47 428.172 1103.36 430.99 1084.95 428.152 C 1071.19 426.031 1061.41 420.283 1053.24 409.191 z"/>
<path transform="translate(0,0)" fill="rgb(244,194,161)" d="M 853.165 287.04 C 863.809 286.871 872.577 290.149 881.392 295.903 C 882.67 312.461 877.709 330.949 876.523 347.697 C 875.046 368.566 875.906 389.579 875.479 410.484 C 866.764 410.304 857.51 408.054 849.417 404.848 C 833.725 398.631 821.372 387.162 814.722 371.568 C 807.962 355.719 807.306 337.031 813.905 321.017 C 821.575 302.401 835.456 294.467 853.165 287.04 z"/>
<path transform="translate(0,0)" fill="rgb(244,194,161)" d="M 1330.4 290.384 C 1340.01 288.942 1349.28 287.488 1359.01 288.417 C 1359.37 288.725 1359.73 289.039 1360.1 289.343 C 1365.07 293.468 1371.67 295.909 1377 299.708 C 1388.44 307.867 1396.12 324.744 1397.74 338.538 C 1399.64 354.723 1394.34 372.461 1384.05 385.07 C 1371.01 401.03 1354.31 406.778 1334.69 410.271 C 1335.52 370.074 1331.42 330.503 1330.4 290.384 z"/>
<path transform="translate(0,0)" fill="rgb(194,142,111)" d="M 1045.53 469.989 C 1061.03 472.036 1076.61 490.398 1099.83 492.729 C 1133.34 496.091 1149.89 471.712 1163.93 471.382 C 1165.48 471.345 1165.6 472.043 1166.57 473.072 C 1167.42 478.332 1164.96 483.158 1162.22 487.457 C 1155.95 494.145 1149.35 499.915 1141.3 504.405 C 1123.01 514.379 1101.48 516.589 1081.54 510.539 C 1068.85 506.739 1053.81 497.573 1047.72 485.428 C 1045.18 480.355 1043.68 475.483 1045.53 469.989 z"/>
<path transform="translate(0,0)" fill="rgb(81,61,64)" d="M 1139.59 1860.23 C 1162.56 1859.93 1349.81 1858.59 1355.93 1860.82 C 1357.59 1879.85 1357.46 1899.9 1356.75 1919.02 C 1392.64 1931.23 1423.55 1950.86 1446.11 1981.78 C 1454.17 1992.83 1464.11 2011.58 1461.48 2025.67 C 1460.27 2032.18 1457.54 2034.84 1452.33 2038.65 C 1451.56 2038.78 1450.79 2038.9 1450.02 2039 C 1433.6 2041.14 1415.81 2039.92 1399.22 2039.91 L 1306.57 2039.86 L 1204.15 2039.95 C 1186.95 2039.96 1168.63 2041.25 1151.59 2039.45 C 1148.98 2039.18 1145.15 2037.32 1143.34 2035.34 C 1140.83 2032.58 1140.45 2025.99 1140.14 2022.32 C 1138.79 2006.46 1139.83 1989.71 1139.82 1973.76 C 1139.81 1954.69 1139.01 1935.35 1139.6 1916.31 C 1140.46 1897.73 1139.66 1878.84 1139.59 1860.23 z"/>
<path transform="translate(0,0)" fill="rgb(244,194,161)" d="M 1139.59 1860.23 C 1162.56 1859.93 1349.81 1858.59 1355.93 1860.82 C 1357.59 1879.85 1357.46 1899.9 1356.75 1919.02 C 1335.19 1917.32 1313.32 1918.02 1291.7 1918.01 L 1190.01 1918.02 C 1173.9 1918.03 1156.68 1919.38 1140.69 1918.08 L 1139.6 1916.31 C 1140.46 1897.73 1139.66 1878.84 1139.59 1860.23 z"/>
<path transform="translate(0,0)" fill="rgb(81,61,64)" d="M 832.075 1860.75 C 857.277 1858.45 884.081 1860.18 909.418 1860.19 C 955.043 1860.2 1000.71 1859.71 1046.33 1860.31 C 1046.39 1879.67 1047.81 1899.82 1046.22 1919.09 C 1045.66 1940.12 1046.41 1961.35 1046.58 1982.39 C 1046.68 1994.13 1049.72 2029.49 1041.28 2038.07 C 1026.8 2041.44 1010.11 2039.92 995.305 2039.91 L 933.808 2039.87 L 810.39 2039.89 C 788.859 2039.89 767.129 2040.48 745.618 2039.7 C 741.646 2039.55 737.929 2039.02 734.086 2038 C 730.662 2034.69 727.423 2031.72 725.894 2027.09 C 722.069 2015.49 728.952 2000.48 734.504 1990.31 C 753.73 1955.07 793.19 1929.88 830.904 1918.84 L 832.075 1860.75 z"/>
<path transform="translate(0,0)" fill="rgb(244,194,161)" d="M 832.075 1860.75 C 857.277 1858.45 884.081 1860.18 909.418 1860.19 C 955.043 1860.2 1000.71 1859.71 1046.33 1860.31 C 1046.39 1879.67 1047.81 1899.82 1046.22 1919.09 C 1010.78 1917.45 975.211 1918.09 939.741 1918.04 C 903.507 1917.98 867.104 1917.28 830.904 1918.84 L 832.075 1860.75 z"/>
</svg>