<svg version="1.1" xmlns="http://www.w3.org/2000/svg" style="display: block;" viewBox="0 0 2048 2048" width="800" height="800" preserveAspectRatio="none">
<path transform="translate(0,0)" fill="rgb(94,164,174)" d="M 540.542 1292.81 C 537.712 1287.96 525.752 1290.11 520.701 1284.69 C 514.803 1278.35 516.062 1260.66 516.118 1252.37 C 517.172 1096.29 526.531 861.409 596.281 721.238 C 610.009 693.651 627.177 668.67 649.233 647.043 C 708.845 588.586 783.133 582.609 862.04 583.124 C 864.636 615.068 872.222 640.551 897.366 662.143 C 918.924 680.656 945.327 688.511 973.501 686.224 C 1001.16 683.978 1026.02 670.322 1043.73 649.038 C 1059.26 630.367 1066 607.161 1066.37 583.107 C 1147.06 584.825 1224.19 592.28 1283.63 654.005 C 1308.25 679.565 1321.17 703.065 1332.01 736.399 C 1333.98 732.784 1335.94 729.141 1338.37 725.806 C 1353.39 705.121 1378.53 702.199 1401.97 698.5 C 1409.81 698.066 1417.67 698.501 1425.42 699.797 C 1449.47 705.876 1480.32 710.133 1494.4 733.434 C 1499.41 741.725 1501 750.522 1502.26 759.96 C 1503.5 773.395 1500.26 789.542 1503.46 802.38 C 1515.97 811.52 1522.06 826.173 1524.43 841.035 C 1528.73 867.983 1522.19 902.088 1505.88 924.337 C 1502.98 928.294 1499.38 933.134 1495.78 936.444 C 1478.31 1005.6 1446.28 1080.55 1382.8 1118.64 C 1350.04 1138.29 1308.92 1145.67 1271.69 1136.04 C 1259.12 1132.84 1247.08 1127.86 1235.91 1121.27 C 1239.2 1137.8 1237.67 1168.68 1237.94 1186.66 C 1238.36 1214.37 1240.26 1242.49 1239.13 1270.16 C 1238.93 1274.9 1238.73 1282.65 1236.33 1286.67 C 1232.13 1293.72 1224.23 1294.56 1216.9 1296.2 C 1164.5 1299.14 1111.37 1297.42 1058.9 1297.39 L 800.489 1297.29 C 766.007 1297.22 730.918 1295.51 696.512 1296.88 L 672.834 1295.67 C 657.893 1293.34 554.221 1288.4 541.709 1290.54 L 540.542 1292.81 z"/>
<path transform="translate(0,0)" fill="rgb(251,205,172)" d="M 1401.97 698.5 C 1409.81 698.066 1417.67 698.501 1425.42 699.797 C 1449.47 705.876 1480.32 710.133 1494.4 733.434 C 1499.41 741.725 1501 750.522 1502.26 759.96 C 1503.5 773.395 1500.26 789.542 1503.46 802.38 C 1515.97 811.52 1522.06 826.173 1524.43 841.035 C 1528.73 867.983 1522.19 902.088 1505.88 924.337 C 1502.98 928.294 1499.38 933.134 1495.78 936.444 C 1483.47 945.155 1472.45 951.453 1457.43 954.318 C 1434.06 958.775 1405.28 953.446 1385.72 939.595 C 1379.8 935.404 1375.09 929.72 1374.11 922.335 C 1372.28 908.387 1384.12 897.143 1392.2 887.209 C 1385.96 887.939 1380.16 886.5 1374.12 885.2 C 1365.65 882.222 1359.24 877.956 1352.41 872.231 C 1350.48 870.274 1348.55 868.304 1346.75 866.219 C 1323.46 839.149 1322.71 796.775 1325.13 763.12 C 1327.13 754.141 1329.43 745.23 1332.01 736.399 C 1333.98 732.784 1335.94 729.141 1338.37 725.806 C 1353.39 705.121 1378.53 702.199 1401.97 698.5 z"/>
<path transform="translate(0,0)" fill="rgb(223,145,95)" d="M 1401.97 698.5 C 1409.81 698.066 1417.67 698.501 1425.42 699.797 C 1449.47 705.876 1480.32 710.133 1494.4 733.434 C 1499.41 741.725 1501 750.522 1502.26 759.96 C 1443.08 757.764 1384.25 762.126 1325.13 763.12 C 1327.13 754.141 1329.43 745.23 1332.01 736.399 C 1333.98 732.784 1335.94 729.141 1338.37 725.806 C 1353.39 705.121 1378.53 702.199 1401.97 698.5 z"/>
<path transform="translate(0,0)" fill="rgb(78,143,157)" d="M 1352.41 872.231 C 1359.24 877.956 1365.65 882.222 1374.12 885.2 C 1358.44 897.536 1317.5 955.141 1304.97 958.948 C 1301.84 959.9 1298.19 958.761 1295.5 957.052 C 1292.47 955.126 1289.95 951.366 1289.47 947.769 C 1289.19 945.616 1289.45 944.391 1290.46 942.465 C 1294.73 934.31 1304.12 926.161 1310.45 919.32 C 1324.25 904.406 1339.02 889.614 1351.42 873.535 L 1352.41 872.231 z"/>
<path transform="translate(0,0)" fill="rgb(78,143,157)" d="M 714.207 819.951 C 715.742 819.99 717.377 820.022 718.872 820.404 C 722.149 821.24 725.466 823.782 727.171 826.691 C 729.939 831.415 729.016 837.865 728.77 843.115 C 727.675 866.521 725.022 889.877 723.49 913.265 L 711.352 1106.29 C 709.375 1145.38 706.998 1184.45 704.219 1223.49 C 703.238 1237.38 703.917 1254.21 700.171 1267.51 C 698.989 1271.7 696.172 1273.39 692.531 1275.35 C 689.995 1275.23 687.497 1275.07 685.058 1274.29 C 682.321 1273.42 679.284 1270.71 678.196 1267.95 C 676.508 1263.68 677.13 1257.54 677.25 1253.02 C 678.651 1200.15 683.704 1147.11 686.886 1094.31 C 690.612 1020.54 695.315 946.835 700.995 873.198 C 701.862 862.801 702.892 833.518 706.572 825.332 C 707.902 822.372 711.436 821.175 714.207 819.951 z"/>
<path transform="translate(0,0)" fill="rgb(78,143,157)" d="M 1196.19 815.17 C 1196.96 815.403 1197.74 815.624 1198.5 815.891 C 1202.67 817.342 1205.26 820.036 1207.05 824.032 C 1212.01 835.079 1213.68 873.183 1215.25 887.049 L 1225.73 975.935 C 1227.96 994.845 1231.4 1013.65 1233.18 1032.6 C 1233.64 1037.57 1235.74 1049.47 1233.3 1053.89 C 1231.31 1057.49 1226.01 1059.36 1222.5 1060.92 C 1220.53 1060.32 1218.46 1059.69 1216.61 1058.78 C 1213.15 1057.1 1211 1054.03 1210.08 1050.37 C 1207.28 1039.19 1206.69 1026.2 1205.14 1014.74 C 1200.92 984.394 1197.24 953.974 1194.09 923.496 C 1190.83 893.101 1185.5 861.984 1184.13 831.524 C 1183.96 827.825 1183.43 823.725 1185.78 820.577 C 1188.33 817.171 1192.25 816.079 1196.19 815.17 z"/>
<path transform="translate(0,0)" fill="rgb(220,87,90)" d="M 1216.9 1296.2 C 1214.87 1315.26 1215.95 1335.12 1215.94 1354.3 L 1215.95 1454.61 L 1215.92 1780.13 L 1216.03 1863.05 C 1216.05 1876.88 1217.1 1891.53 1215.71 1905.26 C 1215.45 1907.82 1214.83 1909.91 1212.89 1911.75 C 1211.76 1912.82 1210.42 1913.38 1209.01 1913.96 C 1216.16 1920.75 1225.17 1926.2 1233.2 1931.93 C 1253.33 1946.3 1287.93 1969.89 1303.5 1988.19 C 1309.19 1994.86 1313.2 2002.99 1312.14 2011.97 C 1311.54 2017.1 1309.21 2022.35 1305.11 2025.59 C 1299.92 2029.69 1293.81 2031.38 1287.35 2031.95 C 1270.96 2033.4 1253.85 2032.38 1237.36 2032.37 L 1145.17 2032.42 C 1110.09 2032.59 1075.01 2032.57 1039.93 2032.36 C 1023.51 2032.35 1003.6 2034.11 987.59 2031.67 C 982.255 2030.85 975.594 2028.16 972.451 2023.56 C 969.495 2019.24 968.559 2012.69 968.041 2007.61 C 966.706 1994.52 966.886 1925.04 969.147 1913.29 L 944.175 1913.34 C 944.965 1931 944.399 1948.8 944.362 1966.49 C 944.334 1980.36 945.012 1994.7 943.968 2008.53 C 943.459 2015.27 942.311 2022.28 936.844 2026.75 C 933.825 2029.22 930.35 2031.33 926.408 2031.78 C 908.583 2033.8 889.486 2032.55 871.546 2032.53 L 771.04 2032.38 L 677.521 2032.57 C 659.944 2032.63 641.474 2033.75 623.99 2032 C 617.443 2031.34 611.256 2028.72 607.202 2023.3 C 602.839 2017.46 601.468 2009.13 602.925 2002.07 C 607.187 1981.43 685.893 1926.81 705.14 1913.63 C 703.302 1912.52 701.073 1911.41 699.494 1909.96 C 696.719 1907.42 696.632 1903.24 696.439 1899.74 C 695.39 1880.73 696.326 1861.32 696.305 1842.26 L 696.243 1725.08 L 696.234 1396 C 696.176 1362.97 696.924 1329.91 696.512 1296.88 C 730.918 1295.51 766.007 1297.22 800.489 1297.29 L 1058.9 1297.39 C 1111.37 1297.42 1164.5 1299.14 1216.9 1296.2 z"/>
<path transform="translate(0,0)" fill="rgb(251,205,172)" d="M 738.567 282.498 C 727.807 255.183 727.461 201.881 731.553 172.883 C 733.648 157.186 737.812 141.836 743.937 127.232 C 754.06 103.65 771.409 85.682 795.501 76.2442 C 803.931 72.9419 813.595 71.458 821.39 66.8201 C 826.764 63.6228 830.378 58.1998 834.981 54.0554 C 843.551 46.3401 854.628 39.6354 864.738 34.1242 C 928.962 -0.887112 1015.18 -0.380719 1081.25 29.1616 C 1124.43 48.4687 1164.56 81.2732 1181.45 126.66 C 1196.29 166.522 1195.71 218.03 1190.67 259.93 C 1189.72 267.824 1189.35 277.522 1186.1 284.76 C 1196.6 286.391 1205.56 290.308 1212 299.082 C 1222.26 313.059 1222.14 332.481 1219.24 348.814 C 1213.41 381.638 1197.56 415.99 1169.46 435.456 C 1159.2 442.562 1149.35 446.016 1137.15 448.356 C 1127.33 489.896 1099.46 523.605 1068.05 550.972 C 1067.76 561.34 1065.85 572.878 1066.37 583.107 C 1066 607.161 1059.26 630.367 1043.73 649.038 C 1026.02 670.322 1001.16 683.978 973.501 686.224 C 945.327 688.511 918.924 680.656 897.366 662.143 C 872.222 640.551 864.636 615.068 862.04 583.124 C 860.996 571.517 860.664 560.4 862.42 548.842 C 830.584 521.059 809.344 488.931 796.122 448.767 C 788.34 447.113 780.248 445.431 772.872 442.376 C 750.594 433.15 731.517 407.648 722.568 385.955 C 713.313 363.519 703.569 327.389 713.976 303.963 C 719.105 292.42 727.266 286.916 738.567 282.498 z"/>
<path transform="translate(0,0)" fill="rgb(223,167,76)" d="M 738.567 282.498 C 727.807 255.183 727.461 201.881 731.553 172.883 C 733.648 157.186 737.812 141.836 743.937 127.232 C 754.06 103.65 771.409 85.682 795.501 76.2442 C 803.931 72.9419 813.595 71.458 821.39 66.8201 C 826.764 63.6228 830.378 58.1998 834.981 54.0554 C 843.551 46.3401 854.628 39.6354 864.738 34.1242 C 928.962 -0.887112 1015.18 -0.380719 1081.25 29.1616 C 1124.43 48.4687 1164.56 81.2732 1181.45 126.66 C 1196.29 166.522 1195.71 218.03 1190.67 259.93 C 1189.72 267.824 1189.35 277.522 1186.1 284.76 C 1184.23 284.956 1182.37 285.208 1180.51 285.516 C 1157.17 289.507 1153.25 302.274 1147.45 322.865 C 1146.81 325.149 1146.06 328.697 1144.34 330.451 C 1142.38 332.447 1141.76 332.205 1139.19 332.024 C 1137.29 330.008 1136.69 328.805 1136.51 325.977 C 1136.05 318.562 1137.32 310.218 1137.64 302.725 C 1138.9 273.036 1142.26 236.748 1132.87 208.431 C 1128.11 194.063 1118.46 182.189 1104.66 175.62 C 1074.13 161.084 1039.06 180.197 1008.44 185.51 C 981.929 190.11 956.356 189.668 930.372 182.623 C 920.792 180.026 911.624 176.604 902.498 172.724 C 885.016 165.291 864.096 152.877 844.755 160.166 C 831.575 165.134 822.691 175.044 815.349 186.657 C 792.213 223.249 795.115 266.781 797.099 308.146 C 797.386 314.125 799.145 324.615 796.724 329.96 C 794.739 331.508 793.461 331.54 790.991 331.693 C 783.255 327.999 782.3 304.975 773.472 294.781 C 764.622 284.562 751.15 283.352 738.567 282.498 z"/>
<path transform="translate(0,0)" fill="rgb(60,56,56)" d="M 1025.3 452.844 C 1027.24 453.361 1029 453.789 1030.69 454.939 C 1032.77 456.357 1034.18 458.405 1034.42 460.953 C 1034.94 466.701 1030.03 472.738 1026.39 476.612 C 1010.74 493.123 989.13 502.667 966.389 503.106 C 941.386 503.346 921.836 492.272 904.466 475.009 C 900.567 469.977 897.684 466.543 898.491 459.754 C 898.818 457.001 899.529 455.979 901.587 454.24 C 912.38 452.661 933.782 475.899 948.298 481.117 C 969.087 488.589 989.774 482.482 1005.84 468.225 C 1011.54 463.163 1017.44 456.396 1024.44 453.212 C 1024.73 453.082 1025.02 452.967 1025.3 452.844 z"/>
<path transform="translate(0,0)" fill="rgb(220,87,90)" d="M 961.957 328.939 C 966.462 328.861 970.765 329.303 974.361 332.324 C 978.216 335.561 979.106 339.641 979.42 344.442 C 979.849 351.013 979.115 357.778 979.155 364.38 C 979.242 378.925 982.507 400.361 971.456 411.636 C 965.54 417.672 958.284 418.428 950.276 418.275 C 948.201 417.491 946.066 416.707 944.108 415.661 C 939.893 413.409 934.869 409.08 934.003 404.085 C 933.525 401.325 934.093 398.905 935.642 396.589 C 939.375 391.007 946.167 390.81 952.186 389.868 C 954.65 373.788 949.521 356.589 953.089 340.916 C 954.431 335.021 956.936 332.125 961.957 328.939 z"/>
<path transform="translate(0,0)" fill="rgb(223,145,95)" d="M 1176.01 332.836 C 1177.86 332.819 1179.66 332.984 1181.5 333.118 C 1183.08 334.006 1184.52 334.739 1185.5 336.354 C 1188.45 341.226 1186.61 348.642 1185.3 353.765 C 1181.43 368.927 1176.72 383.602 1162.57 391.993 C 1159.56 392.009 1156.36 392.236 1154.11 389.833 C 1151.83 387.387 1151.28 383.964 1151.44 380.749 C 1152.12 366.937 1165.8 341.847 1176.01 332.836 z"/>
<path transform="translate(0,0)" fill="rgb(60,56,56)" d="M 876.038 258.174 C 889.138 257.232 903.14 257.899 915.133 263.915 C 918.857 265.782 921.058 267.573 922.416 271.605 C 922.287 274.705 921.842 275.939 920.289 278.497 C 913.962 281.704 902.307 277.387 895.477 275.818 C 882.102 273.882 870.508 278.762 857.42 279.105 C 853.507 279.208 850.105 278.933 847.218 276.071 C 846.992 274.014 846.939 273.465 848.071 271.611 C 853.539 262.661 866.593 260.248 876.038 258.174 z"/>
<path transform="translate(0,0)" fill="rgb(60,56,56)" d="M 1041.14 258.238 C 1045.29 257.933 1049.44 257.667 1053.6 257.763 C 1064.05 258.004 1078.68 260.111 1085.75 268.542 C 1087.42 270.531 1087.83 271.76 1087.73 274.295 C 1087.05 275.142 1086.55 275.854 1085.61 276.49 C 1078.92 280.994 1066.43 276.809 1059.22 275.176 C 1045.8 273.749 1033.11 280.394 1020 279.001 C 1016.73 278.654 1015.12 277.771 1013.03 275.288 C 1012.94 273.229 1013.5 271.981 1014.71 270.308 C 1020.59 262.152 1031.88 260.029 1041.14 258.238 z"/>
<path transform="translate(0,0)" fill="rgb(223,145,95)" d="M 751.152 332.402 C 754.807 332.601 757.017 333.047 759.754 335.796 C 765.297 341.366 779.842 375.238 778.693 382.936 C 778.222 386.09 775.925 387.543 773.585 389.356 C 772.467 389.707 771.112 390.169 769.953 390.391 C 767.163 390.925 765.17 390.232 762.922 388.612 C 753.961 382.156 749.467 365.72 747.745 355.18 C 746.353 346.657 745.941 339.614 751.152 332.402 z"/>
<path transform="translate(0,0)" fill="rgb(60,56,56)" d="M 1053.01 311.227 C 1056.32 311.516 1059.96 311.769 1062.71 313.842 C 1067.52 317.466 1070.23 323.593 1071.03 329.424 C 1071.92 335.978 1070.87 343.115 1066.72 348.447 C 1063.44 352.655 1060.1 353.07 1055 353.812 C 1052.61 353.649 1049.62 353.642 1047.46 352.484 C 1043.43 350.315 1040.86 346.632 1039.45 342.326 C 1037.13 335.235 1037.92 326.736 1041.39 320.148 C 1044.16 314.89 1047.45 312.854 1053.01 311.227 z"/>
<path transform="translate(0,0)" fill="rgb(60,56,56)" d="M 879.956 312.079 C 882.222 312.022 884.316 312.054 886.547 312.52 C 891.242 313.499 894.537 316.31 896.982 320.395 C 900.518 326.303 900.918 334.071 899.165 340.608 C 897.372 347.29 894.322 351.119 888.357 354.482 C 886.129 354.691 883.859 354.916 881.626 354.67 C 877.047 354.166 873.488 352.217 870.823 348.414 C 867.223 343.277 866.726 336.296 867.824 330.284 C 869.374 321.798 872.863 316.832 879.956 312.079 z"/>
<path transform="translate(0,0)" fill="rgb(251,205,172)" d="M 540.542 1292.81 L 541.709 1290.54 C 554.221 1288.4 657.893 1293.34 672.834 1295.67 C 676.006 1320.91 689.396 1381.17 682.592 1403.58 C 681.297 1407.85 678.898 1412.16 674.657 1414.07 C 671.277 1415.58 667.184 1415.32 663.817 1413.91 C 649.465 1407.92 642.865 1382.2 637.578 1369.01 C 640.206 1394.98 645.707 1421.31 646.164 1447.34 C 646.334 1457.02 645.459 1467.99 638.051 1475.09 C 634.454 1478.57 629.526 1480.33 624.536 1479.91 C 604.862 1478.32 584.597 1462.42 572.429 1447.87 C 535.549 1403.78 535.631 1346.94 540.542 1292.81 z"/>
<path transform="translate(0,0)" fill="rgb(122,169,130)" d="M 1401.97 698.5 C 1401.92 684.024 1404.46 642.966 1401.15 631.386 C 1400.1 627.721 1397.71 624.481 1395.02 621.838 C 1385.7 612.678 1372.2 605.884 1361.29 598.712 C 1326.43 575.804 1310.26 546.045 1308.92 504.13 C 1308.74 498.618 1308.49 491.798 1311.72 487.117 C 1316.99 483.933 1327.36 486.555 1333.07 487.924 C 1359.89 494.356 1385.77 518.94 1399.55 541.975 C 1405.57 552.031 1410.44 562.878 1415.25 573.553 C 1429.01 540.626 1454.49 508.439 1488.25 494.568 C 1502.35 488.774 1515.97 487.388 1531.02 486.462 C 1531.3 520.919 1517.34 557.818 1492.95 582.489 C 1485.41 590.195 1477.06 597.074 1468.06 603.008 C 1460.75 607.794 1432.32 620.438 1428.73 625.783 C 1424.37 632.276 1425.42 642.724 1425.42 650.266 C 1425.43 666.478 1426.76 683.687 1425.42 699.797 C 1417.67 698.501 1409.81 698.066 1401.97 698.5 z"/>
</svg>