<svg version="1.1" xmlns="http://www.w3.org/2000/svg" style="display: block;" viewBox="0 0 2048 2048" width="800" height="800" preserveAspectRatio="none">
<path transform="translate(0,0)" fill="rgb(48,48,48)" d="M 1156.05 564.682 C 1171.33 565.717 1187.23 566.042 1202.2 569.366 C 1221.71 573.708 1275.36 585.734 1289.36 596.916 C 1363.83 629.773 1419.5 689.145 1448.76 764.76 C 1468.88 816.777 1489.47 906.999 1488.11 961.979 C 1490.53 1033.78 1488.9 1106.02 1488.72 1177.87 C 1488.59 1225.05 1492.26 1283.15 1484.36 1328.84 C 1478.2 1364.42 1466.58 1401.95 1441.52 1428.97 C 1426.96 1444.68 1402.54 1462.66 1380.21 1462.96 C 1373.23 1463.06 1365.9 1461.39 1360.79 1456.34 C 1355.2 1450.8 1353.23 1442.64 1353.48 1434.98 C 1354.41 1407.68 1369.54 1382.7 1368.55 1352.9 C 1364.39 1367.79 1360.48 1383.58 1345.78 1391.55 C 1338.46 1395.53 1329.27 1397.27 1320.99 1396.95 C 1318.15 1391.74 1318.61 1310.88 1320.69 1301.28 C 1271.53 1303.75 1221.47 1301.9 1172.21 1301.9 L 884.002 1301.93 C 831.718 1301.92 778.94 1300.5 726.707 1302.33 L 725.824 1299.27 C 723.228 1286.87 724.89 1271.33 724.892 1258.49 C 724.896 1228.85 724.213 1199.05 726.21 1169.47 C 677.291 1161.73 617.373 1151.38 585.482 1109.65 C 546.993 1059.3 555.124 988.66 562.98 929.896 C 563.861 913.341 568.445 896.063 571.868 879.84 C 578.648 847.709 585.121 815.467 596.193 784.462 C 627.583 696.56 684.891 638.633 768.367 598.943 C 790.708 590.708 811.876 581.859 835.174 576.304 C 852.8 572.377 890.676 562.522 906.677 566.476 C 909.061 568.353 911.425 570.085 912.495 573.056 C 914.142 586.535 915.001 602.803 921.194 615.06 C 921.554 614.754 921.864 614.375 922.275 614.141 C 924.419 612.924 952.854 622.477 957.437 623.769 C 1005.06 637.098 1055.39 637.424 1103.19 624.714 C 1111.12 622.685 1136.09 611.032 1141.66 612.027 C 1147.26 600.047 1148.02 584.978 1148.35 572 C 1150.99 569.614 1153.56 567.218 1156.05 564.682 z"/>
<path transform="translate(0,0)" fill="rgb(55,119,82)" d="M 1202.2 569.366 C 1221.71 573.708 1275.36 585.734 1289.36 596.916 C 1363.83 629.773 1419.5 689.145 1448.76 764.76 C 1468.88 816.777 1489.47 906.999 1488.11 961.979 C 1490.53 1033.78 1488.9 1106.02 1488.72 1177.87 C 1488.59 1225.05 1492.26 1283.15 1484.36 1328.84 C 1478.2 1364.42 1466.58 1401.95 1441.52 1428.97 C 1426.96 1444.68 1402.54 1462.66 1380.21 1462.96 C 1373.23 1463.06 1365.9 1461.39 1360.79 1456.34 C 1355.2 1450.8 1353.23 1442.64 1353.48 1434.98 C 1354.41 1407.68 1369.54 1382.7 1368.55 1352.9 C 1364.39 1367.79 1360.48 1383.58 1345.78 1391.55 C 1338.46 1395.53 1329.27 1397.27 1320.99 1396.95 C 1318.15 1391.74 1318.61 1310.88 1320.69 1301.28 C 1324.83 1290.28 1322.02 1238.7 1322.03 1223.56 C 1322.05 1206.55 1322.34 1189.54 1322.87 1172.53 C 1286.08 1172.99 1234.91 1175.62 1199.71 1170.51 C 1203.96 1156.46 1201.62 1087.99 1201.62 1068.58 L 1201.19 824.658 C 1203.9 811.403 1201.69 773.051 1201.71 757.521 C 1201.8 694.844 1200.91 632.018 1202.2 569.366 z"/>
<path transform="translate(0,0)" fill="rgb(251,182,126)" d="M 1488.11 961.979 C 1490.53 1033.78 1488.9 1106.02 1488.72 1177.87 C 1488.59 1225.05 1492.26 1283.15 1484.36 1328.84 C 1478.2 1364.42 1466.58 1401.95 1441.52 1428.97 C 1426.96 1444.68 1402.54 1462.66 1380.21 1462.96 C 1373.23 1463.06 1365.9 1461.39 1360.79 1456.34 C 1355.2 1450.8 1353.23 1442.64 1353.48 1434.98 C 1354.41 1407.68 1369.54 1382.7 1368.55 1352.9 C 1364.39 1367.79 1360.48 1383.58 1345.78 1391.55 C 1338.46 1395.53 1329.27 1397.27 1320.99 1396.95 C 1318.15 1391.74 1318.61 1310.88 1320.69 1301.28 C 1324.83 1290.28 1322.02 1238.7 1322.03 1223.56 C 1322.05 1206.55 1322.34 1189.54 1322.87 1172.53 C 1323.46 1144.33 1323.85 1116.13 1324.05 1087.92 C 1324.72 1048.39 1324.14 1008.71 1323.76 969.184 C 1341.63 971.09 1360.29 969.978 1378.22 969.46 C 1414.95 968.754 1451.63 966.258 1488.11 961.979 z"/>
<path transform="translate(0,0)" fill="rgb(75,53,41)" d="M 1202.2 569.366 C 1221.71 573.708 1275.36 585.734 1289.36 596.916 C 1287.06 618.422 1288.53 641.289 1288.57 662.939 L 1288.75 783.804 L 1288.8 977.362 C 1288.79 1014.08 1287.95 1051.07 1289.28 1087.76 C 1300.9 1088.16 1312.43 1088.15 1324.05 1087.92 C 1323.85 1116.13 1323.46 1144.33 1322.87 1172.53 C 1286.08 1172.99 1234.91 1175.62 1199.71 1170.51 C 1203.96 1156.46 1201.62 1087.99 1201.62 1068.58 L 1201.19 824.658 C 1203.9 811.403 1201.69 773.051 1201.71 757.521 C 1201.8 694.844 1200.91 632.018 1202.2 569.366 z"/>
<path transform="translate(0,0)" fill="rgb(55,119,82)" d="M 1156.05 564.682 C 1171.33 565.717 1187.23 566.042 1202.2 569.366 C 1200.91 632.018 1201.8 694.844 1201.71 757.521 C 1201.69 773.051 1203.9 811.403 1201.19 824.658 C 1116.62 885.45 1007.07 916.691 903.75 921.708 C 884.959 922.621 864.259 924.654 845.73 921.293 C 843.97 920.974 842.331 920.443 840.65 919.847 C 821.475 929.091 802.349 935.185 780.867 935.178 C 747.327 935.168 719.639 922.465 696.28 898.853 C 691.074 907.942 693.554 932.279 692.759 943.592 C 649.291 941.311 606.316 932.092 562.98 929.896 C 563.861 913.341 568.445 896.063 571.868 879.84 C 578.648 847.709 585.121 815.467 596.193 784.462 C 627.583 696.56 684.891 638.633 768.367 598.943 C 790.708 590.708 811.876 581.859 835.174 576.304 C 852.8 572.377 890.676 562.522 906.677 566.476 C 909.061 568.353 911.425 570.085 912.495 573.056 C 914.142 586.535 915.001 602.803 921.194 615.06 C 921.554 614.754 921.864 614.375 922.275 614.141 C 924.419 612.924 952.854 622.477 957.437 623.769 C 1005.06 637.098 1055.39 637.424 1103.19 624.714 C 1111.12 622.685 1136.09 611.032 1141.66 612.027 C 1147.26 600.047 1148.02 584.978 1148.35 572 C 1150.99 569.614 1153.56 567.218 1156.05 564.682 z"/>
<path transform="translate(0,0)" fill="rgb(251,182,126)" d="M 562.98 929.896 C 563.861 913.341 568.445 896.063 571.868 879.84 C 578.648 847.709 585.121 815.467 596.193 784.462 C 627.583 696.56 684.891 638.633 768.367 598.943 C 769.9 620.268 768.192 641.69 769.445 662.99 C 771.653 663.528 773.779 664.1 776.044 664.337 C 796.499 659.834 816.234 667.313 834.044 676.843 C 865.477 695.296 885.511 719.908 894.805 755.256 C 895.195 756.698 895.538 758.153 895.833 759.618 C 906.677 760.004 915.125 760.994 923.001 769.454 C 929.572 776.513 932.731 786.216 932.287 795.785 C 931.711 808.177 925.885 821.826 916.576 830.11 C 910.52 835.5 903.706 838.21 895.843 839.82 C 891.31 867.809 875.405 895.043 852.416 911.836 C 848.584 914.636 844.588 917.202 840.65 919.847 C 821.475 929.091 802.349 935.185 780.867 935.178 C 747.327 935.168 719.639 922.465 696.28 898.853 C 691.074 907.942 693.554 932.279 692.759 943.592 C 649.291 941.311 606.316 932.092 562.98 929.896 z"/>
<path transform="translate(0,0)" fill="rgb(55,119,82)" d="M 562.98 929.896 C 563.861 913.341 568.445 896.063 571.868 879.84 C 578.648 847.709 585.121 815.467 596.193 784.462 C 627.583 696.56 684.891 638.633 768.367 598.943 C 769.9 620.268 768.192 641.69 769.445 662.99 C 754.693 663.43 744.996 668.364 733.915 677.67 C 713.823 679.319 692.277 696.611 679.713 711.488 C 659.065 736.286 649.224 768.329 652.395 800.441 C 652.525 801.841 652.675 803.239 652.843 804.635 C 644.198 808.134 636.295 811.444 632.326 820.576 C 628.218 830.03 630.138 841.732 634.161 850.872 C 639.193 862.305 649.754 874.833 661.544 879.484 C 668.265 882.135 680.323 882.363 684.473 884.205 C 688.315 885.912 693.728 895.328 696.28 898.853 C 691.074 907.942 693.554 932.279 692.759 943.592 C 649.291 941.311 606.316 932.092 562.98 929.896 z"/>
<path transform="translate(0,0)" fill="rgb(48,48,48)" d="M 769.445 662.99 C 771.653 663.528 773.779 664.1 776.044 664.337 C 785.789 668.838 793.294 676.025 796.924 686.292 C 800.388 696.312 799.752 707.294 795.154 716.846 C 791.262 724.728 784.679 730.909 776.254 733.616 C 767.14 736.543 755.154 735.336 746.809 730.594 C 741.149 727.377 738.391 722.248 736.78 716.09 C 735.761 712.197 734.751 704.738 737.283 701.193 C 738.59 699.363 739.771 698.684 741.669 697.601 C 744.32 697.463 745.065 697.203 747.178 699.092 C 753.39 704.645 753.766 718.402 764.148 719.225 C 768.992 719.61 774.473 715.986 777.688 712.658 C 780.708 709.532 782.011 705.728 781.838 701.408 C 781.624 696.083 778.716 691.499 774.68 688.173 C 763.947 679.329 747.173 678.847 733.915 677.67 C 744.996 668.364 754.693 663.43 769.445 662.99 z"/>
<path transform="translate(0,0)" fill="rgb(48,48,48)" d="M 818.455 841.51 C 819.967 841.565 822.267 841.439 823.665 841.961 C 825.976 842.826 827.026 844.432 827.857 846.654 C 829.193 850.226 827.68 855.002 826.044 858.208 C 820.748 868.592 808.485 875.365 797.588 878.52 C 781.489 883.181 767.698 880.008 753.417 872.168 C 750.651 870.133 747.937 868.079 746.79 864.701 C 745.478 860.838 745.142 856.761 747.077 853.1 C 749.087 851.417 751.828 850.315 754.49 851.192 C 756.87 851.976 759.203 854.352 761.2 855.84 C 768.882 861.579 778.502 864.092 788.009 862.843 C 802.491 861.066 810.01 852.242 818.455 841.51 z"/>
<path transform="translate(0,0)" fill="rgb(48,48,48)" d="M 728.858 796.174 C 731.361 796.046 734.858 795.564 737.205 796.582 C 741.48 798.434 744.172 802.235 745.71 806.527 C 748.022 812.935 747.503 820.023 744.283 826.026 C 742.484 829.389 740.895 830.523 737.319 831.698 C 735.13 831.55 732.871 831.429 730.737 830.894 C 726.058 829.721 722.754 826.567 720.41 822.448 C 717.944 818.113 717.196 812.72 718.639 807.925 C 720.446 801.922 723.416 799.026 728.858 796.174 z"/>
<path transform="translate(0,0)" fill="rgb(48,48,48)" d="M 821.682 776.034 C 823.156 775.997 824.626 775.984 826.099 776.09 C 830.198 776.384 833.423 777.892 836.046 781.114 C 839.235 785.033 840.231 790.304 839.463 795.225 C 838.356 802.316 835.686 805.958 829.953 810.023 C 828.751 810.022 827.575 809.957 826.385 809.785 C 821.836 809.126 818.39 807.07 815.809 803.215 C 812.83 798.72 811.834 793.197 813.055 787.944 C 814.329 782.235 816.791 779.096 821.682 776.034 z"/>
<path transform="translate(0,0)" fill="rgb(251,182,126)" d="M 921.194 615.06 C 921.554 614.754 921.864 614.375 922.275 614.141 C 924.419 612.924 952.854 622.477 957.437 623.769 C 1005.06 637.098 1055.39 637.424 1103.19 624.714 C 1111.12 622.685 1136.09 611.032 1141.66 612.027 C 1130.32 644.529 1109.57 672.126 1078.04 687.28 C 1052.29 699.655 1020.6 701.097 993.764 691.338 C 962.253 679.879 939.511 656 925.622 625.916 C 923.998 622.359 922.521 618.737 921.194 615.06 z"/>
<path transform="translate(0,0)" fill="rgb(75,53,41)" d="M 768.367 598.943 C 790.708 590.708 811.876 581.859 835.174 576.304 C 832.923 606.232 832.698 646.436 834.044 676.843 C 816.234 667.313 796.499 659.834 776.044 664.337 C 773.779 664.1 771.653 663.528 769.445 662.99 C 768.192 641.69 769.9 620.268 768.367 598.943 z"/>
<path transform="translate(0,0)" fill="rgb(251,182,126)" d="M 562.98 929.896 C 606.316 932.092 649.291 941.311 692.759 943.592 C 693.818 963.074 699.593 981.721 714.55 995.08 C 744.639 1021.95 834.64 1030.7 874.825 1028.2 C 892.278 1027.11 908.134 1023.01 923.887 1015.45 C 932.467 1011.32 940.572 1006.26 948.52 1001.04 C 960.753 993.009 985.39 971.794 999.961 984.934 C 1005.03 989.51 1006.47 997.575 1006.45 1004.08 C 1006.42 1015.12 1001.46 1025.83 994.33 1034.07 C 1003.78 1035.37 1013 1036.08 1022.55 1035.79 C 1039.07 1035.29 1083.28 1027.54 1093.97 1041.36 C 1097.33 1045.7 1097.9 1051.2 1097.04 1056.48 C 1096.04 1062.63 1093.81 1067.84 1090.44 1073.03 L 1090.89 1074.2 C 1095.6 1081.22 1097.39 1087.65 1095.75 1096.13 C 1093.74 1106.56 1088 1113.37 1079.63 1119.41 C 1082.98 1124.53 1084.3 1127.79 1082.88 1133.9 C 1079.6 1147.94 1065.58 1159.48 1053.72 1166.52 C 1008.61 1193.29 934.957 1197.14 883.39 1189.23 C 865.071 1186.43 847.228 1179.99 828.924 1177.8 C 794.875 1173.73 760.343 1173.43 726.21 1169.47 C 677.291 1161.73 617.373 1151.38 585.482 1109.65 C 546.993 1059.3 555.124 988.66 562.98 929.896 z"/>
<path transform="translate(0,0)" fill="rgb(226,143,98)" d="M 1090.89 1074.2 C 1090.6 1074.55 1090.31 1074.9 1090 1075.24 C 1087.43 1078.03 1084.79 1080.1 1081.18 1081.38 C 1069.39 1085.54 1025.29 1091.08 1011.63 1091.69 C 1008.09 1091.85 1006.2 1091.82 1003.56 1089.39 C 1003.38 1086.78 1003.19 1085.5 1004.89 1083.24 C 1010.18 1076.2 1078.37 1073.45 1090.44 1073.03 L 1090.89 1074.2 z"/>
<path transform="translate(0,0)" fill="rgb(226,143,98)" d="M 1065.59 1117.45 C 1068.23 1117.31 1071.38 1116.85 1074 1117.14 C 1076.63 1117.43 1076.91 1117.49 1078.37 1119.47 L 1077.75 1121.59 C 1067.24 1130.17 1035.83 1131.68 1021.81 1132.95 C 1017.57 1133.05 1013.19 1133.52 1009.11 1132.24 C 1007.58 1130.75 1006.32 1129.81 1005.72 1127.69 C 1005.27 1126.11 1006.07 1125.43 1006.77 1124.06 C 1018.1 1115.9 1050.68 1118.33 1065.59 1117.45 z"/>
<path transform="translate(0,0)" fill="rgb(55,119,82)" d="M 1199.71 1170.51 C 1234.91 1175.62 1286.08 1172.99 1322.87 1172.53 C 1322.34 1189.54 1322.05 1206.55 1322.03 1223.56 C 1322.02 1238.7 1324.83 1290.28 1320.69 1301.28 C 1271.53 1303.75 1221.47 1301.9 1172.21 1301.9 L 884.002 1301.93 C 831.718 1301.92 778.94 1300.5 726.707 1302.33 L 725.824 1299.27 C 727.569 1262.28 726.069 1224.47 726.007 1187.38 C 737.703 1189.9 749.286 1194.73 761.025 1197.63 C 797.47 1206.75 834.499 1213.36 871.85 1217.42 C 952.049 1225.49 1090.19 1229.8 1163.05 1196.09 C 1177.45 1189.43 1187.64 1180.37 1199.71 1170.51 z"/>
<path transform="translate(0,0)" fill="rgb(185,61,51)" d="M 726.707 1302.33 C 778.94 1300.5 831.718 1301.92 884.002 1301.93 L 1172.21 1301.9 C 1221.47 1301.9 1271.53 1303.75 1320.69 1301.28 C 1318.61 1310.88 1318.15 1391.74 1320.99 1396.95 C 1318.84 1403.29 1320.34 1463.1 1320.38 1474.1 L 1320.36 1763.41 C 1320.39 1784.24 1323.34 1870.45 1319.14 1885.67 C 1317.32 1892.29 1310.85 1896.33 1305.11 1899.25 C 1293.61 1897.42 1281.6 1898.04 1269.98 1898.05 L 1217.34 1898.11 C 1170.95 1898.15 1123.58 1896.28 1077.32 1898.87 C 1074.22 1898.38 1070.94 1897.75 1068.02 1896.59 C 1061.8 1894.09 1057.87 1889.58 1056.22 1883.1 C 1052.81 1869.71 1053.46 1853.48 1052.53 1839.64 C 1050.19 1806.62 1048.09 1773.57 1046.24 1740.51 L 1033.84 1513.01 C 1033.26 1501.16 1031.84 1489.34 1031.38 1477.49 C 1030.81 1462.76 1030.25 1386.08 1027.29 1379.07 C 1024.97 1378.34 1024.78 1378.72 1022.55 1379.36 C 1019.87 1383.13 1019.9 1390.98 1019.67 1395.53 C 1018.22 1423.63 1018.39 1451.89 1017.07 1480.05 C 1012.08 1587.71 1006.1 1695.32 999.138 1802.88 C 998.115 1818.67 997.199 1878.36 991.505 1888.68 C 987.644 1895.67 979.688 1896.91 972.617 1898.71 C 954.581 1897.23 759.45 1896.23 749.261 1899.09 C 743.915 1897.82 737.955 1896.35 733.529 1892.97 C 728.386 1889.05 728.025 1881.76 727.565 1875.76 C 726.009 1855.44 727.363 1834.09 727.635 1813.71 C 727.781 1787.56 727.766 1761.41 727.59 1735.27 L 727.635 1411.36 L 727.779 1344.65 C 727.802 1330.75 728.709 1316.09 726.707 1302.33 z"/>
<path transform="translate(0,0)" fill="rgb(251,182,126)" d="M 795.988 278.13 C 793.189 258.724 789.687 239.333 788.656 219.719 C 787.286 193.657 789.116 167.585 788.237 141.551 C 787.596 122.57 784.268 103.696 787.166 84.7425 C 789.12 71.9609 793.933 59.2725 801.649 48.8393 C 813.512 32.7997 833.025 23.6975 852.478 20.9664 C 876.085 17.6524 897.868 29.7624 920.968 27.5763 C 941.142 25.6671 960.403 15.3635 980.09 10.7474 C 1037.12 -2.62437 1111.25 3.79886 1158.8 40.2798 C 1167.91 47.2665 1176.63 56.2104 1182.86 65.8845 C 1209.25 65.4707 1232.38 69.7237 1252.14 88.6446 C 1276.87 112.331 1284.78 149.691 1285.2 182.618 C 1285.71 221.521 1278.41 242.197 1269.84 278.267 C 1286.04 284.53 1296.89 293.869 1303.92 309.913 C 1313.42 331.61 1312.9 356.348 1304.12 378.149 C 1295.15 400.427 1280.14 419.16 1257.65 428.639 C 1249.26 432.175 1241.63 433.747 1232.57 433.989 C 1231.94 434.006 1231.31 434.042 1230.69 434.068 C 1220.81 485.418 1194.69 529.744 1156.05 564.682 C 1153.56 567.218 1150.99 569.614 1148.35 572 C 1148.02 584.978 1147.26 600.047 1141.66 612.027 C 1136.09 611.032 1111.12 622.685 1103.19 624.714 C 1055.39 637.424 1005.06 637.098 957.437 623.769 C 952.854 622.477 924.419 612.924 922.275 614.141 C 921.864 614.375 921.554 614.754 921.194 615.06 C 915.001 602.803 914.142 586.535 912.495 573.056 C 911.425 570.085 909.061 568.353 906.677 566.476 C 899.593 558.165 891.038 551.252 883.982 542.932 C 857.859 512.126 841.097 473.639 834.105 433.999 C 825.6 434.118 818.094 433.422 810.033 430.525 C 790.292 423.432 773.847 405.981 765.013 387.271 C 754.713 365.454 751.658 337.667 759.93 314.723 C 766.889 295.423 777.999 286.719 795.988 278.13 z"/>
<path transform="translate(0,0)" fill="rgb(75,53,41)" d="M 795.988 278.13 C 793.189 258.724 789.687 239.333 788.656 219.719 C 787.286 193.657 789.116 167.585 788.237 141.551 C 787.596 122.57 784.268 103.696 787.166 84.7425 C 789.12 71.9609 793.933 59.2725 801.649 48.8393 C 813.512 32.7997 833.025 23.6975 852.478 20.9664 C 876.085 17.6524 897.868 29.7624 920.968 27.5763 C 941.142 25.6671 960.403 15.3635 980.09 10.7474 C 1037.12 -2.62437 1111.25 3.79886 1158.8 40.2798 C 1167.91 47.2665 1176.63 56.2104 1182.86 65.8845 C 1209.25 65.4707 1232.38 69.7237 1252.14 88.6446 C 1276.87 112.331 1284.78 149.691 1285.2 182.618 C 1285.71 221.521 1278.41 242.197 1269.84 278.267 C 1265.19 279.052 1260.35 279.919 1256.36 282.584 C 1244.85 290.267 1244.16 306.082 1241.51 318.385 C 1239.95 325.664 1236.77 334.863 1229.98 338.829 C 1226.36 340.936 1221.38 341.424 1217.43 340.041 C 1192.35 331.255 1206.29 242.798 1205.49 220.339 C 1205.18 209.321 1202.61 198.484 1197.96 188.495 C 1188.76 169.003 1173.03 156.417 1152.95 149.349 C 1148.35 154.638 1143.84 159.358 1138.11 163.427 C 1109.26 183.893 1072.07 183.003 1038.85 177.158 C 1028.07 186.197 1016.37 192.255 1002.74 195.73 C 970.241 204.01 932.97 200.228 902.317 186.886 C 891.789 182.304 881.95 176.242 872.074 170.422 C 870.209 204.701 867.104 238.731 863.966 272.908 C 862.716 286.532 862.068 300.234 860.542 313.826 C 859.661 321.671 859.409 331.894 852.462 337.005 C 848.79 339.707 842.078 341.75 837.541 340.557 C 820.247 336.009 824.099 301.788 815.117 288.642 C 810.58 282.001 804.967 279.541 797.214 278.313 L 795.988 278.13 z"/>
<path transform="translate(0,0)" fill="rgb(226,143,98)" d="M 912.495 573.056 C 920.487 577.373 927.713 582.859 935.56 587.408 C 955.04 598.7 979.17 606.378 1001.44 609.391 C 1056.33 616.817 1104.26 605.419 1148.35 572 C 1148.02 584.978 1147.26 600.047 1141.66 612.027 C 1136.09 611.032 1111.12 622.685 1103.19 624.714 C 1055.39 637.424 1005.06 637.098 957.437 623.769 C 952.854 622.477 924.419 612.924 922.275 614.141 C 921.864 614.375 921.554 614.754 921.194 615.06 C 915.001 602.803 914.142 586.535 912.495 573.056 z"/>
<path transform="translate(0,0)" fill="rgb(226,143,98)" d="M 1039.68 325.173 C 1041.77 325.107 1043.9 325.006 1045.99 325.158 C 1048.57 325.344 1050.81 326.161 1052.41 328.253 C 1056.53 333.606 1066.81 407.21 1065.64 415.052 C 1064.74 421.064 1062.04 426.322 1056.99 429.85 C 1044.81 438.358 1022.44 435.605 1008.68 432.836 C 1005.44 431.874 1002.22 431.135 999.752 428.697 C 997.315 426.295 995.098 421.671 995.529 418.242 C 995.762 416.387 996.94 414.987 998.49 413.997 C 1001.86 411.844 1004.43 411.863 1008.26 412.731 C 1016.37 414.57 1033.1 418.437 1040.41 413.782 C 1042.7 412.317 1043.85 410.453 1044.27 407.777 C 1046.42 393.786 1030.47 346.867 1033.74 331.991 C 1034.55 328.282 1036.66 326.958 1039.68 325.173 z"/>
<path transform="translate(0,0)" fill="rgb(48,48,48)" d="M 969.188 471.029 C 971.198 470.815 973.743 470.411 975.699 471.02 C 979.268 472.131 983.534 475.849 986.721 478.021 C 1001.22 487.904 1014.27 492.725 1031.97 492.534 C 1044.03 492.404 1055.89 490.549 1066.56 484.619 C 1072.94 481.076 1080.7 472.985 1087.99 472.115 C 1091.25 471.726 1093.16 472.586 1095.74 474.442 C 1096.4 475.805 1096.97 477.014 1097.01 478.564 C 1097.14 483.726 1095.04 486.751 1091.71 490.45 C 1079.5 501.027 1063.74 507.798 1047.86 510.341 C 1023.58 514.227 995.131 509.023 975.211 494.053 C 970.679 490.646 965.172 485.859 964.876 479.708 C 964.682 475.692 966.479 473.546 969.188 471.029 z"/>
<path transform="translate(0,0)" fill="rgb(75,53,41)" d="M 945.144 307.124 C 946.978 307.214 948.735 307.472 950.516 307.919 C 955.859 309.257 959.532 312.795 962.121 317.563 C 966.329 325.315 966.675 335.561 964.235 343.916 C 962.135 351.104 958.705 355.858 952.114 359.385 C 949.295 359.318 946.01 359.526 943.308 358.669 C 938.046 357 933.657 351.443 931.633 346.529 C 928.188 338.163 928.337 327.253 932.036 319.002 C 934.928 312.551 938.75 309.728 945.144 307.124 z"/>
<path transform="translate(0,0)" fill="rgb(75,53,41)" d="M 1118.44 307.099 C 1120.9 307.503 1123.03 307.867 1125.23 309.097 C 1130.97 312.309 1134.39 318.669 1135.87 324.9 C 1137.98 333.807 1137.23 344.519 1132.15 352.342 C 1129.16 356.94 1126.27 358.65 1120.97 359.71 C 1118.08 359.472 1114.46 359.474 1111.87 358.067 C 1107.18 355.522 1103.75 349.828 1102.18 344.9 C 1099.4 336.13 1100.07 325.608 1104.64 317.548 C 1108.02 311.582 1112 309.03 1118.44 307.099 z"/>
<path transform="translate(0,0)" fill="rgb(75,53,41)" d="M 1105.05 249.272 C 1111.41 248.715 1118.03 248.604 1124.39 249.005 C 1133.05 249.55 1144.09 251.361 1149.87 258.467 C 1151.98 261.062 1153.23 263.857 1152.59 267.257 C 1152.13 269.683 1150.4 271.266 1148.28 272.383 C 1143.73 274.783 1138.19 272.515 1133.62 271.232 C 1129.16 270.197 1124.53 268.99 1119.94 268.862 C 1111.11 268.615 1096.51 273.359 1088.69 269.647 C 1086.46 268.59 1084.61 267.15 1083.94 264.661 C 1083.31 262.37 1083.8 258.774 1085.08 256.769 C 1088.68 251.161 1099.02 250.256 1105.05 249.272 z"/>
<path transform="translate(0,0)" fill="rgb(75,53,41)" d="M 941.762 249.289 C 949.248 248.532 957.713 248.264 965.183 249.406 C 971.535 250.376 978.698 252.993 982.331 258.655 C 984.201 261.571 984.508 263.951 983.772 267.33 C 982.622 269.003 981.792 270.229 979.908 271.171 C 973.865 274.192 963.543 270.257 957.241 268.764 C 945.617 267.81 926.868 274.565 921.201 272.934 C 918.783 272.238 917.008 271.035 916.057 268.617 C 914.834 265.503 915.105 261.7 916.444 258.71 C 922.887 252.135 933.065 250.787 941.762 249.289 z"/>
<path transform="translate(0,0)" fill="rgb(48,48,48)" d="M 1077.32 1898.87 C 1123.58 1896.28 1170.95 1898.15 1217.34 1898.11 L 1269.98 1898.05 C 1281.6 1898.04 1293.61 1897.42 1305.11 1899.25 C 1305.96 1905.9 1312.47 1911.85 1317.51 1915.76 C 1336.39 1930.39 1359.65 1941.48 1380.44 1953.3 C 1408.2 1969.08 1437.09 1985.62 1441.54 2020.51 C 1442.39 2027.22 1442.63 2035.31 1438.25 2040.95 C 1436.39 2043.35 1434.06 2044.48 1431.35 2045.68 C 1385.25 2047.91 1338.46 2046.3 1292.29 2046.3 L 1162.05 2046.35 C 1142 2046.35 1116.02 2048.49 1096.63 2044.92 C 1091.51 2043.99 1086.65 2041.56 1083.04 2037.76 C 1079.36 2033.88 1078.46 2028.16 1077.79 2023.04 C 1075.73 2007.18 1076.92 1990.08 1076.92 1974.08 C 1076.91 1949.04 1076.49 1923.9 1077.32 1898.87 z"/>
<path transform="translate(0,0)" fill="rgb(48,48,48)" d="M 749.261 1899.09 C 759.45 1896.23 954.581 1897.23 972.617 1898.71 C 974.419 1921.39 973.29 1944.85 973.331 1967.61 C 973.363 1985.8 974.856 2005.45 972.781 2023.46 C 972.247 2028.1 971.515 2033.43 968.401 2037.12 C 964.139 2042.17 958.48 2044.3 952.203 2045.65 C 936.321 2046.87 920.123 2046.35 904.192 2046.35 L 826 2046.3 C 759.649 2046.26 693.074 2047.39 626.746 2045.81 C 624.469 2045.06 621.996 2044.15 619.943 2042.9 C 616.975 2041.1 615.042 2038.02 614.235 2034.69 C 612.567 2027.82 614.325 2018.24 616.145 2011.42 C 632.221 1951.22 718.536 1948.77 749.261 1899.09 z"/>
<path transform="translate(0,0)" fill="rgb(48,48,48)" fill-opacity="0.0117647" d="M 626.746 2045.81 C 693.074 2047.39 759.649 2046.26 826 2046.3 L 904.192 2046.35 C 920.123 2046.35 936.321 2046.87 952.203 2045.65 C 954.696 2046.63 957.001 2047.39 959.611 2048 L 622.198 2048 L 626.746 2045.81 z"/>
<path transform="translate(0,0)" fill="rgb(48,48,48)" fill-opacity="0.0117647" d="M 1292.29 2046.3 C 1338.46 2046.3 1385.25 2047.91 1431.35 2045.68 L 1433.49 2048 L 1292.84 2048 L 1292.29 2046.3 z"/>
</svg>