<svg version="1.1" xmlns="http://www.w3.org/2000/svg" style="display: block;" viewBox="0 0 2048 2048" width="800" height="800" preserveAspectRatio="none">
<path transform="translate(0,0)" fill="rgb(55,119,74)" d="M 1131.89 568.786 C 1148.05 568.824 1164.66 572.193 1180.4 575.742 C 1237.92 588.715 1293.4 613.817 1335.34 656.291 C 1396.53 718.243 1421.5 802.397 1431.1 886.845 C 1433.07 904.217 1435.88 922.241 1435.63 939.715 C 1435.55 944.901 1434.71 948.071 1432.4 952.758 C 1434.03 991.797 1437.6 1030.84 1438.66 1069.9 C 1439.7 1107.96 1438.12 1145.54 1436.42 1183.51 C 1433.67 1244.82 1429.44 1331.24 1386.16 1378.53 C 1372.93 1392.99 1358.59 1401.17 1339.61 1405.57 C 1330.92 1402.85 1323.87 1400.01 1319.32 1391.45 C 1314.48 1382.37 1315.7 1371.46 1318.79 1362.03 C 1321.93 1352.47 1334.99 1331.5 1332.46 1322.11 C 1326.02 1337.53 1318.86 1355.55 1302.02 1362.1 C 1296.91 1364.09 1292.12 1364.31 1286.72 1364.42 C 1284.46 1351.68 1285.52 1336.32 1285.12 1323.2 C 1284.13 1287.87 1283.43 1252.54 1283.04 1217.21 L 1281.52 1217.43 C 1273.6 1218.61 1265.99 1221.84 1258.01 1223.01 C 1239.32 1225.74 1219.97 1225.15 1201.12 1225.88 L 1186.65 1226.21 L 1037.33 1227 L 1018.23 1227.22 L 900.502 1226.01 C 858.554 1225.57 815.004 1226.46 773.878 1216.87 C 772.74 1242.55 773.217 1268.32 772.644 1294.03 C 772.126 1317.3 770.318 1341.11 771.636 1364.31 C 765.932 1364.36 760.895 1364.09 755.571 1361.86 C 740.929 1355.73 735.201 1339.07 729.648 1325.47 L 728.706 1325.4 C 727.091 1332.55 741.986 1360.6 743.704 1371.48 C 745.041 1379.94 743.531 1389.57 738.202 1396.5 C 734.403 1401.43 728.925 1403.83 722.856 1404.65 C 709.65 1406.44 696.838 1400 686.499 1392.36 C 666.941 1377.91 652.748 1355.22 644.433 1332.65 C 616.737 1257.47 618.884 1105.62 621.199 1022.8 C 621.701 1004.82 626.888 963.758 624.512 949.077 C 624.465 948.791 624.407 948.506 624.354 948.221 L 623.294 947.387 C 622.641 945.182 622.176 943.176 622.075 940.865 C 621.234 921.647 624.681 900.914 626.935 881.842 C 636.734 798.912 658.902 724.757 715.998 661.615 C 756.579 616.737 810.106 593.55 867.581 578.917 C 885.869 574.261 905.39 569.745 924.268 568.802 C 925.46 604.546 928.571 634.383 956.122 660.224 C 976.445 679.01 1003.45 688.874 1031.09 687.614 C 1060.24 686.45 1087.25 674.758 1106.96 653.009 C 1128.31 629.461 1132.87 599.481 1131.89 568.786 z"/>
<path transform="translate(0,0)" fill="rgb(249,183,132)" d="M 1283.64 953.664 C 1323.72 953.077 1364.02 952.225 1404.08 950.484 C 1409.91 950.231 1427.17 946.894 1431.54 949.439 L 1432.4 952.758 C 1434.03 991.797 1437.6 1030.84 1438.66 1069.9 C 1439.7 1107.96 1438.12 1145.54 1436.42 1183.51 C 1433.67 1244.82 1429.44 1331.24 1386.16 1378.53 C 1372.93 1392.99 1358.59 1401.17 1339.61 1405.57 C 1330.92 1402.85 1323.87 1400.01 1319.32 1391.45 C 1314.48 1382.37 1315.7 1371.46 1318.79 1362.03 C 1321.93 1352.47 1334.99 1331.5 1332.46 1322.11 C 1326.02 1337.53 1318.86 1355.55 1302.02 1362.1 C 1296.91 1364.09 1292.12 1364.31 1286.72 1364.42 C 1284.46 1351.68 1285.52 1336.32 1285.12 1323.2 C 1284.13 1287.87 1283.43 1252.54 1283.04 1217.21 C 1287.5 1215.69 1290.54 1213.04 1293.97 1209.89 C 1298.93 1191.81 1295.81 1169.17 1295.27 1150.51 C 1293.36 1084.7 1287.71 1019.33 1283.64 953.664 z"/>
<path transform="translate(0,0)" fill="rgb(249,183,132)" d="M 624.354 948.221 C 637.588 947.676 650.978 950.118 664.245 950.558 L 773.238 953.639 C 771.847 985.007 755.086 1199.23 764.522 1210.97 C 766.459 1213.39 771.16 1215.37 773.878 1216.87 C 772.74 1242.55 773.217 1268.32 772.644 1294.03 C 772.126 1317.3 770.318 1341.11 771.636 1364.31 C 765.932 1364.36 760.895 1364.09 755.571 1361.86 C 740.929 1355.73 735.201 1339.07 729.648 1325.47 L 728.706 1325.4 C 727.091 1332.55 741.986 1360.6 743.704 1371.48 C 745.041 1379.94 743.531 1389.57 738.202 1396.5 C 734.403 1401.43 728.925 1403.83 722.856 1404.65 C 709.65 1406.44 696.838 1400 686.499 1392.36 C 666.941 1377.91 652.748 1355.22 644.433 1332.65 C 616.737 1257.47 618.884 1105.62 621.199 1022.8 C 621.701 1004.82 626.888 963.758 624.512 949.077 C 624.465 948.791 624.407 948.506 624.354 948.221 z"/>
<path transform="translate(0,0)" fill="rgb(48,103,135)" d="M 773.878 1216.87 C 815.004 1226.46 858.554 1225.57 900.502 1226.01 L 1018.23 1227.22 L 1037.33 1227 L 1186.65 1226.21 L 1201.12 1225.88 C 1219.97 1225.15 1239.32 1225.74 1258.01 1223.01 C 1265.99 1221.84 1273.6 1218.61 1281.52 1217.43 L 1283.04 1217.21 C 1283.43 1252.54 1284.13 1287.87 1285.12 1323.2 C 1285.52 1336.32 1284.46 1351.68 1286.72 1364.42 L 1289.9 1666.56 C 1290.22 1697.54 1292.02 1728.48 1292.23 1759.46 C 1292.3 1769.93 1293.15 1781.32 1292.06 1791.71 L 1293.58 1852.33 C 1294 1866.18 1295.98 1882.42 1293.71 1896.02 C 1293.16 1899.28 1292.04 1901.3 1290.04 1903.88 C 1287.47 1905.52 1284.92 1907.27 1282.29 1908.81 C 1259.16 1912 1235.87 1911.57 1212.57 1911.62 L 1128 1911.4 C 1112.86 1911.3 1097.09 1910.27 1082.03 1911.64 C 1077.58 1910.94 1071.02 1909.88 1067.4 1907.07 C 1063.59 1904.12 1063.26 1898.74 1062.75 1894.27 C 1061.18 1880.49 1061.38 1866.09 1060.82 1852.22 L 1058.01 1791.89 L 1051.01 1641.5 C 1049.59 1612.75 1049.14 1583.6 1046.56 1554.95 C 1045.07 1540.15 1045.17 1525.35 1044.57 1510.5 C 1044.13 1499.64 1043.17 1488.81 1042.77 1477.94 C 1042.67 1477.52 1042.55 1477.1 1042.45 1476.67 C 1038.35 1459.11 1044.16 1371.24 1031.57 1363.89 C 1029.46 1362.65 1028.5 1363.08 1026.33 1363.67 C 1024.44 1365.39 1023.34 1366.82 1022.58 1369.24 C 1018.57 1382.14 1018.56 1420.56 1017.84 1435.85 L 1003.84 1708 L 997.974 1830.28 C 997.209 1849.7 998.594 1869.27 996.896 1888.65 C 996.403 1894.29 995.756 1902.4 991.398 1906.43 C 986.907 1910.58 980.347 1911.12 974.558 1911.84 C 958.188 1911.11 941.588 1911.7 925.194 1911.66 L 830.463 1911.38 C 812.036 1911.34 792.639 1912.52 774.327 1910.49 C 772.066 1908.92 769.661 1907.35 767.656 1905.46 C 765.313 1903.24 764.309 1901.05 764.025 1897.86 C 763.05 1886.91 764.694 1875.19 765.028 1864.18 C 765.515 1842.31 765.833 1820.43 765.981 1798.56 L 770.018 1477.13 C 770.19 1453.71 770.387 1430.22 770.955 1406.8 C 771.297 1392.71 772.478 1378.39 771.636 1364.31 C 770.318 1341.11 772.126 1317.3 772.644 1294.03 C 773.217 1268.32 772.74 1242.55 773.878 1216.87 z"/>
<path transform="translate(0,0)" fill="rgb(36,86,115)" d="M 1186.65 1226.21 L 1201.12 1225.88 C 1202.07 1229.27 1203.33 1232.44 1204.87 1235.61 C 1221.21 1269.15 1248.6 1293.27 1283.59 1305.54 L 1283.92 1319.38 C 1264.53 1316.15 1248.76 1310.64 1232.91 1298.63 C 1210.9 1281.96 1190.56 1254.03 1186.65 1226.21 z"/>
<path transform="translate(0,0)" fill="rgb(36,86,115)" d="M 1018.23 1227.22 L 1037.33 1227 C 1037.16 1264.32 1040.53 1302.5 1036.55 1339.65 C 1030.85 1339.46 1025.72 1338.88 1020.15 1337.66 C 1018.94 1322.94 1019.47 1308 1019.38 1293.23 C 1019.3 1271.22 1018.92 1249.22 1018.23 1227.22 z"/>
<path transform="translate(0,0)" fill="rgb(36,86,115)" d="M 1290.04 1903.88 C 1291.35 1879.55 1290.16 1854.51 1289.69 1830.12 C 1289.49 1819.5 1288.34 1807.47 1289.74 1796.96 C 1290.02 1794.85 1290.9 1793.44 1292.06 1791.71 L 1293.58 1852.33 C 1294 1866.18 1295.98 1882.42 1293.71 1896.02 C 1293.16 1899.28 1292.04 1901.3 1290.04 1903.88 z"/>
<path transform="translate(0,0)" fill="rgb(36,86,115)" d="M 1042.77 1477.94 C 1050.82 1493.97 1051.49 1537.46 1046.56 1554.95 C 1045.07 1540.15 1045.17 1525.35 1044.57 1510.5 C 1044.13 1499.64 1043.17 1488.81 1042.77 1477.94 z"/>
<path transform="translate(0,0)" fill="rgb(249,183,132)" d="M 942.034 36.8862 C 944.606 34.0271 947.23 31.215 949.904 28.4511 C 966.057 12.0598 989.301 2.65683 1012.24 2.67311 C 1039.46 2.69243 1062.38 15.1203 1081.38 33.9121 C 1090.23 27.6744 1099.46 23.0708 1110.07 20.6588 C 1130.46 15.9049 1151.9 19.5957 1169.53 30.8923 C 1188.85 43.3521 1198.04 61.052 1202.71 83.0239 C 1209.89 86.6102 1217.52 89.6814 1224.47 93.6741 C 1239.68 102.418 1251.71 120.255 1256.16 137.071 C 1259.39 149.273 1259.45 162.433 1258.98 174.961 C 1258.19 196.046 1249.79 264.835 1240.21 281.155 C 1254.38 287.007 1263.15 294.86 1269.07 309.211 C 1277.79 330.326 1276.3 353.065 1267.39 373.786 C 1259.27 392.697 1245.59 409.837 1225.92 417.516 C 1217.74 420.712 1210.27 421.312 1201.59 420.989 C 1188.7 471.174 1163.83 495.066 1128.95 529.566 C 1129.68 542.614 1129.69 555.897 1131.89 568.786 C 1132.87 599.481 1128.31 629.461 1106.96 653.009 C 1087.25 674.758 1060.24 686.45 1031.09 687.614 C 1003.45 688.874 976.445 679.01 956.122 660.224 C 928.571 634.383 925.46 604.546 924.268 568.802 C 926.446 555.45 925.762 541.068 926.554 527.528 C 893.903 502.213 863.057 462.926 855.86 421.207 C 843.712 421.296 834.036 419.966 823.291 413.872 C 804.428 403.174 791.347 381.871 785.926 361.276 C 780.95 342.37 780.776 315.595 791.262 298.438 C 797.215 288.697 804.74 284.533 815.483 281.985 C 810.776 266.176 807.908 246.965 806.606 230.524 C 805.838 220.832 805.962 210.922 804.732 201.292 C 803.124 188.695 799.353 177.563 799.236 164.607 C 799.115 154.479 800.741 144.405 804.043 134.83 C 812.09 112.059 827.742 99.9721 848.883 89.9353 C 855.902 70.9418 858.95 56.4138 877.247 44.257 C 897.512 30.7925 919.199 32.1952 942.034 36.8862 z"/>
<path transform="translate(0,0)" fill="rgb(74,50,42)" d="M 942.034 36.8862 C 944.606 34.0271 947.23 31.215 949.904 28.4511 C 966.057 12.0598 989.301 2.65683 1012.24 2.67311 C 1039.46 2.69243 1062.38 15.1203 1081.38 33.9121 C 1090.23 27.6744 1099.46 23.0708 1110.07 20.6588 C 1130.46 15.9049 1151.9 19.5957 1169.53 30.8923 C 1188.85 43.3521 1198.04 61.052 1202.71 83.0239 C 1209.89 86.6102 1217.52 89.6814 1224.47 93.6741 C 1239.68 102.418 1251.71 120.255 1256.16 137.071 C 1259.39 149.273 1259.45 162.433 1258.98 174.961 C 1258.19 196.046 1249.79 264.835 1240.21 281.155 C 1239.82 281.148 1239.42 281.137 1239.03 281.134 C 1232.16 281.083 1227.11 282.676 1222.28 287.755 C 1208.03 302.722 1211.28 341.567 1194.74 342.248 C 1191.61 342.377 1188.97 341.597 1186.68 339.43 C 1180.89 333.956 1180.75 324.168 1180.81 316.7 C 1180.89 307.754 1181.94 298.689 1181.58 289.76 C 1180.96 273.958 1177.67 257.588 1175.86 241.836 C 1173.38 220.354 1172.11 198.913 1171.04 177.328 C 1139.36 173.53 1140.89 170.53 1120.72 148.44 C 1071.37 178.202 1017.87 191.178 960.199 186.701 C 946.703 185.653 932.89 184.182 919.744 180.925 C 907.481 177.886 896.184 172.714 884.888 167.173 C 884.489 191.707 883.949 216.325 881.112 240.724 C 879.374 255.674 875.934 270.455 874.716 285.45 C 873.595 299.247 876.598 313.952 875.004 327.096 C 874.463 331.559 873.23 335.483 869.971 338.69 C 867.601 341.023 864.483 343.534 860.996 343.491 C 858.836 343.465 856.445 341.589 855.152 339.94 C 843.472 325.05 849.114 287.074 821.898 282.412 C 819.779 282.049 817.628 282.001 815.483 281.985 C 810.776 266.176 807.908 246.965 806.606 230.524 C 805.838 220.832 805.962 210.922 804.732 201.292 C 803.124 188.695 799.353 177.563 799.236 164.607 C 799.115 154.479 800.741 144.405 804.043 134.83 C 812.09 112.059 827.742 99.9721 848.883 89.9353 C 855.902 70.9418 858.95 56.4138 877.247 44.257 C 897.512 30.7925 919.199 32.1952 942.034 36.8862 z"/>
<path transform="translate(0,0)" fill="rgb(74,50,42)" d="M 962.117 425.789 C 969.883 428.413 977.47 439.598 984.217 444.702 C 1005.04 460.453 1042.4 462.25 1064.61 448.417 C 1072.18 443.703 1085.13 427.724 1092.28 426.668 C 1095.22 427.442 1095.56 427.573 1097.59 429.807 C 1099.21 435.578 1097.51 440.082 1095.05 445.342 C 1090.65 451.689 1084.91 456.854 1078.5 461.103 C 1057.43 475.051 1029.24 477.518 1004.96 472.341 C 987.827 468.687 967.582 458.107 958.249 442.676 C 956.193 439.276 954.719 434.859 956.249 430.953 C 957.442 427.908 959.491 427.253 962.117 425.789 z"/>
<path transform="translate(0,0)" fill="rgb(225,129,101)" d="M 1018.32 306.54 C 1022.63 306.825 1026.32 308.327 1030.33 309.791 C 1031.89 319.373 1032.34 329.105 1031.66 338.79 C 1030.99 349.017 1022.76 377.126 1026.95 385.014 C 1028.9 388.681 1045.02 389.278 1049.52 391.176 C 1051.87 392.164 1052.4 393.062 1053.25 395.354 C 1052.56 398.66 1051.15 400.075 1048.91 402.408 C 1045.42 402.841 1041.91 402.973 1038.4 402.803 C 1029.21 402.389 1019.84 401.172 1013.44 393.802 C 1000.91 379.378 1011.29 350.816 1014.54 334.312 C 1016.36 325.082 1017.51 315.906 1018.32 306.54 z"/>
<path transform="translate(0,0)" fill="rgb(74,50,42)" d="M 1093.52 241.338 C 1107.95 240.729 1126.8 240.915 1138.89 250.02 C 1142.19 252.51 1145.84 256.558 1145.8 260.996 C 1145.78 263.439 1144.67 265.388 1142.68 266.771 C 1137.67 270.253 1130.62 267.694 1125.36 266.248 C 1107.2 261.032 1085.84 267.362 1074.85 262.759 C 1071.92 261.535 1070.01 260.077 1068.86 257.026 C 1068.9 254.185 1069.88 252.147 1071.64 249.978 C 1077.09 243.233 1085.48 242.339 1093.52 241.338 z"/>
<path transform="translate(0,0)" fill="rgb(74,50,42)" d="M 942.295 241.366 C 952.406 240.58 964.55 240.27 973.993 244.4 C 978.352 246.307 983.674 249.782 984.959 254.721 C 985.511 256.842 985.229 259.027 983.756 260.717 C 976.778 268.723 958.011 262.365 948.651 262.278 L 947.194 262.272 C 939.175 262.906 920.387 269.959 914.252 268.134 C 911.437 267.296 908.512 263.471 907.686 260.669 C 906.988 258.302 907.072 256.112 908.486 254.031 C 914.538 245.121 932.305 242.507 942.295 241.366 z"/>
<path transform="translate(0,0)" fill="rgb(74,50,42)" d="M 1098.88 297.063 C 1100.73 296.945 1102.6 296.875 1104.45 296.972 C 1108.88 297.203 1112.4 299.293 1115.17 302.717 C 1120.58 309.399 1120.95 318.849 1120.03 327.037 C 1118.96 336.564 1115.93 345.193 1108.28 351.256 C 1106.63 351.4 1105.02 351.531 1103.36 351.432 C 1099.16 351.182 1096.16 349.529 1093.46 346.318 C 1087.32 339.03 1086.52 327.442 1087.6 318.383 C 1088.7 309.135 1091.42 302.696 1098.88 297.063 z"/>
<path transform="translate(0,0)" fill="rgb(74,50,42)" d="M 945.98 298.965 C 947.778 298.878 949.617 298.774 951.405 299.056 C 955.918 299.766 959.891 303.043 962.48 306.677 C 967.596 313.856 968.594 323.847 967.258 332.352 C 965.97 340.554 963.189 347.107 956.349 351.982 C 954.006 352.45 951.961 352.678 949.612 352.204 C 945.747 351.425 942.651 348.588 940.523 345.391 C 934.869 336.898 933.907 323.484 935.903 313.729 C 937.378 306.517 939.812 302.851 945.98 298.965 z"/>
<path transform="translate(0,0)" fill="rgb(225,129,101)" d="M 812.16 315.481 C 820.112 321.466 821.846 346.42 826.524 356.802 C 830.11 364.757 834.839 373.071 840.002 380.1 C 841.777 382.517 844.092 384.449 845.679 386.992 C 845.887 387.326 846.06 387.68 846.25 388.024 C 844.065 387.284 842.309 386.499 840.442 385.116 C 818.599 368.925 815.521 340.203 812.16 315.481 z"/>
<path transform="translate(0,0)" fill="rgb(225,129,101)" d="M 1238.6 317.807 C 1240.38 319.67 1240.19 322.309 1240.2 324.762 C 1240.34 348.132 1226.42 374.7 1210.12 390.89 L 1208.87 389.488 C 1209.32 381.248 1220.21 371.127 1224.31 363.702 C 1232.27 349.298 1234.88 333.622 1238.6 317.807 z"/>
<path transform="translate(0,0)" fill="rgb(74,50,42)" d="M 1082.03 1911.64 C 1097.09 1910.27 1112.86 1911.3 1128 1911.4 L 1212.57 1911.62 C 1235.87 1911.57 1259.16 1912 1282.29 1908.81 C 1310.8 1930.41 1388.29 1984.42 1392.78 2019.82 C 1393.38 2024.56 1392.64 2028.51 1390.94 2032.91 C 1388.15 2036.95 1386.01 2038.22 1381.19 2039.06 C 1363.51 2042.13 1343 2039.72 1324.97 2039.87 L 1173.91 2039.88 C 1154.44 2040 1105.96 2042.7 1090.02 2038.41 C 1086.83 2037.55 1084.47 2035.8 1081.91 2033.79 C 1072.8 2015.62 1078.99 1934.3 1082.03 1911.64 z"/>
<path transform="translate(0,0)" fill="rgb(3,0,0)" d="M 1173.91 2039.88 L 1173.49 2039.09 L 1174.25 2036.78 C 1179.22 2035.28 1184.88 2035.93 1190.03 2036.03 C 1205.33 2036.05 1310.71 2034.18 1317.45 2037.14 L 1315.99 2037.03 C 1307.67 2036.48 1299.32 2037.05 1291 2037.44 C 1300.95 2037.65 1314.84 2036.03 1323.91 2039.5 C 1324.26 2039.64 1324.61 2039.75 1324.97 2039.87 L 1173.91 2039.88 z"/>
<path transform="translate(0,0)" fill="rgb(34,19,18)" d="M 1190.21 2035.05 L 1315.95 2035.1 C 1334.39 2035.14 1362.59 2037.46 1379.65 2035.71 C 1383.44 2035.32 1387.18 2033.71 1390.94 2032.91 C 1388.15 2036.95 1386.01 2038.22 1381.19 2039.06 C 1363.51 2042.13 1343 2039.72 1324.97 2039.87 C 1324.61 2039.75 1324.26 2039.64 1323.91 2039.5 C 1314.84 2036.03 1300.95 2037.65 1291 2037.44 C 1299.32 2037.05 1307.67 2036.48 1315.99 2037.03 L 1317.45 2037.14 C 1310.71 2034.18 1205.33 2036.05 1190.03 2036.03 L 1190.21 2035.05 z"/>
<path transform="translate(0,0)" fill="rgb(34,19,18)" d="M 1081.91 2033.79 C 1084.52 2032.87 1085.47 2032.95 1088.1 2033.74 C 1094.48 2035.63 1101.62 2035.45 1108.25 2035.77 C 1135.64 2037.12 1162.99 2033.69 1190.21 2035.05 L 1190.03 2036.03 C 1184.88 2035.93 1179.22 2035.28 1174.25 2036.78 L 1173.49 2039.09 L 1173.91 2039.88 C 1154.44 2040 1105.96 2042.7 1090.02 2038.41 C 1086.83 2037.55 1084.47 2035.8 1081.91 2033.79 z"/>
<path transform="translate(0,0)" fill="rgb(74,50,42)" d="M 774.327 1910.49 C 792.639 1912.52 812.036 1911.34 830.463 1911.38 L 925.194 1911.66 C 941.588 1911.7 958.188 1911.11 974.558 1911.84 C 977.326 1927.27 978.955 1942.9 979.432 1958.57 C 979.885 1972.35 982.524 2025.19 973.645 2033.87 C 969.926 2037.51 965.202 2038.85 960.168 2039.39 C 946.461 2040.87 931.767 2040.03 917.943 2040.04 L 838.493 2039.9 L 735.16 2040 C 716.98 2040.01 698.414 2040.79 680.276 2039.7 C 675.315 2039.4 669.539 2038.74 666.218 2034.52 C 663.052 2030.5 662.848 2024.42 663.762 2019.62 C 669.96 1987.05 746.242 1929.69 774.327 1910.49 z"/>
</svg>