<svg version="1.1" xmlns="http://www.w3.org/2000/svg" style="display: block;" viewBox="0 0 2048 2048" width="800" height="800" preserveAspectRatio="none">
<defs>
	<linearGradient id="Gradient1" gradientUnits="userSpaceOnUse" x1="861.587" y1="957.533" x2="519.833" y2="921.171">
		<stop class="stop0" offset="0" stop-opacity="1" stop-color="rgb(128,71,32)"/>
		<stop class="stop1" offset="1" stop-opacity="1" stop-color="rgb(158,94,48)"/>
	</linearGradient>
</defs>
<path transform="translate(0,0)" fill="rgb(86,146,88)" d="M 602.075 676.254 C 601.16 656.776 598.672 616.479 602.099 599.119 C 603.069 594.206 605.133 589.286 608.555 585.571 C 613.544 580.154 620.188 578.016 627.417 577.937 C 635.235 577.851 642.997 579.875 648.6 585.592 C 652.118 589.181 654.3 593.768 655.322 598.659 C 658.366 613.222 656.09 658.418 655.976 676.15 C 670.296 681.009 682.578 688.632 692.277 700.276 C 722.287 670.708 801.249 649.364 843.14 646.917 C 842.1 631.946 841.579 616.738 842.308 601.741 L 843.692 602.76 C 854.045 610.481 863.192 619.798 873.745 627.416 C 914.479 656.82 962.333 670.885 1012.35 663.946 C 1026.58 661.971 1040.06 658.674 1053.42 653.422 C 1059.96 650.853 1067.34 646.89 1074.08 645.26 L 1075.14 646.929 C 1096.56 653.299 1118.99 654.785 1140.33 661.66 C 1211.2 684.499 1264.86 740.842 1299.79 804.708 C 1315.01 832.544 1326.82 864.091 1336.69 894.206 C 1338.62 900.081 1349.19 938.86 1351.72 940.665 C 1341.1 946.021 1330.81 952.613 1320.83 959.084 C 1293.8 976.62 1270.56 995.212 1260.24 1026.94 C 1250.41 1057.14 1252.11 1094.18 1266.81 1122.55 C 1276.5 1141.25 1291.96 1158.16 1312.66 1164.32 C 1324.09 1167.72 1333.59 1165.6 1345.05 1164.38 L 1346.52 1168.8 C 1326.47 1180.35 1301.38 1182.57 1279.15 1176.61 C 1263.24 1172.34 1250.87 1163.54 1239.76 1151.56 C 1240.23 1168.59 1240.79 1185.61 1241.47 1202.63 C 1242.13 1222.56 1241.2 1248.95 1243.72 1267.89 L 1250.25 1445.61 C 1251.29 1472 1253.81 1498.8 1253.46 1525.22 C 1253.41 1528.77 1253.7 1532.97 1251.48 1535.9 C 1244.18 1540.82 1233.51 1542.19 1224.89 1543.05 C 1213.64 1543.28 1201.39 1546.52 1190.07 1547.87 C 1166.27 1550.66 1142.4 1552.85 1118.5 1554.45 C 1095.94 1556.04 1073.35 1557.11 1050.75 1557.67 C 1032.64 1557.96 1014.09 1556.9 996.103 1558.96 C 981.408 1559.21 966.459 1559.17 951.78 1558.52 C 945.975 1556.07 902.346 1558.2 891.666 1557.67 C 857.974 1556.01 824.274 1555.04 790.648 1552.2 C 760.068 1549.61 729.807 1545.32 699.377 1541.51 C 688.521 1540.36 670.605 1539.47 662.556 1531.86 C 660.508 1527.37 660.751 1520.93 660.882 1516.01 C 661.661 1486.49 665.548 1455.1 667.61 1425.41 C 671.416 1370.63 674.465 1315.57 679.778 1260.93 C 679.582 1239.67 682.511 1217.39 684.495 1196.2 C 685.543 1177.03 686.765 1157.87 688.162 1138.73 C 675.488 1156.75 651.974 1167.92 631.994 1175.57 C 614.257 1184.34 591.66 1188.05 572.009 1186.56 C 543.58 1184.41 520.549 1172.46 502.057 1151.08 C 505.011 1138.03 513.364 1125.78 517.001 1112.67 C 516.035 1113.63 516.015 1113.75 514.636 1114.54 C 498.681 1123.71 467.338 1114.82 450.61 1111.69 L 449.747 1111.54 C 441.052 1107.72 431.029 1102.85 425.219 1095.09 C 409.607 1074.25 411.937 1043.55 415.888 1019.45 C 420.445 991.642 430.89 956.599 455.392 939.713 C 473.392 927.308 495.648 928.366 516.186 932.383 C 530.256 890.49 547.726 849.673 562.187 807.855 C 556.85 800.111 552.089 792.615 548.698 783.789 C 540.499 762.778 541.191 739.337 550.615 718.845 C 561.251 695.468 578.933 684.975 602.075 676.254 z"/>
<path transform="translate(0,0)" fill="rgb(86,146,88)" d="M 679.778 1260.93 C 679.582 1239.67 682.511 1217.39 684.495 1196.2 C 692.791 1204.39 759.49 1211.91 774.782 1214.55 C 782.25 1234.83 794.211 1260.69 799.783 1280.42 C 802.543 1288.01 806.155 1302.44 814.146 1305.81 C 816.628 1306.86 818.848 1306.54 821.219 1305.37 C 823.932 1304.04 826.197 1300.53 827.839 1298.08 C 827.954 1292.86 827.625 1287.03 828.431 1281.9 C 830.616 1265.65 829.591 1233.88 828.529 1216.98 C 843.881 1216.83 859.399 1217.97 874.752 1218.49 C 897.297 1219.19 919.852 1219.56 942.408 1219.58 C 1042.82 1219.91 1141.81 1215.6 1241.47 1202.63 C 1242.13 1222.56 1241.2 1248.95 1243.72 1267.89 L 1250.25 1445.61 C 1251.29 1472 1253.81 1498.8 1253.46 1525.22 C 1253.41 1528.77 1253.7 1532.97 1251.48 1535.9 C 1244.18 1540.82 1233.51 1542.19 1224.89 1543.05 C 1213.64 1543.28 1201.39 1546.52 1190.07 1547.87 C 1166.27 1550.66 1142.4 1552.85 1118.5 1554.45 C 1095.94 1556.04 1073.35 1557.11 1050.75 1557.67 C 1032.64 1557.96 1014.09 1556.9 996.103 1558.96 C 981.408 1559.21 966.459 1559.17 951.78 1558.52 C 945.975 1556.07 902.346 1558.2 891.666 1557.67 C 857.974 1556.01 824.274 1555.04 790.648 1552.2 C 760.068 1549.61 729.807 1545.32 699.377 1541.51 C 688.521 1540.36 670.605 1539.47 662.556 1531.86 C 660.508 1527.37 660.751 1520.93 660.882 1516.01 C 661.661 1486.49 665.548 1455.1 667.61 1425.41 C 671.416 1370.63 674.465 1315.57 679.778 1260.93 z"/>
<path transform="translate(0,0)" fill="rgb(86,84,80)" d="M 1241.47 1202.63 C 1242.13 1222.56 1241.2 1248.95 1243.72 1267.89 L 1242.72 1267.94 C 1210.51 1269.85 1178.19 1276.91 1145.91 1279.69 C 1081.42 1285.24 1017.29 1286.74 952.593 1286.49 C 911.359 1286.32 869.485 1286.09 828.431 1281.9 C 830.616 1265.65 829.591 1233.88 828.529 1216.98 C 843.881 1216.83 859.399 1217.97 874.752 1218.49 C 897.297 1219.19 919.852 1219.56 942.408 1219.58 C 1042.82 1219.91 1141.81 1215.6 1241.47 1202.63 z"/>
<path transform="translate(0,0)" fill="rgb(86,84,80)" d="M 679.778 1260.93 C 679.582 1239.67 682.511 1217.39 684.495 1196.2 C 692.791 1204.39 759.49 1211.91 774.782 1214.55 C 782.25 1234.83 794.211 1260.69 799.783 1280.42 C 772.944 1277.53 746.678 1273.44 720.155 1268.36 C 713.068 1267.01 684.822 1259.05 679.778 1260.93 z"/>
<path transform="translate(0,0)" fill="url(#Gradient1)" d="M 602.075 676.254 C 601.16 656.776 598.672 616.479 602.099 599.119 C 603.069 594.206 605.133 589.286 608.555 585.571 C 613.544 580.154 620.188 578.016 627.417 577.937 C 635.235 577.851 642.997 579.875 648.6 585.592 C 652.118 589.181 654.3 593.768 655.322 598.659 C 658.366 613.222 656.09 658.418 655.976 676.15 C 670.296 681.009 682.578 688.632 692.277 700.276 L 692.94 701.655 C 696.065 708.061 700.73 713.707 703.661 720.233 C 711.989 738.78 712.738 763.199 706.303 782.394 C 702.324 794.263 695.384 803.963 687.791 813.76 C 698.499 840.141 708.017 867.004 718.013 893.663 C 722.374 905.296 726.16 917.53 731.497 928.735 C 741.932 928.067 765.453 924.224 773.802 931.47 C 777.824 934.961 779.718 940.364 779.844 945.58 C 779.962 950.493 778.306 955.763 774.607 959.147 C 767.663 965.499 751.04 963.205 742.237 963.13 L 789.726 1097.2 C 802.475 1132.49 821.965 1179.27 828.178 1215.21 C 828.28 1215.8 828.412 1216.39 828.529 1216.98 C 829.591 1233.88 830.616 1265.65 828.431 1281.9 C 827.625 1287.03 827.954 1292.86 827.839 1298.08 C 826.197 1300.53 823.932 1304.04 821.219 1305.37 C 818.848 1306.54 816.628 1306.86 814.146 1305.81 C 806.155 1302.44 802.543 1288.01 799.783 1280.42 C 794.211 1260.69 782.25 1234.83 774.782 1214.55 C 759.49 1211.91 692.791 1204.39 684.495 1196.2 C 685.543 1177.03 686.765 1157.87 688.162 1138.73 C 675.488 1156.75 651.974 1167.92 631.994 1175.57 C 614.257 1184.34 591.66 1188.05 572.009 1186.56 C 543.58 1184.41 520.549 1172.46 502.057 1151.08 C 505.011 1138.03 513.364 1125.78 517.001 1112.67 C 516.035 1113.63 516.015 1113.75 514.636 1114.54 C 498.681 1123.71 467.338 1114.82 450.61 1111.69 L 449.747 1111.54 C 441.052 1107.72 431.029 1102.85 425.219 1095.09 C 409.607 1074.25 411.937 1043.55 415.888 1019.45 C 420.445 991.642 430.89 956.599 455.392 939.713 C 473.392 927.308 495.648 928.366 516.186 932.383 C 530.256 890.49 547.726 849.673 562.187 807.855 C 556.85 800.111 552.089 792.615 548.698 783.789 C 540.499 762.778 541.191 739.337 550.615 718.845 C 561.251 695.468 578.933 684.975 602.075 676.254 z"/>
<path transform="translate(0,0)" fill="rgb(253,201,160)" d="M 449.747 1111.54 C 441.052 1107.72 431.029 1102.85 425.219 1095.09 C 409.607 1074.25 411.937 1043.55 415.888 1019.45 C 420.445 991.642 430.89 956.599 455.392 939.713 C 473.392 927.308 495.648 928.366 516.186 932.383 C 536.656 938.16 553.58 949.756 568.397 964.781 C 588.069 980.347 607.852 987.964 612.258 1015.88 C 636.114 1025.14 658.579 1042.79 668.959 1066.76 C 677.874 1087.35 675.541 1110.34 667.356 1130.77 C 662.315 1143.36 655.348 1156.49 644.908 1165.38 C 640.752 1168.92 635.958 1171.85 631.994 1175.57 C 614.257 1184.34 591.66 1188.05 572.009 1186.56 C 543.58 1184.41 520.549 1172.46 502.057 1151.08 C 505.011 1138.03 513.364 1125.78 517.001 1112.67 C 516.035 1113.63 516.015 1113.75 514.636 1114.54 C 498.681 1123.71 467.338 1114.82 450.61 1111.69 L 449.747 1111.54 z"/>
<path transform="translate(0,0)" fill="rgb(86,146,88)" d="M 568.397 964.781 C 571.011 963.427 573.123 962.544 576.089 962.362 C 590.18 961.5 605.022 962.704 619.195 962.76 C 639.652 962.841 660.628 961.937 681.034 963.139 L 774.782 1214.55 C 759.49 1211.91 692.791 1204.39 684.495 1196.2 C 685.543 1177.03 686.765 1157.87 688.162 1138.73 C 675.488 1156.75 651.974 1167.92 631.994 1175.57 C 635.958 1171.85 640.752 1168.92 644.908 1165.38 C 655.348 1156.49 662.315 1143.36 667.356 1130.77 C 675.541 1110.34 677.874 1087.35 668.959 1066.76 C 658.579 1042.79 636.114 1025.14 612.258 1015.88 C 607.852 987.964 588.069 980.347 568.397 964.781 z"/>
<path transform="translate(0,0)" fill="rgb(86,146,88)" d="M 617.875 837.644 C 623.371 838.068 628.945 837.974 634.457 838.051 C 641.872 854.866 648.208 872.474 654.633 889.702 C 659.244 902.066 664.613 914.798 667.77 927.575 L 636.25 927.645 C 618.814 927.744 600.895 928.589 583.547 926.778 C 595.965 897.452 607.414 867.724 617.875 837.644 z"/>
<path transform="translate(0,0)" fill="rgb(102,71,54)" d="M 620.008 726.847 C 635.935 722.144 652.671 731.174 657.484 747.067 C 662.297 762.961 653.382 779.759 637.522 784.682 C 621.507 789.652 604.508 780.631 599.648 764.582 C 594.788 748.533 603.926 731.596 620.008 726.847 z"/>
<path transform="translate(0,0)" fill="rgb(241,176,133)" d="M 842.308 601.741 L 843.692 602.76 C 854.045 610.481 863.192 619.798 873.745 627.416 C 914.479 656.82 962.333 670.885 1012.35 663.946 C 1026.58 661.971 1040.06 658.674 1053.42 653.422 C 1059.96 650.853 1067.34 646.89 1074.08 645.26 L 1075.14 646.929 C 1074.96 651.968 1074.72 657.004 1074.41 662.037 C 1070.59 718.524 1027.01 757.602 987.206 792.553 C 962.268 780.483 938.393 761.251 916.004 744.937 C 891.184 726.852 861.64 704.224 849.849 674.921 C 846.194 665.838 844.657 656.547 843.14 646.917 C 842.1 631.946 841.579 616.738 842.308 601.741 z"/>
<path transform="translate(0,0)" fill="rgb(253,201,160)" d="M 886.873 60.6869 C 894.98 48.9534 904.617 38.9553 916.782 31.4317 C 950.797 10.3944 994.104 6.97741 1032.53 16.2863 C 1072.8 26.041 1100.4 47.5269 1121.83 82.443 C 1144.18 77.7366 1166.28 80.5241 1186.12 92.0292 C 1210.02 105.898 1224.64 129.708 1231.47 156.071 C 1243.56 202.716 1232.55 249.362 1218.62 294.135 C 1214.18 308.417 1209.88 323.796 1202.31 336.772 C 1218.48 359.524 1222.12 378.389 1217.39 405.991 C 1213.92 426.275 1201.65 458.959 1186.53 473.225 C 1181.55 477.925 1173.87 481.656 1170.83 487.962 C 1166.27 497.435 1165.34 514.06 1161.9 524.997 C 1145.99 575.552 1117.37 614.901 1074.08 645.26 C 1067.34 646.89 1059.96 650.853 1053.42 653.422 C 1040.06 658.674 1026.58 661.971 1012.35 663.946 C 962.333 670.885 914.479 656.82 873.745 627.416 C 863.192 619.798 854.045 610.481 843.692 602.76 L 842.308 601.741 C 837.196 594.025 830.707 587.225 825.433 579.601 C 807.698 553.416 795.602 523.83 789.914 492.721 C 786.721 493.683 783.531 494.429 780.198 494.706 C 769.27 495.612 758.211 491.078 750.052 483.996 C 729.11 465.818 718.641 432.677 716.867 405.867 C 715.873 390.845 716.117 371.611 724.943 358.699 C 728.994 352.772 734.507 347.513 739.226 342.089 C 736.966 330.543 738.031 317.809 734.409 306.686 C 727.529 285.553 698.536 289.248 687.877 267.265 C 682.964 257.131 681.09 241.35 685.177 230.659 C 691.934 212.984 710.093 216.12 724.058 209.478 C 748.883 197.67 744.954 165.577 747.125 142.798 C 748.095 132.747 750.246 122.845 753.534 113.298 C 761.982 89.7795 779.369 70.5449 801.918 59.7738 C 820.12 51.1384 843.866 48.5763 863.53 53.0214 C 871.377 54.7951 879.279 57.98 886.873 60.6869 z"/>
<path transform="translate(0,0)" fill="rgb(102,71,54)" d="M 886.873 60.6869 C 894.98 48.9534 904.617 38.9553 916.782 31.4317 C 950.797 10.3944 994.104 6.97741 1032.53 16.2863 C 1072.8 26.041 1100.4 47.5269 1121.83 82.443 C 1144.18 77.7366 1166.28 80.5241 1186.12 92.0292 C 1210.02 105.898 1224.64 129.708 1231.47 156.071 C 1243.56 202.716 1232.55 249.362 1218.62 294.135 C 1214.18 308.417 1209.88 323.796 1202.31 336.772 C 1192.35 346.813 1191.37 357.883 1178.02 366.745 C 1174.91 310.205 1178.8 217.175 1133.29 176.917 C 1118.78 164.081 1099.08 158.377 1079.9 159.609 C 1058.49 160.984 1040.65 170.129 1026.62 186.273 C 1010.25 205.104 997.899 221.359 971.256 223.519 C 950.719 225.185 927.649 218.306 911.964 204.798 C 904.866 198.685 900.031 191.767 895.269 183.782 C 894.443 198.61 891.505 213.593 879.691 223.888 C 866.062 235.766 846.77 236.85 829.597 236.452 C 840.112 276.738 849.341 326.002 826.829 363.991 C 821.455 373.059 814.78 380.46 807.299 387.824 C 804.366 370.08 801.158 351.184 785.482 339.802 C 777.564 334.052 768.205 332.268 758.646 334.052 C 751.714 335.346 745.288 338.597 739.226 342.089 C 736.966 330.543 738.031 317.809 734.409 306.686 C 727.529 285.553 698.536 289.248 687.877 267.265 C 682.964 257.131 681.09 241.35 685.177 230.659 C 691.934 212.984 710.093 216.12 724.058 209.478 C 748.883 197.67 744.954 165.577 747.125 142.798 C 748.095 132.747 750.246 122.845 753.534 113.298 C 761.982 89.7795 779.369 70.5449 801.918 59.7738 C 820.12 51.1384 843.866 48.5763 863.53 53.0214 C 871.377 54.7951 879.279 57.98 886.873 60.6869 z"/>
<path transform="translate(0,0)" fill="rgb(241,176,133)" d="M 1034.99 387.18 C 1037.76 387.52 1039.32 387.773 1041.76 389.259 C 1049 401.738 1056.18 487.482 1051.84 503.811 C 1050.5 508.847 1048.31 511.974 1043.74 514.559 C 1031.51 521.474 1013.54 519.517 1000.58 515.777 C 996.987 514.143 992.8 512.261 990.945 508.606 C 990.87 505.85 990.704 502.391 992.247 499.933 C 998.522 489.935 1015.99 501.364 1025.43 498.303 C 1051.15 489.97 1017.77 409.106 1027.89 391.458 C 1029.55 388.569 1032.03 388 1034.99 387.18 z"/>
<path transform="translate(0,0)" fill="rgb(241,176,133)" d="M 948.008 540.602 C 953.454 542.463 958.453 545.847 963.45 548.688 C 977.73 556.809 993.605 563.551 1010.38 560.587 C 1020.71 558.763 1031.37 551.723 1041.54 551.483 C 1044.31 551.417 1046.92 552.343 1048.84 554.39 C 1050.19 555.839 1050.63 557.916 1050.42 559.862 C 1049.86 564.944 1047.24 567.296 1043.47 570.326 C 1035.73 575.078 1028.28 578.449 1019.31 580.151 C 997.806 584.235 969.257 579.133 951.208 566.422 C 946.912 563.396 943.075 559.098 942.526 553.657 C 942.002 548.456 945.014 544.5 948.008 540.602 z"/>
<path transform="translate(0,0)" fill="rgb(102,71,54)" d="M 922.663 310.375 C 927.753 309.811 933.273 309.776 938.397 309.838 C 946.242 309.933 954.782 312.256 960.22 318.223 C 962.672 320.913 964.626 324.758 964.14 328.498 C 963.821 330.948 962.45 333.004 960.631 334.593 C 951.944 342.18 938.686 339.51 928.125 339.201 C 917.491 340.447 906.2 346.27 895.645 342.056 C 892.605 340.842 889.708 338.594 888.816 335.291 C 887.738 331.303 889.481 326.775 891.867 323.617 C 899.053 314.106 911.527 311.627 922.663 310.375 z"/>
<path transform="translate(0,0)" fill="rgb(102,71,54)" d="M 1087.8 310.27 C 1102.59 309.06 1120.11 309.616 1133.87 315.786 C 1138.07 317.669 1143.13 320.692 1144.41 325.476 C 1145.39 329.118 1143.86 333.031 1141.92 336.076 C 1138.81 340.977 1134.13 342.592 1128.72 343.79 C 1122.61 342.207 1116.69 340.723 1110.38 340.154 C 1100.49 339.26 1088.8 340.476 1079.48 336.859 C 1075.25 335.217 1071.89 332.651 1070.35 328.28 C 1069.25 325.163 1070.04 320.708 1071.79 318.024 C 1074.84 313.334 1082.71 311.433 1087.8 310.27 z"/>
<path transform="translate(0,0)" fill="rgb(102,71,54)" d="M 1094.97 375.064 C 1097.45 374.828 1100.05 374.555 1102.54 374.714 C 1106.98 374.996 1111.43 378.037 1114.17 381.392 C 1119.55 387.974 1120.19 397.585 1119.07 405.675 C 1117.65 415.948 1113.69 423.491 1105.36 429.595 C 1102.77 430.076 1099.91 430.612 1097.28 430.194 C 1092.67 429.462 1088.76 426.354 1086.27 422.512 C 1081.12 414.575 1080.68 402.626 1082.55 393.617 C 1084.35 384.937 1087.49 379.749 1094.97 375.064 z"/>
<path transform="translate(0,0)" fill="rgb(102,71,54)" d="M 921.994 376.999 C 924.781 376.869 927.98 376.819 930.66 377.678 C 935.637 379.274 939.626 383.094 942.016 387.675 C 946.33 395.947 946.381 407.379 943.616 416.136 C 941.236 423.67 937.755 427.995 930.867 431.696 C 928.387 431.848 925.684 431.998 923.249 431.453 C 918.562 430.405 914.667 427.108 912.123 423.128 C 907.132 415.323 906.34 403.596 908.534 394.773 C 910.656 386.236 914.596 381.523 921.994 376.999 z"/>
<path transform="translate(0,0)" fill="rgb(86,84,80)" d="M 699.377 1541.51 C 729.807 1545.32 760.068 1549.61 790.648 1552.2 C 824.274 1555.04 857.974 1556.01 891.666 1557.67 C 902.346 1558.2 945.975 1556.07 951.78 1558.52 L 949.282 1559.29 C 946.184 1568.51 945.173 1610.37 944.411 1622.34 L 932.46 1795.97 C 931.459 1809.49 930.545 1823.02 929.717 1836.55 C 929.032 1848.61 928.995 1861.2 926.378 1873.02 C 919.042 1880.56 911.048 1883.61 900.521 1883.94 C 900.273 1902.27 902.513 2012.97 894.761 2021.49 C 883.838 2033.5 835.251 2036.52 818.609 2037.75 C 783.453 2040.34 643.329 2046.68 620.073 2024.99 C 616.86 2021.99 615.526 2017.86 615.714 2013.53 C 617.233 1978.55 667.734 1956.08 689.737 1935.41 C 703.722 1922.28 701.38 1900.85 702.253 1883.07 C 696.255 1881.35 687.508 1879.18 683.128 1874.49 C 680.233 1871.39 680.682 1866.61 680.691 1862.66 C 680.775 1826.2 685.319 1789.12 687.464 1752.67 L 699.377 1541.51 z"/>
<path transform="translate(0,0)" fill="rgb(149,86,44)" d="M 702.253 1883.07 C 712.998 1884.29 723.633 1886.47 734.388 1887.53 C 764.519 1890.5 795.808 1891.03 826.041 1889.71 C 842.294 1889 858.618 1888.21 874.819 1886.72 C 883.254 1885.94 892.123 1884.17 900.521 1883.94 C 900.273 1902.27 902.513 2012.97 894.761 2021.49 C 883.838 2033.5 835.251 2036.52 818.609 2037.75 C 783.453 2040.34 643.329 2046.68 620.073 2024.99 C 616.86 2021.99 615.526 2017.86 615.714 2013.53 C 617.233 1978.55 667.734 1956.08 689.737 1935.41 C 703.722 1922.28 701.38 1900.85 702.253 1883.07 z"/>
<path transform="translate(0,0)" fill="rgb(215,225,225)" d="M 1432.76 706.384 C 1443.13 705.713 1453.52 705.538 1463.91 705.858 L 1514.25 705.645 C 1523.04 705.621 1532.79 704.947 1541.45 706.417 C 1546.58 707.289 1551.82 709.242 1555.55 712.999 C 1558.7 716.161 1560.26 720.221 1560.09 724.674 C 1559.86 730.965 1556.94 736.007 1552.15 739.968 C 1546.89 744.315 1540.24 746.943 1534.03 749.621 C 1532.3 771.003 1534.2 792.547 1533.03 813.926 C 1542.27 813.962 1551.77 816.785 1558.55 823.338 C 1563.97 828.609 1566.96 835.893 1566.82 843.454 C 1566.61 854.007 1561.01 861.743 1554.31 869.267 C 1562.98 874.836 1571.14 882.062 1573.21 892.688 C 1574.57 899.611 1572.56 906.727 1568.57 912.459 C 1566.16 915.915 1563.15 918.947 1560.05 921.776 C 1567.51 928.969 1574.5 936.196 1574.48 947.341 C 1574.46 954.486 1570.93 960.897 1565.92 965.792 C 1562.53 969.11 1558.5 971.714 1554.3 973.897 C 1569.08 1004.03 1584.42 1033.89 1600.31 1063.46 C 1610.4 1082.44 1626.02 1106.07 1631.84 1126.48 C 1634.69 1136.48 1634.95 1145.3 1631.53 1155.28 C 1627.73 1166.39 1620.03 1177.07 1609.24 1182.26 C 1604.06 1184.75 1596.75 1187.82 1591.06 1188.52 C 1581.26 1189.73 1570.71 1189.07 1560.82 1189.08 L 1504.96 1189.06 L 1427.59 1189.02 C 1414.02 1189.02 1400.23 1189.65 1386.69 1188.8 C 1380.61 1188.42 1374.97 1187.4 1369.23 1185.28 C 1360.1 1181.91 1352.46 1176.53 1346.52 1168.8 L 1345.05 1164.38 C 1333.59 1165.6 1324.09 1167.72 1312.66 1164.32 C 1291.96 1158.16 1276.5 1141.25 1266.81 1122.55 C 1252.11 1094.18 1250.41 1057.14 1260.24 1026.94 C 1270.56 995.212 1293.8 976.62 1320.83 959.084 C 1330.81 952.613 1341.1 946.021 1351.72 940.665 L 1365.04 934.095 C 1365.39 904.353 1372.88 877.295 1393.37 855.083 C 1404.25 843.291 1424.55 828.498 1440.92 827.819 C 1441.73 819.474 1441.16 810.693 1441.14 802.278 C 1441.09 783.966 1440.82 765.766 1439.87 747.475 C 1434.95 747.04 1430.85 746.02 1426.46 743.696 C 1421.06 740.837 1416.32 736.612 1414.58 730.564 C 1412.5 723.307 1415.08 717.651 1418.74 711.522 C 1423.46 708.425 1427.19 707.314 1432.76 706.384 z"/>
<path transform="translate(0,0)" fill="rgb(253,201,160)" d="M 1440.92 827.819 C 1441.3 827.979 1441.66 828.184 1442.06 828.3 C 1445.86 829.422 1450.99 828.083 1454.97 827.951 C 1465.04 827.616 1478.98 830.691 1484.76 839.748 C 1488.1 844.971 1487.75 852.023 1486.39 857.82 C 1484.52 865.785 1480.07 871.857 1472.98 875.969 C 1465.06 880.554 1454.91 882.352 1446.09 884.479 C 1441.51 907.161 1442.21 930.709 1433.76 952.544 C 1427.55 968.585 1418.8 983.767 1410.77 998.944 C 1400.92 1017.55 1391.27 1036.21 1381.02 1054.6 C 1368.51 1077.05 1344.25 1113.03 1341.04 1137.91 C 1339.86 1147.01 1343.97 1155.55 1345.05 1164.38 C 1333.59 1165.6 1324.09 1167.72 1312.66 1164.32 C 1291.96 1158.16 1276.5 1141.25 1266.81 1122.55 C 1252.11 1094.18 1250.41 1057.14 1260.24 1026.94 C 1270.56 995.212 1293.8 976.62 1320.83 959.084 C 1330.81 952.613 1341.1 946.021 1351.72 940.665 L 1365.04 934.095 C 1365.39 904.353 1372.88 877.295 1393.37 855.083 C 1404.25 843.291 1424.55 828.498 1440.92 827.819 z"/>
<path transform="translate(0,0)" fill="rgb(253,201,160)" d="M 1533.03 813.926 C 1542.27 813.962 1551.77 816.785 1558.55 823.338 C 1563.97 828.609 1566.96 835.893 1566.82 843.454 C 1566.61 854.007 1561.01 861.743 1554.31 869.267 C 1562.98 874.836 1571.14 882.062 1573.21 892.688 C 1574.57 899.611 1572.56 906.727 1568.57 912.459 C 1566.16 915.915 1563.15 918.947 1560.05 921.776 C 1567.51 928.969 1574.5 936.196 1574.48 947.341 C 1574.46 954.486 1570.93 960.897 1565.92 965.792 C 1562.53 969.11 1558.5 971.714 1554.3 973.897 C 1553.03 974.135 1551.77 974.36 1550.48 974.512 C 1541.45 975.574 1528.62 969.381 1521.81 963.879 C 1516.9 959.914 1513.28 954.721 1512.8 948.288 C 1512.17 939.904 1516.56 933.529 1521.77 927.499 C 1513.14 923.288 1504.99 919.032 1500.66 909.933 C 1498.02 904.377 1497.69 898.116 1499.88 892.353 C 1503.98 881.547 1513.86 876.801 1523.77 872.562 C 1522.37 871.426 1521.05 870.214 1519.75 868.967 C 1511.77 861.325 1504.88 852.272 1504.92 840.706 C 1504.95 833.767 1507.18 826.615 1512.26 821.71 C 1517.89 816.288 1525.41 813.909 1533.03 813.926 z"/>
<path transform="translate(0,0)" fill="rgb(147,189,195)" d="M 1415.75 1042.1 C 1438.8 1041.21 1462.18 1042.04 1485.27 1042.11 C 1508.58 1042.17 1532.17 1041.43 1555.42 1043.14 C 1565.05 1056.63 1572.65 1072.14 1580.78 1086.59 C 1586.42 1096.61 1593.29 1106.81 1597.67 1117.44 C 1600.02 1123.14 1601.73 1128.98 1601.67 1135.2 C 1601.61 1141.99 1599.44 1148.74 1594.39 1153.45 C 1584.55 1162.63 1567.19 1160.13 1554.75 1160.01 L 1450.7 1160 C 1432.44 1159.99 1413.63 1160.85 1395.42 1159.42 C 1390.97 1159.07 1386.11 1158.62 1382.12 1156.49 C 1376.59 1153.55 1372.9 1147.95 1371.08 1142.09 C 1369.47 1137.04 1369.33 1131.62 1370.69 1126.49 C 1375.8 1106.74 1404.63 1063.06 1415.75 1042.1 z"/>
<path transform="translate(0,0)" fill="rgb(86,84,80)" d="M 996.103 1558.96 C 1014.09 1556.9 1032.64 1557.96 1050.75 1557.67 C 1073.35 1557.11 1095.94 1556.04 1118.5 1554.45 C 1142.4 1552.85 1166.27 1550.66 1190.07 1547.87 C 1201.39 1546.52 1213.64 1543.28 1224.89 1543.05 C 1224.51 1567.7 1226.39 1592.56 1227.25 1617.2 L 1234.39 1775.98 C 1235.85 1802.92 1239.08 1836.31 1238.58 1862.62 C 1238.5 1866.61 1238.51 1871.73 1235.43 1874.7 C 1231.05 1878.94 1224.02 1880.41 1218.19 1881.22 C 1153.48 1890.09 1087.35 1891.29 1022.74 1880.36 C 1014.77 1877.1 1006.74 1876.06 999.12 1871.65 C 996.294 1850.62 997.575 1828.25 997.526 1807.02 L 996.921 1704.66 L 995.754 1606.02 C 995.636 1590.6 994.347 1574.26 996.103 1558.96 z"/>
<path transform="translate(0,0)" fill="rgb(149,86,44)" d="M 1022.74 1880.36 C 1087.35 1891.29 1153.48 1890.09 1218.19 1881.22 C 1221.32 1893.17 1219.03 1907.36 1223.89 1918.68 C 1225.85 1923.27 1229.28 1926.26 1233.4 1928.92 C 1241.78 1934.34 1251.62 1938.17 1260.62 1942.49 C 1281.12 1952.32 1302.68 1963.77 1319.57 1979.06 C 1329.03 1987.61 1337.63 1998.41 1337.98 2011.75 C 1338.09 2016.06 1336.75 2019.44 1333.63 2022.43 C 1313.05 2042.18 1194.26 2041.97 1161.49 2040.8 C 1139.52 2040.02 1036.57 2034.41 1025.29 2020.93 C 1023.26 2018.5 1023.04 2014.17 1022.78 2011.09 C 1021.03 1989.57 1022.43 1966.68 1022.4 1945 C 1022.38 1923.7 1020.86 1901.53 1022.74 1880.36 z"/>
<path transform="translate(0,0)" fill="rgb(149,86,44)" d="M 449.747 1111.54 L 450.61 1111.69 C 467.338 1114.82 498.681 1123.71 514.636 1114.54 C 516.015 1113.75 516.035 1113.63 517.001 1112.67 C 513.364 1125.78 505.011 1138.03 502.057 1151.08 C 489.848 1180.89 476.184 1210.1 463.41 1239.68 C 454.233 1260.93 445.868 1284.23 434.851 1304.57 C 433.535 1307 432.032 1309.39 429.446 1310.65 C 427.007 1311.84 424.539 1312.3 421.915 1311.35 C 418.776 1310.22 416.759 1307.33 415.607 1304.34 C 411.385 1293.36 413.622 1277.33 413.795 1265.71 C 414.041 1249.27 412.249 1232.39 414.187 1216.04 C 416.618 1195.54 440.23 1132.16 449.747 1111.54 z"/>
</svg>