<svg version="1.1" id="Layer_1" xmlns:x="ns_extend;" xmlns:i="ns_ai;" xmlns:graph="ns_graphs;" xmlns="http://www.w3.org/2000/svg" xmlns:xlink="http://www.w3.org/1999/xlink" x="0px" y="0px" viewBox="0 0 154.7 65.7" style="enable-background:new 0 0 154.7 65.7;" xml:space="preserve">
 <metadata>
  <sfw xmlns="ns_sfw;">
   <slices>
   </slices>
   <sliceSourceBounds bottomLeftOrigin="true" height="65.7" width="154.7" x="165.5" y="-239.2">
   </sliceSourceBounds>
  </sfw>
 </metadata>
 <g>
  <path d="M63.2,15.4c0,0,0.6-0.9,1.1-1.6c0.9-1.2,2.5-2.9,3.8-4c0.4-0.3,0.8-0.7,0.8-0.7s-0.7,0.1-1.1,0.2c-0.9,0.2-2.3,1.1-3,1.7
		c-1.1,1-2.4,2.5-1.8,4C63.1,15.1,63.2,15.4,63.2,15.4 M69.5,17.1c1.8-0.1,3.5-0.6,5-1.5s3.8-2.5,3.6-4.5c-0.1-0.6-0.5-1.1-1-1.3
		c-0.7-0.3-1-0.2-1.9,0c-0.6,0.2-0.9,0.3-1.5,0.6c-1.8,1-4.3,3.2-5.6,4.9c-0.3,0.4-0.6,0.9-0.9,1.2c-0.2,0.2-0.3,0.4-0.3,0.4
		C67,17.1,68.8,17.1,69.5,17.1 M64.9,20.4c-0.2,0.2-0.4,0.7-0.6,1c-0.1,0.2-0.3,0.4-0.4,0.5c-0.5,0.3-0.9,0.4-1.3,0
		c-0.6-0.6-1-1.4-1-2.3v-1.1c-0.1-0.5-0.6-1.1-0.9-1.6c-0.3-0.6-0.6-1.6-0.6-2.3c-0.1-2.1,1-4,2.4-5.5s3.3-2.8,5.3-3.6
		c1.9-0.8,4.7-1.4,6.8-0.6c0.7,0.2,1.6,0.8,2.1,1.4c0.1,0.1,0.2,0.3,0.3,0.3c0.1,0.1,0.3,0.1,0.5,0.1c0.7,0.1,1.6,0.6,2,1
		c0.8,0.7,1.2,1.3,1.4,2.3c0.4,1.9-0.7,4-1.9,5.3c-2.1,2.2-4.3,3.7-7,4.8c-1.2,0.5-3.1,0.9-4.4,0.8c-0.4,0-0.9-0.1-1.3-0.2
		c-0.2,0-1-0.2-1.1-0.3C65.1,20.5,65,20.4,64.9,20.4 M67.4,24.6c0.1,0,0.2,0.1,0.3,0.1c1,0.4,1.4,1.3,1.6,2.2
		c0.6,2.3,0.8,7.3,0.9,9.2c0.1,1.5,0.1,2.9,0.2,4.4c0.1,1.2,0.1,2.9-0.1,4c-0.1,0.4-0.4,0.9-0.8,1.2C69,46,68,46,67.4,45.9
		c-1.4-0.3-1.9-1.2-2.1-2.6c-0.5-3.3-0.2-9.8,0-12.6c0.1-0.9,0.4-3.8,0.9-5C66.4,25.4,66.8,24.5,67.4,24.6 M24.1,29.6
		c0,0-2.1,0.1-3.5,0.3c-1.8,0.2-5.2,0.8-7.2,1.5c-0.6,0.2-1.8,0.7-1.9,1.3s0.3,1.1,0.7,1.6c0.3,0.3,1.7,1.7,2.1,2
		c1.7,1.4,5.1,3.6,7.6,4.6c0.9,0.4,2.3,0.9,2.3,0.9s-0.1-4.1-0.1-8.1C24,31.7,24.1,29.6,24.1,29.6 M62.2,31.2
		c0.1,1.1-0.2,3.2-0.2,3.4c-0.1,0.6-0.6,2.1-0.6,2.2c-0.4,0.9-0.8,1.6-1.2,2.3c-0.7,1.2-2.3,3.2-3.3,4c-3.6,3.1-9.1,4.9-13.9,5.4
		c-3.2,0.4-6.9,0.3-10.4-0.3c-1.2-0.2-2.9-0.6-2.9-0.6s0,0.7-0.1,1.2c0,0.2-0.2,0.8-0.3,1c-0.2,0.5-0.7,0.8-1.2,0.9
		c-0.7,0.1-1.5,0.2-2.1-0.1c-1.1-0.5-1.5-1.5-1.7-2.6c-0.2-0.9-0.3-2.6-0.3-2.6s-0.8-0.4-1.5-0.7c-2.1-1-4.1-2.3-5.8-3.6
		c-0.5-0.4-2.5-2.1-3-2.5c-1.3-1.2-2.4-2.4-3.3-4C9.7,33.4,9.5,32.3,10,31c0.7-1.8,3.3-3.1,5-3.9c1.3-0.6,5.3-1.9,6.9-2.1
		c0.8-0.1,2-0.3,2.1-0.4c0,0,0.1,0,0.1-0.1s0.1-1.8,0.1-2.5c0-0.6,0.5-4.8,0.6-5.7c0.1-0.5,0.4-2.3,0.8-2.8c0.2-0.3,0.7-0.3,1-0.1
		c1.9,1.2,2.5,5.3,2.6,7.4c0.1,1.3,0.1,3.2,0.1,3.2s2.2-0.1,3.5,0c1.3,0,2.7,0.2,4.1,0.5c1.7,0.3,5.1,1,7,2c1.6,0.8,3.1,2.2,3.6,3.6
		c0.4,1.3,0.4,2.2-0.3,3.4c-0.8,1.3-2.2,2.3-3.7,2.4c-0.4,0-2.1-0.2-2.6-0.6c-0.2-0.2-0.2-0.4,0-0.6c0.1-0.1,0.8-0.5,1.3-0.7
		c0.2-0.1,0.4-0.3,0.6-0.4c0.4-0.3,0.7-0.7,0.7-1.1c-0.1-0.6-0.6-0.9-1.2-1.1c-2.6-1-7.9-1.9-10.5-2.1c-1-0.1-2.4-0.1-2.4-0.1
		l0.3,14.1c0,0,1.2,0.2,2.1,0.4c0.5,0.1,2.8,0.3,3.4,0.3c4.6,0.1,9.6-0.3,13.8-2.3c1.8-0.9,3.5-1.9,4.8-3.4c1.7-1.9,2.6-4.6,2.3-7.3
		c-0.3-3-2.4-6.6-4.1-8.8C47.5,16.5,39.9,11.7,33.1,9c-6.9-2.8-13.7-4.5-21-4.7c-1.9-0.1-6,0-8.1,0.6C3.7,5,3.4,5.1,3.1,5.1
		c-0.2,0-0.6,0.2-0.7,0.3c-0.1,0-0.1,0.1-0.1,0.1s0.1,0.1,0.2,0.1c0.2,0.1,1.1,0.2,1.6,0.2c0.4,0.1,0.9,0.3,1,0.6
		c0.2,0.3,0.2,0.5,0,0.8c-0.5,0.6-2.2,0.5-3,0.4s-1.8-0.4-2-1.1c-0.2-0.8,0.2-1.6,0.6-2.4c0.9-1.5,2.1-2.3,3.9-2.8
		c2.5-0.7,5.8-1.2,8.2-1.3c5.4-0.2,10.6,0.7,15.9,2.3c3,0.9,7,2.4,9.9,3.8c2.1,1,5.4,2.8,7.2,4.1c0.6,0.4,4,2.9,4.5,3.3
		c1.1,0.9,2.5,2.2,3.6,3.2c2,2,4.5,5.1,5.7,7.5c0.3,0.6,0.5,1.2,0.9,1.8c0.1,0.2,0.7,1.6,0.8,2s0.2,1,0.2,1
		C62,29.6,62.2,30.8,62.2,31.2L62.2,31.2z M85.7,32.3h0.2c1.7,0.2,3.3,0.5,4.6,1.1c1.2,0.5,1.8,1.2,2.5,2.3c0.9,1.8,1,4.2,0.2,6.1
		c-0.6,1.4-2,2.5-3.3,3.2c-1.3,0.6-2.6,0.9-4.1,1.1c-2.6,0.3-5.5-0.2-7.8-1.4c-1.4-0.7-3.1-1.9-4-3.4c-0.6-1.1-0.6-2.6,0.2-3.6
		c1.2-1.7,3.9-2,5.8-2c1.5,0.1,4.2,0.5,5.7,1c0.4,0.1,1.9,0.7,2.1,1c0.2,0.2,0.3,0.4,0.2,0.7c-0.3,1-2.8,1.5-3.5,1.6
		c-1.9,0.3-2.9-0.4-5-1.3c-0.5-0.2-1.2-0.4-1.8-0.5c-1-0.1-2.1,0.2-2.3,1.2c-0.1,0.5,0.5,1.1,1,1.3c1.1,0.5,2.1,0.7,3.2,0.7
		c3.3,0.1,7.1-0.5,9.8-2.4c0.4-0.3,0.7-0.7,0.7-1.1c0-0.1-0.1-0.6-0.3-0.7h-0.1c-0.1,0-0.2-0.2-0.3-0.3c-0.2-0.2-1-0.6-1.1-0.6
		c-1.8-0.8-5.2-1.1-7-1.3s-4.7-0.4-5.4-0.5s-1.5-0.2-2.1-0.5s-1.2-0.9-1.4-1.6c-0.3-1.3,0.1-2.8,0.8-3.8c1.8-2.6,6.1-3.6,9.3-4
		c3.1-0.4,8.1-0.4,11.1,1.2c0.5,0.2,0.7,0.5,0.6,1c-0.2,0.9-0.9,1.5-1.8,1.8c-0.9,0.3-2.8,0.4-3.6,0.4c-3.7,0.2-8.1,0.1-11.6,1
		c-0.3,0.1-0.7,0.2-0.9,0.4c-0.5,0.6,1,0.8,1.3,0.8h0.2L85.7,32.3 M97.1,45.9c-1.5-0.5-1.8-2.9-1.9-4.1c-0.2-3.9,0.8-9.4,2.1-13.1
		c0.4-1.1,0.9-2.8,2.1-2.7c0.8,0.1,1.4,0.7,1.8,1.3c1.2,1.6,2.7,3.8,3.7,5.4c1.1,1.7,2.2,3.5,3.3,5c0.1,0.2,0.3,0.4,0.4,0.5
		c0.2,0.2,0.4,0.2,0.4,0c0-0.1,0-2-0.1-2.4c-0.1-0.6-0.1-1.1-0.2-1.7c-0.2-1.6-0.7-3.8-1.1-5.3c-0.4-1.7-1-3.4-1.4-5.1
		c-0.1-0.5-0.2-1.1-0.2-1.6c0-0.7,0.5-1.1,1.2-0.9c1.5,0.5,3.5,3.8,4.1,4.9c0.2,0.4,1,2.3,1.2,2.9c0.6,1.9,1,3.6,1.2,5.7
		c0.2,2,0,4.9-0.8,6.8c-0.3,0.7-0.9,1.7-1.5,2.2c-0.8,0.8-2.5,1.4-3.6,0.7c-1.2-0.7-3.3-4.2-3.6-4.8c-1.2-2.1-3.2-6.1-3.5-6.5
		c-0.1-0.1-0.2-0.2-0.3-0.2s-0.2,0.2-0.2,0.4c-0.2,1.2-0.3,6.6-0.3,6.8c0,0.9-0.1,3.2-0.3,4.3c-0.2,0.7-0.3,1.3-1,1.6
		C98,46.2,97.7,46.1,97.1,45.9 M117.4,45.6c-0.2-0.1-0.4-0.4-0.6-0.6c0,0-0.6-0.8-0.7-1.1c-0.1-0.2-0.2-0.4-0.2-0.5
		c-0.5-1.3-0.5-2.5-0.2-3.8s0.5-1.3,1.1-3c0-0.1,0.1-0.2,0.1-0.3c0-0.2-0.4-1.8-0.4-2.3c0-0.8,0.6-1.3,1.6-1.4h0.2
		c0.4-0.1,0.7-0.9,0.9-1.5c0.3-0.9,0.8-2.2,0.8-2.2s-1.3-0.3-2-0.5c-0.8-0.3-1.3-0.7-1.7-1.4c-0.4-0.8-0.1-1.3,0.7-1.5
		c0.3-0.1,2.8-0.6,3.6-0.7c1-0.1,1.9-0.3,2.8-0.4c0.8-0.1,4.5-0.5,5.7-0.5c1.8,0.1,3,0.8,4,2.3c0.6,0.8,0.9,1.8,0.1,2.3
		c-1.3,0.8-5.5,0.9-6.3,0.9H124l-0.9,2.9h4.7c0.4,0,0.8,0,1.1,0.1c0.9,0.2,1.2,0.9,1.2,1.8c0,1.1-0.2,1.7-1.1,1.8
		c-0.5,0.1-5.7,0.1-6.4,0.2c-0.4,0.1-0.9,0.1-0.9,0.1s-0.4,1-0.7,2s-0.6,2.1-0.6,2.1h0.5c0.4,0,0.7,0,1-0.1c1.6-0.3,4-0.6,5.9-0.9
		c1-0.2,1.6-0.2,2.1,0.5c0.5,0.6,0.7,1.1,0.8,1.9c0,0.7-0.5,1.2-1.2,1.7c-2,1.6-5.6,3.3-8.2,3.6c-1.2,0.1-1.5,0-2.6-0.3
		c-0.2-0.1-0.9-0.4-0.9-0.4C118,46,117.6,45.7,117.4,45.6L117.4,45.6z M150.4,31.1c-1.3,1.1-3.1,3.4-3.9,4.6
		c-1.1,1.6-2.1,3.4-3.1,4.8c-0.2,0.3-0.9,1.4-0.8,1.5c0,0.1,0.7,0.1,1.4-0.1c1.4-0.2,3.3-1.2,4.4-2.1c1.6-1.3,2.7-3,3.2-5
		c0.2-0.9,0.3-2.8-0.3-3.7C151,31,150.6,30.9,150.4,31.1 M139.7,47.6c0,0-0.4,1.3-0.7,2.2c-0.5,1.7-1.7,6.2-2,7.7
		c-0.4,2.1-1.6,7.6-1.6,7.7c-0.1,0.2-0.1,0.2-0.3,0.3c-0.5,0.3-0.7,0.2-1.3-0.1c-0.8-0.4-1.4-0.8-2-1.6c-1.1-1.5-0.9-4.3-0.6-5.9
		c0.8-5.8,1.6-8.3,3.8-14v-0.2c-0.7-1.5-1.1-3.2-1.1-4.6c0-4.5,2.6-8.9,5.5-12.5c0.2-0.3,1.6-2,2.3-1.9c0.6,0,0.8,0.8,0.7,1.4
		c-0.3,2.1-1.8,4.2-2.8,5.9c-1.1,2-1.4,2.8-1.9,4.6c-0.1,0.3-0.3,1.6-0.3,1.8c0,0.5,0.1,1.1,0.1,1.1s1.8-2.6,3-4.1
		c0.7-0.9,1.1-1.4,1.7-2.1c0.6-0.6,2.7-2.9,3.3-3.4c1.3-1.2,1.9-1.7,3.3-2.5c1.1-0.6,2.1-0.7,3.2,0c1.7,1.1,2.5,3.5,2.7,5.4
		c0.2,2.3-0.2,4.9-1.3,6.9c-1.2,2.4-2.9,4.1-5.1,5.5c-2.3,1.5-5,2.6-7.6,2.5C140.1,47.6,139.7,47.6,139.7,47.6">
  </path>
 </g>
</svg>