<svg version="1.1" id="Layer_1" xmlns="http://www.w3.org/2000/svg" xmlns:xlink="http://www.w3.org/1999/xlink" x="0px" y="0px" viewBox="0 0 521.9 368.5" style="enable-background:new 0 0 521.9 368.5;" xml:space="preserve">
 <style type="text/css">
  .Arched_x0020_Green{fill:url(#SVGID_1_);stroke:#FFFFFF;stroke-width:0.25;stroke-miterlimit:1;}
	.st0{fill:#003E7E;}
	.st1{fill:url(#SVGID_2_);}
 </style>
 <linearGradient id="SVGID_1_" gradientUnits="userSpaceOnUse" x1="-135.069" y1="490.2577" x2="-134.3619" y2="489.5506">
  <stop offset="0" style="stop-color:#20AC4B">
  </stop>
  <stop offset="0.9831" style="stop-color:#19361A">
  </stop>
 </linearGradient>
 <g>
  <g>
   <g>
    <g>
     <path class="st0" d="M319.8,109.2c-0.2-22.1-11.9-41.4-41.5-41.4c-46.2,0.1-79.1,45.6-78.9,84.2c0.1,24.4,14,41.8,41.5,41.8
					C284.5,193.8,319.8,151.6,319.8,109.2z M242.6,187.6c-13.1,0-19.6-10.7-19.5-31.1c0.1-41.9,30.3-82.4,55-82.4
					c13.1,0,18.7,12.1,18.8,29.9C297.1,141.3,270.3,187.6,242.6,187.6z">
     </path>
     <path class="st0" d="M521,84c-2.8-9.5-14.8-18.4-34.9-16.5c-48.5,4.8-79.3,54.9-70.6,94.6c2.9,13.1,12.1,31.8,42,31.8
					c29.9,0,45-22,45.8-23.3c6.1-9.1,4.7-14.3-2.2-6.1c-5.7,6.7-22.2,23.9-40.5,21.8c-17.7-2.1-24.3-23.3-21.9-45
					C508.2,129.5,526.4,102.4,521,84z M461.9,86.1c6.2-6.9,14.7-12,21.3-12.9c25.3-3.5,25.7,49.8-44,61.9
					C443.5,109.9,453.9,94.8,461.9,86.1z">
     </path>
     <path class="st0" d="M82,0c-48.7,0.1-65,28.7-65.1,36c0,2.3,0.1,3.8,1.3,2.6c1.6-1.6,4.6-7.4,10.6-12.7
					C42.9,13.6,78,0.3,117.9,14.5c39.9,14.2,61.2,55.4,46.4,102.9c-15,48.4-45,61-74,66.3c-28.8,5.2-61.3,2.5-61.3,2.5
					c-0.1,0-0.1-0.1,0-0.1c6.6-7,20.1-36.9,35.2-80.5c16-46.1,29.9-63.6,44-75.6c4.8-4-8.5-1.7-12.6-0.1
					C92,31.3,60.9,41.5,42.5,90.1c-18.6,49.1-31,79.6-37,90.3c-6,10.7-8.6,13.4,0.3,13.4c8.9,0,0,0,0,0c45.5,0,67,0.3,84.3-0.8
					c33.8-2.1,97.7-15.1,104.3-86.1C200.8,38,131.6-0.1,82,0z">
     </path>
     <path class="st0" d="M354.6,169.2c29.6-24.5,46.3-59.1,49-76.3c2.8-17.2-0.3-23.1,1.6-23.9c1.9-0.8,12,7.5,11.4,20.6
					c-0.3,5.7-3.4,26.4-30.3,59.4c-27.2,33.5-50.9,47.1-54,44.7c-3-2.4,2.3-32.4,1.2-68.5c-1.1-36.2-8.3-44.2-10.5-52.6
					c-0.6-2.3,1.4-1.8,1.4-1.8l0,0c0.5,0.1,20.7,3.8,27.9,23.5C360.1,115.5,356.2,155.5,354.6,169.2
					C354.6,169.2,354.6,169.3,354.6,169.2z">
     </path>
    </g>
   </g>
  </g>
  <linearGradient id="SVGID_2_" gradientUnits="userSpaceOnUse" x1="142.886" y1="315.8352" x2="363.2996" y2="315.8352">
   <stop offset="0" style="stop-color:#BC8F39">
   </stop>
   <stop offset="0.2699" style="stop-color:#E1C788">
   </stop>
   <stop offset="0.4908" style="stop-color:#FFE8B4">
   </stop>
   <stop offset="0.7485" style="stop-color:#E1C788">
   </stop>
   <stop offset="1" style="stop-color:#BC8F39">
   </stop>
  </linearGradient>
  <path class="st1" d="M363.3,286.9c0,0.8-1.1,1-2.2,1.3c-7,2.1-11.8,6.2-21.7,24.1c-9.9,18-44.5,110-194.5,10.8
		c-0.3-0.2-1.8-1.1-1.9-1.7c-0.1-0.3,0.1-0.5,0.3-0.6c0.3-0.1,0.6,0,0.9,0c1.2,0.3,3.9,0.8,7.5,1.7c14.9,3.4,52.1,7.3,77.5,3.6
		c6.5-0.9,12-1.9,17.9-4.3c4-1.6,3.9-3,3.6-3.7c-0.3-0.5-0.7-1.2-5.8,0c-5.6,1.1-14.1,1.3-26.2-0.4c-22.6-3.2-40.3-14-41.9-15.2
		c0,0-3.9-2.3-3.5-3.2c0.2-0.4,1-0.2,1.3-0.1l1.5,0.1c24,0.7,46.6-8.8,79.9-29.1c16.8-10.2,34.3-8.7,42.8-1.2c0,0,15,11.2,1.1,31.7
		c-3.2,5,0.2,6.7,13.6-7.8c13.4-14.4,28.2-22.8,44.3-10.4l4.5,3.1C362.2,285.9,363.2,286.5,363.3,286.9z">
  </path>
 </g>
</svg>