<svg clip-rule="evenodd" fill-rule="evenodd" height="2500" stroke-linejoin="round" stroke-miterlimit="2" viewBox="524.216 622.608 16670.288 22392.702" width="1854" xmlns="http://www.w3.org/2000/svg"><path d="m8858.54 1701.25-8334.06 1484.24s-.264-536.994-.012-537.438l8332.09-1651.36 8336.02 1635.78c-.641.912.013 548.139.013 548.139l-8334.06-1479.36z" fill="#fff"/><path d="m534.242 4641.22-9.756-1459.76 8332.09-1494.48 8336.02 1488.61v1465.18s-3417.9-1894.37-8334.78-1894.37-8323.59 1894.81-8323.59 1894.81h.014z" fill="#de2221"/><path d="m524.499 2171.32v481.823l8236.05-1597.86h179.689l8252.37 1586.73 1.896-471.125-8277.05-1548.28h-127.049l-8265.94 1548.71.012.01h.023z" fill="#008d37"/><path d="m534.242 4588.96v5164.47c0 1930.24 1047.86 5271.65 2517.04 7606.86 1863.79 2962.49 3780.69 4713.06 5823.23 5655.02 0 0 3314.87-1579.13 5706.26-5642.2 1483.79-2520.97 2611.87-5187.08 2611.87-7671.91l-1.468-5112.01s-3385.37-1889.72-8198.32-1889.72c-4812.93 0-8458.58 1889.5-8458.58 1889.5l-.023-.005z"/><path d="m633.662 4649.29s-.518 4837.88-.518 4867.81c0 2848.16 1474.39 6265.98 2774.04 8214.16 2701.19 4094.48 4920.68 4857.67 5472.18 5173.05 0 0 2981.07-1310.62 5325.72-5106.58 2324.6-3785.43 2839.03-6268.61 2891.97-7977.34 0-1673.9-4.59-5172.12-4.59-5172.12s-3117.1-1822.67-8233.91-1849.65c-4520.75-23.843-8224.89 1850.68-8224.89 1850.68z" fill="#fff500"/><path d="m7047.45 17527.4c102.29 52.115 289.921 111.092 315.642 40.641 25.71-70.451 74.377-64.455 117.824 128.562 43.488 193.027 221.759 587.964-27.264 304.076-233.006-411.214-990.648-560.753-1026.08-179.948-1.946 113.816 68.08 270.466 547.189 431.22 1440.23 475.439 785.897 1574.37-145.657 1537.37-1083.72-1.12-1047.87-1238.88-521.342-1054.51 148.923 43.351 236.639 317.548 10.83 310.891-51.751-114.628-229.794-172.464-192.425 116.529 3.28 213.342 271.46 506.422 715.745 520.701 444.256 14.321 705.095-336.519 712.603-561.685 7.504-225.126-218.004-361.15-745-538.429-526.999-177.277-636.145-413.916-638.826-624.453-2.711-210.546 213.973-670.013 876.76-430.961zm4909.07 217.786c-346.454-521.383-1627.43 148.437-791.987 300.711-104.577 290.101-533.885 200.023-538.688-103.119 0-181.802 308.519-600.939 848.502-539.153 402.082 70.595 1571.95 98.294 1768.79-11.866 206.871-55.054 392.867-61.486 127.277 54.785-265.551 116.278-743.976 222.341-1101.41 261.242-154.208 134.866-305.113 160.129-310.985 725.924-9.391 126.584 341.074-104.298 291.176 22.823-114.715 127.876-184.525 180.86-420.648 170.629 0 0-285.346 1114.39-1136.18 1114.39-658.325 16.659-1168.66-956.292-450.799-1101.1 169.491-46.026 339.458 296.529 4.224 350.403-297.045-308.862-257.202 593.918 403.305 591.413 502.011 0 796.212-790.257 796.212-871.757 18.268-240.72-205.218-28.168-211.16-84.167-11.131-104.884 160.597-200.052 338.258-149.327-89.524-93.157 310.622-658.507 384.108-731.836zm-2663.16-4155.486c-187.672-193.218-2595.42-1778.44-2664.9-2330.86 0 0 91.42-191.899-18.42-191.899-100.637 102.367-644.606-19.236-837.588-251.664-184.008-132.225-927.495-530.092-1069.87-528.156-315.788-58.118-122.995 608.622 4.359 739.955 2.547 88.095 48.926 367.406 109.715 450.459 100.854 55.422 183.616 398.884 149.404 449.681 38.081-32.383 313.749 72.519 369.911 194.363 190.306 128.913 136.494 894.312-175.641 720.667-264.599-66.491-480.275-616.155-543.089-756.824-102.467-77.141-218.218-96.731-231.896-370.813-400.323-1161.97-577.915-2596.16 772.748-2101.99 103.91 109.116 585.119 186.754 356.658-43.312-127.976-128.875-803.105-1104.67-858.204-624.03-47.631 157.957-146.298 463.361-299.067 561.861-326.514 83.239-653.527 983.568-287.511 1277.04 151.666 320.153-164.384 389.398-299.24 503.918-196.275 19.798-185.266-635.119-93.491-789.306-3.024-128.53-72.782-134.608-.653-264.473 72.181-129.814 582.196-1763.92 726.496-1988.78 113.884-310.932 529.649-343.383 873.197-28.432 3.734 152.967 875.58 439.638 947.831 548.88 523.197-427.478 567.68-222.644 835.348-442.11 563.65-462.149 960.952-1268.83 1217.68-1905.07 0 0 184.866-365.761-62.044-352.257-260.32 14.227-753.862-133.336-858.597-159.717-202.828-51.089-193.736 215.119-624.112 85.983-263.384-9.838 105.781-120.309 271.937-143.544 45.002-19.155 115.153-137.237-12.9-124.728-153.857 89.574-578.262 222.413-543.867 46.945 3.191-82.193-58.324-265.423 50.136-390.019 108.505-124.593 283.535-307.183 381.727-313.696 29.602 111.363 964.967-415.708 1075.74-504.477 479.499-360.431-816.004-190.488-461.112-331.029 222.671 47.194 510.42 18.285 278.575-84.007-324.941-92.971-23.417-129.029 383.195-9.493 98.677 100.56 447.539 118.786 482.34 63.212-21.218-69.673-27.584-636.9 111.661-404.214 54.432 184.555 333.017 409.341 579.286 367.197 208.951 135.279 830.406 385.119 1230.75 329.571 358.303-12.292-235.903 139.816-432.422 267.62-2.127 193.273 1400.37 761.024 1160.81 886.596-849.255-579.239-1924.13-365.116-24.249 137.496 151.951 121.83 257.047 260.97 36.458 152.769-1021.78-378.084-1316.25-133.329-219.256 260.453 736.454 316.577-975.231-255.001-810.407-62.767 119.469 149.185 402.361 405.839 415.564 514.737 57.568 129.475 264.959 250.751 342.172 458.575 158.027 117.13 56.172 186.493-24.075 89.566-1352.28-1138.78-995.455-322.828 66.135 265.849 290.896 23.379-183.042 244.076-425.131-66.361-38.705-120.225-447.892-261.624-520.57-218.044-164.458 65.854 377.43 560.517 610.476 525.229 111.93 5.88 88.096 247.127 181.42 323.356 444.044 355.947-735.361-412.236-447.917-17.277-84.22-19.324-614.532-121.879-292.165 22.371 222.723 48.874 837.898 319.476 755.531 390.01-276.892-82.144-1193.5-282.516-739.304-36.707 271.043-4.965 743.598 382.177 532.162 312.309-102.757-86.209-455.105-221.418-603.143-108.544-116.641 88.935-389.408-2.548-248.113 62.208 141.256 64.758 444.122 164.635 534.33 251.873-7.953 288.227 626.549 248.344 669.213 126.81 105.135 245.031-649.994 226.257-1258.08-112.874-66.746-48.367-266.751-21.826-74.159 87.578 741.578 361.986 1273.43 725.734 294.966 277.591-379.965-95.588 150.714 266.42 331.298 461.93 61.269 66.331 143.233 84.946-3.107 78.217-29.239-144.114-805.717-534.431-885.641-416.888-100.966-.539-246.135-241.135-212.1 130.806 34.088 371.898 296.052 977.022 1514.59 1875.18 160.552 118.339 1214.77 1236.47 1127.13 1456.78-12.438 318.35 1282.03-39.943 1288.86-1351.72 0-1136.91-363.44-1046.14-363.44-1786.53 0-740.338 517.981-1296.19 809.321-1443.31 291.353-147.125-488.612 278.328-524.573 1099.5-118.942 687.203 638.794-269.059 793.488-557.065 16.57-118.415 105.561-77.845 54.306 99.393-106.493 368.25-786.952 1321.93-390.131 1343.89 73.612 4.073 589.553-653.744 575.496-817.693-26.059-303.941 341.661-42.139-68.516 449.295-337.285 404.102-385.49 842.112-277.9 1367.82 142.486 696.206-42.11 1704.07-707.068 1824.49-334.059-53.19 157.307 1771.94-92.673 1170.65-89.3-284.875-136.263-948.307-312.62-924.088-56.172 0-89.867 29.209-31.187 143.149 151.774 115.637 131.168 907.118-140.22 1109.43-297.789 282.558-320.415 1150.11-348.385 460.729 22.204-330.12 313.974-513.085 330.048-831.201 64.292-1272.35-181.126-211.735-269.431 133.787-24.807 97.066-62.975 24.385-46.979-34.124 69.075-928.231-246.477-1370.46-309.722-456.714-82.792 236.381-247.126 664.059-1014.56 1234.37-362.416 22.571-649.927 1092.62-188.668 1107.8 0 0 33.568 469.313-27.345 530.229-98.945-16.431-1062.58 654.246-1054.08 899.322 37.184 218.921-311.688 512.314-380.442 587.654-.217 141.037 37.71 167.316-234.962 299.717-344.645 313.52-657.782 300.774-614.015 2.764v-.003c-39.016-183.881 634.186-1045.7 810.409-1072.89 158.223-24.416 1137.06-791.261 812.561-1219.92-204.841-251.955-637.956-975.593-618.894-1541.55 53.566-724.206 564.974-1042.73 599.736-1627.62-47.652-298.025-81.51 117.887-408.698 688.189-481.446 614.595-376.116 1270.96-243.027 1534.07 113.429 224.246 348.3 641.289 213.001 725.159-229.172 196.474-1335.81-387.465-1799.2-333.544-160.751 125.495-548.524-67.998-663.375-95.22-216.344 176.792-1011.09-29.965-1004.5-305.92-20.285-170.03-8.596-214.555 147.851-209.729 721.432-157.137 1524.85 79.87 1998.66 301.666 828.371 265.315 1000.03 162.741 580.407-451.236-250.359-257.74-556.685-1084.02-590.544-1485.04-33.868-400.973-233.15-702.845 180.51-398.821 0 0 292.583 170.625 552.325 406.17 422.85 337.56 400.522 218.209 359.277 143.43z"/><path d="m8639.33 18333.2c215.967-271.048 280.799-181.091 85.071 65.233-105.665 132.979-228.109 114.287-85.071-65.233zm463-674.1c180.257-165.185 230.5-102.023 64.892 49.701-86.533 79.279-151.367 29.543-64.892-49.701zm677.79-612.5c464.668-500.869 566.019-452.745 76.664 74.945-341.734 368.503-435.516 311.864-76.664-74.945zm706.88-483.6c-11.35-201.127 54.036-231.045 67.509 0 5.322 91.261-62.874 82.118-67.509 0zm-2595.95-1181.3c114.808-30.033 752.192 133.289 581.274 188.802-183.248 10.074-741.391-182.699-581.274-188.802zm1218.33 107.9c9.63-87.905 115.03-90.059 105.138 0-5.684 51.74-110.944 52.994-105.138 0zm-2785.37-272.7c191.031-74.271 216.722 46.403 42.545 88.595-41.23-1.166-74.878-31.644-42.545-88.595zm991.98 54.4c-2.782-87.872 121.339-92.602 124.377 0 1.487 45.318-122.971 44.42-124.377 0zm2411.93-1043.7c-181.612 534.468-291.033 422.945-56.515-59.88 74.47-92.454 132.797-51.254 56.515 59.88zm1845.28-802.2c144.872 168.684 57.749 490.737-205.143 549.258 221.868-196.512 82.115-505.868 205.143-549.258zm1840.4-2216c379.445 907.328-391.829 1742.94-471.371 1582.76 193.381-248.314 504.045-489.771 471.371-1582.76zm-8305.96 1402.8c-101.873-175.699-54.883-209.402 106.469-96.554 50.571 35.369-64.293 169.295-106.469 96.554zm2057.56-1160.6c91.863-74.966 1187.42 972.78 1099.16 1048.12-165.953 141.667-1324.99-863.832-1099.16-1048.12zm2762.63 1164.7c73.923-259.45 209.735-322.976 370.863-415.733-326.048-126.996-620.637 525.044-370.863 415.733zm-5535.5-1971.8c-141.208 33.276-22.137 596.372 120.721 568.538-9.495 9.943-138.755-558.084-120.721-568.538zm4694.91-684.62c55.212 455.876 1205.48 1593.21 791.963 1215.69-1120.63-1023.09-1113.04-1689.66-791.963-1215.69zm-3827.55 330.02c575.064 111.786 438.389 394.684-20.626 37.97-39.728-26.705-117.906-118.9 20.626-37.97zm-926.54-510.2c140.824-94.639 167.074-28.8 17.346 70.108-59.322 39.187-111.958-6.526-17.346-70.108zm2003.45-734.71c-316.724 120.99-430.551 297.744-412.219 657.155 107.852-378.739 285.715-468.868 412.219-657.155zm-1183.85-121.64c51.629-76.333 360.657 206.682 306.439 290.809-31.332 48.615-343.23-236.414-306.439-290.809zm-864.51 165.16c39.511 14.817 214.103-477.292 161.528-495.157-54.268-18.44-244.071 464.204-161.528 495.157zm2771.22-357.51c11.833-245.222 707.158-352.161 893.606 35.031-91.334-103.862-664.658-234.638-893.606-35.031zm-2365.89-478.91c262.566-171.426 258.904 179.32 8.024 63.202-106.433-5.435-83.231-49.182-8.024-63.202zm4621.6 393.97c14.333-112.789 115.567 45.653 113.922 73.024-3.066 51.023-120.705-19.653-113.922-73.024zm113.97-264.16c4.866-122.661 172.15 57.069 150.026 114.78-20.712 54.028-152.284-57.873-150.026-114.78zm-1282.79-425.37c306.788-430.398 653.133-954.813 620.639-1222.42 311.661 136.344-422.394 1369.44-620.639 1222.42zm1346.87 176.96c33.653-131.417 206.704 34.98 171.465 90.303-17.429 27.361-179.033-60.747-171.465-90.303zm87.11-311.87c23.671-152.787 212.267-2.474 185.537 88.33-19.175 65.136-195.838-21.846-185.537-88.33zm89.44-340.83c-10.482-151.027 203.15 37.239 182.473 103.3-20.231 64.638-177.757-35.361-182.473-103.3zm4.44-299.27c6.909-143.357 258.225 33.349 247.336 66.24-19.72 59.568-250.571.887-247.336-66.24zm70.85-292.35c7.162-137.092 252.633 67.94 236.141 107.75-23.482 56.688-239.268-47.895-236.141-107.75zm16.46-256.19c.852-180.292 234.716 68.806 219.783 107.632-25.91 67.36-220.12-36.407-219.783-107.632zm36.51-256.37c-.421-137.543 194.89 58.74 183.476 89.078-23.727 63.065-183.266-20.366-183.476-89.078zm-11.03-283.43c20.528-123.772 205.352 10.087 194.533 94.276-7.979 62.091-212.766 15.66-194.533-94.276zm-1044.71-177.81c101.366-170.531 180.775-122.893 24.528 61.68-240.656 70.733-212.528 19.844-24.528-61.68zm137.58 72.58c106.322-159.079 336.585-99.318 8.433 105.584-404.518 69.529-377.897 13.619-8.433-105.584zm894.78-167.85c24.785-132.071 218.491-4.396 206.843 82.208-7.835 58.258-226.365 21.817-206.843-82.208zm-1461.1-39.56c188.234-105.734 375.342-311.266 226.199-112.724-149.126 198.601-69.755 184.433-248.091 237.991-178.333 53.608-119.149-46.077 21.892-125.267zm-1117.97-87.41c4.288-64.673 68.112-69.896 63.337 0-2.959 43.311-66.009 40.305-63.337 0zm2531.8-208.75c30.752-160.67 272.585 22.286 253.551 100.237-14.966 61.291-277.87 26.82-253.551-100.237zm-3117.27 1.45c117.164-129.495 251.172 93.425 74.678 98.874-128.912 76.187-80.992 134.058-105.314 68.194-16.166-43.776-23.124-119.656 30.636-167.068zm3038.88-312.64c-95.426-4.431-59.026-171.532 62.164-178.174 42.202-2.311 171.319 148.546 261.03 163.391 267.559 44.28-179.596 21.451-323.194 14.783zm-1101.74-361.1c152.325 264.376-47.966 236.706-130.502 84.138-206.694 46.422-261.29-78.411-97.726-127.514 44.709-13.433 141.85-76.357 228.228 43.376zm-590.62-71.88c-26.631 214.896-457.105 423.348-651.438 368.46 195.745-87.911 516.624-235.893 651.438-368.46zm480.19-87.66c124.43-83.526 278.608 27.258 216.868 152.593-1.437-70.011-139.57-179.764-216.868-152.593zm1045.28 13.93c75.497-36.913 272.344 39.163 206.207 98.696-38.477 34.636-250.893-76.848-206.207-98.696zm-140.94-240.08c2.261-90.733 207.266-28.295 205.072 60.708-1.55 62.894-206.64 2.183-205.072-60.708z" fill="#fff"/></svg>