<svg version="1.1" id="svg4734" xmlns:x="ns_extend;" xmlns:i="ns_ai;" xmlns:graph="ns_graphs;" inkscape:version="0.92.0 r15299" xmlns:cc="http://creativecommons.org/ns#" xmlns:dc="http://purl.org/dc/elements/1.1/" xmlns:inkscape="http://www.inkscape.org/namespaces/inkscape" xmlns:rdf="http://www.w3.org/1999/02/22-rdf-syntax-ns#" xmlns:sodipodi="http://sodipodi.sourceforge.net/DTD/sodipodi-0.dtd" xmlns:svg="http://www.w3.org/2000/svg" xmlns="http://www.w3.org/2000/svg" xmlns:xlink="http://www.w3.org/1999/xlink" x="0px" y="0px" viewBox="0 0 1148.6 430.7" style="enable-background:new 0 0 1148.6 430.7;" xml:space="preserve">
 <style type="text/css">
  .st0{fill:#003478;}
	.st1{fill:#FFFFFF;}
 </style>
 <metadata>
  <sfw xmlns="ns_sfw;">
   <slices>
   </slices>
   <sliceSourceBounds bottomLeftOrigin="true" height="430.6" width="1148.6" x="-0.1" y="0.1">
   </sliceSourceBounds>
  </sfw>
 </metadata>
 <sodipodi:namedview bordercolor="#666666" borderopacity="1.0" fit-margin-bottom="0" fit-margin-left="0" fit-margin-right="0" fit-margin-top="0" id="base" inkscape:current-layer="layer1" inkscape:cx="42.75444" inkscape:cy="16.344345" inkscape:document-units="mm" inkscape:pageopacity="0.0" inkscape:pageshadow="2" inkscape:window-height="744" inkscape:window-maximized="1" inkscape:window-width="1280" inkscape:window-x="-4" inkscape:window-y="-4" inkscape:zoom="10.490138" pagecolor="#ffffff" showgrid="false" units="px">
 </sodipodi:namedview>
 <g id="layer1" transform="translate(-127.15947,-152.69208)" inkscape:groupmode="layer" inkscape:label="Layer 1">
  <path id="path737" inkscape:connector-curvature="0" class="st0" d="M701.4,152.7c-318.8,0-574.3,95.5-574.3,215.3
		c0,119.1,257.6,215.3,574.3,215.3s574.3-96.6,574.3-215.3S1018.1,152.7,701.4,152.7">
  </path>
  <path id="path741" inkscape:connector-curvature="0" class="st1" d="M927.6,413.7c0.2,1,1.4,1.9,2.7,2.4c0.5,0.2,0.7,0.5,0.2,1.5
		c-3.6,7.7-6.9,12.1-11.3,18.7c-4.1,6.2-8.8,11-14.4,15.6c-8.5,7-20.3,14.7-30,9.5c-4.3-2.2-6.2-8.3-6.1-13.2
		c0.2-13.8,6.3-27.9,17.7-41.8c13.8-17,29.1-25.8,39.1-21c10.4,4.9,7.1,16.9,2.4,26.4C927.5,412.4,927.5,413.1,927.6,413.7
		 M1038.8,306.3c0.7-1.3,0-2.3-1.7-2.3c-8.7,0-20,0-29,0c-2.1,0-3.3,0.3-4.3,2.3c-3.3,6.4-43.9,67.2-51.4,79c-1.3,1.8-2.8,1.5-3-0.5
		c-0.8-7-6.8-15.1-16.4-18.9c-7.3-2.9-14.4-3.5-21.8-2.5c-13.3,1.8-25.2,8.8-35.7,16.8c-15.7,12-29.3,27.5-46.9,39
		c-9.6,6.2-22.7,11.7-31.5,3.6c-7.9-7.4-7-23.7,5.1-36.4c1.3-1.3,2.8-0.2,2.6,1c-1.1,5.7,0.3,11.4,4.6,15.4
		c5.3,4.8,12.9,5.3,19.4,2.1c7.7-3.8,12.2-11.1,13.5-19.4c2-12.9-7.9-24.3-20.3-25.2c-10.1-0.7-19.8,2.8-29.2,10.6
		c-4.7,3.9-7.4,6.8-11.5,12.6c-1,1.4-2.5,1.6-2.5-0.5c0.5-16.5-6.4-25.8-20-26.1c-10.6-0.3-21.9,5.5-30.8,12.5
		c-9.7,7.8-18.1,18.1-27.2,27.8c-1.1,1.2-2.1,1.1-2.4-1.2c-0.3-10.9-3-21.6-8.1-29.1c-1.8-2.6-5.6-3.9-8.7-2.1
		c-1.5,0.8-6.6,3.1-10.3,6.1c-1.8,1.5-2.6,3.7-1.7,6.5c4.9,16.4,3.8,34.9-2.8,50.7c-6.1,14.4-17.9,27.4-31.9,31.7
		c-9.2,2.9-18.7,1.5-24.6-6.6c-8.1-11.2-4.8-30.7,7.2-46.9c10.7-14.3,26.1-23.3,41.4-29.2c1.8-0.7,2.2-1.9,1.7-3.4
		c-0.8-2.5-2.2-6-2.7-7.5c-1.4-3.8-5.4-4.4-10.2-3.8c-11.2,1.3-21.2,5.1-31.2,10.5c-26.1,14-39.1,41-44.9,55.4
		c-2.8,6.9-5.1,11.3-8.2,15.1c-4.1,5.2-9.3,9.9-18.7,18.1c-0.9,0.8-1.5,2.3-0.8,3.8c1,2,5.9,8.9,7.3,9.5c1.5,0.8,3.3-0.3,4-0.8
		c6.6-4.5,14.5-11.6,18.4-16.4c1.4-1.6,2.7-1,3.5,1.5c3.6,12.9,13,23.4,26.1,27.8c23.9,8.1,48.7-3.6,67.4-23.9
		c11.9-12.9,16.2-21.2,20.7-26.9c7.7-9.6,23-31,41.1-44.7c6.7-5.1,14.5-8.9,18.5-6.4c3.2,2.1,4.2,6.8-0.9,16.1
		c-18.5,33.8-45.7,73.5-50.7,83.1c-0.9,1.7-0.1,3,1.6,3c9.7,0,19.3,0,28.1,0c1.5-0.1,2.1-0.7,2.9-1.8c14.2-22.2,27.6-43.4,41.9-65.3
		c0.8-1.3,1.5-0.3,1.6,0.3c0.3,5.1,1.5,12,4.6,16.6c5.4,8.4,13.1,12,21.6,12.1c6.8,0.1,10.2-1,17.5-3.7c5.9-2.2,10.7-5.1,14.4-7.7
		c2.1-1.5,2.5,1,2.5,1.4c-3.3,17.6,0.8,38.6,18.3,47.2c21,10.3,44-4.2,57.3-17.3c1.3-1.3,2.7-1.1,2.8,1.6c0.3,5,2.5,11,6.7,15.1
		c11.1,11.2,33.6,6.7,56.1-10.7c14.5-11.2,29.6-26.9,43.2-43.6c0.5-0.6,0.9-1.7-0.1-2.7c-2.1-2.2-5.1-4.7-7.2-6.6
		c-0.9-0.8-2.3-0.6-3.1,0c-14,13.3-26.6,28.5-44.8,41.1c-6.1,4.3-15.9,7.7-20.3,1.8c-1.7-2.3-1.5-5.5,0.2-9.7
		C950.3,441.8,1034.4,313.8,1038.8,306.3">
  </path>
  <path id="path745" inkscape:connector-curvature="0" class="st1" d="M643.1,321.7c0.4,1.9,1.1,2.3,2,2.1c4.3-0.9,9-4.4,11.7-8.5
		c2.5-3.7,3.7-9,1.2-11.2c-2.2-1.9-5.9-1.4-8.6,1C644,309.9,642.4,316.7,643.1,321.7 M428.7,486.6c-31.4,0.2-59-19.2-62.2-52.7
		c-1.8-18.6,3.5-35.2,14-48.8c9.3-12.2,25.1-22.3,38.5-24.7c4.4-0.8,10.2-0.3,12.6,2.6c3.8,4.4,2.7,9.3-1.1,11.2
		c-10.2,5.2-22.5,14.1-28.5,26.3c-4.9,9.9-5.9,21.9,1.6,33.3c12.6,19,47.7,19.5,80.3-10.8c8.1-7.4,15.3-14.6,22.7-23
		c14.4-16.4,19.2-22.4,38.3-48.9c0.2-0.3,0.3-0.7,0.2-0.9c-0.2-0.4-0.4-0.4-1-0.5c-12.8,0.4-23.9,4.2-34.7,12.2
		c-3.1,2.3-7.6,2-9.6-1c-2.2-3.4-0.6-7.8,3-10.3c17.4-12.1,36.4-14.3,55.8-17.6c0,0,1.3,0.1,2.5-1.4c8-10.2,14-19.4,22.5-29.8
		c8.6-10.5,19.6-20.1,28-27.4c11.8-10.1,19.3-13.5,27-17.7c2-1.1-0.3-2.3-0.9-2.3c-42.9-8.1-87.5-18.5-130-2.7
		c-29.5,11-42.4,34.4-36.2,50c4.4,11.1,19,12.9,32.7,6.2c11.3-5.6,21.8-14.5,29.3-26c4.2-6.4,12.9-1.8,8.2,9.3
		c-12.5,29.3-36.3,52.5-65.3,53.5c-24.7,0.8-40.6-17.4-40.6-39.8c0.1-44.2,49.3-73.3,101-77.6c62.3-5.1,121.2,11.4,183,18.9
		c47.4,5.7,92.8,5.9,140.4-5.1c5.6-1.2,9.6,2.4,9.2,8.1c-0.5,8.2-6.8,16.1-22.5,24.7c-17.8,9.8-36.5,12.7-56,12.9
		c-47.1,0.4-91-18-136.4-27.8c0.1,2,0.6,4.4-1.1,5.6c-25.2,18.6-47.9,37.4-63.1,63.9c-0.5,0.6-0.3,1.2,0.7,1.1
		c13.2-0.7,25.1-1,37.5-2c2.2-0.2,2.2-0.7,2-2.3c-1.1-9.1,1.6-19.5,9.6-26.7c8.2-7.4,18.5-8.2,25.3-2.9c7.7,6,7.1,16.9,2.8,25
		c-4.3,8.3-11.4,12.7-18.3,14.8c0,0-1.4,0.3-1.2,1.6c0.3,2.1,9.6,7.3,10.4,8.6c0.8,1.3,0.4,3.3-1,4.9c-1,1.1-2.5,2.2-4.5,2.2
		c-1.6,0-2.6-0.6-4.6-1.7c-4.2-2.3-9.4-6-12.9-10.4c-1.2-1.5-1.8-1.5-4.8-1.4c-13.4,0.8-34.2,2.8-48.3,4.5c-3.4,0.4-3.9,1.1-4.6,2.2
		c-22.5,37.1-46.5,77.1-72.9,103.9C477.2,478.8,453.7,486.4,428.7,486.6">
  </path>
  <path id="path749" inkscape:connector-curvature="0" class="st1" d="M701.4,187.9c-293.3,0-531,81-531,180.2s237.7,180.2,531,180.2
		c293.2,0,530.9-81,530.9-180.2C1232.3,269,994.6,187.9,701.4,187.9 M701.4,564.7c-303.9,0-550.3-88-550.3-196.5
		c0-108.6,246.4-196.5,550.3-196.5s550.3,88,550.3,196.5S1005.3,564.7,701.4,564.7">
  </path>
 </g>
</svg>