<svg version="1.1" id="Layer_1" xmlns:x="ns_extend;" xmlns:i="ns_ai;" xmlns:graph="ns_graphs;" xmlns="http://www.w3.org/2000/svg" xmlns:xlink="http://www.w3.org/1999/xlink" x="0px" y="0px" viewBox="0 0 252.6 100" style="enable-background:new 0 0 252.6 100;" xml:space="preserve">
 <metadata>
  <sfw xmlns="ns_sfw;">
   <slices>
   </slices>
   <sliceSourceBounds bottomLeftOrigin="true" height="100" width="252.6" x="465.2" y="73.3">
   </sliceSourceBounds>
  </sfw>
 </metadata>
 <g>
  <path d="M247.1,90c-2.5,0-4.6,2.1-4.6,4.6c0,2.5,2.1,4.6,4.6,4.6c2.5,0,4.6-2.1,4.6-4.6C251.8,92,249.7,90,247.1,90 M247.1,100
		c-3,0-5.5-2.4-5.5-5.4c0-3,2.5-5.4,5.5-5.4c3,0,5.5,2.4,5.5,5.4C252.6,97.5,250.2,100,247.1,100">
  </path>
  <path d="M245.9,94.1h1.6c0.3,0,0.5-0.1,0.6-0.3c0.1-0.1,0.2-0.3,0.2-0.5c0-0.4-0.3-0.9-0.7-0.9h-1.6V94.1z M245.1,97l0-5.4h2.8
		c1,0,1.3,1.1,1.3,1.7c0,0.6-0.4,1.1-1,1.3l-0.3,0.1l1.4,2.1h-0.9l-1.3-2.1h-1.1V97H245.1z">
  </path>
  <path d="M43.3,0h20.4v53.3c0,9.2-4,28.4-32.3,28.4C3.1,81.8,0,63.8,0,53.8v-9.8h19.8v9.6c0,5.9,4,11.4,11.4,11.4
		c7.5,0,12.1-4.2,12.1-11.1V0z">
  </path>
  <path d="M107.1,45.3c0-5.5-3.1-10.7-10.1-10.7c-6.8,0-9.2,4.8-9.2,10.7H107.1z M95.7,22.4c16,0,30.1,6.1,30.1,34.3h-38
		c0,9,3.7,12.7,10.3,12.7c6.6,0,8.8-5.2,8.8-5.2h18.7c0,8.1-11.2,19-28.1,18.8c-19.3,0-28.8-14.2-28.8-28.8
		C68.7,39.4,77,22.4,95.7,22.4">
  </path>
  <path d="M168.5,45.3c0-5.5-3.1-10.7-10.1-10.7c-6.8,0-9.2,4.8-9.2,10.7H168.5z M157.1,22.4c16,0,30.1,6.1,30.1,34.3h-38
		c0,9,3.7,12.7,10.3,12.7c6.6,0,8.8-5.2,8.8-5.2h18.7c0,8.1-11.2,19-28.1,18.8c-19.3,0-28.7-14.2-28.7-28.8
		C130.1,39.4,138.4,22.4,157.1,22.4">
  </path>
  <path d="M211,53.4c-0.2,11.1,2.2,17.1,11.4,17.1c9.2,0,10.5-10.1,10.5-17.7c0-7.6-1.8-15.1-11.4-15.1
		C215.6,37.7,211.2,42.3,211,53.4 M192.3,100V24.6h18.9c0,0,0,6.6,0,8.6c0.7-1.5,1.2-2.5,2.6-4.2c1.3-1.5,4.8-5.9,14.3-5.9
		c9.4,0,24.2,6.6,24.2,29.7c0,17.9-8.8,31-23.9,31c-8.3,0-12.1-2.9-14.3-4.6c-1.4-1.1-1.8-1.6-2.6-2.6c0,1.5,0,23.4,0,23.4H192.3z">
  </path>
 </g>
</svg>