<?xml version="1.0" encoding="UTF-8" standalone="no"?>
<svg
   width="1209.2563mm"
   height="331.08823mm"
   viewBox="0 0 1209.2563 331.08823"
   version="1.1"
   id="svg8"
   inkscape:version="1.3 (0e150ed6c4, 2023-07-21)"
   sodipodi:docname="Magnum.svg"
   xmlns:inkscape="http://www.inkscape.org/namespaces/inkscape"
   xmlns:sodipodi="http://sodipodi.sourceforge.net/DTD/sodipodi-0.dtd"
   xmlns="http://www.w3.org/2000/svg"
   xmlns:svg="http://www.w3.org/2000/svg"
   xmlns:rdf="http://www.w3.org/1999/02/22-rdf-syntax-ns#"
   xmlns:cc="http://creativecommons.org/ns#"
   xmlns:dc="http://purl.org/dc/elements/1.1/">
  <defs
     id="defs2" />
  <sodipodi:namedview
     id="base"
     pagecolor="#ffffff"
     bordercolor="#666666"
     borderopacity="1.0"
     inkscape:pageopacity="0.0"
     inkscape:pageshadow="2"
     inkscape:zoom="0.175"
     inkscape:cx="2471.4285"
     inkscape:cy="739.99998"
     inkscape:document-units="mm"
     inkscape:current-layer="layer1"
     inkscape:document-rotation="0"
     showgrid="false"
     inkscape:window-width="1920"
     inkscape:window-height="1009"
     inkscape:window-x="-8"
     inkscape:window-y="-8"
     inkscape:window-maximized="1"
     inkscape:showpageshadow="2"
     inkscape:pagecheckerboard="0"
     inkscape:deskcolor="#d1d1d1" />
  <metadata
     id="metadata5">
    <rdf:RDF>
      <cc:Work
         rdf:about="">
        <dc:format>image/svg+xml</dc:format>
        <dc:type
           rdf:resource="http://purl.org/dc/dcmitype/StillImage" />
        <dc:title />
      </cc:Work>
    </rdf:RDF>
  </metadata>
  <g
     inkscape:label="Lag 1"
     inkscape:groupmode="layer"
     id="layer1"
     transform="translate(-56.049368,-376.85089)">
    <path
       style="fill:#d4aa00;stroke:none;stroke-width:5.3454;stroke-linecap:square;stroke-miterlimit:4;stroke-dasharray:none"
       d="m 926.8135,707.06652 c 24.7684,-3.52887 40.0558,-15.00591 47.7657,-35.86006 2.2506,-6.08752 2.363,-8.2872 2.945,-57.64478 0.5986,-50.76613 0.6308,-51.35935 3.0104,-55.3859 1.323,-2.23859 2.4055,-4.52374 2.4055,-5.07813 0,-1.41916 -39.5559,-1.09064 -39.5559,-0.49593 0,0.28162 1.2263,4.16507 2.7251,8.62988 l 2.725,8.11785 -0.3402,46.16037 c -0.3802,51.59601 -0.4331,51.99177 -7.9809,59.72505 -10.6148,10.87571 -33.1447,12.5242 -47.48092,3.47414 -5.42224,-3.4229 -10.14468,-11.82502 -11.6405,-20.71059 -0.76687,-4.55549 -1.07053,-22.0279 -0.86511,-49.78213 l 0.31644,-42.76313 2.84345,-6.06554 c 1.56387,-3.33606 2.22724,-6.68174 2.22724,-6.68174 l -45.62301,0.33533 c 0,0 0.73063,3.28958 2.34233,6.1472 l 2.93042,5.19567 0.23821,48.10852 c 0.14711,29.71538 0.67564,49.89216 1.38237,52.77377 1.89261,7.71693 7.33935,17.2632 13.18141,23.10254 14.73292,14.72608 41.48597,22.25406 66.44797,18.69761 z m -341.23038,-1.69777 c 6.57487,-0.9555 16.04354,-2.75957 21.04146,-4.00905 l 9.08717,-2.27178 0.53454,-28.33057 c 0.51064,-27.06492 0.64746,-28.55993 3.06234,-33.46448 1.3903,-2.82366 2.24597,-5.41577 1.90151,-5.76024 -0.34449,-0.34448 -9.29524,-0.86301 -19.89056,-1.1523 -21.68107,-0.59198 -24.14733,-0.0182 -20.39959,4.74634 3.34233,4.24906 4.48689,12.50413 4.12499,29.75076 l -0.3365,16.03617 -6.94901,1.22095 c -15.8569,2.78609 -31.09497,0.75016 -43.03848,-5.75032 -10.75671,-5.85454 -20.46292,-19.56697 -23.27973,-32.88837 -1.79295,-8.47939 -1.80618,-24.20497 -0.0265,-31.5378 3.82275,-15.75094 14.39455,-29.16356 28.09256,-35.64146 10.99383,-5.19909 17.51766,-6.47671 29.07643,-5.69433 17.3644,1.17536 30.0831,5.90964 39.70608,14.77978 6.34994,5.85318 7.01921,4.55775 6.683,-12.93567 -0.14872,-7.73833 -0.52438,-14.46998 -0.83481,-14.95923 -1.97287,-3.1092 -29.12044,-8.58142 -46.53479,-9.38016 -10.54454,-0.48365 -15.01817,-0.16863 -25.12332,1.7691 -21.05612,4.03765 -35.03414,11.33829 -47.51147,24.81498 -26.30728,28.4143 -26.47852,77.69948 -0.36898,106.19345 19.86682,21.68115 51.53702,30.19682 90.98364,24.46423 z m -471.80354,-2.9427 c 0,-0.80998 -0.79818,-2.13297 -1.77375,-2.93996 -3.27719,-2.71091 -6.75741,-11.84836 -6.76843,-17.77081 -0.005,-3.08703 0.94066,-13.6709 2.10312,-23.51972 3.01872,-25.57573 5.20397,-44.9552 6.63024,-58.79917 1.09608,-10.63896 1.47205,-12.02713 3.25747,-12.02713 1.46713,0 2.98589,2.11691 5.56078,7.75082 1.94831,4.26295 8.17505,17.29114 13.83719,28.95152 5.66214,11.66039 10.2948,21.33696 10.2948,21.50347 0,0.16652 5.28123,11.1926 11.73605,24.50238 7.91487,16.32037 12.28349,24.19962 13.4174,24.19962 1.09897,0 3.83648,-4.53622 7.90325,-13.0962 3.42204,-7.20292 9.35725,-19.59086 13.18935,-27.52877 18.53544,-38.39475 22.77725,-47.2372 27.09243,-56.47678 3.54089,-7.5817 5.09931,-9.88675 6.5017,-9.61667 1.92585,0.37088 2.73859,5.84075 7.27885,48.98821 0.89714,8.52589 2.40219,21.75246 3.34455,29.39237 0.94235,7.63992 1.44624,16.14628 1.11974,18.90302 -0.63528,5.36407 -3.7647,12.43409 -6.51347,14.71536 -0.92497,0.76765 -1.68176,2.05846 -1.68176,2.86844 0,1.21454 5.06026,1.47273 28.86511,1.47273 15.87581,0 28.86511,-0.29405 28.86511,-0.65345 0,-0.35939 -1.86088,-2.88509 -4.13529,-5.61266 -2.2744,-2.72757 -5.4803,-7.60518 -7.12421,-10.83915 -3.20719,-6.30928 -3.64626,-9.23462 -9.5474,-63.61014 -1.46768,-13.52384 -4.3584,-39.50244 -6.4238,-57.73022 -2.06542,-18.22778 -3.75918,-33.70842 -3.76393,-34.4014 -0.004,-0.693 -0.76462,-2.01598 -1.68862,-2.93997 -1.38585,-1.38585 -4.6145,-1.67722 -18.44159,-1.66422 -11.15521,0.0107 -17.63263,0.45747 -19.3657,1.33635 -2.01079,1.01972 -5.74015,8.26224 -16.36915,31.78931 -27.33162,60.49804 -27.28571,60.40291 -29.15026,60.40291 -1.64581,0 -4.58168,-5.89074 -19.71412,-39.55589 -16.01166,-35.62113 -22.25587,-49.04093 -23.72481,-50.98835 -1.60065,-2.12201 -3.08443,-2.41835 -15.50671,-3.09694 -7.55518,-0.41271 -16.593872,-1.10764 -20.085982,-1.54428 -6.07571,-0.75969 -19.96406,-5.2606 -26.22865,-8.50014 -7.94647,-4.10928 -4.90769,7.02556 5.80004,21.2528 11.22641,14.9164 12.00134,19.83366 8.11459,51.49081 -1.15093,9.37419 -2.85134,24.26026 -3.77869,33.08015 -5.44785,51.8136 -6.46186,58.47367 -9.94998,65.35236 -1.82766,3.60418 -5.02911,8.36206 -7.11435,10.57305 -2.08523,2.211 -3.79133,4.43378 -3.79133,4.93953 0,0.50575 12.98929,0.91954 28.8651,0.91954 23.804862,0 28.865112,-0.25819 28.865112,-1.47273 z M 412.03093,581.48939 c -3.39822,-7.64392 -7.63792,-17.26561 -9.4215,-21.38156 l -3.24287,-7.48354 -19.84949,-0.29087 c -10.91723,-0.15998 -19.84951,0.12692 -19.84951,0.63756 0,0.51062 0.78882,2.50967 1.75294,4.44232 3.25901,6.5328 2.19337,14.06886 -3.93353,27.81786 -3.01326,6.76192 -5.99004,13.73765 -6.61501,15.50163 -0.625,1.76398 -1.48267,3.68832 -1.90595,4.27631 -0.42328,0.58799 -4.24617,9.24753 -8.4953,19.24341 -4.24913,9.99588 -8.38311,19.61758 -9.18662,21.38156 -4.89143,10.73824 -14.747,33.65633 -15.67673,36.45458 -0.60544,1.82224 -3.64458,7.11064 -6.75366,11.75199 -3.10907,4.64136 -5.42766,8.80318 -5.15244,9.24851 0.57061,0.92326 42.06826,1.12918 42.06826,0.20875 v -5e-5 c 0,-0.33052 -0.79211,-3.02267 -1.76024,-5.98257 -1.40047,-4.28172 -1.53062,-6.28931 -0.63675,-9.82259 1.29252,-5.10919 6.41101,-17.69851 7.99947,-19.6753 0.8143,-1.01341 8.53082,-1.33635 31.93182,-1.33635 h 30.85801 l 1.73918,4.00904 c 7.35989,16.96544 8.09572,20.85542 5.23851,27.69366 -0.88198,2.11091 -1.60361,4.26033 -1.60361,4.77651 0,1.29106 47.81293,1.21259 48.61168,-0.0797 0.34613,-0.56007 -1.14151,-3.32631 -3.30591,-6.1472 -4.04371,-5.27029 -7.77288,-12.73572 -17.51486,-35.0631 z m -9.04142,57.23572 -41.00769,-0.44252 20.36595,-45.40235 z m 293.43764,64.20325 c 0,-0.53374 -1.32299,-3.52031 -2.93997,-6.63686 l -2.93997,-5.66643 v -40.13532 c 0,-39.95842 0.01,-40.13531 2.22737,-40.13531 1.43587,0 4.50009,2.65931 8.62304,7.48355 12.40631,14.5166 56.64612,66.40722 64.94097,76.17181 l 8.40049,9.88898 h 13.19208 13.19209 l 0.30404,-69.80347 0.30406,-69.80348 2.84538,-5.48291 c 1.56498,-3.01562 2.22726,-6.10108 2.22726,-6.10108 l -39.8177,0.77165 c 0,0 0.43741,1.84683 0.97203,2.40542 0.53461,0.5586 1.73733,3.62865 2.67268,6.82232 1.41706,4.83829 1.70069,12.28217 1.70069,44.63402 0,37.48258 -0.0706,38.82731 -2.03861,38.82731 -1.15755,0 -4.0432,-2.42569 -6.67692,-5.61266 -2.55109,-3.08697 -5.12159,-6.12826 -5.71222,-6.75842 -0.59063,-0.63017 -16.46314,-19.27222 -35.27221,-41.42678 l -34.19835,-40.28102 h -19.99427 c -10.99685,0 -20.24658,0.40823 -20.55495,0.90718 -0.30837,0.49894 0.26461,1.82232 1.27325,2.94083 4.4686,4.95532 8.1638,10.69353 10.00265,15.53307 1.84754,4.8623 1.98419,9.16358 1.94059,61.07852 -0.0489,58.18416 -0.24924,61.0154 -4.66228,65.89179 -0.93789,1.03636 -1.70526,2.68831 -1.70526,3.671 0,1.60847 2.0796,1.78671 20.84702,1.78671 11.77229,0 20.84702,-0.42243 20.84702,-0.97042 z m 362.41745,-0.26502 c 0,-0.67949 -1.1227,-2.7241 -2.495,-4.54359 -5.6715,-7.51996 -6.1137,-14.19125 -2.8766,-43.39857 1.1404,-10.28987 3.0718,-27.84948 4.2921,-39.02135 3.0419,-27.8511 2.9242,-27.26149 5.4423,-27.26149 1.4791,0 2.7327,1.38501 4.1124,4.54358 1.0917,2.49897 6.6301,14.16529 12.3076,25.92515 5.6774,11.75986 13.0659,27.12695 16.4188,34.14908 13.9785,29.27616 20.0354,40.68638 21.5977,40.68638 1.7912,0 3.9017,-3.91168 17.881,-33.14142 5.343,-11.17186 13.5449,-28.25039 18.2263,-37.95227 4.6814,-9.70188 10.254,-21.3682 12.3836,-25.92514 2.8327,-6.06133 4.4163,-8.28536 5.8998,-8.28536 2.4184,0 2.3611,-0.32167 5.9908,33.67596 1.4439,13.52384 3.1117,27.95639 3.7062,32.07234 0.5945,4.11595 1.3977,13.25657 1.7849,20.31249 0.6482,11.81404 0.5138,13.27029 -1.6983,18.40793 -1.3212,3.06846 -3.071,6.13415 -3.8885,6.81265 -0.8176,0.6785 -1.4865,1.89636 -1.4865,2.70634 0,1.21386 4.9798,1.47273 28.3306,1.47273 19.8373,0 28.3306,-0.35145 28.3306,-1.1723 0,-0.64476 -1.879,-3.30692 -4.1755,-5.91591 -4.8603,-5.52152 -8.2502,-12.26612 -9.7481,-19.39421 -0.5841,-2.78047 -2.2385,-16.12035 -3.6764,-29.64419 -1.4377,-13.52383 -3.9014,-35.65375 -5.4746,-49.17759 -3.7329,-32.08641 -3.8911,-42.15778 -0.7687,-48.91911 1.2921,-2.7978 4.2468,-7.36811 6.5662,-10.15624 7.8529,-9.44033 13.7197,-22.54697 10.8783,-24.303 -0.6482,-0.40059 -1.7587,-0.26864 -2.4679,0.29323 -0.7093,0.56187 -5.9301,2.74521 -11.6019,4.85186 -10.8443,4.0278 -24.2715,6.07049 -39.9035,6.07049 -11.7315,0 -10.5892,-1.49346 -26.985,35.27958 -2.896,6.49535 -5.0578,11.25612 -17.2328,37.95227 -7.3671,16.15393 -8.5733,18.17433 -10.8491,18.17433 -2.3163,0 -3.8594,-2.85592 -16.1742,-29.93419 -7.4875,-16.4638 -14.6698,-32.33961 -15.9607,-35.27957 -7.0951,-16.1594 -10.6194,-22.84267 -12.8802,-24.42625 -2.0935,-1.46631 -5.4719,-1.76617 -19.8988,-1.76617 -20.6271,0 -19.9801,-0.42545 -21.1325,13.89802 -0.402,4.99794 -1.3857,13.89801 -2.1859,19.77794 -0.8003,5.87993 -1.9888,16.46381 -2.6413,23.51972 -0.6524,7.05591 -1.8834,18.12087 -2.7356,24.5888 -0.8521,6.46792 -2.5109,21.32321 -3.6862,33.01176 -3.9466,39.24842 -5.6977,46.13807 -14.1745,55.76821 -2.2066,2.50685 -4.012,5.08546 -4.012,5.73022 0,0.82085 8.4932,1.1723 28.3305,1.1723 20.7176,0 28.3306,-0.332 28.3306,-1.23544 z"
       id="path887-0-6"
       sodipodi:nodetypes="ssssssscssssscsccscsssssscsssssscssssssssssssssssscssssssssssssssssssssssscscsssssssssssssssscscssssssssssssssssscsssssccccccsscsssscccccsccssssssscsssssssssssscsssssssssssssssssssscscsssssssscsssssssssss" />
    <circle
       style="fill:none;stroke:#d4aa00;stroke-width:2.11667;stroke-dasharray:none"
       id="path1"
       cx="1248.3724"
       cy="528.07227"
       r="15.875" />
    <path
       style="fill:#d5ac07;fill-opacity:1;fill-rule:nonzero;stroke:none;stroke-width:0.264583"
       d="m 579.40399,376.85089 c 27.59619,0 51.27959,11.1328 62.01839,19.37335 1.88542,1.45374 2.99101,1.28041 4.43806,0.31621 7.15548,-4.78202 28.71236,-19.51048 58.39979,-19.51048 35.84018,0 72.12969,18.12452 72.12969,57.60901 0,24.16624 -16.46971,49.38413 -44.72967,66.5878 -7.13737,4.37271 -15.50688,8.11116 -24.48105,11.32284 -5.11771,1.85348 -7.37755,-0.26217 -2.00053,-4.24803 13.23601,-9.84803 47.1644,-35.74697 47.1644,-68.16621 0,-22.02292 -20.40543,-44.0334 -55.61562,-44.0334 -26.85497,0 -46.71498,15.06174 -50.43291,17.59628 -1.91308,1.30955 -3.16155,1.09315 -4.78192,-0.33579 -9.73301,-8.65508 -29.50315,-17.95676 -52.44525,-17.95676 -27.98489,0 -53.21448,15.39178 -53.21448,42.77638 0,49.90421 86.62791,70.4151 107.64643,70.4151 5.22708,0 51.61733,-16.17542 51.61733,-55.14271 0,-13.78236 -8.55389,-22.84963 -19.85852,-22.84963 -14.75808,0 -23.25506,12.40504 -29.01084,19.32462 -1.30807,1.576 -3.33349,2.2862 -4.58613,-0.01 -5.09953,-9.28452 -15.09229,-19.59061 -28.72621,-19.59061 -12.1008,0 -19.33315,8.77446 -19.33315,18.42577 0,22.736 31.61592,36.85694 46.38207,41.94829 2.8564,0.97525 2.82298,4.03274 -1.18051,3.643 -21.00329,-1.99627 -73.17003,-17.86132 -73.17003,-51.73142 0,-13.98102 12.04074,-29.52942 36.05975,-29.52942 16.16668,0 31.48633,8.87854 40.50774,19.73672 0.88352,1.05974 2.34301,0.91268 3.12813,0.11085 0.79227,-0.77946 19.60489,-19.19 42.08151,-19.19 16.06613,0 33.4499,10.97042 33.4499,34.10032 0,23.89163 -20.91166,47.83061 -38.53848,58.79816 -18.08431,11.22582 -35.32957,16.28523 -39.59673,15.94814 -69.50194,-5.68226 -130.91856,-45.90071 -130.91856,-93.29814 0,-23.34492 17.77963,-52.44023 67.5974,-52.44023"
       id="path2177"
       inkscape:connector-curvature="0" />
    <path
       style="fill:#d4aa00;fill-opacity:1;stroke:none;stroke-width:0.0472469"
       d="M 1241.2856,528.07224 V 519.993 l 3.5081,0.002 c 4.4716,0.002 5.3557,0.0423 6.3408,0.28918 1.2137,0.30419 2.0415,0.98781 2.5747,2.12626 0.3033,0.64753 0.3874,1.01034 0.4145,1.78799 0.028,0.79228 -0.036,1.22749 -0.2651,1.82062 -0.5385,1.39271 -1.7675,2.29226 -3.6433,2.66672 -0.2729,0.0545 -0.5168,0.10518 -0.5422,0.11269 -0.025,0.008 0.1022,0.0953 0.2835,0.19498 0.55,0.30262 0.8745,0.55615 1.369,1.06974 0.6839,0.71021 0.9783,1.12583 2.6396,3.7264 l 1.494,2.33872 -1.3084,0.0126 c -1.0086,0.01 -1.3208,-10e-4 -1.3627,-0.0472 -0.03,-0.0329 -0.5395,-0.82523 -1.1325,-1.76072 -2.5508,-4.02413 -3.1105,-4.70597 -4.2362,-5.16065 -0.4295,-0.17347 -0.7414,-0.19863 -2.484,-0.20034 l -1.5709,-0.002 v 3.59078 3.59077 h -1.0395 -1.0394 z m 7.9387,-0.99388 c 1.3813,-0.16887 2.2013,-0.72798 2.5962,-1.77007 0.1344,-0.35467 0.1829,-1.09029 0.098,-1.48088 -0.2021,-0.9256 -0.9115,-1.61029 -1.9799,-1.91093 -0.3495,-0.0984 -0.4574,-0.102 -3.4672,-0.11701 l -3.1065,-0.0155 v 2.67167 2.67167 h 2.7297 c 1.594,0 2.8964,-0.0204 3.1301,-0.0489 z"
       id="path2" />
  </g>
</svg>
