<svg version="1.1" id="Layer_1" xmlns:x="ns_extend;" xmlns:i="ns_ai;" xmlns:graph="ns_graphs;" xmlns="http://www.w3.org/2000/svg" xmlns:xlink="http://www.w3.org/1999/xlink" x="0px" y="0px" viewBox="0 0 187.3 55" style="enable-background:new 0 0 187.3 55;" xml:space="preserve">
 <style type="text/css">
  .st0{fill:#FFCC00;}
 </style>
 <metadata>
  <sfw xmlns="ns_sfw;">
   <slices>
   </slices>
   <sliceSourceBounds bottomLeftOrigin="true" height="55" width="187.3" x="-174.7" y="-216">
   </sliceSourceBounds>
  </sfw>
 </metadata>
 <g>
  <g>
   <path class="st0" d="M0,55h38.5V0H0V55z M33,49.5H5.5v-44H33V49.5z">
   </path>
   <path d="M64,24.7h-2.4c-3.1-4.4-6.2-8.8-9.3-13.7h0v13.7h-2.6V5.5H52c3.1,4.4,6.2,8.7,9.3,13.6h0.1V5.5H64V24.7z">
   </path>
   <path d="M70.2,17.1c0.8-2.5,1.5-4.8,2.2-7.8h0.1c0.8,3,1.5,5.3,2.2,7.8H70.2z M71.5,5.5l-6.6,19.1h2.8l1.7-5.2h5.8l1.5,5.2h3.7
			L74.2,5.5H71.5z">
   </path>
   <polygon points="83.4,24.7 83.4,8.1 78.4,8.1 78.4,5.5 91.7,5.5 91.7,8.1 86.7,8.1 86.7,24.7 		">
   </polygon>
   <polygon points="92.8,24.7 92.8,15.1 92.8,5.5 96.1,5.5 96.1,15.1 96.1,24.7 		">
   </polygon>
   <path d="M106.2,22.3c-3.4,0-4.6-3.8-4.6-7.4c0-3.5,1.4-6.9,4.6-6.9c3.3,0,4.6,3.4,4.6,6.9C110.8,18.5,109.6,22.3,106.2,22.3
			 M106.2,25c5,0,8.1-4.5,8.1-10.2c0-5.4-3.4-9.6-8.1-9.6c-4.7,0-8.1,4.3-8.1,9.6C98.1,20.5,101.2,25,106.2,25">
   </path>
   <path d="M130.6,24.7h-2.4c-3.1-4.4-6.2-8.8-9.3-13.7h0v13.7h-2.6V5.5h2.4c3.1,4.4,6.2,8.7,9.3,13.6h0.1V5.5h2.6V24.7z">
   </path>
   <path d="M136.9,17.1c0.8-2.5,1.5-4.8,2.2-7.8h0.1c0.8,3,1.4,5.3,2.2,7.8H136.9z M138.1,5.5l-6.6,19.1h2.8l1.7-5.2h5.8l1.5,5.2h3.7
			l-6.1-19.1H138.1z">
   </path>
   <polygon points="147.9,5.5 151.2,5.5 151.2,22.1 157.6,22.1 157.6,24.7 147.9,24.7 		">
   </polygon>
   <path d="M62,40.7v7.9c-1.8,0.7-3.6,1.2-5.4,1.2c-5.6,0-9.2-4.4-9.2-10c0-5.2,3.6-9.8,9.3-9.8c1.8,0,3.6,0.7,4.6,1.5l-1.1,2.3
			c-0.9-0.5-2.2-1-3.5-1c-3.5,0-5.9,2.8-5.9,7.1c0,4.5,2.7,7.2,5.6,7.2c0.9,0,1.6-0.1,2.3-0.5v-5.9H62z">
   </path>
   <polygon points="73.7,32.9 68.2,32.9 68.2,38.1 73.6,38.1 73.6,40.7 68.2,40.7 68.2,46.9 74.7,46.9 74.7,49.4 65,49.4 65,30.3 
			73.7,30.3 		">
   </polygon>
   <path d="M83.8,47c-3.4,0-4.6-3.8-4.6-7.4c0-3.5,1.4-6.9,4.6-6.9c3.3,0,4.6,3.4,4.6,6.9C88.5,43.3,87.3,47,83.8,47 M83.8,49.8
			c5,0,8.1-4.5,8.1-10.2c0-5.4-3.4-9.6-8.1-9.6c-4.7,0-8.1,4.3-8.1,9.6C75.7,45.3,78.8,49.8,83.8,49.8">
   </path>
   <path d="M107.7,40.7v7.9c-1.7,0.7-3.6,1.2-5.4,1.2c-5.6,0-9.2-4.4-9.2-10c0-5.2,3.6-9.8,9.3-9.8c1.8,0,3.6,0.7,4.6,1.5l-1.1,2.3
			c-0.9-0.5-2.2-1-3.5-1c-3.5,0-5.9,2.8-5.9,7.1c0,4.5,2.7,7.2,5.6,7.2c0.9,0,1.6-0.1,2.3-0.5v-5.9H107.7z">
   </path>
   <path d="M114,32.9h1.5c1.9,0,3,1.1,3,3.1c0,2.6-1.6,3.7-3.1,3.8c-0.3,0-1.1,0.1-1.4,0.1V32.9z M122.3,49.4l-3.9-7.9
			c2.1-1.1,3.3-3.4,3.3-5.7c0-3.7-2.3-5.5-5.9-5.5h-5.1v19.1h3.3v-7.2h1.4h0.1l3.1,7.2H122.3z">
   </path>
   <path d="M127.7,41.9c0.8-2.5,1.5-4.8,2.2-7.8h0.1c0.8,3,1.5,5.3,2.2,7.8H127.7z M129,30.3l-6.6,19.1h2.8l1.7-5.2h5.8l1.5,5.2h3.7
			l-6.1-19.1H129z">
   </path>
   <path d="M144,30.3h-5.1v19.1h3.3v-7.2h1.5c3.9,0,6.3-3.2,6.3-6.4C149.9,32.1,147.6,30.3,144,30.3 M143.5,39.8
			c-0.3,0-1.1,0.1-1.4,0.1v-7h1.5c1.9,0,3,1.1,3,3.1C146.6,38.5,145.1,39.7,143.5,39.8">
   </path>
   <polygon points="165.1,49.4 161.8,49.4 161.8,40.2 155,40.2 155,49.4 151.8,49.4 151.8,30.3 155,30.3 155,37.7 161.8,37.7 
			161.8,30.4 165.1,30.4 		">
   </polygon>
   <polygon points="168.3,49.4 168.3,39.9 168.3,30.3 171.5,30.3 171.5,39.9 171.5,49.4 		">
   </polygon>
   <path d="M186.3,33.8c-0.8-0.5-2.1-1.1-3.4-1.1c-3.3,0-5.8,2.8-5.8,7.1c0,4.5,2.7,7.2,5.9,7.2c1.3,0,2.4-0.4,3.3-1l0.9,2.4
			c-1,0.7-2.7,1.3-4.3,1.3c-5.6,0-9.2-4.4-9.2-10c0-5.2,3.5-9.8,9.2-9.8c1.7,0,3.3,0.7,4.4,1.5L186.3,33.8z">
   </path>
  </g>
 </g>
</svg>