<svg version="1.1" id="Layer_1" xmlns="http://www.w3.org/2000/svg" xmlns:xlink="http://www.w3.org/1999/xlink" x="0px" y="0px" viewBox="0 0 319 89.3" style="enable-background:new 0 0 319 89.3;" xml:space="preserve">
 <style type="text/css">
  .st0{clip-path:url(#SVGID_2_);}
	.st1{fill:#A30A27;}
 </style>
 <g>
  <g>
   <g>
    <g>
     <defs>
      <rect id="SVGID_1_" x="55.1" y="4.5" width="253.4" height="84.8">
      </rect>
     </defs>
     <clipPath id="SVGID_2_">
      <use href="#SVGID_1_" style="overflow:visible;">
      </use>
     </clipPath>
     <g class="st0">
      <path class="st1" d="M251.2,33.7c-1.8-0.1-3.1-0.8-3.2-2c-0.3-1.8,1.6-3.9,4.8-4.2c1-0.1,1.9,0.2,2.4,0.8
						c0.8,0.8,0.8,2.2,0.2,3.3C254.7,32.9,253.2,33.7,251.2,33.7z M148.1,48.3c2.3-1.2,5.1-2,5.5-1.2c0.4,0.8-1.4,1.7-3.1,2.8
						c-5.2,3.4-6.7,9.5-5.3,15.3c2,7.9,11.6,12.6,22.5,11c9.6-1.4,21.9-9.3,18-21.9c-1.6-5-4.6-8.8-7.6-12.6
						c-3.1-3.8-6.4-7.8-8-13.1c-3.7-12.1,3.9-21.5,19.1-23.8c10.3-1.5,21.2,3.3,23.5,10.8c1.5,5-1.4,9.9-6.6,12.1
						c-1.5,0.7-2.6,0.6-3-0.1c-0.4-0.6,0.3-1.7,1.6-2.5c2.7-1.7,4-5.3,3-9c-0.9-2.9-3.1-5.6-6.9-7c-10.8-3.8-18.5,1.4-21.2,4.6
						c-1.9,2.2-3.6,6.1-2,10.6c1.9,5.2,4.8,8.8,7.9,12.6c3.3,4,6.7,8.1,8.7,14.3c1.8,5.7,0.5,12.2-3.8,17.3
						c-4.7,5.6-12.4,9.4-21.8,10.8c-13,1.9-26.1-4.2-29.2-13.7C137.2,58.3,140.9,52.2,148.1,48.3L148.1,48.3z M308.2,63.2
						c0.5,0.3,0.4,1.5-0.6,2.9c-2.3,3.2-7,6.7-14.6,7c-7,0.2-10.4-4.4-11.3-7.9c-10.5,12.3-27.2,9.7-27.6-1.4
						c-7.2,9.4-11.3,9.5-14.3,9.5c-7.1-0.3-6.7-6.3-6.7-6.3c-3.6,3.2-7.7,3.6-8.1,3.1c-0.5-0.6,0.2-1.2,1.7-1.9
						c4.8-2.2,7.7-6.9,10.1-11.8c1.2-2.4,7.3-14.4,8.4-16.8h6.8c-2.8,5.9-10.1,21.5-10.1,21.5c-1.4,3.5-4.1,8.5-0.3,8.9
						c4.8,0.5,10.2-6.7,13.7-14.1c4.1-8.4,10.7-16.6,19.8-16.6c2.2,0,4.4,1.3,5.4,2.5c1.6,1.7,1.9,4.1,0.5,6c-1.8,2.6-5.9,2.9-7,0.6
						c-0.6-1.1-0.1-2.4,1.4-3.3c0.4-0.2,1.4-0.6,2-0.7c-0.1-0.6-0.6-1.9-2.8-2.1c-6.1-0.7-14.4,14.6-13.1,22c0.5,2.3,2,4.4,4.5,4.9
						c7.2,1.5,12.6-4.7,17.3-14.8c3.9-8.1,10.7-14.9,18.8-14.9c3.1,0,5.2,1.3,5.8,3.5c1.1,4.1-3.2,11.7-15.8,15.2
						c-0.5,0.1-1,0.2-1.7,0.4c-0.3,0.4-0.5,1.1-0.7,1.4c-0.7,2.3-0.7,5.1,1,7c1.2,1.3,2.9,1.9,5.3,1.9c4.7,0,6.8-1.6,9.2-3.7
						C305.9,64.6,307.6,62.8,308.2,63.2z M292.7,51.9c-0.2,0.4-0.9,1.8-1.5,3.2c8.2-1.8,14.2-7.4,12.9-11.3c-0.3-0.8-1-1.3-2.2-1.2
						C298.3,42.5,293.8,49.5,292.7,51.9L292.7,51.9z M224.3,39.7c5.9,1.3,8.4,6,6.9,13c-2.2,10.7-12.8,20.8-22.7,19.7
						c-2.2-0.2-4.7-1.3-6-3.2c-0.2,0.3-0.6,1.4-0.8,1.9l-5,10.4l-3.7,7.9h-6.9l2.2-4.8l11.1-24.1c4.7-10.5,9.7-22.7,9.7-22.7h7.1
						c0,0-1.8,3.6-2.1,4.4c1.1-0.7,2.2-1.3,3-1.6C217.8,40.2,221.5,39,224.3,39.7z M225.4,50.2c1-4.2,0.3-6.8-2-7.3
						c-2.5-0.6-5.4,0.3-8,2.7c-5.9,5.2-10.6,17.2-8.7,21.9c0.4,1,1.1,1.7,2.1,1.9C215.1,70.8,223.4,58.7,225.4,50.2z M118.8,55.7
						c-3.1,7.6-4,11.1-3.2,12.8c0.7,1.5,2.6,0.8,3.7,0.5c2.8-1,6.4-4.2,8.5-8.3c0.6-1,1.6-1.4,1.9-1.1c0.4,0.3,0.5,0.9,0.2,1.7
						c-1.6,4-6.8,11.9-14.5,11.7c-5.7-0.2-7.3-4.3-7.8-6.4c-0.4,0.5-1.7,1.7-1.7,1.7c-2.8,2.6-5.6,4.5-8.9,5.1
						c-4.1,0.7-8.2-1.4-8.6-7.1c-0.4,0.4-3,2.8-3,2.8c-2.2,1.8-6,4.7-11.1,4.4c-6.2-0.4-7.7-4.8-7.6-10.1c-3.1,2.4-7.2,4.3-8,4.7
						c-0.8,0.3-2.5,1.2-3.2,0.8c-1.1-0.7,0.2-1.8,1.1-2.3c0.8-0.5,7.3-5.3,11.1-8.9c0.2-0.2,0.6-1.3,1.3-3.5
						C72.5,44,82.2,14.2,97.2,14.3c1.6,0,3.2,0.8,4.1,2.1c4,5.7-7.4,24.2-25.9,39.2c0,0.1-4.4,10.2-2.1,13c0.4,0.5,1,0.8,1.7,0.9
						C81,70.7,85.6,63,90.5,56c5.4-7.5,11.1-15.1,19.3-15.9c3.3-0.4,5.3,0.5,6.5,2c0.4,0.5,0.9,1.3,1.2,1.8
						c0.3-0.7,12.8-28.2,12.8-28.2h6.5L118.8,55.7z M80.8,42.1c-0.9,2.2-1.8,4.4-2.6,6.6c7.8-6.1,23.2-25.9,20.3-29.5
						c-0.2-0.2-0.5-0.5-1.2-0.5c-5.5,0.4-11.9,13.4-15.4,21L80.8,42.1z M97.8,69.4c6.1,0.4,15.9-16.2,16.1-23c0.1-2.3-1.1-2.9-1.9-3
						c-3.7-0.4-7.8,3.9-9.8,6.5c-4.7,6-8.5,15.3-6.5,18.4C96.1,68.9,96.9,69.3,97.8,69.4L97.8,69.4z">
      </path>
     </g>
    </g>
   </g>
   <g>
    <path class="st1" d="M57.4,55.5C44.5,75.9,23.3,85.2,10,76.5C-3.1,68-3.4,44.4,9.5,24.3C22.5,3.9,43.8-5.4,56.9,3.2
				C70.2,11.8,70.4,35.4,57.4,55.5 M54.6,6c-9.9-6.1-27.1,4.1-38.2,23C5.1,47.6,4,67.9,13.9,74c10.1,6,27.2-4.1,38.4-23
				C63.6,32.4,64.6,12.1,54.6,6">
    </path>
   </g>
   <g>
    <path class="st1" d="M319,58.8c0,2.8-2.2,5-4.7,5c-2.5,0-4.9-2.1-4.9-5c0-2.8,2.4-4.6,4.9-4.6C316.8,54.2,319,56,319,58.8z
				 M317.7,58.8c0-2.1-1.5-3.6-3.5-3.6c-1.9,0-3.5,1.5-3.5,3.6c0,2.1,1.6,3.6,3.5,3.6C316.2,62.5,317.7,61,317.7,58.8z M312.5,56.3
				h1.9c1.3,0,2,0.4,2,1.5c0,0.9-0.6,1.3-1.4,1.4l1.4,2.3h-1.1l-1.3-2.2h-0.6v2.2h-1V56.3z M313.5,58.4h0.9c0.6,0,1-0.1,1-0.7
				c0-0.6-0.6-0.6-1.1-0.6h-0.9V58.4z">
    </path>
   </g>
  </g>
 </g>
</svg>