<?xml version="1.0" encoding="UTF-8"?>
<svg version="1.1" viewBox="0 0 2048 1588" width="834" height="647" xmlns="http://www.w3.org/2000/svg">
<path transform="translate(0)" d="m0 0h2048v1588h-2048z" fill="#FEFEFE"/>
<path transform="translate(688,579)" d="m0 0h13l18 2 20 5 15 5 16 8 15 9 14 11 17 17 11 15 8 14 8 17 7 23 3 22v28l-2 21-5 25-7 24-9 22-10 20-12 19-8 11-11 13-1 2h-2l-2 4-17 17-11 9-13 10-21 13-17 9-20 8-21 7-27 6-13 2h-15l-6-5-2-5 1-7 3-6-1-5-19-8-23-7-16-7-17-9-17-12-14-12-13-13-8-10-11-16-8-14-8-17-7-21-4-17-3-22v-27l3-19 6-18 8-16 10-14 9-10 7-7 16-11 19-9 13-4 12-2h25l15 4 13 7 4 2 4-15 8-16 7-11 13-14 14-10 14-7 18-6z" fill="#077EFF"/>
<path transform="translate(1055,686)" d="m0 0 18 1 21 5 13 5 15 8 11 9 11 11 10 15 7 17 3 15v28l-3 14-8 18-10 14-9 10-11 9-13 8-17 7-18 4-12 1h-12l-15-2-15-4-21-11-14-10 1 15v90h-46v-269l1-1h45l1 19 12-9 16-8 18-6 9-2z" fill="#077EFF"/>
<path transform="translate(686,622)" d="m0 0h14l18 3 18 6 17 9 12 9 8 7 7 8 9 13 9 17 5 16 3 16 1 9v14l-3 27-4 18-7 21-10 21-11 18-13 16-13 14-8 7-16 12-13 8-16 8-8-10-13-21-13-24-11-24-12-34-8-31-5-31-2-19-1-16v-17l2-14 6-16 7-11 9-10 10-8 14-7 11-3z" fill="#FEFEFE"/>
<path transform="translate(1288,686)" d="m0 0 18 1 16 4 13 5 15 8 11 9 1-20h45l1 1v185h-46v-20l-14 10-16 8-11 4-13 3-10 1h-13l-17-2-16-4-16-7-13-9-10-9-9-10-9-14-6-15-3-11-1-6v-25l3-14 6-15 7-12 11-13 11-10 14-9 13-6 21-6z" fill="#077EFF"/>
<path transform="translate(1447,594)" d="m0 0h42l2 1v114l15-10 13-6 20-6h28l16 4 12 5 11 8 7 7 7 11 6 15 1 5 1 137h-46l-1-121-2-12-5-10-7-6-8-3-6-1h-17l-13 4-14 8-10 9-7 7-1 125h-45l-1-13v-268z" fill="#077EFF"/>
<path transform="translate(1042,725)" d="m0 0h20l15 3 16 8 10 8 8 11 5 13 1 5v25l-3 11-5 10-9 10-9 8-16 7-13 3h-19l-15-4-14-7-12-10-9-12-5-13-1-4v-24l4-12 7-11 7-8 13-9 11-5z" fill="#FEFEFE"/>
<path transform="translate(1286,725)" d="m0 0h19l14 3 16 8 9 7 9 10 7 14 2 9v19l-3 13-6 11-11 12-13 9-17 6-6 1h-19l-19-5-13-7-9-8-7-10-5-12-2-9v-22l4-14 6-10 9-10 10-7 11-5z" fill="#FEFEFE"/>
<path transform="translate(450,580)" d="m0 0h9l7 4 6 8 18 35 6 11-1 3-48-25-9-8-2-6v-7l3-7 8-7z" fill="#077EFF"/>
<path transform="translate(469,962)" d="m0 0h4l-2 5-13 25-7 6h-7l-6-4-2-4v-7l5-6 22-12z" fill="#077EFF"/>
<path transform="translate(830,975)" d="m0 0 6 2 13 7 4 4v5l-5 5-7-1-6-10-5-9z" fill="#077EFF"/>
<path transform="translate(849,580)" d="m0 0 5 2-1 5-11 7h-2l1-4 6-9z" fill="#077EFF"/>
</svg>
