<?xml version="1.0" encoding="UTF-8" standalone="no"?>
<svg
   height="1391.5183"
   viewBox="-0.168 0 63.533 35.160443"
   width="2121.6309"
   version="1.1"
   id="svg3"
   sodipodi:docname="pampers.svg"
   inkscape:version="1.4 (86a8ad7, 2024-10-11)"
   xmlns:inkscape="http://www.inkscape.org/namespaces/inkscape"
   xmlns:sodipodi="http://sodipodi.sourceforge.net/DTD/sodipodi-0.dtd"
   xmlns:xlink="http://www.w3.org/1999/xlink"
   xmlns="http://www.w3.org/2000/svg"
   xmlns:svg="http://www.w3.org/2000/svg">
  <g
     id="g7"
     clip-path="none"
     transform="translate(0.40884305,-2.9266235)">
    <g
       inkscape:label="Clip"
       id="g6">
      <g
         id="g5">
        <path
           d="m 35.609,2.289 c 0.606,0.892 1.304,2.13 1.074,3.218 C 36.326,5.838 35.821,5.949 35.388,6.17 35.035,4.824 33.345,2.312 33.513,2.356 l -0.024,-0.57 c 0.815,-0.368 1.439,-0.005 2.12,0.503 m -7.742,6.978 c 0.264,0.473 -0.311,0.811 -0.716,0.981 L 26.624,10.371 23.36,8.231 23.35,7.912 c 0.309,0.206 0.503,-0.389 0.842,-0.346 1.33,-0.074 2.828,0.627 3.675,1.701 M 46.576,4.695 C 46.167,5.043 45.723,4.543 45.476,4.179 L 45.252,3.682 46.724,0.072 47.036,0 c -0.142,0.34 0.478,0.419 0.5,0.76 0.33,1.29 -0.067,2.894 -0.96,3.935 M 43.545,5.578 C 42.674,5.008 41.62,4.827 40.667,5.372 c -1.448,0.83 -2.403,2.642 -2.791,4.275 -0.052,0.21 -0.381,1.379 -0.161,1.568 -1.413,-1.217 -2.647,-2.652 -4.65,-2.48 -2.476,0.213 -4.313,2.448 -3.717,5.056 0.168,0.727 0.392,1.319 0.782,1.946 0.994,1.596 2.734,3.664 4.442,4.485 3.714,1.788 4.784,1.371 5.249,0.891 0.017,-0.017 -5.508,-1.431 -7.612,-7.881 -1.773,-5.419 6.07,2.315 5.906,2.333 0.474,-0.05 0.968,-0.075 1.273,-0.501 0,0 -0.055,-1.62 -0.015,-2.492 0.055,-1.136 0.482,-5.237 2.447,-4.242 1.155,0.588 1.38,1.998 1.369,3.205 -0.028,2.756 -0.736,5.475 -1.842,7.964 -0.321,0.722 -0.67,1.429 -0.999,2.147 -0.006,0.012 -0.224,0.476 -0.122,0.483 1.248,-0.07 2.591,-2.226 3.145,-3.305 0.945,-1.834 1.677,-3.972 1.991,-6.029 0.254,-1.668 0.473,-3.667 -0.192,-5.26 A 4.42,4.42 0 0 0 43.545,5.578 m 17.693,13.286 c -0.302,-0.23 -0.674,-0.401 -0.955,-0.531 -0.685,-0.319 -1.426,-0.5 -2.154,-0.688 a 28.812,28.812 0 0 0 -3.54,-0.689 22.808,22.808 0 0 0 -1.988,-0.171 c -2.038,-0.09 -5.076,-0.083 -6.717,1.388 -0.847,0.76 -1.161,1.479 -0.631,2.424 1.543,-2.667 7.992,-1.598 8.98,-1.514 1.497,0.13 2.939,0.394 4.375,0.835 0.396,0.119 0.791,0.238 1.196,0.324 0.453,0.097 0.954,0.147 1.392,-0.035 0.292,-0.123 0.635,-0.388 0.521,-0.736 -0.075,-0.238 -0.255,-0.437 -0.479,-0.607 M 12.107,18.361 c 0.561,-0.393 1.228,-0.568 1.594,-0.668 2.696,-0.726 5.509,-1.203 8.314,-1.259 2.342,-0.044 5.778,0.197 7.635,1.82 0.959,0.84 1.277,1.653 0.648,2.66 -0.253,-0.429 -0.779,-0.842 -1.194,-1.1 -1.306,-0.82 -3.071,-0.926 -4.57,-0.968 -1.483,-0.04 -2.956,0.084 -4.434,0.201 -1.616,0.13 -3.21,0.377 -4.802,0.685 -1.496,0.286 -2.638,0.691 -3.322,0.353 -0.981,-0.487 -0.678,-1.164 0.131,-1.724"
           fill="#ffd520"
           id="path1" />
        <g
           fill="#1272bc"
           id="g3">
          <path
             d="m 6.225,19.223 c -0.877,-0.94 -2.351,-0.538 -2.715,0.655 0,0 -0.068,5.392 -0.067,5.394 0.009,0.084 0.642,-0.136 1.446,-0.89 1.065,-0.999 2.217,-3.19 1.635,-4.676 A 1.506,1.506 0 0 0 6.225,19.223 m 2.733,-0.251 c 1.147,2.046 0.522,4.504 -0.9,6.212 -2.146,2.578 -4.441,3.04 -4.444,3.139 0,0 -0.292,8.023 -0.783,7.871 0,0 -1.756,-0.118 -2.488,-0.854 -0.511,-0.51 -0.257,-10.942 -0.329,-14.151 -0.063,-2.753 0.128,-2.987 0.128,-2.987 1.363,-2.199 4.582,-2.494 6.709,-1.28 0.855,0.487 1.623,1.185 2.107,2.05 m 34.329,5.877 c 0.382,-0.94 1.373,-1.047 1.985,-0.336 0.273,0.316 0.47,0.737 0.546,1.146 0.135,0.733 -0.03,1.005 -0.03,1.005 -0.242,0.296 -2.771,1.312 -2.865,1.256 -0.133,-0.079 -0.044,-2.06 0.364,-3.071 m 3.813,5.487 c -0.668,-0.13 -0.601,0.558 -1.699,1.511 -1.492,1.295 -2.618,0.382 -2.578,-1.626 -0.125,-0.204 4.866,-2.097 5.034,-2.683 0.603,-2.103 -0.063,-5.122 -2.638,-5.686 -0.535,-0.115 -1.113,-0.163 -1.777,-0.007 -3.312,0.79 -4.509,9.354 -2.219,12.155 2.311,2.818 6.452,0.139 7.326,-3.026 0,0.001 -0.574,-0.472 -1.449,-0.638 M 30.227,27.475 c -0.016,-0.95 -0.082,-1.948 -0.371,-2.876 -0.208,-0.674 -0.494,-1.349 -0.969,-1.881 -0.396,-0.445 -1.063,-0.803 -1.664,-0.868 -1.289,-0.139 -2.79,2.26 -2.79,2.26 -0.141,-0.057 -0.535,-2.328 -1.879,-2.328 -1.038,0 -2.324,2.407 -2.324,2.407 -0.001,-0.002 -0.074,-2.102 -0.136,-2.587 -0.063,-0.483 -2.28,-0.505 -2.425,0.205 -0.026,2.056 -0.692,11.031 0.395,12.477 0.214,0.287 2.245,1.602 2.222,0.746 -0.016,-0.611 0.057,-6.139 0.421,-8.228 0.127,-0.725 0.433,-2.187 1.558,-1.953 1.089,0.228 0.503,6.321 0.822,8.368 0.054,0.357 0.142,1.031 0.343,1.344 0.185,0.287 1.878,0.933 1.878,0.486 0,-0.612 0.146,-6.778 0.186,-7.521 0.044,-0.866 -0.032,-2.045 0.729,-2.657 0.66,-0.529 1.27,0.208 1.346,0.884 0.213,1.846 0.033,3.702 0.121,5.552 0.043,0.897 0.113,2.95 0.403,3.24 0.245,0.246 2.139,1.104 2.139,0.442 -0.002,-2.523 0.044,-4.568 -0.005,-7.512"
             id="path2" />
          <path
             d="m 35.32,30.988 c -0.683,0.577 -1.242,0.599 -1.242,0.599 0,-0.003 0.103,-6.926 0.105,-6.935 0.017,-0.098 0.461,-0.458 1.121,-0.389 0.413,0.046 0.792,0.272 1.063,0.609 1.261,1.58 0.322,4.958 -1.047,6.116 m 3.628,-7.189 c -1.591,-2.792 -5.396,-2.292 -7.489,-0.184 -0.304,0.305 -0.481,15.883 0.254,16.897 0.211,0.29 2.224,0.927 2.214,0.073 -0.003,-0.251 0.021,-3.575 0.051,-6.319 0.487,0.229 3.436,-0.599 4.664,-3.242 1.034,-2.23 1.455,-5.208 0.306,-7.225 M 11.963,31.11 c -0.137,0.181 -0.597,0.681 -1.033,0.966 -0.461,0.299 -0.896,0.364 -0.902,-0.419 -0.004,-0.561 0.225,-1.188 0.438,-1.699 0.434,-1.037 1.616,-2.445 2.893,-2.3 -0.002,0 -0.031,1.622 -1.396,3.452 m 3.843,-7.858 c -0.511,-1.044 -1.348,-1.754 -2.697,-1.813 -1.347,-0.06 -2.907,0.354 -3.55,1.659 a 1.062,1.062 0 0 0 -0.105,0.31 1.12,1.12 0 0 0 0.106,0.793 c 0,0 0.625,0.974 0.967,0.711 0.428,-0.328 0.82,-0.705 1.254,-1.026 0.485,-0.355 1.697,-1.144 2.171,-0.309 0.217,0.383 0.2,1.062 0.157,1.487 a 9.064,9.064 0 0 1 -0.056,0.398 c -3.263,0.26 -6.66,2.639 -6.916,6.013 -0.105,1.37 0.214,3.08 1.679,3.593 1.556,0.538 2.953,-0.697 3.861,-1.812 0.524,-0.647 0.984,-1.345 1.465,-2.028 0,0 -0.079,3.121 -0.053,3.551 0.123,0.918 1.531,0.013 1.753,-0.085 0.477,-0.211 0.51,-2.474 0.515,-2.701 0.047,-2.051 0.639,-6.305 -0.551,-8.741 m 39.708,-0.707 a 1.004,1.004 0 0 0 -0.33,-0.429 c -0.427,-0.319 -1.019,-0.233 -1.491,-0.069 -0.895,0.313 -1.605,0.985 -2.123,1.764 a 3.715,3.715 0 0 0 -0.259,0.462 c 0.048,-0.712 0.097,-1.932 -0.106,-2.212 -0.307,-0.418 -2.393,-0.112 -2.439,0.229 -0.02,0.148 0.599,10.948 0.643,11.263 0.103,0.729 -0.053,1.336 0.729,1.587 0.318,0.103 1.467,0.616 1.514,-0.174 0.026,-0.436 -0.051,-3.578 -0.051,-3.578 -0.075,-1.808 0.096,-3.697 1.028,-5.288 0.579,-0.99 1.593,-2.051 2.784,-2.234 0.11,-0.017 0.151,-0.28 0.168,-0.37 0.056,-0.314 0.053,-0.658 -0.067,-0.951 m 6.38,7.222 c -0.514,-0.822 -1.231,-1.426 -1.867,-2.143 -0.779,-0.876 -1.882,-2.117 -1.232,-3.289 0.338,-0.609 0.985,-0.845 1.636,-0.511 0.882,0.45 0.711,1.421 0.305,2.055 -0.042,0.063 0.431,0.089 0.446,0.089 0.219,-0.003 0.413,-0.028 0.594,-0.147 1.121,-0.731 0.782,-2.529 -0.121,-3.4 a 3.15,3.15 0 0 0 -1.408,-0.759 c -2.312,-0.541 -5.106,1.259 -4.257,3.804 0.312,0.925 0.835,1.751 1.483,2.475 0.686,0.762 1.896,1.653 2.045,2.732 0.133,0.992 -0.871,1.654 -1.725,1.751 -1.03,0.113 -1.969,-0.618 -2.314,-1.566 -0.18,-0.493 -0.375,-0.557 -0.689,-0.124 -0.617,0.849 -0.28,2.204 0.431,3.03 a 2.9,2.9 0 0 0 0.177,0.191 c 1.307,1.321 3.782,1.86 5.431,0.876 1.836,-1.097 2.187,-3.27 1.065,-5.064"
             id="path3" />
        </g>
      </g>
    </g>
  </g>
  <defs
     id="defs3">
    <clipPath
       clipPathUnits="userSpaceOnUse"
       id="clipPath9">
      <g
         inkscape:label="Clip"
         id="use9">
        <use
           x="0"
           y="0"
           xlink:href="#g6"
           id="use10"
           transform="translate(5.0207529,-0.23172706)" />
      </g>
    </clipPath>
  </defs>
  <sodipodi:namedview
     id="namedview3"
     pagecolor="#ffffff"
     bordercolor="#000000"
     borderopacity="0.25"
     inkscape:showpageshadow="2"
     inkscape:pageopacity="0.0"
     inkscape:pagecheckerboard="0"
     inkscape:deskcolor="#d1d1d1"
     inkscape:zoom="0.518"
     inkscape:cx="1074.3243"
     inkscape:cy="726.83398"
     inkscape:window-width="1920"
     inkscape:window-height="1129"
     inkscape:window-x="2552"
     inkscape:window-y="227"
     inkscape:window-maximized="1"
     inkscape:current-layer="svg3" />
</svg>
