<svg width="300" height="108.66" version="1.1" xmlns="http://www.w3.org/2000/svg">
  <g fill="#0079C1">
    <path d="m292.61 33.815c-3.2368-3.1285-7.7734-4.715-13.482-4.715-5.6325 0-10.864 1.9306-15.566 5.7472v-28.762h-11.144v70.419h11.144v-30.858c4.2754-4.9125 8.7674-7.4038 13.361-7.4038 3.3005 0 5.7154 0.77734 7.1936 2.3193 1.4846 1.5547 2.2364 4.1416 2.2364 7.6969v28.245h11.144v-30.265c0-5.11-1.6439-9.2898-4.887-12.425m-60.871 2.2677c-2.0071-1.9306-4.3454-3.5044-6.9769-4.6831-3.3833-1.5292-6.9068-2.3002-10.469-2.3002-7.4867 0-13.871 2.383-18.981 7.0789-5.1228 4.715-7.7288 10.475-7.7288 17.121 0 6.9514 2.5295 12.871 7.5058 17.586 4.9635 4.6959 11.424 7.0789 19.204 7.0789 3.5235 0 7.047-0.77097 10.469-2.2874 2.6506-1.1788 4.989-2.7016 6.9769-4.5302v5.3585h11.144v-45.946h-11.144m0 22.931c0 4.3709-1.561 7.939-4.7787 10.902-3.1858 2.9437-7.0534 4.4347-11.482 4.4347-4.9954 0-9.0477-1.4527-12.042-4.3072-3.0202-2.88-4.492-6.4927-4.492-11.029 0-4.543 1.4782-8.1366 4.5175-10.985 3.0074-2.829 6.9833-4.2626 11.8-4.2626 4.4283 0 8.3341 1.5101 11.596 4.4856 3.2814 2.9883 4.8807 6.5118 4.8807 10.762m-57.051-17.356c-4.9826-4.664-11.45-7.0343-19.23-7.0343-3.5235 0-7.098 0.79645-10.628 2.3639-2.6952 1.1979-5.0145 2.6888-6.926 4.441v-5.3458h-11.138v66.845h11.138v-26.531c2.0389 1.9497 4.4028 3.5363 7.0534 4.7469 3.4088 1.5547 6.9387 2.3448 10.5 2.3448 7.493 0 13.884-2.3957 19.007-7.1171 5.1483-4.7469 7.7543-10.526 7.7543-17.172 0-6.9578-2.5359-12.858-7.5313-17.541m-3.8803 17.35c0 4.543-1.491 8.1493-4.5685 11.029-3.0456 2.8609-7.0343 4.3136-11.858 4.3136-4.4283 0-8.3277-1.5228-11.59-4.5302-3.2878-3.0265-4.887-6.5628-4.887-10.813 0-4.3709 1.5738-7.9199 4.7978-10.851 3.2113-2.9118 7.1044-4.3901 11.577-4.3901 4.9954 0 9.0413 1.4336 12.036 4.2626 3.0265 2.8481 4.492 6.4417 4.492 10.978"/>
    <path d="m106.09 41.959c0-21.791-17.662-39.459-39.447-39.459-12.119 0-22.199 8.7546-24.263 20.287-3.0202-2.3129-6.7603-3.6828-10.813-3.6828-16.057 0-29.067 13.444-29.067 30.029 0 23.072 15.509 42.403 36.337 47.488 1.491 0.36318 3.2878 1.0704 4.9125 1.8541 0.87928 0.41416 1.3826 1.6821 0.55433 2.6888v6e-3c-0.42053 0.50336-0.68176 1.1596-0.68176 1.886 0 1.5865 1.2488 2.88 2.7844 2.88 0.14018 0 0.28035-0.0191 0.41416-0.0382 33.145-2.4722 59.269-30.151 59.269-63.939m-39.816 44.767c-11.361-15.547-18.07-34.713-18.07-55.446h0.01911c0-10.214 8.0155-18.497 17.904-18.497 15.827 0 28.647 13.253 28.647 29.596 0 19.95-11.756 37.057-28.5 44.34zm39.043-84.149c-0.36318 0-0.67539 0.19752-0.84743 0.49062l-1.4718 2.829 2.8099-1.4782c0.29309-0.17203 0.49698-0.49062 0.49698-0.8538 0-0.54796-0.44601-0.9876-0.9876-0.9876m-88.009 14.771-6.3907-12.348c-0.73274-1.4336-2.2237-2.4212-3.944-2.4212-2.4531 0-4.441 1.9879-4.441 4.4347 0 1.663 0.91751 3.1094 2.2683 3.8739m100.3 92.006-4.7915-2.4977 2.4977 4.8233c0.28673 0.56071 0.86017 0.94301 1.5292 0.94301 0.94938 0 1.7203-0.77734 1.7203-1.7267 0-0.68176-0.38867-1.2616-0.95574-1.5419m-93.522-5.7823-7.5822 3.9186c-0.87291 0.45238-1.4591 1.3699-1.4591 2.4148 0 1.4973 1.2106 2.7143 2.7079 2.7143 1.0449 0 1.9497-0.59256 2.4021-1.4591"/>
  </g>
</svg>
