<svg width="177" height="54" viewBox="0 0 177 54" fill="none" xmlns="http://www.w3.org/2000/svg">
<path d="M146.421 44.9873H153.746V13.204L163.069 44.9873H177.001V8.98767H169.676V40.771L160.353 8.98767H146.421V44.9873ZM93.5081 8.98767L99.5007 44.9873H113.484L117.941 13.204L122.397 44.9873H136.381L142.374 8.98767H134.792L129.516 40.771L125.111 8.98767H111.025L106.518 40.8218L101.242 8.98767H93.5081ZM83.7754 21.0729C83.7754 24.0558 81.6241 26.164 78.6014 26.164H74.5547V15.9807H78.6014C81.6241 15.9807 83.7754 18.0888 83.7754 21.0718V21.0729ZM67.2305 8.98767V44.9873H74.5558V33.1592H78.9607C86.029 33.1592 91.1008 27.8618 91.1008 21.074C91.1008 14.2862 86.03 8.98875 78.9607 8.98875H67.2305V8.98767Z" fill="#051E6E"/>
<path d="M53.7837 0H0V54H53.7837V0Z" fill="#051E6E"/>
<path d="M34.0658 39.5507L31.3196 32.0846H25.8186L22.0936 39.5507C22.0839 39.5507 22.0839 39.5507 22.0731 39.5507L19.3248 29.7292L23.8964 28.148C28.4777 26.7592 31.4208 22.626 31.225 18.0317C31.1906 17.1893 31.0486 16.3361 30.7947 15.4915C29.1586 10.0472 23.4167 6.95412 17.9942 8.5968C12.5706 10.2395 9.49099 16.0056 11.126 21.451L17.8694 45.0004H24.9742L28.3002 38.1208C28.3099 38.1208 28.311 38.1208 28.3196 38.1208L30.9453 45.0004H37.2692L42.6981 32.0836H37.0767L34.0841 39.5496C34.0744 39.5496 34.0734 39.5496 34.0637 39.5496L34.0658 39.5507ZM17.8511 24.7158L16.3549 19.8385C15.5815 17.2649 17.0379 14.54 19.6002 13.7646C19.9971 13.6436 20.3983 13.5778 20.7952 13.5605C22.9574 13.4687 24.9958 14.8478 25.6498 17.023C26.0456 18.3416 25.8584 19.7899 25.1453 20.966C24.5935 21.8786 23.7265 22.5428 22.768 22.9781C22.6519 23.031 22.5346 23.0807 22.4163 23.1271C22.0215 23.2826 21.616 23.4122 21.2191 23.5613C20.5812 23.8 17.8511 24.7158 17.8511 24.7158Z" fill="white"/>
<path d="M38.6511 23.2708H33.2168V24.516C33.2168 26.9806 35.2068 28.9786 37.6615 28.9786H43.0958V27.7333C43.0958 25.2688 41.1058 23.2708 38.6511 23.2708Z" fill="white"/>
</svg>
