<svg version="1.1" id="Layer_1" xmlns:x="ns_extend;" xmlns:i="ns_ai;" xmlns:graph="ns_graphs;" xmlns="http://www.w3.org/2000/svg" xmlns:xlink="http://www.w3.org/1999/xlink" x="0px" y="0px" viewBox="0 0 90.2 62" style="enable-background:new 0 0 90.2 62;" xml:space="preserve">
 <metadata>
  <sfw xmlns="ns_sfw;">
   <slices>
   </slices>
   <sliceSourceBounds bottomLeftOrigin="true" height="62" width="90.2" x="0.3" y="-147.6">
   </sliceSourceBounds>
  </sfw>
 </metadata>
 <g>
  <g>
   <g>
    <path d="M52.2,26.7l-0.4,1.2h-1.6c6.2-16.2-5-23.6-5-23.6C41.3,3.9,38.5,5,38.5,5c4.5,4,5.9,7.3,5.9,7.3l-0.6,0.2
				c-4.4-5.2-7.9-6.3-7.9-6.3c-2.8,1.5-4.7,4-4.7,4c5.3,2.8,7.3,5.3,7.3,5.3L38,15.6c-3.1-2.4-8.3-3.5-8.3-3.5
				c-2,3.5-2.1,6.1-2.1,6.1c0.5,0.1,3.1,0.7,4.8,1.5c5.3,2.1,5.6,7.4,5.6,8h-1.3l-2.8-1.2c-0.1,0-0.1,0-0.2,0l-5,0
				c1.3,3,3.3,4.9,3.3,4.9l2.2,0c0.1,0,0.1,0,0.2,0l2.4-1.2h15l0.4,1.2c3.2-0.3,5-2.4,5-2.4S55.4,26.9,52.2,26.7z M46.5,26
				c-1.1,0-2-0.9-2-2c0-1.1,0.9-2,2-2c1.1,0,2,0.9,2,2C48.5,25.1,47.6,26,46.5,26z">
    </path>
   </g>
   <g>
    <path d="M43.7,1.8c10.2,0,18.5,8.3,18.5,18.5s-8.3,18.5-18.5,18.5s-18.5-8.3-18.5-18.5S33.4,1.8,43.7,1.8 M43.7,0
				C32.5,0,23.4,9.1,23.4,20.3s9.1,20.3,20.3,20.3c11.2,0,20.3-9.1,20.3-20.3S54.8,0,43.7,0L43.7,0z">
    </path>
   </g>
  </g>
  <g>
   <path d="M47.2,49.4h-7.1c-2.5,0-4.6,2.1-4.6,4.6v3.5c0,2.5,2.1,4.6,4.6,4.6h7.1c2.5,0,4.6-2.1,4.6-4.6v-3.5
			C51.8,51.4,49.8,49.4,47.2,49.4z M48.7,57.7c0,0.8-0.6,1.4-1.4,1.4h-7.2c-0.8,0-1.4-0.6-1.4-1.4v-4.1c0-0.8,0.6-1.4,1.4-1.4h7.2
			c0.8,0,1.4,0.6,1.4,1.4V57.7z">
   </path>
   <g>
    <path d="M66.1,49.4h-11V62h11c2.5,0,4.6-2.1,4.6-4.6v-3.5C70.7,51.4,68.6,49.4,66.1,49.4z M67.6,57.7c0,0.8-0.6,1.4-1.4,1.4h-8
				v-7h8c0.8,0,1.4,0.6,1.4,1.4V57.7z">
    </path>
   </g>
   <polygon points="15,49.3 4.6,49.3 6.2,52 13.3,52 		">
   </polygon>
   <path d="M12.2,54.2H3.9c-0.3,0-0.6-0.3-0.6-0.6v-4.2H3.1c-1.5,0-2.7,1.2-2.7,2.7v2.1l0,0c0,1.5,1.2,2.7,2.7,2.7h0.3h8.9v1.8
			c0,0.3-0.3,0.6-0.6,0.6h-10L0,62h12.2h0.4c1.4,0,2.5-1.1,2.5-2.5v-0.2v-2.4v-0.2c0-1.4-1.1-2.5-2.5-2.5H12.2z">
   </path>
   <polygon points="34.8,49.4 30.6,49.4 25.7,54.2 21.5,54.2 21.5,49.4 18.4,49.4 18.4,62 21.5,62 21.5,57.1 25.5,57.1 30.6,62 
			34.8,62 28.2,55.8 		">
   </polygon>
   <path d="M90.2,62l-7-12.6h-3.5l0,0l-0.8,0L71.8,62l3.4,0l2.7-4.7l1.5,2.4h6l1.3,2.3H90.2z M78,57.1l3-5.3l3,5.3H78z">
   </path>
  </g>
 </g>
</svg>