<svg version="1.1" id="Layer_1" xmlns:x="ns_extend;" xmlns:i="ns_ai;" xmlns:graph="ns_graphs;" xmlns="http://www.w3.org/2000/svg" xmlns:xlink="http://www.w3.org/1999/xlink" x="0px" y="0px" viewBox="0 0 42 42" style="enable-background:new 0 0 42 42;" xml:space="preserve">
 <metadata>
  <sfw xmlns="ns_sfw;">
   <slices>
   </slices>
   <sliceSourceBounds bottomLeftOrigin="true" height="42" width="42" x="500.72" y="-288.79">
   </sliceSourceBounds>
  </sfw>
 </metadata>
 <g>
  <g>
   <path d="M19.03,22.59l5.1,0v-1.7h-0.56c0,0.65-0.48,1.13-1.2,1.13h-0.78v-2.54h0.85v-0.56l-3.4,0l0,0.56h0.86l0,2.54h-0.86V22.59z
			">
   </path>
   <polygon points="26.58,22.59 28.56,22.6 30.24,19.48 31.09,19.48 31.09,18.92 28.55,18.92 28.55,19.48 29.28,19.48 28.06,21.75 
			26.81,19.48 27.7,19.48 27.7,18.92 24.02,18.92 24.02,19.48 24.86,19.48 		">
   </polygon>
   <polygon points="8.88,18.92 5.19,18.92 5.19,19.48 6.04,19.48 7.75,22.59 9.73,22.6 11.42,19.48 12.26,19.48 12.26,18.92 
			9.72,18.92 9.72,19.48 10.45,19.48 9.23,21.75 7.99,19.48 8.88,19.48 		">
   </polygon>
   <path d="M12.75,20.76c0,1.08,0.87,1.94,2.62,1.94c1.75,0,2.61-0.86,2.61-1.94c0-1.07-0.92-1.92-2.62-1.92
			C13.66,18.84,12.75,19.69,12.75,20.76z M16.27,20.77c-0.01,0.67-0.29,1.36-0.93,1.35c-0.62-0.01-0.9-0.7-0.89-1.38
			c0.01-0.71,0.35-1.33,0.93-1.32C15.98,19.43,16.29,20.06,16.27,20.77z">
   </path>
   <path d="M31.57,20.76c0,1.08,0.87,1.94,2.62,1.94c1.75,0,2.61-0.86,2.61-1.94c0-1.07-0.92-1.92-2.62-1.92
			C32.48,18.84,31.57,19.69,31.57,20.76z M34.22,19.42c0.58,0.01,0.89,0.64,0.88,1.35c-0.01,0.67-0.29,1.36-0.93,1.35
			c-0.62-0.01-0.9-0.7-0.89-1.38C33.29,20.03,33.63,19.41,34.22,19.42z">
   </path>
  </g>
  <g>
   <g>
    <path d="M38.28,9.07l-2.13,2.13c1.83,2.82,2.89,6.19,2.89,9.8c0,9.96-8.08,18.04-18.04,18.04S2.96,30.96,2.96,21
				S11.04,2.96,21,2.96c3.62,0,6.99,1.07,9.82,2.91l2.13-2.13C29.56,1.38,25.44,0,21,0C9.4,0,0,9.4,0,21s9.4,21,21,21s21-9.4,21-21
				C42,16.57,40.63,12.46,38.28,9.07z">
    </path>
   </g>
   <path d="M31.56,0.83l0,0.59c1.27,0.69,2.47,1.5,3.58,2.42l-2.99,2.99c1.13,0.89,2.15,1.9,3.04,3.03l2.99-2.99
			c0.92,1.11,1.73,2.31,2.42,3.57l0.57,0V0.83H31.56z">
   </path>
  </g>
 </g>
</svg>