<?xml version="1.0" encoding="UTF-8"?>
<svg version="1.1" viewBox="0 0 2048 761" width="1159" height="431" xmlns="http://www.w3.org/2000/svg">
<path transform="translate(0)" d="m0 0h2048v761h-2048z" fill="#E50F17"/>
<path transform="translate(827,94)" d="m0 0h123l3 8 23 91 53 212 2-21 3-32 4-22 23-90 21-81 16-62 2-3h120v510l-1 1h-92l-1-4v-322l-19 74-26 103-19 74-18 71-2 4h-36l-3-7-80-320-1 327h-94l-1-1z" fill="#FDFEFD"/>
<path transform="translate(619,85)" d="m0 0h20l21 3 17 5 19 9 12 8 10 9 8 7 9 11 10 14 14 27 8 21 7 23 6 27 4 26 3 33 1 20v43l-2 34-4 33-7 36-8 27-8 20-8 16-8 14-10 14-14 15-12 10-18 11-15 6-18 5-16 2h-25l-19-3-20-6-16-8-12-8-14-12-11-12-12-17-14-27-9-24-7-25-5-24-4-27-3-34-1-28v-20l1-28 3-33 5-32 6-27 11-33 8-18 10-18 10-14 9-10 5-6 11-9 15-10 17-8 17-5 12-2z" fill="#FDFEFD"/>
<path transform="translate(0)" d="m0 0h2048v761h-1l-1-647-2-14-4-12-7-13-8-10-7-7-14-10-16-9-19-8-21-7-28-7-27-5-37-5-35-3-40-2h-1514l-40 2-44 4-40 6-28 6-28 8-20 8-16 8-14 9-13 11-10 13-8 16-3 13-1 8-1 646 18-10 15-7 27-9 31-7 38-6 45-5 54-4 61-3 68-2 70-1h1093l87 1 77 2 72 3 64 4 57 5 50 6 41 7 31 7 27 9 16 8 3 3h-2046z" fill="#FDFEFD"/>
<path transform="translate(1647,94)" d="m0 0h111l2 6 29 138 25 119 30 143 19 90 6 28v2l-16-1-53-5-28-2-3-13-11-69 5-5 16-9 10-4-139-1-2 16-12 74-1 5h-28l-66-1-1-2 21-102 21-100 27-130 19-91 17-81z" fill="#FDFDFC"/>
<path transform="translate(1271,94)" d="m0 0h237v80l-18 48-33 87h54l-3 10-18 44-10 25-2 2-86 1 14 6 13 9-1 6-16 42-22 58-3 7h136l1 2-17 83-1 1h-225l-1-2v-78l4-13 17-46 15-40 13-35-50-1-1-2 20-49 11-28 2-2 49-1 15-40 19-51 13-35 1-3h-127l-1-1v-83z" fill="#FDFDFC"/>
<path transform="translate(232,94)" d="m0 0h96l1 1v185l23-13 35-21h3v93l-5 4-29 17-27 16-36 21 8-1h24l4 2v127l22-2 48-3 56-2 1 1v86l-1 1-98 3-60 3-54 4h-11l-1-184-26 15-7 4h-2v-93l3-3 24-14 8-5z" fill="#FDFDFC"/>
<path transform="translate(620,172)" d="m0 0h16l10 4 9 7 8 10 8 16 6 19 5 23 4 30 2 30v75l-2 30-3 26-5 25-6 20-6 14-8 12-7 7-8 5-14 3-13-2-9-5-10-10-8-13-7-18-6-24-4-25-3-31-1-21v-59l2-34 4-33 5-24 7-21 8-16 11-12 9-6z" fill="#E60F17"/>
<path transform="translate(1702,186)" d="m0 0 2 3 17 100 23 135v1h-82l2-16 25-147z" fill="#E60F17"/>
<path transform="translate(282)" d="m0 0h1766v761h-1l-1-647-2-14-4-12-7-13-8-10-7-7-14-10-16-9-19-8-21-7-28-7-27-5-37-5-35-3-40-2-1499-1z" fill="#FCEDE9"/>
<path transform="translate(750,153)" d="m0 0 5 5 7 10 8 14 10 21 7 19 6 19 5 22 5 32 2 19 1 16 1 36v24l-2 33-3 28-5 28-7 27-8 24-9 20-9 17-11 16-11 12-9 9-15 11-16 8-13 5-21 4-12 1h-19l-18-2-19-5-19-9-14-9-1-3 6 1 8 4 17 5 8 2 17 2h34l16-3 18-6 17-9 13-10 10-9 9-10 12-17 9-16 11-26 8-25 6-26 3-21 2-23 1-24 1-61-2-36-3-27-6-31-6-24-7-21-9-21-9-17z" fill="#BB2822"/>
<path transform="translate(1228,112)" d="m0 0h8l3 3v505l-1 3h-75l-17-1-1-4 4-5 4-1 30-1h37l5-2v-64l1-415 1-16z" fill="#BB2822"/>
<path transform="translate(0)" d="m0 0h282v1l-55 3-44 4-40 6-28 6-28 8-20 8-16 8-14 9-13 11-10 13-8 16-3 13-1 8-2-4z" fill="#FDFDFB"/>
<path transform="translate(1774,112)" d="m0 0 4 2 22 105 10 48 28 133 13 63 13 61 18 85 5 26v4h-11l-47-5-36-3-3-2-1-9 1-1h12l25 2 36 4 11 1-2-11-8-36-9-44-11-53-6-27-8-40-6-27-16-76-12-58-9-42-8-39-10-47-1-12z" fill="#BB2822"/>
<path transform="translate(931,319)" d="m0 0 4 3 10 40-2 18-1 92-1 150-7 2-68-1-19-1-1-3 3-5 4-2 17-1h46l10-2 1-2 1-18v-27l-1-135v-48l1-25v-12l1-21z" fill="#BB2721"/>
<path transform="translate(629,179)" d="m0 0h15l9 5 3 4v3l-16 1-8 3-9 6-9 10-8 16-7 21-6 30-3 25-2 36v60l2 32 4 33 5 24 8 24 2 5-4-1-8-10-8-16-6-21-4-23-2-16-3-51v-53l2-30 3-26 4-22 7-25 7-16 7-12 7-8 14-7z" fill="#BB2822"/>
<path transform="translate(1702,186)" d="m0 0 2 3 11 65-1 4-2 7-15 88-12 67-2 4-4 1h-17l2-16 25-147z" fill="#BB2721"/>
<path transform="translate(1125,324)" d="m0 0h1v48l-3 16-5 15-16 64-12 46-14 55-11 43-3 11-3 2-35-1-2-5v-5l1-1h26l4-18 8-30 14-54 20-79 18-71 9-33 3-1z" fill="#BB2822"/>
<path transform="translate(464,537)" d="m0 0h10l1 1v85l-2 2-84 2-47 2-49 3-19 2-23 1-1-1 1-10 5-2 9-2 37-3 50-3 32-1 16-1h47l13-2 1-3 1-54 1-15z" fill="#BB2822"/>
<path transform="translate(1678,515)" d="m0 0h64l14 2 4 2v3l6 1-4 4-4 3h-68l-20 1-4 21-11 65-2 8h-39l-51-1-3-1-1-3 3-8 8-1h40l31 1 6-37 9-55 1-2z" fill="#BB2721"/>
<path transform="translate(1519,538)" d="m0 0h13v7l-14 68-2 9-2 2-55-1h-156l-14-1 1-7 6-3 25-1h151l31 1 2-14 6-28 6-27z" fill="#BB2822"/>
<path transform="translate(1516,112)" d="m0 0h7l4 2v73l-2 10-14 38-19 50-8 21-3 2-13-1 1-6 6-17 21-55 14-37 3-9 1-16v-26l1-28z" fill="#BB2822"/>
<path transform="translate(967,112)" d="m0 0 3 2 5 19 18 71 16 64 16 63 7 31 1 1-1 16-6-3-4-9-7-31-53-212-1-10z" fill="#BB2721"/>
<path transform="translate(403,266)" d="m0 0h6v92l-4 4-17 10-16 9-27 16-11 6h-3l-1-5h-2l-3-3-3-1 1-4 22-13 20-12 21-12 8-5 1-4v-55l1-18 3-3z" fill="#BB2721"/>
<path transform="translate(1514,328)" d="m0 0 15 1-1 6-12 29-15 37-3 7-2 1h-60l-15-1-3-2-2-5 1-4 1-1h68l2-6 11-27 14-34z" fill="#BB2822"/>
<path transform="translate(337,112)" d="m0 0h8l3 2v151l-5 4-2 1h-6l-1-5v-117l1-25 1-10z" fill="#BB2822"/>
<path transform="translate(1702,186)" d="m0 0 2 3 5 31-4 2-1 2-4 26-9 52-6 34-8 49-5 25-1 14h5v1h-14l2-16 25-147z" fill="#E50F17"/>
<path transform="translate(1425,418)" d="m0 0 5 1 7 6-1 8-15 39-16 42-2 5h-16l7-21 15-40 15-39z" fill="#BB2822"/>
<path transform="translate(336,415)" d="m0 0h9l3 1v107l-2 1h-10l-3-24 2-77z" fill="#BB2822"/>
<path transform="translate(1340,185)" d="m0 0h17l35 2 2 3-1 6-2 2h-58l-43-1-1-1v-5l5-4 9-1z" fill="#BB2721"/>
<path transform="translate(1291,396)" d="m0 0h22l1 1-1 7-1 3-4 2-19 1-2-4z" fill="#BB2822"/>
<path transform="translate(227,445)" d="m0 0h4v16l-5 4-7 4h-4v-15l4-4z" fill="#BB2822"/>
</svg>
