<svg version="1.1" id="Layer_1" xmlns="http://www.w3.org/2000/svg" xmlns:xlink="http://www.w3.org/1999/xlink" x="0px" y="0px" viewBox="0 0 153.6 62" style="enable-background:new 0 0 153.6 62;" xml:space="preserve">
 <style type="text/css">
  .st0{fill:#006420;}
 </style>
 <g>
  <path class="st0" d="M26.4,50.5l1.2-6.2c19.6,12.4,44.7,12.4,64.3,0l1.2,6.2C73.5,65.8,45.9,65.8,26.4,50.5z M103.9,21.9
		c2.2,0.4,4.6,0.2,6.6-1c1.6-1,2.6-2.6,3-4.4c0.4-1.8,0.6-3.4,0.8-5.2h7.6c0,0.8,0,1.8,0,2.8c-0.2,2.4-0.8,4.6-1.8,6.6
		c-0.8,1.6-2.2,3-3.6,4c-0.4,0.2-0.8,0.6-1.2,0.8c0.4,0.6,0.8,1.4,1,2c2,3.6,4,7,6.2,10.6c0.2,0.4,0.4,0.8,0.6,1.2
		c0.2,0.4,0.2,0.8,0.2,1.2h-8.4l-6.6-12l-4.4,0.4v11.8h-8.2V1.1h8.2V21.9L103.9,21.9z M24.4,11.1c0,0.4-0.2,0.8-0.4,1.4
		c-1.4,2.4-2.8,4.8-4.2,7.2c-2.6,4.4-5.2,8.8-7.6,13.2c0,0.2-0.2,0.4-0.2,0.6c2.2,0,4.2,0,6.2,0s4,0,6.2,0v7.2H0
		c0-0.4,0.2-0.8,0.4-1.2c1.2-2.2,2.4-4.2,3.6-6.2s2.2-3.8,3.4-5.8c1.6-2.8,3.2-5.6,4.8-8.2c0.2-0.2,0.2-0.4,0.4-0.8c-1,0-2,0-3,0
		s-2,0-2.8,0H1v-7.4H24.4L24.4,11.1z M13,8.3c-1.2,0.2-2.2-0.2-3-1c-1.2-1-1.8-2.8-1.2-4.4c0.4-1.4,1.8-2.6,3.4-2.8
		c1.4-0.4,3,0.2,4,1.2c1.2,1.2,1.4,2.8,1,4.4c-0.6,1.6-2,2.6-3.6,2.6C13.4,8.5,13.2,8.5,13,8.3L13,8.3z M89.9,20.3
		c-0.8-2.8-2.4-5.4-4.8-7.2c-2.2-1.6-4.6-2.4-7.2-2.4c-2.2-0.2-4.6,0.2-6.8,1c-0.2,0-0.6,0.2-0.8,0.2V1.1h-8.2v37.8
		c1.2,0.4,2.4,0.6,3.6,0.8c2,0.6,4,1,6.2,1.4c3.2,0.4,6.4,0,9.6-1c4.8-1.4,8.4-5.4,9-10.4C90.9,26.7,90.9,23.3,89.9,20.3z
		 M82.1,30.1c-0.6,2-2.2,3.6-4.2,4c-2.4,0.6-5,0.4-7.2-0.4c0,0-0.2,0-0.2-0.2V18.9c2.8-2,6.6-2,9.4-0.2c1,0.8,1.6,1.8,2,3
		C82.7,24.3,82.9,27.3,82.1,30.1L82.1,30.1z M54.5,13.1c-2-0.8-4.2-1.4-6.4-1.8c-3-0.6-6-0.8-9-0.6c-2.6,0.2-5.2,1.4-7.2,3.4
		c-1.8,2-3.2,4.4-3.6,7c-0.4,2-0.6,4-0.6,6c0,2.6,0.6,5,1.8,7.2c1,1.8,2.4,3.4,4.2,4.4c4,2.2,8.6,3,13,2.2c3.2-0.4,6.2-1.4,9.4-2
		v-25C55.7,13.7,55.1,13.3,54.5,13.1z M48.1,33.7c-2.8,1-5.8,1.2-8.6,0c-1.4-0.6-2.4-1.6-3-3.2c-1-3.2-1-6.4,0.2-9.6
		c0.8-2,2.8-3.4,4.8-3.6c2-0.2,4.2,0,6,1c0.2,0,0.2,0.2,0.4,0.2L48.1,33.7L48.1,33.7z M151,12.7c-2.4-0.8-4.8-1.4-7.4-1.8
		c-2.4-0.4-5-0.4-7.6,0c-4.6,0.8-8.2,4.2-9.6,8.6c-1,3.4-1.4,7-0.8,10.6c0.4,3.2,2,6.2,4.6,8.2c0.6,0.4,1.4,1,2,1.2
		c1.6,0.8,3.6,1.4,5.4,1.6c2.2,0.4,4.4,0.4,6.6,0c3.2-0.6,6.4-1.4,9.4-2V13.9C152.8,13.5,152,13.1,151,12.7L151,12.7z M145.8,33.7
		c-0.4,0.2-0.6,0.2-1,0.2c-1.6,0.4-3.2,0.6-5,0.6c-2,0-3.8-1-5-2.6c-0.6-0.8-1-1.8-1.2-2.8c-0.4-2.4-0.4-4.8,0.4-7.2
		c0.6-2.4,2.8-4.2,5.2-4.4c2.2-0.4,4.4,0,6.4,1.2L145.8,33.7L145.8,33.7z">
  </path>
 </g>
</svg>